<?xml version="1.0" encoding="utf-8" ?>
<svg baseProfile="full" height="300mm" version="1.1" viewBox="0,0,200,300" width="200mm" xmlns="http://www.w3.org/2000/svg" xmlns:ev="http://www.w3.org/2001/xml-events" xmlns:xlink="http://www.w3.org/1999/xlink"><defs /><rect fill="#222222" height="300" width="200" x="0" y="0" /><text fill="#FFFFFF" style="font-size:12px; font-family:Arial; font-weight:bold;" x="10" y="20">Over 10K Runs</text><text fill="#FFFFFF" style="font-size:4px; font-family:Arial" x="10" y="280">ATHLETE</text><text fill="#FFFFFF" style="font-size:9px; font-family:Arial" x="10" y="290">Mengke Zhang</text><text fill="#FFFFFF" style="font-size:4px; font-family:Arial" x="120" y="280">STATISTICS</text><text fill="#FFFFFF" style="font-size:3px; font-family:Arial" x="120" y="285">Number: 24</text><text fill="#FFFFFF" style="font-size:3px; font-family:Arial" x="120" y="290">Weekly: 1.5</text><text fill="#FFFFFF" style="font-size:3px; font-family:Arial" x="141" y="285">Total: 289.7 km</text><text fill="#FFFFFF" style="font-size:3px; font-family:Arial" x="141" y="290">Avg: 12.1 km</text><text fill="#FFFFFF" style="font-size:3px; font-family:Arial" x="167" y="285">Min: 10.0 km</text><text fill="#FFFFFF" style="font-size:3px; font-family:Arial" x="167" y="290">Max: 21.2 km</text><polyline fill="none" points="48.0,50.05170390361309 47.24755062050099,49.65856997361698 46.65969954278262,50.3886743462499 46.67537557153264,50.74436386960588 47.27890267798648,51.231094406080956 46.87132593077695,52.08286590633361 47.090790333117184,52.28878736110346 47.12998040495586,52.85974869531492 47.31809274983243,53.18734766939451 46.50293925539154,54.94699980747828 45.73481384714978,55.8268117448024 44.45721750489611,54.91892054798518 44.22991508818086,55.04995701027656 43.59503592422698,54.64748721130309 42.583932070549054,53.805102180864196 40.44415414760442,51.47445859297295 39.92684519922477,51.268535097144195 38.43762246897677,49.80833550209354 37.71652514696325,49.28415495786612 36.99542782494973,48.90037779579143 34.526453298494744,48.51659884084802 33.05290659698221,47.7583961233031 32.331809274997795,47.234202498642844 31.9163945133987,47.674150944905705 31.77531025474309,47.56182390604954 31.869366427177738,46.93466178274684 30.91312867408851,46.494709376012906 29.972566949712927,45.961146912603 29.870672762888717,45.72712719489209 27.809274983672367,44.62254512726213 27.652514696281287,44.69743251649197 25.645983017639082,44.0421655458922 24.235140431097534,43.97663856133295 22.51861528412701,44.33235584918293 19.297191378187563,45.305890022951644 19.163945133906964,45.22164232933574 18.427171783157974,45.436941819032654 17.470934030054195,45.502467638674716 16.122795558461803,45.3246117209128 12.0,44.07024852327595 12.039190071845951,43.98599956231192 16.052253429123084,45.22164232933574 17.502286087539687,45.436941819032654 19.022860875251354,45.18419888221979 19.39124755062221,45.25908575937501 22.173742651866633,44.38852159590897 24.282168517303944,43.95791655612993 25.810581319419725,44.03280455128697 27.58981058133213,44.65062790623051 27.785760940576438,44.60382326930994 31.92423252777371,46.953383109517745 31.76747224036808,47.515020927836304 31.93990855649463,47.60862685756001 32.30829523187276,47.21548123591492 34.58131939909799,48.51659884084802 36.689745264535304,48.80677333796484 37.504898758998024,49.09694681009569 38.41410842588084,49.74281311697996 40.0052253429094,51.27789526723063 40.98497713912366,51.905024234583834 42.67798824296915,53.842541698955756 45.59372958850872,56.042083443877345" stroke="#4dd2ff" stroke-linecap="round" stroke-linejoin="round" stroke-width="0.5"><title>2022-06-14 10.2km</title></polyline><polyline fill="none" points="94.63305949714413,51.05578980407881 94.66666666666424,50.967494481672475 94.46502364949993,50.887225910744746 94.56584515807481,50.86314532160759 94.47846651729196,50.79090350487968 93.69205875029729,50.445747135789134 92.84515807816206,51.64977364223887 93.22155837689934,53.08655167857796 93.41647996017855,53.23905712432315 93.36270848891581,53.56012014170119 93.57107294000161,53.65643876163085 93.60468010953628,53.84907560642023 92.99975105801423,55.181466030211595 92.30744336570933,55.96001985621115 90.02887727158668,54.25842715291219 88.64426188698417,52.72535325335048 88.4426188698053,52.25177917918336 88.51655464277428,52.604953366768314 88.32835449339473,52.661140006130154 88.2342544187195,52.38020636134752 87.86457555388915,52.00295084761456 87.49489668906608,51.88254972649884 85.47846651729196,50.03637343599985 84.82648742843594,49.77148330381169 83.59646502364194,49.6831863717307 82.8907144635159,49.514619194116676 81.4926562111068,48.80021096413111 80.92133432909759,48.35871911007416 80.63903410505009,48.73599413915508 80.55837689818145,48.6878314819769 80.6323126711577,48.270420407243364 80.52476972863951,48.15001290678629 77.0968384366497,46.16727313477895 76.77420960916061,46.17530053381779 75.76599452328082,45.74181967629556 74.2536718944466,45.53310571939801 73.43365695793909,45.613380391383544 70.73164052776701,46.53653254398523 69.80408264874131,46.74524352773733 68.60766741351108,46.92184464633465 67.68683096838504,46.8576261089911 64.1580781677767,45.88631359187275 59.49340303709323,44.40925070524099 58.66666666666424,44.25672614277573 59.33208862334868,44.03998014378885 58.87503111775004,44.3370022694653 59.01618122976652,44.40925070524099 64.59497137166181,46.04686203932215 65.35449340303603,46.384012587877805 67.25665919840685,46.80143484076689 67.76076674133947,47.034226945834234 68.45307443364436,46.72918885861145 68.1371670400913,46.87368074879487 68.45979586756584,46.90579001750302 69.16554642769188,46.84959878771042 69.69653970625222,46.65694280239404 69.8376898182687,46.74524352773733 73.75628578539909,45.64549023455038 74.75105800347956,45.65351769305562 75.57107294000161,45.91842331062071 76.56584515808936,46.06291686394252 78.75031117749313,47.122527198262105 80.57181976599531,48.26239324692142 80.42394822006463,48.615587434513145 80.49788399302633,48.72796703191125 80.70624844409758,48.487153389382 80.881005725656,48.463071979844244 81.44560617376555,48.856400638003834 83.09907891462353,49.699240367619495 84.92058750311116,49.89991500743781 85.85486681602924,50.48588168420247 86.49340303709323,51.2243532941211 86.56733881004038,51.16816550891963 86.90341050535062,51.42502358973434 87.36718944487075,51.946763683343306 87.5822753298562,52.09927159635117 87.8578541199895,52.02703104716056" stroke="#4dd2ff" stroke-linecap="round" stroke-linejoin="round" stroke-width="0.5"><title>2022-06-04 11.2km</title></polyline><polyline fill="none" points="141.25760762866776,49.75412788950052 141.281839854164,49.71071995715829 140.97893703549562,49.59496518073502 140.9395596690556,49.49729675984054 141.07586593746237,49.32366326971169 141.33333333333212,48.784669928096264 139.60375823868526,47.88391566342398 138.36185668209873,50.2062903225451 137.41377085963177,49.33089801742608 136.87157481419126,49.09215047231555 136.46871406535502,48.66167687653433 135.98406955547398,48.37227958141011 135.70236993410435,48.3216347835114 135.39038003086534,48.39398447005442 135.23287056514164,48.55677066187491 135.01478053569372,48.57847542438685 133.43362782219265,47.65600993051339 133.33972794839792,47.68133287052842 132.57944187351313,47.42810256132361 132.0372458280799,47.41724978863567 131.37085962698256,47.55471796843631 130.1653064086422,47.92009102610609 129.56858785585064,47.999676678908145 129.0475950077198,47.96350140692084 128.8264759500853,48.223962445143115 128.58718272332044,48.37589706388462 128.3266862992641,48.404836908812285 127.95714486047291,48.31801729486324 127.63303884448396,48.35057467792649 124.86450708176562,49.200672306302295 124.81604263076952,49.0776808664159 122.14443977002156,49.99648775438618 116.68007292104812,51.70018921807787 114.69000140233402,51.739977331842965 114.33257607628184,51.671252376741904 113.41780956387811,51.186556364318676 113.1391389706987,51.10697869996147 112.72113308091866,51.07442414342222 111.73366989202259,51.22634512170771 109.97683354368564,51.59167592713129 108.20182302622925,51.68572080071317 107.18104052728086,51.97870496747419 105.9270228579444,52.48147396624336 105.52719113729472,52.58275021136433 105.45449446079874,52.575516204567975 105.33333333333212,52.239133068509545 105.53930725003738,52.08359987615768 105.56959753189949,52.15232393880433 105.50598793998142,52.19211148605973" stroke="#4dd2ff" stroke-linecap="round" stroke-linejoin="round" stroke-width="0.5"><title>2022-05-27 12.9km</title></polyline><polyline fill="none" points="187.43257443082257,49.741404937711195 187.64535901926138,49.79787433913589 187.63747810857603,49.66611234238371 187.0306479859937,50.05198616792768 186.74693520140136,50.56020748030278 187.960595446566,51.36017913753312 188.0,52.009562197723426 186.8887915936939,54.5035221537546 186.0218914185607,55.811644632325624 185.45446584938327,55.51990688132355 184.14623467598722,54.49411112564121 183.61821366024378,54.390589745475154 182.95621716285677,53.92003638261667 180.8204903677688,51.60487480307347 179.66199649737246,50.73902534660738 178.14886164623022,49.31788319633051 177.22679509631416,48.83788926432317 175.47723292467708,48.71553742377728 174.69702276706084,48.50848005001171 173.18388791591133,47.79318694688118 172.64010507880448,47.2378893458299 172.36427320489747,47.313184154561895 172.0726795096416,47.661421752265596 171.90718038527848,47.54847998956393 171.97810858141747,47.05906389992742 171.81260945708345,46.823766670735495 168.0534150612948,44.66841285867122 166.31961471102113,44.11309424851788 164.27057793343556,43.96249872759654 162.1427320490111,44.433108818710025 159.58143607706006,45.27078814616834 157.61908931696962,45.47785363659932 156.64973730296333,45.364908887997444 152.0,44.0189720801136 156.0429071803519,45.242551902716514 157.09106830120436,45.43079334343929 159.27408056039712,45.28020022519195 161.3704028020802,44.72488572852308 162.2294220665426,44.36722356739483 164.380910682994,43.93426203683339 165.7600700525145,44.0189720801136 167.8879159369244,44.66841285867122 169.8817863397635,45.66609454101126 170.05516637475375,45.93904309037316 171.85201401049562,46.91788564284798 171.74168126093718,47.388478894674336 171.97022767074668,47.60495089019969 172.25394045530993,47.40730256900133 172.60858143604855,47.43553807241551 174.60245183888037,48.52730346908356 176.7618213660171,48.82847759073047 177.54203152363334,49.139062253569136 178.67688266199548,49.9296361257293 180.0481611208379,51.27547662289726 180.8992994746004,51.68957697993028 181.00175131348078,51.858981073179166 180.93870402801258,52.08485265705531 182.64098073553032,53.807103176717646 185.65936952716584,56.06573796317389" stroke="#4dd2ff" stroke-linecap="round" stroke-linejoin="round" stroke-width="0.5"><title>2022-05-25 10.2km</title></polyline><polyline fill="none" points="48.0,90.35972949696588 47.74978279757488,89.99554993880156 47.085143353608146,89.92084623965638 46.82710686359496,90.01422585294495 46.40486533448711,90.48112232342828 46.37358818420762,90.85463758478 46.905299739366455,91.36821828971006 46.80364900087443,92.12457674087636 46.94439617723401,93.24509495007078 46.51433536055265,94.41228512918315 45.98262380538654,95.19662759238417 45.27888792354497,95.49542274707346 44.528236316247785,95.1312660071053 44.152910512595554,95.24331440709648 44.0668983492651,94.98186790219188 42.16681146831252,93.52522210885218 40.688966116424126,91.83510704700166 39.27367506516748,90.78927253692382 37.84274543875654,89.46328459663346 36.388357949617784,88.83763495016319 34.480451781062584,88.6415348241062 32.83058210253512,87.79176218887733 32.3145091224942,87.37154169567657 32.017376194628014,87.35286517928762 31.821894005217473,87.64235070484574 31.735881841901573,87.12874665077106 30.289313640314504,86.30697346891975 29.874891398780164,85.9147606360857 27.951346655092493,84.86885057106701 26.66898349262192,84.40192212480906 24.980017376197793,84.00970017378859 23.99478714162251,84.02837745213765 22.72024326674,84.29919750957924 20.10078192876972,85.12099082578061 17.575152041725232,85.55989978886646 16.23023457864474,85.43849967255665 12.0,84.14977965754224 12.484795829746872,84.42993790662149 14.07211120766442,84.82215784615983 16.20677671590238,85.58791517479403 17.528236316247785,85.67196127504576 19.91311902693269,85.24239141246653 22.008688097295817,84.51398519453505 23.947871416159614,84.06573199601553 25.034752389226924,84.06573199601553 26.364031277160393,84.39258352874458 30.852302345789212,86.44704902568628 31.68114682884334,86.98867225919821 31.524761077351286,87.30617386972881 31.649869678527466,87.63301247802883 32.00173761948099,87.39955646226736 34.535186794091715,88.6415348241062 36.70894874022633,88.94035387656913 37.975673327549885,89.36056632566033 38.68722849695769,89.19248160458665 38.99218071241921,89.36990435563348 40.094700260633545,91.29351584174583 41.17376194613462,92.00318634856376 42.17463075587875,93.4785343155454 42.87054735013953,94.22553581742977 45.22415291053039,95.99029982621869 46.09209383146663,95.08457912858285 46.4986967854129,94.26288571382611" stroke="#4dd2ff" stroke-linecap="round" stroke-linejoin="round" stroke-width="0.5"><title>2022-05-19 10.4km</title></polyline><polyline fill="none" points="94.66666666666424,90.0794389319417 93.74579088085011,89.66005019126897 93.37900137293764,90.00488109073922 92.59859816460812,91.34691183456744 92.59079413252039,91.57058148459328 93.00440783295198,91.83152863664873 93.16048847459024,92.26022572223155 92.9419755762865,93.17352941300487 93.11366428208567,93.24808436615422 93.14488041045843,93.51834550179774 93.54288604667818,93.54630349935906 93.09025218585884,94.75780754879816 92.0835320471233,96.0158889186132 89.14921598381625,93.84452154540486 87.32307247634162,91.80357005303813 86.86263458342,91.41214887898968 86.5582773321803,91.33759225254471 84.2404798034404,89.30589802452596 83.05426692678884,88.81194638914894 81.29835970808927,88.60690898515895 79.67512103475019,87.82403416936722 78.8166775056161,87.2182330383439 78.52012428643502,87.67491430728114 78.28600332393398,87.4978341179085 78.44208396560134,87.0038715633491 74.33716308984731,84.62721756521205 74.15767035189492,84.70178030862735 73.127538116918,84.26372321747476 71.98034540069057,84.02139275479567 71.11409783943964,83.9841110813868 68.81190837488248,84.43149004025327 65.90880843991908,85.31692034821026 65.7449237661931,85.22371760929673 64.14509718911722,85.53128624458623 63.02912060120434,85.41012298088026 58.66666666666424,84.13323767294787 63.208613339105796,85.40080272240448 64.15290122117585,85.53128624458623 65.82296408701222,85.23303788797784 65.97904472867958,85.32624061623937 69.82643254571303,84.11459686388116 71.40284702653298,83.9841110813868 72.73733651275688,84.17983967703185 74.14986631983629,84.6924599694321 74.39959534649824,84.64585825744871 75.58580822314252,85.24235816556757 76.4754678806421,85.78293244950328 76.51448804105894,85.96001635177527 78.4967121901791,87.01319163915468 78.28600332393398,87.52579417330708 78.3718476768554,87.57239424435102 78.5435363827055,87.56307423226826 78.80887347352837,87.19959293235297 81.19690729097783,88.56030950348213 83.22595563261712,88.80262651829253 83.74102175013104,88.97970388284739 84.7867620492907,89.65073041705182 86.63631765301398,91.33759225254471 87.04993135343102,91.19779839477269 87.2216200592593,91.28167473810026 89.38333694629546,87.14367258900893 89.40674904255138,86.75222911500896 89.70330226173246,86.50058589241235 90.34323289254098,85.25167844213138 90.54613772671291,85.27031899203575" stroke="#4dd2ff" stroke-linecap="round" stroke-linejoin="round" stroke-width="0.5"><title>2022-05-07 10.3km</title></polyline><polyline fill="none" points="141.33333333333212,93.21280199449393 141.26562499999636,93.0697446916165 140.55729166665333,92.68411009480405 140.85416666666424,92.26737287108335 141.27083333332484,91.46498925675769 141.25000000000364,91.35302781476639 139.15624999999272,90.18985924822846 138.32291666665333,89.8290853518447 136.5520833333212,93.23768148714953 136.1354166666497,93.8783245182567 135.85416666665333,93.91564329803805 134.66666666665333,92.80228872848966 133.93749999999272,92.34201260771079 132.30729166666788,92.0745530790955 131.2552083333212,91.5582902830065 130.69270833333576,91.15398468418425 130.47395833332484,91.43388887923356 130.39062499999636,91.28460682049263 130.42708333332848,91.01092198576589 129.28645833332484,90.4448876329443 129.0416666666606,90.20229968488638 127.6979166666606,89.43098725054733 127.57291666666424,89.48074967199136 126.69791666665333,89.13863210829732 125.27604166666424,88.95202162424175 124.93749999998545,89.02666589441287 124.8125,89.26303874320365 124.53124999999272,89.16973379359843 124.57812499999636,89.1013100625205 122.13541666666424,89.88506766448336 121.97395833333576,89.84152587073186 120.98437499999636,90.03435355081456 120.28645833331757,89.97215114780556 113.59895833333212,87.96919587941738 111.95312500000364,87.57108421220255 109.86458333332848,87.31604239932858 107.86458333333212,86.94280832976074 105.33333333333212,86.05947752959037 106.08854166667152,86.38917309207318 107.63541666665697,86.88682299918219 111.23437499999636,87.50887900188172 111.37499999999636,87.50887900188172 111.93229166666424,86.7188666628499 111.55208333332484,87.37824782942698 111.55729166666424,87.52754057243146 113.28124999999272,87.86344775104226 115.57812499998909,88.55391712589699 115.94270833332484,87.95053445987287 115.83333333333212,88.44194971255638 116.00520833331393,88.6969862642436 116.49999999999272,88.76541050218657 117.55208333333212,89.17595412853188 120.4791666666606,89.99703211750239 122.1979166666606,89.87262715552788 125.20833333332848,89.02044554247186 126.3541666666606,89.05154729512287 127.05208333332484,89.23815743888917 127.6354166666606,89.50563086570037 127.73958333331757,89.43720755570394 129.10416666666788,90.18985924822846 129.1927083333212,90.37024530221606 130.4427083333212,91.01092198576589 130.35937499999272,91.3343675520955 130.43749999999272,91.43388887923356 130.7187499999818,91.19130532645067 132.36458333332848,92.11187309199522 133.66145833333212,92.25493290505983 134.24999999999636,92.50373168696387 135.8229166666606,93.90942350316982 136.10416666666788,93.940522470406 136.24479166666788,93.82234630072344 136.46874999999272,93.34341920449151" stroke="#4dd2ff" stroke-linecap="round" stroke-linejoin="round" stroke-width="0.5"><title>2022-04-20 14.4km</title></polyline><polyline fill="none" points="187.8454603992286,96.16392087432178 188.0,96.97261495111161 187.94591113975184,98.38781034565909 186.82549903413747,99.61919420848426 186.64777849322854,100.11541828593181 186.69414037348906,100.68515332923562 187.2118480360732,101.23650604446448 187.2118480360732,102.54135933237558 187.08821635546337,103.13864438609016 186.87958789440745,103.79105846137827 186.36188023181603,104.61805474099674 185.51963940759015,105.38991039275425 184.19832582100207,105.8769108070992 177.86992916934832,106.76820594427409 175.8377334192046,106.5568688002968 172.56149388280755,105.90447678158671 171.997424339992,105.91366543768527 170.90792015454645,106.26283360482194 168.7984546039952,107.54922978317336 168.7443657437325,107.42977956135292 169.16162266580068,106.52930304559413 169.20798454605392,105.94123139981093 169.00708306503657,105.39909910663846 168.29620090146636,104.44346733369457 168.31165486155805,103.12026644945581 167.91757887957647,103.44187974431406 167.05988409530983,103.41431294000358 163.82227945910563,102.30244408979343 163.07276239537168,101.87974618199223 161.63554410818324,100.72191029253008 159.7656149388422,99.08620943879941 159.71152607855765,98.91161022457527 159.8042498390132,98.86566300100094 160.4842240824073,99.27918708408833 160.50740502254484,99.45378551369504 159.88151963939163,100.28082564278884 159.1320025756504,100.18893270806439 158.56020605279627,99.56405801404617 158.22794591114507,98.81052629862825 157.18480360592366,98.38781034565909 156.76754668384092,97.89157578720187 156.41983258211258,97.80886973475572 156.1030264005094,98.02941902210296 155.4694140373249,98.99431516198092 155.5235028976167,99.39864920777472 155.97939471987775,100.07866105011635 155.99484867996944,100.44623266518465 155.41532517708401,101.5213701579487 155.19896973598225,102.36676749297476 155.1294269156424,103.51539117702487 155.9021249195066,105.92285409275792 157.00708306501474,107.7421874654101 156.27301996135793,107.90757940226467 154.38763683191792,107.88920253691322 154.65035415322927,107.32870616051514 153.84674822922534,106.46498291522585 153.52994204763672,105.59206186006486 153.4758531873813,102.26568783671246 153.15904700577812,98.59916859523219 152.75724404376524,88.57283437671867 152.0,82.92960883139313 152.17772054086527,82.73659259974374 153.29813264647237,82.62629740565171 153.41403734707274,82.47923691539472 153.3676754668195,81.07295761757996 154.3412749517156,80.06189219390944 154.8358016741695,79.79533649928635 155.25305859625223,79.26222250257706 155.69349645846523,79.03243091450713 157.6020605280064,78.52688714697433 159.34835801672307,78.6096127047058 159.71925305858167,79.00485588051379 160.01287830006186,78.95889746988541 160.63876368320052,79.15192262093478 161.9523502897573,80.21814857629943 162.20734063103737,80.62257547331683 162.70186735351308,82.0564365323662 163.35093367673835,84.68511649462744 163.21184803606593,85.90751579954667 163.86864133934432,88.06734959852474 164.1390856406797,88.59121558249171 164.76497102381836,89.3172699058996 165.9085640695339,89.6573184482404 166.69671603349707,89.3172699058996 167.13715389568097,88.69231214043975 167.50032195749372,87.57105241245881 167.9484867997453,87.14827835943288 168.41210560206673,87.05637066734198 168.58982614295383,86.84498258349049 168.63618802317797,85.44796933251928 169.31616226658662,83.95902103748813 168.90663232452061,83.31563992759766 168.93754024468217,81.57848564028245 168.17256922085653,81.10972339736327 168.10302640051668,80.9534687190826 168.9529942047593,79.98835967529158 169.27752736639377,78.42577801831794 169.94204764971073,76.93670182143251 170.28203477142233,76.57821646353113 170.41339343206346,75.64063194048504 170.17385705086053,74.79495824393234 170.2356728911691,74.61111497818638 172.5692208628534,73.90331454444822 173.30328396652476,73.85735326540453 180.0952994204854,72.09242059772805 181.74114616870793,72.17515266792907 181.77205408887676,73.2506619596752 181.996136509988,73.42531597897323 182.45202833226358,73.37016211847367 183.48744365744642,73.53562358835188 184.7392144237092,73.33339285742841 185.30328396652476,73.48046980228537 186.1223438506131,74.15150500473828 186.50096587251755,74.66626800133236 187.04958145524142,76.14619355856121 186.87186091437616,78.09487454094051 186.36188023181603,78.77506356898084 186.29233741146163,79.23464754613815 185.72054088862205,79.75857012837514 185.65872504829167,80.30087242255104 186.07598197040352,80.98104309578048 186.6168705730961,81.0821490640592 187.443657437223,81.69797362526151 187.90727623954444,82.93880006915424 187.83773341919732,83.12262460732018 187.07276239537168,83.20534551465971 186.67868641339737,83.67409574198973 187.28139085641305,84.8873191449311 186.88731487443874,87.02879833956831 186.1764327108831,87.93868024692347 185.62781712815922,87.82839207012876 185.0019317450351,88.42578458172648 184.56922086284612,88.4441658205833 184.53831294271367,89.41836556619819 184.8242112041262,90.11684125883039 184.85511912428774,90.59474224258156 185.1178364455991,90.85207238468865 185.13329040567623,91.15535329833801 185.43464262717316,91.77110199633171 185.7900837089619,92.01923822070239 185.93689632970927,92.83716340680985 186.31551835157734,93.48965965554089 186.34642627174617,93.8848309087698 186.1687057308518,94.10539077797876 186.33097231165448,94.42703952096053 186.38506117192446,95.24494062642043 186.67095943335153,95.75038104059786 187.03412749517884,95.66767282293586" stroke="#ff0000" stroke-linecap="round" stroke-linejoin="round" stroke-width="0.5"><title>2022-04-10 21.2km</title></polyline><polyline fill="none" points="39.68165361478896,121.28838665571675 39.15897297947231,120.80055635995086 38.9499007252889,120.13098081114731 39.11072553618578,119.78662561972305 39.617323690450576,119.41357258940116 39.74598353914189,118.7918139034955 40.212375490693375,118.14135379905929 40.123921844722645,117.66307113748917 40.32495285830373,116.1038509878199 39.64144741206837,114.43937585314416 38.69258102792082,113.53059694729018 38.041240543840104,113.31057533123385 36.51340484051616,113.53059694729018 34.808661845228926,113.348840000981 34.398558577486256,113.87497746472218 34.08495019629481,114.72635664832342 34.31010493150825,116.97433938058384 34.2859812098759,116.50561596829357 32.637526898390206,116.91694481578452 32.15505246575776,116.61083981626871 32.283712314470904,117.06043115515058 33.07979512829479,117.76829355375958 34.181445082802384,117.91177845708444 37.64721975721477,117.02216815498105 38.08144674657524,116.69693195872969 38.169900392553245,116.42908945165982 38.06536426549428,116.04645583569072 37.655260997744335,115.82644072714174 36.352580029655655,115.93166541526443 34.47092974237603,116.41952363224846 34.390517336949415,116.32386537882121 34.028661512471444,114.98463853615249 34.454847261287796,113.76018411382393 34.84886804794951,113.09055314598663 34.90515673175105,112.21045871351089 34.72020819924364,112.0 32.878764114713704,112.06696419260697 20.75257337457151,115.23335368691914 20.768655855674297,116.18037779705628 21.629068593865668,119.74836384573427 21.130511680152267,120.76229504197545 20.680202209681738,121.16403802242712 20.704325931335916,121.63273576859501 21.363707655917096,122.73273054196034 22.175872950836492,121.98664868225751 21.653192315483466,122.32142981314973 20.95360438816715,123.7753211556992 20.414841271733167,123.79445113933616 20.374635069027136,123.68923617607652 20.254016460872663,123.84227607962384 20.44700623391691,125.59265039764432 20.229892739233037,127.39081165414245 19.988655522916815,127.71600697279064 19.522263571387157,129.17937052746856 18.645768352093,130.17406079957436 19.20865519018116,134.00924810950528 19.980614282365423,137.48085218123742 20.631954766446142,141.42090343617747 20.77669709622569,141.63128939346643 21.162676642321458,143.40998625179054 22.20803791302751,144.0985040905216 22.3849452049908,144.4618862603893 22.312574040101026,144.86351738037774 21.982883177792246,145.379897464838 21.990924418329087,145.97277444014617 22.304532799564186,146.45089802570146 23.052368170137925,146.94814370637323 23.3338115891529,146.9959556380054 23.430306475696852,146.84295736227068 24.31484293550602,146.6995212290567 25.87484360101371,146.6421467081018 27.193607050227,147.35932544094976 29.83917518913222,147.94262635540508 30.72371164894139,148.0 32.99134148230223,147.67488216953643 33.24866117973579,147.37845012445905 34.47897098294197,147.37845012445905 35.92639428082475,146.94814370637323 36.13546653497178,147.61750830587698 36.37670375127345,147.70356908690155 36.360621270192496,147.59838367606426 36.62598220814107,147.4931981353002 38.24227155743574,147.13939127180493 39.0463956118474,146.6995212290567 39.979179514928546,145.83889935498883 40.58227255570091,144.59576351094438 40.79134480984794,142.3485103402054 40.0917568825389,141.9468673545125 39.92289083110518,141.11488657005975 40.40536526373762,140.06294520212396 41.27381924248766,139.36483148158004 41.354231647907,138.99186427064706 41.25773676139943,138.2267982107005 40.4294889853918,138.2459249460153 40.18021052850963,138.09291094321088 40.08371564200206,136.92617012651317 39.68165361478896,135.9985041292457 39.57711748771544,135.38643030602543" stroke="#4dd2ff" stroke-linecap="round" stroke-linejoin="round" stroke-width="0.5"><title>2022-04-03 13.8km</title></polyline><polyline fill="none" points="94.62564436485991,132.87307364281514 94.54359976125124,132.7331032684997 94.12751641434443,132.5371442085816 93.98100819360843,132.264200190446 94.20370068913326,132.00525218027178 94.66666666666424,130.84347199572585 92.217049215913,129.450706546093 91.45520646806835,129.19874560367316 91.13874871127337,129.52769440566408 89.0114493461515,133.5939160197231 88.86494112540095,133.74088284480604 88.64810895870323,133.72688601947084 87.33539530087728,132.50915000611712 86.61457485485153,132.01924939793753 86.18677085027593,131.8652798283474 84.51071680502355,131.64132340181095 83.3503716967607,131.07443004753077 82.91084703455272,130.69649823783766 82.4947636876459,130.96245049450954 82.38341743990168,130.88546443338055 82.4596017146905,130.47253754955454 81.08242443973722,129.72366306729236 80.89489391718962,129.499698831547 79.53529762872495,128.7858073794123 78.37495252048393,128.41486050554522 77.4783222095648,128.2468838256682 76.599272885127,128.2538828631623 75.44478810570581,128.49884867321816 73.16512019101356,129.2337402408266 71.85826686200744,129.38771640739287 71.01437951056141,129.3107283723475 66.21477019914892,127.81994102969111 62.24146725270111,126.73507303104998 58.66666666666424,126.19613148065037 62.089098703138006,126.71407539684515 71.1726083889589,129.3597207694511 72.14542297466687,129.36671968013616 72.84280210536963,129.1917466738414 73.04791361440584,129.22674131497843 74.89391719571722,128.72981554203216 75.75538553368096,128.39386344569357 76.49964729501517,128.26788093577488 77.37283629061858,128.2468838256682 78.33979054749943,128.43585755823733 79.38878940799623,128.75781146709414 80.02756525042787,129.0657658006421 80.97693852081284,129.58368551565218 81.47506647131377,129.98961953648904 82.47718270117184,130.4795363334415 82.36583645341307,130.87146695734918 82.4596017146905,130.96944922254988 82.66471322374127,130.75948703429094 82.80536111562833,130.74548952955956 84.4755548320536,131.66231935147516 85.98751967007411,131.88627570147946 86.59699386835564,132.06823963458737 87.3939985891775,132.58613403217532 88.6070866568989,133.75487966695437 88.77703619295062,133.80386851934963 89.00558901730255,133.64290500047719 89.36306907590188,133.01304369820718 89.57990124260687,132.82408404808302 90.69922404904355,130.69649823783766 90.89261490043282,130.75948703429094 90.71094470671233,131.08142876282363 90.722665364352,131.2284015995865 91.70720060772874,132.06823963458737 92.28737316185288,132.36917880248075 92.56866894567793,132.0612410317408" stroke="#4dd2ff" stroke-linecap="round" stroke-linejoin="round" stroke-width="0.5"><title>2022-03-31 13.3km</title></polyline><polyline fill="none" points="141.238791971482,130.99217909431172 141.21853310822917,130.758308410288 140.9146501594514,130.59701783311903 141.33333333333576,130.95992111486703 140.63777902832226,130.49217876085459 141.06996811105637,130.8066955117465 140.5837553929814,130.524436953463 140.99568561244814,130.79056648159167 140.36766085161798,130.98411460081843 140.15156631026912,131.25830686379777 140.30013130744192,131.6131423332772 140.63102607389737,131.79055940095714 140.59726130180934,133.1534302288419 140.32714312511962,133.54857721871667 140.4892140311349,134.0969408154633 139.76664790845825,135.45976723953208 139.48302382290422,135.77426191921404 139.17914087412646,135.82264559207397 138.01763271431992,135.13720714232477 136.70755955729692,134.0888766756907 135.12061526918114,132.28248621727835 132.3856687300722,130.07282091893285 131.85218533108127,129.83088257222698 129.79253423372575,129.52442614584288 128.3676608516107,128.8147324849415 127.8139185893815,128.4195590665404 127.5370474582669,128.7340850277251 127.44250609642768,128.71795552527328 127.36822359781218,128.5727898376208 127.46951791407628,128.32278156654502 127.29394109924033,128.11309652915224 124.00525229787308,126.2178381992926 123.84318139187235,126.25009834014782 123.22866253986285,125.9597565429649 122.01313074470818,125.64521825184056 120.67604577000748,125.61295783523383 116.71206152693048,126.7098037495889 115.8341774526416,126.8791681477087 114.66591633839562,126.91142798711371 105.33333333333576,124.17735440793331 110.10091915212979,125.57263229379168 110.91127368222806,125.94362640821782 114.42956293379393,126.8791681477087 115.10485837554006,126.90336302865035 116.55674357532553,126.70173876814806 118.67717126243224,126.137187782806 119.1093603451518,125.9113661276424 120.63552804352366,125.62102294075157 121.9928718814408,125.62908804535255 122.64790845995594,125.78232485830813 124.4644531982849,126.46785390633158 126.35528043520026,127.74211378730251 127.39523541548988,128.13729098826298 127.3479647345739,128.6292431959737 127.49652973175398,128.66150223766454 127.65184768335166,128.45988298584416 127.82067154379183,128.47601254713663 129.6102044644722,129.53249080562819 131.2984430688448,129.78249480366503 132.29112736821116,130.18572519769805 133.1892703057747,130.742179369081 134.28324892140517,131.81475260300795" stroke="#4dd2ff" stroke-linecap="round" stroke-linejoin="round" stroke-width="0.5"><title>2022-03-29 11.1km</title></polyline><polyline fill="none" points="167.90422535208927,135.22488773275109 171.96056338028575,134.2987648674025 173.54929577464645,133.33237065916182 174.4957746478758,133.61423617786204 175.00281690139673,133.19143773258838 175.10422535211546,132.56730486096058 175.64507042249897,132.24517091071175 177.03098591546586,132.54717150617216 177.60563380281383,132.99010478702257 178.0281690140837,132.32570445281453 178.07887323947216,131.52036739351752 178.6873239436536,130.99689635327377 180.4788732394518,131.33916605367267 181.695774647902,132.0841037171631 183.26760563376592,130.73516025650315 186.71549295772274,130.01035059771675 186.7999999999738,129.42647400629357 186.42816901409242,129.184869339937 182.52394366197404,129.06406688396237 180.93521126761334,128.15804585338628 180.81690140839783,127.65469884591585 181.40845070421346,126.32585591473617 183.2507042253419,124.5339156643895 187.67887323944888,123.64800596241548 188.0,122.94330191788322 186.42816901409242,122.2587296058191 186.00563380282256,121.77550050787977 184.29859154924634,122.37953667556576 182.98028169015015,121.33253935023095 182.3887323943345,119.96337971866888 181.96619718309375,119.94324493968452 181.4760563380405,121.9164424634946 180.52957746478205,123.58760286786128 179.68450704227143,124.27217007451691 179.12676056339114,124.33257293706993 178.06197183097538,122.72182292824436 177.23380281690334,122.82249523037171 176.9802816901065,125.21847923543828 176.3042253520689,126.95001064690587 175.0535211267561,127.61443102396152 174.3774647886894,126.68826860602712 173.07605633801722,121.85603878187248 172.45070422535355,121.85603878187248 171.14929577460862,126.50706235250982 170.59154929572833,124.1110956742632 169.5605633802479,123.97015545458999 168.9352112675988,124.97686886362499 168.63098591548624,126.86947467524442 167.34647887323808,129.7284793786821 166.16338028167957,128.2989827606798 165.16619718306174,125.98357658502937 164.7943661971949,125.70169899634493 163.98309859150322,126.82920667578583 163.52676056334167,126.48692831295193 163.00281690142583,126.7285366372962 162.44507042254554,128.5607224356354 161.22816901405167,130.07075151520257 159.7408450704097,125.31915012704849 158.92957746479078,126.70840262278216 158.05070422533026,129.20500307467591 156.14084507041844,131.8223692173051 155.6676056338183,132.14450393183506 154.7887323943869,131.03716341094696 152.15211267603445,131.3592995449435 153.2338028169179,133.030371394314 155.24507042254845,138.10389112231496 156.36056338027993,138.8488005096442 159.99436619717744,138.44614717339573 162.98591549295816,137.13751754772966 166.21408450703893,136.71472746111976 166.51830985913693,136.17113873310154 166.43380281687132,136.55366430716822 166.3830985915556,136.3120693032688 167.22816901409533,135.88927725839312 166.602816901388,136.07047397186398 166.24788732394518,136.59393010927306 160.85633802817028,137.94282922375714 160.41690140840365,138.5468105927721 159.63943661972007,138.6877392843453 157.34084507040097,140.05675506031548 156.98591549298726,138.74813726088905 156.7661971830821,138.78840256723925 158.5239436619595,138.8488005096442 157.6281690140895,138.9293310677749 155.3295774647704,138.40588178977487 155.21126760565676,138.22468745071092 156.83380281688005,138.4864125479653 154.7887323943869,135.74834635388106 152.7098591549293,134.7819600063085 153.48732394371473,134.7819600063085 153.4704225352034,134.03703362011584 154.01126760563056,134.7215606855898 152.0,131.98343664732238 152.28732394361577,131.45996696736256 154.36619718310249,130.83582803157333 154.60281690140255,131.0572969364148 154.61971830984112,131.4197000052227 154.21408450706804,130.8559615797276 154.4507042253681,131.3995665206894 155.00845070417563,131.94316980344593 156.09014084505907,132.0841037171631 158.79436619718035,128.31911659550678 159.52112676057732,126.60773251607316 159.72394366197113,125.27888177725254 160.23098591546295,126.06411295705766 160.56901408448175,128.86272927524988 161.0253521126433,129.88954870127782 161.61690140842984,129.92981600918574 162.36056338025082,129.184869339937 163.2563380281499,126.76880465955765 164.23661971830006,126.58759848789487 164.99718309858872,125.17821086288313 165.26760563378048,126.06411295705766 165.13239436619915,127.8761717043817 165.65633802815864,129.3660728704126 165.45352112675027,129.26540426515567 165.87605633799103,129.7284793786821 166.6366197182797,129.90968235633045 167.76901408447884,129.48687512174365 168.91830985917477,127.85603781953978 169.6281690140604,124.29230436429498 170.152112676049,124.21176719147479 170.91267605633766,126.46679427115305 171.33521126765118,126.76880465955765 172.43380281688587,124.57418418244924 172.5690140844963,123.40639346114767 172.29859154930455,122.23859508620808 172.67042253521504,121.93657701944176 173.07605633801722,121.95671157316247 173.63380281689751,122.82249523037171 174.10704225349764,125.46008927971707 173.95492957741953,127.2117523032648 174.3436619718268,127.69496665884799 175.71267605632602,127.59429710950644 176.96338028166792,126.95001064690587 177.5042253520951,124.79566086977138 177.53802816898678,122.82249523037171 178.3323943662108,124.1714985913859 179.12676056339114,124.55404992459808 181.3577464788541,123.38625907125243 182.05070422534482,121.75536593366996 182.08450704225106,120.32580535091984 182.43943661969388,120.3459400865977 183.21690140843566,121.99698067377903 184.28169014082232,122.58088160971238 185.7014084507391,122.09765338548459 186.292957746482,122.62115056923358 187.76338028169994,123.1245117954968 186.30985915492056,123.74867774132872 183.45352112673572,124.05069273659319 182.28732394364488,124.51378140186716 181.3239436619915,125.35941846772039 180.73239436617587,126.64800056560489 180.68169014086016,127.75536836119136 181.5098591549322,128.98353186776512 182.47323943661468,129.26540426515567 186.58028169014142,129.22513680707198 186.73239436621952,129.48687512174365 186.46197183099866,129.76874672292615 182.65915492955537,130.47342377535824 182.0676056338125,131.5405008643429 181.45915492960194,131.09756398048194 178.63661971829424,130.81569448114897 178.1971830985567,131.21836505801184 178.0112676055869,132.32570445281453 176.84507042252517,131.76196889346465 175.47605633802596,131.56063433294185 175.0197183098644,132.90957154514035 172.7887323943287,133.07063799251046 172.09577464789618,133.75516877010523 167.8873239436216,135.24502078504884" stroke="#4dd2ff" stroke-linecap="round" stroke-linejoin="round" stroke-width="0.5"><title>2022-03-27 15.5km</title></polyline><polyline fill="none" points="47.89249720045336,172.80450521626335 47.11310190369841,172.32307153390138 48.0,170.60593126241292 47.69764837627008,170.46952112783765 47.64389697648585,170.31706242945802 46.30011198209104,169.68315167030232 45.20492721165647,169.00911371714756 44.25755879061035,168.60789758648025 44.04927211647009,168.70418966633588 41.4893617021371,173.71119638220262 41.05263157895388,173.89574271188758 39.45352743561671,172.4675019842034 38.47928331467119,171.8737304609167 36.38297872340627,171.51265073529066 34.9921612541948,170.84665438467346 34.353863381867995,170.35718317153078 34.20604703247227,170.41335217210144 34.03807390816655,170.70222061005916 33.85666293392569,170.63000361166633 34.02463605823141,170.18065173532523 32.68756998881145,169.52266702859924 32.203807390840666,169.08935666894104 30.470324748042913,168.12643521196878 30.322508398647187,168.19063038547029 29.287793952971697,167.76533627067693 28.17917133258743,167.57274941144715 27.265397536408273,167.58879833648098 23.200447928335052,168.70418966633588 23.05935050394328,168.6239462756057 21.896976483760227,168.8887491179994 21.29899216125341,168.85665185678226 17.630459126536152,167.86965393283026 12.0,166.10425728811242 20.922732362829265,168.7924572905249 22.0447928331414,168.82455458096229 22.965285554309958,168.59987324054237 23.46248600223771,168.6159219314868 25.733482642775925,167.88570279021224 27.319148936170677,167.5567004827244 28.521836506166437,167.5807738744188 29.328107502798957,167.75731182871823 30.30907054871932,168.16655720226845 30.517357222859573,168.13445961187244 33.93729003358749,170.1004100270584 33.997760358332016,170.23682087665657 33.87681970884296,170.54173829081265 33.991041433364444,170.66210006453912 34.33370660695073,170.33311072904326 36.450167973140196,171.53672277458827 37.9417693169089,171.6731308419039 38.75475923851627,171.9700180750442 39.62821948488272,172.56378878647956 40.99888017917692,173.8716714789116" stroke="#4dd2ff" stroke-linecap="round" stroke-linejoin="round" stroke-width="0.5"><title>2022-03-20 10.8km</title></polyline><polyline fill="none" points="94.38131765109574,170.97866605294985 94.11437824936002,170.71484390183468 94.24324554675695,170.98965862693876 93.54368021818664,170.61591040919302 93.06503025655547,171.02263634129486 92.84411488963087,171.44035308143066 92.80729566181981,171.858068013069 94.66666666666424,172.84738563723658 92.4575129975492,177.14530333314906 91.70271882724046,177.881755951159 88.49024120003742,175.51849255403795 86.46518366999953,173.23211752930365 85.94971448052092,172.79242381315999 85.33299241455825,172.61654576562432 82.62677916987013,170.00032195312087 80.89627546235715,169.19785253253212 78.9264467740577,167.17516026728117 71.32327622943558,163.31653729301615 69.66641097758838,162.25016697005776 68.20284667178203,162.118244048841 64.18955083948094,163.22858967117645 63.149407653618255,163.7123005989488 61.225603000071715,165.15242559131002 59.68840023865778,165.6581132365027 58.66666666666424,165.75705181353987 61.612204892189766,165.2843443630045 65.65311514530185,164.0750822030168 66.95099292592204,163.9431617775772 68.28568993436784,164.04210211356985 70.4948436035047,164.77865475841827 70.67893974259641,164.69070846965042 72.28978095969069,165.49321538258664 73.21026165517105,166.04287379942252 73.2562856899458,166.24075006284693 75.52987300774112,167.47197102637438 75.61271627034876,167.54892181485047 75.12486150173936,168.72516194178024 75.72317395381833,167.29608327934693 76.13739026676922,167.16416725863382 76.84616040228138,166.0538669358284 78.6503025654165,166.9223207521718 79.48793999828922,167.60388662617333 79.81010824170517,167.66984435846098 81.10798602232535,169.01097513394052 82.80167050198361,169.72550440992927 85.76561834142922,172.46265221104113 86.12460581265623,172.1218870380617 88.47183158611733,167.54892181485047 88.81240944346064,167.9776465127361 88.42580755134259,168.64821209149522 89.91698627801816,169.86840963009308 90.88349100827327,170.39605784008745 91.0767919543141,170.34109461949993 91.41736981165013,169.76947526941512 91.52782749510516,168.86806864368555 92.7428620131177,167.16416725863382 92.94536776614405,167.12019521168259 93.43322253474616,167.42799911965267 93.33196965821844,167.84573142401496" stroke="#4dd2ff" stroke-linecap="round" stroke-linejoin="round" stroke-width="0.5"><title>2022-03-16 10.0km</title></polyline><polyline fill="none" points="121.13862633900135,176.33356152381748 125.59609325769998,174.95545342667901 126.92312539381965,174.08399725415802 128.31821045995457,174.08399725415802 128.47132955260167,173.55706821230706 129.18588531819114,173.19227027667512 130.0535601764277,173.09093738510273 131.1424070573703,173.55706821230706 131.65280403275392,172.17893878517498 132.36735979835794,171.73307111546455 133.83049779459543,171.83440477402473 134.85129174545,172.52347213451867 135.49779458092235,172.6248053466261 137.06301197226276,171.24666875728872 140.29552614994464,170.5373296207108 140.023314429709,169.86852157999238 136.05923125390837,169.70638592184696 134.44297416508198,168.91597248974722 134.34089476997906,168.06475412924192 134.78323881537654,167.0513936713105 136.39949590418837,165.40973757969914 137.28418399492512,164.9435855802003 140.92501575296046,164.33555941231316 141.33333333332848,163.93020748865092 141.21424070569628,163.4843193145789 140.04032766223827,163.1397686026612 139.44486452423735,162.3087906332221 138.0667926906026,162.89655593695352 137.23314429741004,162.83575271900918 136.56962822930655,162.14664814152638 136.144297416482,160.4036070981674 135.1915563956718,160.64682314441598 134.95337114048016,162.89655593695352 134.59609325769998,163.58565763328806 132.70762444860884,164.96385308360914 131.56773787015118,163.80860173291876 131.4486452426354,163.0992331813177 130.63201008189935,163.34244557221245 130.376811594193,166.82845360225474 129.23692501577898,167.98368550327723 127.9949590422184,168.18635699948936 127.43352236924693,167.57834182388615 126.90611216129037,163.1195008931245 126.29363579080382,162.34932623332134 125.78323881537654,162.55200409593817 125.71518588533218,164.84224802865356 124.72841839946341,167.29460070330242 123.60554505353502,164.76117794620222 123.38437303087267,164.45716481081035 122.7889098928863,164.5990376714617 122.56773787015118,165.53134224985843 125.3919344675378,172.90853803600476 122.6698172652541,166.7473844175256 122.46565847512102,167.57834182388615 122.2955261500174,167.03112640373 120.96849401382497,169.86852157999238 120.30497794577968,170.2333262750035 119.01197227471857,169.28077912198205 118.56962822936475,166.2609685397474 118.02520478895167,165.97722533525666 117.3787019533338,167.1729972285102 116.51102709517,166.86898818083864 115.64335223691887,169.28077912198205 114.55450535599084,170.76026508017094 114.18021424068138,170.29412698534725 113.53371140519448,166.2609685397474 113.38059231254738,165.87588836773648 112.95526149966463,165.81508615975326 111.95148078136845,168.75383597059408 109.72274732201186,172.05733862156922 108.73597983618674,172.72613850154448 108.344675488348,172.58427206867782 107.88531821050856,171.6925376360159 105.33333333332848,171.89520494174212 105.99684940140287,173.92186540612602 107.68115942030272,176.88074856727326 108.3787019533629,178.90735270889127 109.33144297421677,179.5963929018326 113.53371140519448,179.00868231499044 115.11594202900596,178.1169798169285 116.93635790802364,177.6305947679939 119.19911783239513,177.52926438345457 122.04032766226737,175.84717163954338 124.94959042218397,175.27971510785574 127.16131064901128,174.02319782828272 128.35223692499858,174.10426372483198 128.74354127280822,173.21253684807743 129.15185885316168,173.07067079989065 130.03654694386933,173.05040421239391 131.1764335223561,173.49626860790886 131.56773787015118,173.03013762265618 131.65280403275392,172.15867209693533 132.1291745431372,171.81413804696058 133.6093257718603,171.81413804696058 135.54883427851018,172.60453870880883 136.0252047888789,171.93573837546865 136.9609325771744,171.4898701011989 137.87964713292604,171.42906979614054 138.04977945807332,171.08453434475814 136.24637681157037,171.36826947050577 135.56584751101036,172.36133887604228 134.0856962822727,171.44933656677313 131.90800252044573,171.6114706495573 131.15942028985592,172.78693836690218 130.92123503460607,172.48293883365113 129.18588531819114,172.6248053466261 128.82860743541096,172.78693836690218 128.38626339002803,173.7192003900127 126.70195337112818,173.92186540612602 125.45998739758215,174.77305597343366 123.09514807813684,175.32024777680635 125.27284183997835,174.99598616888397 124.64335223691887,174.87438791479508 121.22369250157499,175.74584024769138 119.67548834279296,176.88074856727326 120.03276622557314,177.06314387754537 120.59420289855916,176.81995008932427" stroke="#4dd2ff" stroke-linecap="round" stroke-linejoin="round" stroke-width="0.5"><title>2022-03-13 10.9km</title></polyline><polyline fill="none" points="183.56142668428947,169.38528983209108 182.76882430650585,171.2786390880501 182.22985468960542,171.7330396980251 181.69088507264678,175.48179729991534 180.7873183619813,177.35614437538607 176.60237780713942,181.93779263814213 175.66710700132535,182.24070707814826 173.8599735799362,183.37663130889996 172.9405548217328,184.43682024997543 170.6895640687144,183.4902233048051 168.43857331573963,181.88099611911457 167.67767503303185,181.89992829426774 165.79128137385123,180.8775877484586 165.45838837517658,181.06691054643306 164.66578599733475,180.21495625641546 163.2549537648738,179.55232212116243 162.68428005286842,178.7571576698101 162.90620871864667,176.7124316026311 162.49405548220966,175.89832070004195 161.95508586526557,175.3114010625577 160.59180977544747,175.15993759364937 160.30647291943023,174.66768036596477 160.51254953767057,174.08075638017908 161.79656538974086,172.9637017743953 162.44649933949404,171.7330396980251 161.66974900924833,169.08235194826557 165.07793923384452,167.05644064725493 169.29458388379135,161.39511824083456 169.484808454421,160.78921277179325 171.0383091149415,160.03182782685326 186.31968295905972,155.52531598435598 188.0,155.7146676826669 187.98414795246208,156.33952675532782 186.8903566710942,158.42237335014215 185.36856010569318,162.5501194178796 185.44782034347008,162.92880657984642 185.00396301191358,163.40216431804583 184.6076618230436,164.5382173853286 184.00528401587508,164.67075640363328 184.30647291943023,164.61395398016612 184.3540290621313,165.14410917712667 183.21268163806235,168.17353498165903 183.56142668428947,168.81728084664792 182.8005284016108,171.10823853875627 182.42007926027873,171.29757247165253 182.08718626157497,172.11170592343842 181.4531043593306,176.14444767274836 180.6763540290849,177.5644038560131 176.71334214002127,181.88099611911457 175.4134742404567,182.80867016439151 174.7952443857357,182.78973809276067 173.7490092470398,183.41449531610124 172.68692206077685,184.47468401564402 169.3262879788963,182.71400978484598 168.2324966975284,182.5057567600452 167.6459709379269,181.89992829426774 162.2721268164023,178.96541539402097 161.79656538974086,179.23047030172893 159.5772787318274,178.2838436893071 157.97622192867857,178.30277627438772 152.0,179.94990291944123 156.32760898287233,178.5867647921841 159.29194187581015,178.18918073136592 161.70145310439693,178.9086178587313 162.01849405549,179.34406513276917 165.20475561430794,181.2183686294884 166.29854689564672,181.16157186453347 171.16512549540494,183.58488324203063 175.6354029062204,174.9516750984767 177.22060766184586,174.30795300776663 181.13606340820843,173.51276345155202 182.05548216647003,173.03943452742533 181.97622192866402,172.6797036430362 183.16512549537583,169.97223040967947 183.64068692209548,167.88952865972533" stroke="#4dd2ff" stroke-linecap="round" stroke-linejoin="round" stroke-width="0.5"><title>2022-03-11 10.3km</title></polyline><polyline fill="none" points="41.98135589859157,207.2777791321132 42.29717417595384,205.93394568559597 41.98135589859157,207.13632339108153 42.17874232192116,206.21685871570662 41.882662686897675,206.4997713589546 42.2379582489375,206.12255441534217 41.9024013292219,206.40546718754922 42.31691281835083,205.95752178620023 46.20542535868299,195.7252415597759 46.343595855039894,194.14555871393532 47.42922118357092,192.6130190470867 47.05418697914865,192.09431074088207 45.850129796599504,192.0 40.18513944589358,193.3910790666414 25.04560077340284,198.17726267065154 22.420361342592514,201.12436495591828 18.15681459775078,206.80625961895566 14.722290831137798,208.71590700776142 15.2552341742703,212.18151834349555 14.031438349338714,214.02039057305956 12.768165239787777,215.10484601893404 12.570778816414531,215.76494654988346 12.906335736173787,216.44861987895274 14.564381692442112,216.87296770518878 15.590791093956796,217.58021214760083 15.94608665604028,219.0654176052485 15.610529736310127,220.55061239845236 16.28164357575588,221.82362801935233 17.505439400702016,222.20081632836082 20.584667605304276,224.4875057272293 24.256055079909856,226.01980922064104 26.7233853720536,227.76426399641787 28.34195404368802,228.0 29.328886160554248,226.77416984793672 30.493466058454942,226.27912099653622 33.1779214162525,224.03959948524425 38.30996842386958,218.0281323770323 38.96134362100565,215.4348965477402 38.744218555279076,214.75121986785962 39.13899140205467,214.0675409280666 37.38225223403424,214.8219451464247 39.02055954802199,214.98697070236085 38.66526398593851,217.03799162471842 37.38225223403424,219.5840582686651 33.37530783962575,223.9217292603571 28.460385897764354,227.41065948741743 32.960796350525925,224.06317352216865 37.81650236547284,218.73537286960345 38.32970706617925,217.6980859862524 38.76395719763241,214.1146912723343 39.84958252617798,210.90844337633462 45.593527446253574,196.00816855640733 38.98108226331533,214.35044283239404 38.092843358186656,214.6569194587646 38.921866336328094,213.97324020729866 39.73115067213075,211.19134960178053 37.87571829246008,210.29547856027784 39.178468686688575,210.86129230110964 40.04696894953668,210.57838562419056 42.474821956973756,203.5527456773416 44.78424311042181,198.10653169974103 40.086446234214236,211.71001001015247 40.125923518877244,212.370121375905 41.19181020506949,213.26598343107617 41.251026132085826,213.9025146385393 42.474821956973756,214.1382664404082" stroke="#4dd2ff" stroke-linecap="round" stroke-linejoin="round" stroke-width="0.5"><title>2022-03-09 10.7km</title></polyline><polyline fill="none" points="74.80404400832049,200.1463055890199 75.30181385668402,200.9962444686753 75.15730002973578,201.55013264503214 74.55515908416419,202.49555412037444 74.54713053821615,204.03303526398668 74.31430270591227,204.214475302535 73.91287540887424,204.26222261667863 73.3669342848516,204.74924368831125 73.09396372285846,205.75192533912923 72.53196550699067,206.63045572596457 71.55248290215968,206.85963607198937 70.42848647040955,206.42992241603497 69.66577460601548,205.36040343609056 68.89503419565153,202.85844037721108 69.03954802259977,202.1422160124348 68.93517692536261,201.35913713007903 67.98780850431649,198.04529658448882 67.62652393696044,197.29083067001193 66.26969967290643,196.07794103981723 65.619387451683,195.79142914952536 65.23401724651922,195.81052997225197 64.96104668452608,195.55266850261978 63.09039548024157,195.3998613363874 61.17960154622415,195.86783241475496 60.738031519475044,196.07794103981723 60.57746060065256,196.3071498562349 60.49717514124495,196.26894842977345 60.7219744276008,195.71502581553068 61.051144811179256,196.23074698616256 59.73446327682905,196.97567203790095 58.70680939637532,198.08349721205013 58.803151947664446,199.28680818633438 58.66666666666424,199.76430781701492 59.6220636336584,202.5815010055303 59.846862919999694,203.73700068501785 59.87094855782925,204.88293525880727 59.38923580136907,207.76680220866547 59.46149271483591,209.20869897792727 59.365150163532235,209.55245883393218 59.53374962831731,209.64794743599487 60.03151947666629,211.0802635903965 60.986916443645896,212.77036560045235 61.08325899493502,213.66792023368907 61.3482010110165,213.97346858423407 61.942313410654606,214.097597287815 63.45970859351655,214.83281743022235 64.73624739815568,216.0740837557314 66.08504311627621,216.91431528636895 66.15730002973578,217.09572782193572 65.72375854892016,217.49674363168015 65.69164436514984,217.33442793663562 65.84418673802429,217.26759197210777 68.42134998511756,219.46360329949675 69.60154623848211,220.2274200265747 70.25988700565358,220.50430189508916 70.49271483794291,220.06510954642 69.60154623848211,219.61636719405215 69.33660422243702,219.2058136048072 70.93428486472112,218.1364554114116 71.18316978887015,218.28922169136786 71.41599762117403,219.17717025717866 71.87362473980465,219.55908076578635 72.64436515014677,219.56862850650214 73.31876300922886,219.14852689983672 73.52750520367408,218.84299715440284 73.43919119834754,218.0982637985362 73.5756764793332,216.92386332422757 72.53196550699067,211.49085643547733 72.88522152838414,211.30943193463463 73.46327683616255,213.8111461597946 73.38299137674767,214.25037082794734 74.01724650609685,217.94549717532936 74.29824561403802,218.1364554114116 74.12964614928205,218.31786533827108 74.2821885221565,218.70932754541718 74.64347308949073,218.75706671558146 74.52304490039387,219.12943132291548 74.59530181385344,220.07465723028872 74.89235801367613,220.38018254833878 75.47041332143999,220.5615876863012 75.71929824560357,220.86711125402508 75.78352661315148,221.45906004136486 75.34998513232131,222.01281485228537 75.29378531072143,222.28969090491591 75.58281296461064,222.90072451934248 76.09663990485569,223.39718609681586 76.64258102885651,223.60722666059883 76.81920903954597,223.57858479607967 76.81118049361248,223.387638786131 76.9155515908351,223.3685441615453 78.9467737139712,223.2635236496426 79.90217068092898,223.5690375057602 80.68093963724095,224.01775899121276 83.25810288432695,224.60013866360532 86.33303597976919,224.23734523790336 86.57389235800656,223.97002277554566 88.07523044900154,223.8936447747692 89.39994052927796,223.47356454371038 89.7933392804116,223.19669234725734 90.42759440975351,223.13940833195375 90.78887897710956,223.64541579823708 91.5837050252594,223.4640172415966 92.7719298245429,222.65249264321756 93.51055605112924,221.62136785966868 93.7995837050039,220.75254004483577 93.88789771035954,219.63546266155754 93.67112696995173,218.80480585899932 93.28575676478795,218.33696109752782 93.28575676478795,217.5253875457056 93.77549806720344,216.57058520971623 94.62652393694589,215.94040979173587 94.66666666666424,215.42480824684026 94.50609574784175,214.77552777749224 93.7995837050039,214.90920357374853 93.46238477550651,214.72778637073498 93.3981564079586,213.46740353161294 92.97264347306918,212.55074972533475 92.94052928931342,211.85370427514135 92.7719298245429,211.51950237389974 92.98870056498708,211.26168858054734 92.93250074340176,210.66012002076604 92.619387451683,210.1826816245739 92.36247398154956,209.342383531628 92.08147487363021,209.24689458614012 91.64793339279277,208.44478320752387" stroke="#4dd2ff" stroke-linecap="round" stroke-linejoin="round" stroke-width="0.5"><title>2022-02-27 14.6km</title></polyline><polyline fill="none" points="134.31954786309507,214.14015941158868 131.0600096826529,214.96098816103768 130.7851088722673,216.8840598367533 129.44987636461155,219.48721359520277 124.54093332181219,224.71687340908102 121.32066668577318,226.9681658585323 120.4174211659265,228.0 118.29675777142984,227.27302648428304 109.63738224400731,222.5359103607916 110.0890050039161,221.52750027626462 109.85337573786092,221.0819221529673 108.59668631888053,220.37837578337349 108.55741477455013,219.25269658838806 107.65416925470345,219.08853452462063 109.79446842129983,218.1035593915003 113.62344399474387,217.42345476204355 113.8590732607845,216.5557317986677 115.15503422402253,216.27430734894006 115.0568553632038,214.9844403629395 112.20966839845642,215.35967522919236 109.32320988924766,213.6711129416799 109.32320988924766,212.49849208878004 110.18718386476394,211.0678855978913 109.5588391552592,206.98708455637097 116.25463746562309,198.23888772926875 121.06540164761827,196.52673061202222 136.71511206793366,192.0 138.5805104242463,192.093819261936 139.01249741196807,192.4925506477739 137.67726490435598,194.53310505271656 134.96752834471408,201.59279804458492 134.49626981266192,202.97656328970334 134.65335598995443,203.6801691668079 131.2170958600327,213.34277977656166 131.33491049306758,214.23396857727494 133.69120315357577,214.30432542343624 134.20173323004565,213.81182699499186 134.29991209090804,214.1870639997942 131.15818854350073,214.1870639997942 131.2367316321761,212.7799217030406 134.6926275343285,202.83584182546474 138.48233156331116,193.71219479467254 131.2760031765938,213.06135093225748 131.29563894873718,214.2574208619917 133.59302429272793,214.3277777001931 134.20173323004565,213.7883746594016 134.26064054653398,214.1870639997942 131.25636740436312,214.2574208619917 131.07964545483992,213.81182699499186 131.60981130345317,211.63074835500447 132.17924869639683,211.25550668801588 133.10212998848874,208.67570170087856 133.02358689976973,207.8313948611176 133.31812348234234,207.15125627587258 133.82865355885588,207.05744388083986 136.5972974348988,207.78448882394878 137.618357587824,207.73758277609886 137.50054295478913,207.33888093775022 134.81044216737791,207.2450686282391 134.8300779395213,207.8313948611176 135.37987956032157,208.20664277316246 135.91004540893482,207.76103580137715 137.618357587824,207.73758277609886 137.26491368873394,207.2450686282391 134.08391859701078,207.22161554417107 133.6126600648713,208.2535487140849 133.4948454319092,209.89524990810605 132.5523283676448,211.302411933837 131.70799016431556,211.67765351534763 131.2367316321761,214.14015941158868 135.79223077589995,214.42158678029955 136.16531044713338,213.6007558790152 137.42199986611377,213.74146998036304 137.30418523303524,213.9759932687739 136.08676735847257,213.74146998036304" stroke="#4dd2ff" stroke-linecap="round" stroke-linejoin="round" stroke-width="0.5"><title>2022-02-25 10.2km</title></polyline><polyline fill="none" points="183.33508968031674,225.77273945626803 181.828705154825,224.98462397736148 181.9147842706152,224.43636729489663 183.59332702755637,221.2838525770494 182.9477336594864,221.00971773877973 182.3595263685711,221.40378641161078 181.49873521117843,221.50658676505554 181.21180482536147,220.71844892555964 181.35527001824812,220.01597476047755 177.3812841748586,217.8228635666892 175.44450407069235,217.05184031256067 175.14322716555034,217.1203758730553 171.15489480283577,225.00175696647784 171.08316220641427,225.2073526836175 171.29835999578063,225.07028890344372 171.28401347644103,225.24161860911408 170.76753878200543,225.58427743488573 169.5624311616557,228.0 164.59853548716637,223.47691329063673 162.0878946113662,222.48318661787198 160.12242146859353,220.20444376103114 158.74515561673616,219.0050915438187 155.99062391300686,217.737194511501 156.63621728107682,216.82909952526097 158.55865086597623,215.44124564775848 158.80254169390537,214.99575897093746 159.47682810052356,214.85868588177254 162.93433924952114,210.88351193041308 163.70905129119637,209.25571640189446 164.02467471560522,206.51412619645998 165.6601779146731,201.80190120541374 166.46358299491112,199.69420366949635 166.93701813150255,199.69420366949635 166.70747382286936,199.1629906843882 168.55817481128906,194.31344340465148 168.57252133059956,193.76507485468755 169.69154983526096,192.0 167.59695801883936,196.84962192361127 164.19683294705465,206.13715363306983 163.99598167696968,207.33660850797605 164.19683294705465,207.7649829297152 163.9529421190964,208.02200699683453 163.40777438608347,210.33520382619463 162.6904484215629,211.41468349932984 161.141024338227,212.75117140331713 159.21859075331304,215.13283193517418 156.6075242424704,216.93190300656715 156.13408910587896,217.72006069456984 159.89287715996034,219.6219024504535 164.26856554350525,211.12339609715855 167.20960199800902,212.4598865906446 168.04170011682436,213.11099303983792 175.30103887776204,216.86336736020166 177.81167975354765,217.90853257311392 178.61508483378566,218.62815029965714 181.0970326710085,219.8617726752127 181.41265609541733,220.06737542043265 181.26919090248703,220.7698493453645 181.65654692337557,221.50658676505554 183.07685233309167,220.92405049935041 183.6794061433029,221.24958574955235 181.9004377513338,224.60769772292406 182.00086338630354,225.22448564734077 183.8372178554564,226.2010613535822 184.00937608699314,226.06399847920693 183.66505962400697,225.66994201934722 182.04390294422046,224.86469299888995 181.88609123200877,225.10455486016872 183.04815929454344,225.58427743488573" stroke="#4dd2ff" stroke-linecap="round" stroke-linejoin="round" stroke-width="0.5"><title>2022-02-23 10.1km</title></polyline><polyline fill="none" points="12.0,245.4729896860954 12.63072776280751,245.78561780979362 13.018867924540245,246.46876481622894 13.940700808656402,247.0245420530482 15.473854447467602,247.29085090482113 16.39568733154738,244.92878288642532 16.492722371978743,244.15299370035063 18.278167115917313,243.38877768235398 18.307277628031443,243.85193958960735 16.60916442049347,248.8886894004172 16.29865229110146,250.54439416428067 16.366576819418697,251.1348837613914 16.82264150946139,251.51696344222728 18.016172506759176,251.73694806318963 20.655525606482115,252.70950596046168 20.849595687344845,252.9642219713569 20.878706199458975,253.5894312990422 21.810242587591347,253.87887876303284 22.29541778974817,254.39988212671597 24.84743935311417,255.85867737640365 27.748787061995245,256.5533344425203 31.4943396226372,256.53017928325426 34.5994609164336,255.95129859211738 35.60862533692125,255.6155462847455 37.97628032344801,254.4346155896128 38.77196765498229,254.81668290010566 39.94609164419671,254.70090507847635 40.47008086252026,254.2725259949002 45.593530997291964,252.21165010110417 46.42803234500752,252.0495569709019 47.69919137463876,252.18849395541474 48.0,251.88746358287608 47.708894878669525,252.18849395541474 45.28301886791451,252.33900880825968 40.40215633420303,254.26094815682882 39.86846361184871,254.72406065331597 38.733153638801014,254.81668290010566 37.89865229107818,254.46934904066438 35.21078167115775,255.7776337436444 32.46469002695085,256.37967061983363 31.21293800537387,256.5649120201924 27.971967654972104,256.611222317646 25.138544474386435,256.0207644486509 22.334231805936724,254.4461934079227 21.781132075499045,253.8904566445126 20.791374663058377,253.55469754810474 20.839892183314078,252.9642219713569 20.636118598376925,252.70950596046168 18.00646900270658,251.72536993707035 16.68679245282692,251.40118187201006 16.33746630726091,251.1117273710115 16.318059299221204,250.44018976261577 16.754716981144156,248.4602858850849 18.355795148250763,243.666675079352 18.28787061994808,243.44667303591996 17.919137466305983,243.48141023224161 16.483018867933424,244.12983572343364 16.3568733153661,244.94036178475653 15.541778975748457,247.33716541666945 13.882479784369934,247.0361207132446 13.445822102446982,246.64244552837772 13.018867924540245,246.50350098235504 12.78598382751079,245.98245724745357 12.164959568734048,245.50772619165218" stroke="#4dd2ff" stroke-linecap="round" stroke-linejoin="round" stroke-width="0.5"><title>2022-02-10 10.0km</title></polyline><polyline fill="none" points="61.583662713936064,241.3775262076524 59.30698287230916,247.23919770220527 59.80500658758683,249.87268729129573 70.61923583655152,260.57645251840586 89.40184453234542,263.03999578935327 92.81686429510592,262.19049902877305 80.50856389984256,262.1055492993328 70.12121212115744,259.557052922959 59.16469038196374,249.3629803545191 60.23188405786641,243.41637369064847 62.295125164673664,242.142094666895 64.85638998675859,242.9916142578586 71.04611330694752,250.552295998903 75.9552042161813,253.95033024915028 90.3267457181355,256.0740937954979 93.884057971125,258.282801470079 89.97101449267939,255.98914336960297 86.48484848497901,256.1590442114393 74.53227931482252,253.27072463725926 64.71409749682061,243.16151806002017 62.36627140978817,242.48190261929994 59.87615283270134,244.60569881566335 59.44927536213072,249.87268729129573 70.33465085650096,260.06675289489795 76.0974967062939,261.3410013006069 70.19235836609732,260.06675289489795 59.37812911719084,249.9576384135289 60.01844532263931,244.09598828013986 62.579710144898854,242.142094666895 64.85638998675859,243.16151806002017 75.10144927521469,253.5255768141942 80.65085638989694,253.27072463725926 94.38208168640267,258.5376519347774 90.68247694341699,256.4988457792206 74.03425559960306,253.1857738920371 64.64295125153149,243.0765661636833 62.93544137018034,242.48190261929994 59.87615283270134,244.26589183072792 59.37812911719084,249.53288270544726 70.12121212115744,259.8968529428239 75.81291172595229,261.0012019384303 73.25164690386737,261.08615179359913 69.12516469036927,258.96240251575364 59.37812911719084,249.53288270544726 60.16073781286832,243.5013255479862 62.36627140978817,242.142094666895 64.00263504608301,242.48190261929994 75.52832674561068,253.86537958146073 89.40184453234542,255.90419293404557 94.09749670606107,257.9430007151095 73.10935441363836,252.67606921913102 66.84848484845133,246.47463446692564 64.92753623187309,239.50857778586214 61.93939393921755,238.6590542284539 63.14888010523282,236.96000421070494 62.43741765478626,238.3192445343011 64.7852437417605,237.80952970293583 67.48880105395801,246.64453747600783 73.89196310937405,253.10082313750172 87.69433465081966,255.81924248900032 74.318840579479,253.6954782170942 64.92753623187309,243.5013255479862 62.579710144898854,242.48190261929994 60.3030303028645,243.58627739612712 59.16469038196374,249.44793153484352 68.41370223963168,258.282801470079 59.30698287230916,249.9576384135289 58.880105401796754,247.40910053666448 60.23188405786641,243.33142182347365 62.65085638983874,242.142094666895 75.81291172595229,253.95033024915028 89.61528326751431,255.98914336960297 93.9552042161231,258.02795091824373 90.1844532280229,256.3289450145676 75.17259552044561,253.78042890422512 64.57180500641698,243.16151806002017 61.93939393921755,242.56685458333232 59.87615283270134,244.26589183072792 59.23583662707824,249.44793153484352 69.69433465087786,259.4721028939821 73.32279314898187,261.42595111677656 90.39789196313359,262.61524752993137 92.9591567851603,261.7657502857619 94.66666666668607,259.1323026805185 90.4690382082481,256.4988457792206 76.16864295123378,254.03528090706095 72.1844532279647,251.8265606564819 66.99077733844751,246.21977988106664 64.85638998675859,239.08381612802623 62.08168642950477,238.06438716227422 63.07773386023473,237.04495680338005 61.0144927536021,237.55467215704266 62.08168642950477,237.63962468208047 58.66666666668607,248.93822430766886 70.54808959155343,260.2366528080893 73.67852437403053,261.42595111677656 90.96706192364218,262.61524752993137 93.5994729907834,261.2560514746583 94.45322793163359,258.96240251575364 90.3267457181355,256.58379614702426" stroke="#4dd2ff" stroke-linecap="round" stroke-linejoin="round" stroke-width="0.5"><title>2022-01-12 10.2km</title></polyline><polyline fill="none" points="127.00119065350009,244.26590122873313 127.07985783462937,244.40592773696335 126.78485590540367,244.7271638263228 126.96841266136471,244.65303256871266 127.06019103934523,244.38121719965056 127.00774625193299,243.53281611529746 127.3158593780172,241.49825361878902 127.21096980317816,241.31703428954643 127.08641343306226,241.4241185026185 126.96185706294636,240.88045827698443 127.1388582204745,240.52625283928865 127.1454138189074,240.15557056421312 127.02741304720985,240.27089417605748 127.17163621260988,240.36150543493204 126.60129914942809,240.28736896023474 126.75863351168664,240.07319642451694 126.98152385821595,240.36974281555376 126.87663428338419,240.04024673797176 126.95530146451347,239.88373548801246 126.76518911010498,239.81783589618135 126.78485590540367,239.587186773515 126.56196555885981,239.3894868429088 126.71929992113292,239.11764840945398 126.51607636987319,238.30212596113415 126.5881879525623,238.00556968511955 126.50296517302195,237.9890942949096 126.71274432270002,238.05499582958873 126.59474355098791,237.86552872861284 126.92252347237809,237.77491382355947 126.71274432270002,237.70077425732234 126.51607636987319,237.79962699261523 126.64718833842198,237.7090119912973 126.39151999975002,237.6925365222669 126.52263196829153,237.51130607434607 127.03396864564274,237.4042151062131 126.85696748810005,237.2312216132632 126.79141150382202,237.29712395317983 127.34863737016713,237.00056287210828 127.57152771669644,237.0664654571192 127.3814153623025,237.33007509688832 127.59775011041347,237.2476972047989 127.54530532299395,237.30536174073495 127.43386014971475,237.1241301615446 127.13230262205616,237.00880069908817 127.2765257874562,236.827568253364 127.17163621260988,236.58867012943665 127.30930377959157,236.41567436188052 126.53574316514278,235.41887982499247 126.60785474786098,235.09759552734613 126.79796710225492,234.92459560080897 126.92907907079643,234.25730564952391 127.28963698430744,234.1090180186984 127.38797096072085,233.87010942327106 127.1388582204745,233.31814466628202 126.71274432270002,232.92270420806017 126.37185320446588,233.16161645305328 125.6441817790037,232.72498303342218 125.51306981045491,232.89798909571618 125.58518139316584,232.7991285478056 125.73596015699877,232.8238436995489 125.73596015699877,233.09570971877838 125.78184934599267,232.93094257666962 125.42784703090729,232.89798909571618 125.35573544820363,232.99684948602953 125.48029181833408,232.5602149063925 125.86051652711467,232.48606910638773 125.76873814913415,232.78265177449794 125.61140378688287,232.81560531671494 125.5655145978817,232.7002678422832 125.82773853497929,232.61788380064172 125.6835153695647,232.5931685668147 125.66384857430239,232.37073101909846 125.6441817790037,232.45311538906026 125.55895899945608,232.33777724047468 125.71629336171463,232.1647696154323 125.39506903877191,232.40368478022356 125.60484818844998,232.6014069792036 126.07029567680729,232.55197648854664 125.54584780260484,233.14513977604292 125.38851344033901,233.06275632538018 125.53273660573905,232.80736693280414 126.10307366894995,232.74969821473496 126.20140764534881,232.92270420806017 126.38496440131712,232.95565767590597 126.82418949595012,232.72498303342218 127.0208574487915,232.8403204619135 127.1519694173403,233.30166803086104 127.19785860632692,233.20280812639976 127.11919142519764,233.19456979393 127.21752540160378,233.56529367227267 126.9749682597976,232.8238436995489 126.63407714157074,232.5025459585013 126.70618872425257,232.21420041470265 126.40463119660853,232.15653114506495 126.48985397616343,232.0 126.37840880288422,232.1071002998251 126.44396478716226,232.3295387930957 126.31940841704636,232.2471542589883 126.43740918874391,232.3624925760996 126.25385243276833,232.67555264129624 126.10307366894995,232.7167446374806 126.03096208623901,232.57669173879185 126.04407328309026,232.5025459585013 126.18829644849757,232.60964539045744 126.22107444063295,232.75793660631462 126.04407328309026,232.89798909571618 126.24074123591708,233.36757454624967 126.0637400783744,234.05135051094476 126.40463119660853,234.38087840435765 126.37840880288422,235.17997627513614 126.51607636987319,235.70721046998005 127.28308138588909,237.28888616452969 126.82418949595012,238.0385204525046 126.68652192899026,238.65634409927952 126.78485590540367,238.25270001358876 126.68652192899026,238.01380737861837 126.90941227551957,238.08794657068574 126.91596787394519,238.01380737861837 126.67996633055736,237.94790580016343 126.71929992113292,237.7419629161741 126.55540996042691,238.22798702503496 126.45707598402805,238.07970888703858 126.81763389753178,237.48659279042477 126.81763389753178,237.75020064467753 126.56196555885981,237.8820041516774 126.62752154313785,238.09618425323424 126.42429799187812,238.33507657092196 126.6144103462866,238.8458087846775 126.54885436200857,239.06822311173892 126.63407714157074,239.36477430726882 126.42429799187812,239.85902314929263 126.89630107866833,240.0979086778898 127.0208574487915,239.94139757343873 127.11919142519764,240.54272755562488 126.91596787394519,240.90517020875632 127.12574702363054,241.10286530883604 127.02741304720985,241.3911695336792 127.22408100004395,241.226424426397 127.02741304720985,242.68440342823305 127.11919142519764,243.06330761549907 127.05363544092688,244.41416458053573 126.93563466921478,244.8671892934326 126.50296517302195,245.20489647267823 126.51607636987319,245.58378526609522 126.79796710225492,246.05327469134863 126.98152385821595,245.99561828662263 127.1454138189074,246.10269442417484 126.98807945664885,245.99561828662263 127.0995246299135,246.03680143833117 127.01430185036588,245.97090838248914 127.0929690314806,246.02856481017443 127.07985783462937,245.91325190122006 127.11263582677202,246.01209155058677 126.96841266136471,245.8555953663854 126.65374393685488,245.88030531644472 126.79796710225492,245.99561828662263 126.6930775274086,245.79793877795237 125.43440262934018,247.28051974060145 125.02139992840239,249.141932341372 124.8378431724268,249.19958582233812 123.52016788850597,250.8303335250821 122.95638642372796,250.47618488937223 122.84494125046331,250.69855752466174 122.76627406933403,251.24213172260716 123.264499549834,251.72805008063006 123.42183391209255,251.64569130472955 123.46772310107917,251.35743472817194 123.3169443372608,251.19271608319104 123.25794395141565,251.4974452326096 122.84494125046331,251.35743472817194 122.24182619514613,252.20572882534907 122.34671576999244,253.2022536792756 122.69416248664493,254.28111791768242 123.04816480172303,258.4975677143557 122.97605321902665,259.2881201602213 122.12382542344858,261.12446875022215 121.01592928919854,262.62315244686397 120.41281423388136,263.8088985216673 120.1047011077826,264.1629710827692 119.90147755653743,265.7439215974191 119.0689165562435,267.0037127125288 119.14102813894715,268.0" stroke="#4dd2ff" stroke-linecap="round" stroke-linejoin="round" stroke-width="0.5"><title>2021-12-29 11.1km</title></polyline><polyline fill="none" points="187.9846285226231,242.51676806315663 187.69257045260747,243.89242344221566 187.83091374895594,247.12058203131892 187.6464560204622,249.1931725518516 186.4782237403706,254.1819539014832 185.75576430401998,254.20029472498572 185.0947907770751,253.87015958347183 185.57130657555535,251.90767564147245 185.14090520923492,251.1556894914247 183.23484201534302,252.2561558403977 182.1434671221068,253.7784552577068 180.6370623398834,255.1906960991182 180.20666097349022,256.0527071647375 178.53116994022275,257.153140135124 177.30145175062353,256.80467050601146 177.1016225448111,255.9610040786647 175.08795900938276,254.71383693665848 173.13578138341836,254.62213309007348 171.69086251065892,253.4666601603967 170.10760034162377,251.3941245036258 169.4466268147371,248.47785670671146 167.37147736974293,246.93716565940122 168.1554227156157,247.34068140256568 169.5695986336359,248.7346371183521 170.10760034162377,251.3024187713454 171.90606319384824,253.6317282280943 173.25875320237537,254.6771554042498 175.21093082833977,254.76885921959183 175.99487617418345,255.46580651371914 177.11699402220256,255.99768531935115 177.73185311701673,257.00641617240035 178.5772843723098,257.13479964705766 180.34500426983868,255.9610040786647 180.9598633646383,254.89724447351182 182.02049530313525,253.96186385715555 183.25021349273447,252.2744968826446 184.91033304868324,251.3024187713454 185.4022203244822,251.37578336130537 185.55593509817845,251.66924138776085 185.18701964135107,254.0719089168415 186.72416737832827,254.21863554642187 186.41673783090664,254.14527224827907 187.66182749786822,248.82634430924372 187.66182749786822,243.87408144756046 187.8923996584199,242.14992464875104 187.6310845431144,243.76402943620633 187.67719897523057,248.9914171215787 186.4935952177475,254.0719089168415 183.86507258751953,254.89724447351182 183.9726729291433,254.60379231454863 185.01793339026335,254.1269314185338 185.35610589239514,253.39329652057495 185.47907771135215,251.79762910662976 185.35610589239514,251.4858301837521 184.77198975236388,251.41246564380708 182.83518360374728,252.5496122665936 181.9590093937004,253.90684129920555 180.5140905209555,255.31908101758745 180.25277540563548,255.9610040786647 181.05209222885605,254.76885921959183 182.4662681468908,253.44831925354083 182.85055508109508,252.65965828891785 184.69513236547937,251.43080678193655 185.5098206660623,251.4491479179851 185.6020495303237,252.58629428232962 185.12553373184346,253.83347785941442 185.87873612296244,253.33827376882255 185.4175918018882,253.08150067942915 185.5866780529759,252.78804522010614 186.00170794191945,253.08150067942915 186.69342442355992,252.82472718166537 187.67719897523057,248.91805144803948 187.69257045260747,243.83739745210914 188.0,243.01200535014505 187.93851409050694,242.16826683930412 187.72331340734672,242.27831993864675 187.84628522630373,242.48008375923382 187.70794192995527,242.13158245613158 187.93851409050694,243.1220578742359 187.67719897523057,243.80071344829048 187.67719897523057,248.9730757063371 186.35525192142813,254.53042919142172 186.3859948761965,253.20988727521035 185.57130657555535,252.60463528710534 185.46370623397524,253.33827376882255 185.5251921434683,251.61421804838756 185.32536293765588,251.32075992201862 184.80273270707403,251.26573646388715 183.0196413321828,252.38454309249937 182.1434671221068,253.72343263725634 180.5294619983033,255.26405892217008 180.0222032450547,256.18109139775333 178.85397096496308,256.9880756677012 177.68573868487147,256.9880756677012 177.11699402220256,255.99768531935115 175.85653287787864,255.41078446827305 175.08795900938276,254.71383693665848 173.33561058923078,254.69549617148004 171.9214346712106,253.68675087981683 170.03074295471015,251.24739530702936 169.32365499573643,248.36780783381255 168.70879590095137,248.05600228661206 167.98633646457165,247.13892365706852 167.66353543975856,247.2122901391558 166.64901793339232,246.47862381787854 167.03330486761115,247.6158051946113 166.31084543123143,249.00975853476848 164.5584970111231,250.45872359050554 163.75918018788798,252.20113270108413 158.33304867635889,257.7216942311934 156.0888129803643,257.8500771370891 153.9521776259644,257.2081615867646 152.99914602904755,255.94266345522192 152.24594363789947,254.36536204259028 152.0,254.80554073114763 152.27668659266783,254.383702845269 152.66097352691577,255.46580651371914 154.22886421863222,257.39156629015633 156.10418445772666,257.8684175438684 158.34842015370668,257.7216942311934 163.91289496158424,252.07274530315772 164.54312553373165,250.49540608137613 166.06490179333196,249.32156223984202 166.64901793339232,248.53288111506845 167.00256191288645,247.5057557340333 166.6182749786385,246.49696551651869 169.38514090518584,248.51453964768734 170.30742954737798,251.88933455756342 172.05977796755906,253.8518187225127 173.30486763452063,254.6771554042498 175.1648163962236,254.69549617148004 176.19470538001042,255.66755385315628 177.20922288643487,256.1627507992962 177.67036720752367,257.0614376740705 178.6080273270636,257.153140135124 180.05294619982305,256.2361131806392 183.0196413321828,252.53127125556057 184.9718189581472,251.37578336130537 185.47907771135215,251.3941245036258 185.18701964135107,251.43080678193655 185.5866780529759,251.72426470830396 185.0947907770751,253.92518215392192 185.5098206660623,254.9889481637947 186.98548249357555,255.0072888955765 187.30828351838863,254.84222223435063 187.0162254483148,254.78719997638837 186.6011955593276,254.09024975282955 187.6310845431144,249.35824498911097 187.86165670365153,242.31500428842264" stroke="#4dd2ff" stroke-linecap="round" stroke-linejoin="round" stroke-width="0.5"><title>2021-11-21 16.2km</title></polyline></svg>