<?xml version="1.0" encoding="utf-8" ?>
<svg baseProfile="full" height="200mm" version="1.1" viewBox="0,0,200,200" width="200mm" xmlns="http://www.w3.org/2000/svg" xmlns:ev="http://www.w3.org/2001/xml-events" xmlns:xlink="http://www.w3.org/1999/xlink"><defs /><rect fill="#1a1a1a" height="200" width="200" x="0" y="0" /><text alignment-baseline="middle" fill="#e1ed5e" style="dominant-baseline: central; font-size:9.0px; font-family:Arial;" text-anchor="middle" x="100.0" y="100.0">2023</text><line stroke="#e1ed5e" stroke-width="0.3" x1="100.0" x2="100.0" y1="15.0" y2="10.0" /><path d="M 100.0 14.0 a86.0,86.0 0 0,1 42.46469731375804,11.215312516191453" fill="none" id="id25" stroke="none" /><text fill="#e1ed5e" style="font-size:6.75px; font-family:Arial;" text-anchor="middle"><textPath startOffset="22.20632615414155" xlink:href="#id25">January</textPath></text><path d="M 103.95276090670814 79.375362276772 l 1.9280138079809643 -10.059952335468921 a31.24304047808422,31.24304047808422 0 0,0 0.5273134769433967,0.10577412276721114 l -2.100893694391486 10.0252742566245" fill="#ff730a" stroke="none" /><path d="M 105.01212808612495 79.60689891045804 l 9.8611784219221 -40.12267942173532 a62.31673079816849,62.31673079816849 0 0,0 1.039476042133646,0.26498558803941347 l -10.55036335274077 39.94699083752704" fill="#32ff45" stroke="none" /><path d="M 106.40334571778207 80.00007090966166 l 4.983602763357462 -15.565566232786008 a37.3439024914551,37.3439024914551 0 0,0 0.6105144385628913,0.20127701164923964 l -5.250800024162771 15.477475496877531" fill="#ffc512" stroke="none" /><path d="M 107.08798089147638 80.2323363322302 l 13.894865624908196 -38.7513785078545 a62.16717900212817,62.16717900212817 0 0,0 1.0042002797324685,0.36985543782024577 l -14.559848230413241 38.50645980222792" fill="#31ff43" stroke="none" /><path d="M 107.4271985657038 80.35727306442388 l 4.3476184152191735 -11.498155138139888 a33.292654614243645,33.292654614243645 0 0,0 0.5342945279453155,0.2072979760792576 l -4.5448961081641555 11.421614458170083" fill="#ff900d" stroke="none" /><path d="M 108.09893153111575 80.62456947434976 l 6.8581497423403395 -16.407053616480592 a38.782733936671036,38.782733936671036 0 0,0 0.6137205906882158,0.26276312816204983 l -7.139554090818871 16.286570960355753" fill="#ffd814" stroke="none" /><path d="M 108.76106565485865 80.91482961587045 l 6.510969863439665 -14.183545028082955 a36.606590855349424,36.606590855349424 0 0,0 0.5704035303767246,0.2678121057881866 l -6.754151605115988 14.069367939654766" fill="#ffbc11" stroke="none" /><path d="M 109.41281617654863 81.2277094730956 l 16.337963842369604 -32.583341490418746 a57.45000967346676,57.45000967346676 0 0,0 0.8801875285886891,0.45086623881221294 l -16.89641185854705 32.297282726294036" fill="#4fff2b" stroke="none" /><line stroke="#e1ed5e" stroke-width="0.3" x1="143.23703022742887" x2="145.7803849466894" y1="26.81831364943548" y2="22.513508569990506" /><path d="M 143.74570117128098 25.957352633546492 a86.0,86.0 0 0,1 28.547481713284135,27.462654790039103" fill="none" id="id26" stroke="none" /><text fill="#e1ed5e" style="font-size:6.75px; font-family:Arial;" text-anchor="middle"><textPath startOffset="19.985693538727396" xlink:href="#id26">February</textPath></text><path d="M 110.68208982089419 81.91981866633111 l 5.909654369287169 -10.00250179576532 a32.61783357337862,32.61783357337862 0 0,0 0.4809389805770442,0.2897603545346864 l -6.080955416081851 9.89929483177202" fill="#ff860c" stroke="none" /><path d="M 111.60114157652 82.49532879139004 l 27.71668634580222 -41.82101203362555 a71.1718222661708,71.1718222661708 0 0,0 1.0153687543560348,0.6855815154496487 l -28.4324597945648 41.337718605877235" fill="#3dffab" stroke="none" /><path d="M 112.19680574252982 82.90503203632743 l 7.444428948371417 -10.434065858447441 a33.81753692039812,33.81753692039812 0 0,0 0.47095700294043347,0.34217029149816863 l -7.622931267665639 10.304376332132598" fill="#ff970d" stroke="none" /><path d="M 112.77801427241765 83.33499621200491 l 10.848753197209012 -14.148873938634685 a38.82936004643264,38.82936004643264 0 0,0 0.5269096912964959,0.41126137175994926 l -11.090695443664938 13.96003417765151" fill="#ffd814" stroke="none" /><path d="M 113.89432698308785 84.25364557470407 l 6.652344316922045 -7.539060474167587 a31.054407876351597,31.054407876351597 0 0,0 0.39777592883100593,0.3571271563914975 l -6.781131233349041 7.423434309006792" fill="#ff710a" stroke="none" /><path d="M 114.16331599549186 84.49514656593476 l 16.525818674664826 -18.091130389957677 a45.502891291730265,45.502891291730265 0 0,0 0.5737527085042997,0.5332406127256665 l -16.83477926696397 17.80398519115737" fill="#d3ff1c" stroke="none" /><path d="M 114.68862486808459 84.99185889309783 l 20.037521131231973 -20.473389937507374 a49.64719791912982,49.64719791912982 0 0,0 0.6056111775661172,0.6030104907070498 l -20.386968108965412 20.125443596150205" fill="#a3ff21" stroke="none" /><path d="M 115.4437574822437 85.77008943001954 l 33.849703086778355 -31.18918749527455 a67.02790257744147,67.02790257744147 0 0,0 0.7745117531707136,0.8552352224187453 l -34.381558480565104 30.601899485586255" fill="#38ff7c" stroke="none" /><path d="M 115.9244219780498 86.31012108654704 l 12.484782432155779 -10.732895673865368 a37.464046948558654,37.464046948558654 0 0,0 0.41618878709138507,0.492636251215212 l -12.667681832734281 10.516400473021049" fill="#ffc712" stroke="none" /><path d="M 116.38621287248628 86.86637796730983 l 14.06766789055938 -11.275297983357953 a39.02863346159634,39.02863346159634 0 0,0 0.4156473625561854,0.5278299407958247 l -14.259669333709528 11.03147564860909" fill="#ffdb14" stroke="none" /><path d="M 116.82858285166822 87.43820079747576 l 34.30465939884194 -25.60692405757273 a63.80799243319934,63.80799243319934 0 0,0 0.6494358858772534,0.8858298184858455 l -34.74035789723282 25.01263179541539" fill="#33ff57" stroke="none" /><path d="M 117.2510076193507 88.02491185347247 l 13.340469134522712 -9.260519578157382 a37.239622519830604,37.239622519830604 0 0,0 0.36100362156043736,0.529728269132747 l -13.497897221751883 9.029513285754229" fill="#ffc412" stroke="none" /><path d="M 117.45458315368197 88.32363383020206 l 25.229340221021435 -16.877344594787147 a51.35398439347363,51.35398439347363 0 0,0 0.4851811091162753,0.7389641155466751 l -25.516117965495635 16.440562415262796" fill="#90ff24" stroke="none" /><line stroke="#e1ed5e" stroke-width="0.3" x1="172.23445277983987" x2="176.4835382374775" y1="55.19839476539836" y2="52.563006222186495" /><path d="M 173.08426987136738 54.67131705675599 a86.0,86.0 0 0,1 12.851231095245387,41.99856678651699" fill="none" id="id27" stroke="none" /><text fill="#e1ed5e" style="font-size:6.75px; font-family:Arial;" text-anchor="middle"><textPath startOffset="22.20632615414155" xlink:href="#id27">March</textPath></text><path d="M 117.84615892207809 88.93136811851018 l 12.394479704143423 -7.687364760494097 a35.584879296631485,35.584879296631485 0 0,0 0.3183731733204135,0.5233217863493298 l -12.524968675750062 7.472875200937685" fill="#ffae10" stroke="none" /><path d="M 118.3937258080291 89.86733742301442 l 38.42955792274462 -21.169922150514985 a64.87478234699802,64.87478234699802 0 0,0 0.5304035568544987,0.9827572365117988 l -38.788269578817584 20.50528393067073" fill="#35ff63" stroke="none" /><path d="M 118.89224826269711 90.83032412892265 l 15.020948210721453 -7.290674167167181 a37.69679055869645,37.69679055869645 0 0,0 0.27831326164711095,0.586198707759638 l -15.14421966621032 7.031033043767002" fill="#ffca12" stroke="none" /><path d="M 119.196687751892 91.48605970444005 l 18.00921940136746 -7.987285136612713 a40.700982394290506,40.700982394290506 0 0,0 0.2785290137423351,0.642883365540561 l -18.144039124952474 7.676102626485549" fill="#fff016" stroke="none" /><path d="M 119.47837535516314 92.15188598940014 l 53.384660701146316 -21.50943782324893 a78.55499903265334,78.55499903265334 0 0,0 0.4945465505311217,1.2585670283308052 l -53.74700080155914 20.58732179002234" fill="#46fff8" stroke="none" /><path d="M 119.7369772167798 92.82701384747503 l 11.428042745336562 -4.1532799811448005 a33.159354242352585,33.159354242352585 0 0,0 0.19034561886913218,0.5381326967597366 l -11.497841445015505 3.9559496579584494" fill="#ff8e0d" stroke="none" /><path d="M 120.08093135843002 93.85539295169968 l 17.372808715437902 -5.315942820393108 a39.16793138287582,39.16793138287582 0 0,0 0.19172535088062487,0.6464025713920529 l -17.46173996343023 5.016110862254525" fill="#ffdd14" stroke="none" /><path d="M 120.28053869075195 94.5502522615342 l 17.78446664139591 -4.779008010421551 a39.415378662482,39.415378662482 0 0,0 0.1704314744416366,0.6567419943975249 l -17.86409444770785 4.4721695904751755" fill="#ffe015" stroke="none" /><path d="M 120.37134235888165 94.90015583598534 l 13.797871089993519 -3.454214804035766 a35.22367204798039,35.22367204798039 0 0,0 0.1421815259065974,0.5894342168021943 l -13.855285416160935 3.2161953555741656" fill="#ffa90f" stroke="none" /><path d="M 120.53481517161879 95.60439243477599 l 2.6018429924664264 -0.5569410119170286 a23.660783765773125,23.660783765773125 0 0,0 0.08182203696540263,0.3989933107482765 l -2.611044325346826 0.5120720450053403" fill="#ff0701" stroke="none" /><path d="M 120.73433829027371 96.67025291283417 l 19.504476009495548 -3.132242334918337 a40.75437993078097,40.75437993078097 0 0,0 0.10527071084669243,0.6936024552938778 l -19.555502613781538 2.796040767232377" fill="#fff116" stroke="none" /><path d="M 120.83666639777658 97.38593545837742 l 41.08195394006783 -5.153937633073715 a62.40398546830327,62.40398546830327 0 0,0 0.1245394762926551,1.0669781778990088 l -41.16458376936407 4.446015716849853" fill="#32ff46" stroke="none" /><path d="M 120.91429891909075 98.10471618934814 l 17.45717397193277 -1.5819941819104355 a38.52870869967111,38.52870869967111 0 0,0 0.054170476767910127,0.6610170253546411 l -17.481818932520177 1.2812632393480254" fill="#ffd513" stroke="none" /><path d="M 120.94382443527127 98.46500227214037 l 9.481651424295727 -0.6949214761435948 a30.50708312732432,30.50708312732432 0 0,0 0.03387653089087479,0.5240549387743532 l -9.492208546191018 0.5316074731162064" fill="#ff6909" stroke="none" /><path d="M 120.98425023603335 99.18683210126433 l 16.585092820743583 -0.6426946365813744 a37.597540789784816,37.597540789784816 0 0,0 0.019493976754072613,0.646910184321692 l -16.5936984919533 0.35711430483468337" fill="#ffc912" stroke="none" /><line stroke="#e1ed5e" stroke-width="0.3" x1="184.98032266829074" x2="189.97916517819016" y1="98.17113171792111" y2="98.06355123074" /><path d="M 185.9800911702706 98.14961562048488 a86.0,86.0 0 0,1 -9.607161424134198,41.387399972396054" fill="none" id="id28" stroke="none" /><text fill="#e1ed5e" style="font-size:6.75px; font-family:Arial;" text-anchor="middle"><textPath startOffset="21.466115282336823" xlink:href="#id28">April</textPath></text><path d="M 120.99513854157772 99.54816195383933 l 50.38013129897919 -1.0842348120908392 a71.39179690019132,71.39179690019132 0 0,0 0.015865952761270945,1.2288355262538389 l -50.391330258858176 0.2168630277765376" fill="#3dffad" stroke="none" /><path d="M 120.99824983174949 100.27111621757518 l 14.778084250341728 0.1908053450674776 a35.77931597841742,35.77931597841742 0 0,0 -0.013251870326354375,0.6157623418411203 l -14.772610317330365 -0.4451575026987128" fill="#ffb110" stroke="none" /><path d="M 120.9904718944345 100.63252640178507 l 22.134259327817624 0.6669932662406823 a43.14430662739956,43.14430662739956 0 0,0 -0.028758489161775837,0.7421288197914823 l -22.119498705804645 -1.0478993330461708" fill="#f0ff19" stroke="none" /><path d="M 120.92983693683757 101.71520430193887 l 15.678432849259101 1.2848506919505969 a36.730991637825404,36.730991637825404 0 0,0 -0.057064925301305885,0.6297066955563795 l -15.653993327680721 -1.554538776055547" fill="#ffbd11" stroke="none" /><path d="M 120.89721153311464 102.0752229133903 l 41.344947522970685 4.105810113307502 a62.54831359229563,62.54831359229563 0 0,0 -0.11561817041159,1.0704806649987877 l -41.26814705105804 -4.816887100191081" fill="#32ff47" stroke="none" /><path d="M 120.81339534386255 102.79330883721812 l 12.383418308666391 1.6619446863467435 a33.49444313076378,33.49444313076378 0 0,0 -0.08160833183123843,0.5707684827542139 l -12.352975925818551 -1.8748586410813668" fill="#ff920d" stroke="none" /><path d="M 120.76222939487914 103.15116336523771 l 14.06893800492104 2.135296801982265 a35.23005653603904,35.23005653603904 0 0,0 -0.09615833497135151,0.5987780436569045 l -14.030097915588401 -2.377154075332374" fill="#ffaa0f" stroke="none" /><path d="M 120.70491114924044 103.5080841355445 l 9.209445390534695 1.5603790346563928 a30.340699499129386,30.340699499129386 0 0,0 -0.09167739643511212,0.5141755257799134 l -9.181221551760395 -1.7186733111695247" fill="#ff6709" stroke="none" /><path d="M 120.49622156327973 104.57218783832717 l 44.86555948047585 10.008369824801555 a66.96831402222747,66.96831402222747 0 0,0 -0.260664385179138,1.122935349130947 l -44.68663452936617 -10.779173831281067" fill="#37ff7c" stroke="none" /><path d="M 120.23288151984713 105.62410040840565 l 21.43324830724867 5.957764366880349 a43.24587802833251,43.24587802833251 0 0,0 -0.20553605007396375,0.715497954104037 l -21.32751962028861 -6.325819796488968" fill="#eeff19" stroke="none" /><path d="M 120.02730092923936 106.31721596034902 l 11.156831456786431 3.519201813302562 a32.69870375545476,32.69870375545476 0 0,0 -0.17393802815278298,0.5353262057345497 l -11.0946011776174 -3.710726919014907" fill="#ff870c" stroke="none" /><path d="M 119.79798401119884 107.00284435728193 l 43.87465944737031 15.5191261476364 a67.53846815279778,67.53846815279778 0 0,0 -0.3971124888448412,1.092683016273538 l -43.60102269752024 -16.272056960916068" fill="#38ff82" stroke="none" /><path d="M 119.67450827220406 107.3425965602758 l 14.196655542317627 5.2982424114615 a36.15309873385068,36.15309873385068 0 0,0 -0.22260964174798292,0.5811635294524998 l -14.103351620976138 -5.541829507747143" fill="#ffb610" stroke="none" /><path d="M 119.41010516605496 108.01547362559984 l 12.282740633235731 5.0722024818268645 a34.28882822072701,34.28882822072701 0 0,0 -0.229978467188327,0.5436011618922372 l -12.193611184855094 -5.282878169385265" fill="#ff9d0e" stroke="none" /><path d="M 119.12269723197855 108.67885076344098 l 14.388488835561672 6.530226662086631 a36.80102753713536,36.80102753713536 0 0,0 -0.26676431035849274,0.5745865920450403 l -14.273949908363347 -6.776933321410501" fill="#ffbe11" stroke="none" /><path d="M 118.81262510543309 109.33194174019688 l 43.172159075287 21.415409653421435 a69.19185709065113,69.19185709065113 0 0,0 -0.5384488250339323,1.0624106144452155 l -42.7971315804668 -22.155374479569343" fill="#3aff95" stroke="none" /><line stroke="#e1ed5e" stroke-width="0.3" x1="174.80103733775053" x2="179.2010983576182" y1="140.37084112569926" y2="142.7455964860345" /><path d="M 175.68104954172406 140.8457921977663 a86.0,86.0 0 0,1 -30.038265399797805,32.042727171017184" fill="none" id="id29" stroke="none" /><text fill="#e1ed5e" style="font-size:6.75px; font-family:Arial;" text-anchor="middle"><textPath startOffset="22.206326154141568" xlink:href="#id29">May</textPath></text><path d="M 118.48025628344425 109.97397251340804 l 18.827861009427476 10.161578135825383 a42.394999892517035,42.394999892517035 0 0,0 -0.3521280048836042,0.639214611356799 l -18.650156595092362 -10.484163265579989" fill="#f9ff18" stroke="none" /><path d="M 118.12598468904814 110.60418214915192 l 18.52804463815955 10.839397890994203 a42.46580966916744,42.46580966916744 0 0,0 -0.3745466704613785,0.6277617635775036 l -18.338717091999946 -11.15672174845781" fill="#f8ff18" stroke="none" /><path d="M 117.75023020441432 111.22182372390056 l 1.8634571486595444 1.178091066903418 a23.204624935631454,23.204624935631454 0 0,0 -0.2163501290264888,0.33578020475535447 l -1.8429021562560053 -1.2099928715802253" fill="#ff0000" stroke="none" /><path d="M 117.55443506779139 111.5257021239791 l 23.05823857740546 15.139330221707665 a48.584083922698255,48.584083922698255 0 0,0 -0.46501190452034585,0.6951297036141888 l -22.794223567474393 -15.533996839527662" fill="#afff20" stroke="none" /><path d="M 117.14729908036423 112.12312394758627 l 24.772703239428168 17.514277349501988 a51.338700315999915,51.338700315999915 0 0,0 -0.5163700447577242,0.7171928291680841 l -24.467553402294843 -17.938103784121203" fill="#90ff24" stroke="none" /><path d="M 116.71984013943494 112.70617746262583 l 16.22871893570652 12.3329518146417 a41.38315526988973,41.38315526988973 0 0,0 -0.43588913465265583,0.5634454649852185 l -16.014022983835797 -12.61047527374017" fill="#fff917" stroke="none" /><path d="M 116.0416608686014 113.55231037782055 l 48.12498260580419 40.656931133461654 a84.0,84.0 0 0,0 -0.942629961716885,1.096491603353888 l -47.41801013451653 -41.47929983597707" fill="#4dd2ff" stroke="none" /><path d="M 115.56566222782051 114.09645910891815 l 11.625023340677417 10.52776706597105 a36.68359165072336,36.68359165072336 0 0,0 -0.42789416868870617,0.46439460998690646 l -11.442082763992989 -10.72631293075929" fill="#ffbd11" stroke="none" /><path d="M 115.32070863581623 114.36230785411682 l 3.2418646385418 3.0390668647835617 a25.443603688815323,25.443603688815323 0 0,0 -0.302286306174735,0.3169459834994837 l -3.1890717809881006 -3.0944199648655526" fill="#ff2103" stroke="none" /><path d="M 112.34349029814194 116.9893568818739 l 2.7304930294105887 3.7582012396532978 a25.645392205335455,25.645392205335455 0 0,0 -0.35936848060130716,0.25639986908408147 l -2.665397220960397 -3.8046453705815986" fill="#ff2403" stroke="none" /><line stroke="#e1ed5e" stroke-width="0.3" x1="143.8653032363475" x2="146.44561519142675" y1="172.8068346515853" y2="177.08958963109032" /><path d="M 144.38136562736335 173.6633856474863 a86.0,86.0 0 0,1 -40.68145358897372,12.25698825130547" fill="none" id="id30" stroke="none" /><text fill="#e1ed5e" style="font-size:6.75px; font-family:Arial;" text-anchor="middle"><textPath startOffset="21.466115282336833" xlink:href="#id30">June</textPath></text><path d="M 110.8373102113329 117.98757091392108 l 9.866910125524518 16.376918453304032 a40.1196070422838,40.1196070422838 0 0,0 -0.5945957482511763,0.35129764866423274 l -9.583546506244959 -16.544334674262014" fill="#ffe915" stroke="none" /><path d="M 109.57404056367764 118.69057910512821 l 6.4500031347513085 12.59178849479266 a35.14763859928202,35.14763859928202 0 0,0 -0.5408486698826932,0.27119275091339134 l -6.232300557185855 -12.700949086615353" fill="#ffa80f" stroke="none" /><path d="M 109.2508944713604 118.85261126421891 l 7.2722389019439655 14.820263431101308 a37.50835142629893,37.50835142629893 0 0,0 -0.5820712654298201,0.27942957981886163 l -7.016054968513912 -14.94324728741973" fill="#ffc712" stroke="none" /><path d="M 108.92500713936063 119.00905698771935 l 9.257906866091869 19.71808833949524 a42.783292848083576,42.783292848083576 0 0,0 -0.6693181403357299,0.3072511302464156 l -8.917120729988719 -19.874526540075728" fill="#f4ff19" stroke="none" /><path d="M 108.59647513512805 119.15986991738527 l 6.319590459881609 14.085137133439408 a36.437885595133174,36.437885595133174 0 0,0 -0.5744681228445068,0.2518299429931054 l -6.076201662379349 -14.191831629726968" fill="#ffb911" stroke="none" /><path d="M 107.93186726928326 119.44442032107085 l 17.091855815740498 41.89949444003094 a66.2515101356435,66.2515101356435 0 0,0 -1.0596421873791109,0.42165349488057446 l -16.36809255231952 -42.18749477931759" fill="#37ff73" stroke="none" /><path d="M 106.91757812671514 119.82793768551818 l 9.2210299078855 26.430349330463326 a48.99269115845138,48.99269115845138 0 0,0 -0.7986514784950771,0.2709459435697752 l -8.764708696453196 -26.585158260931223" fill="#abff21" stroke="none" /><path d="M 106.57524785965236 119.94407469862006 l 8.317835036897911 25.229698841415512 a47.56546787334207,47.56546787334207 0 0,0 -0.7797988237882999,0.24966695814179415 l -7.882314868018671 -25.369138646217014" fill="#bbff1f" stroke="none" /><path d="M 106.2309692047433 120.05430185196036 l 7.881109366549537 25.365258753771613 a47.56140501730476,47.56140501730476 0 0,0 -0.7839139298701157,0.2361868365258437 l -7.443320462239175 -25.497160959403182" fill="#bbff1f" stroke="none" /><path d="M 105.53697534728816 120.25689768951611 l 3.44004145613379 12.585313001027828 a34.046991551839035,34.046991551839035 0 0,0 -0.5666547114706643,0.14965865954393034 l -3.2228963018516286 -12.642663009875342" fill="#ff9a0e" stroke="none" /><path d="M 104.83641907484287 120.43548508189849 l 4.748092080225949 20.062274044374508 a41.61647928803285,41.61647928803285 0 0,0 -0.6985224001067081,0.15898142407060178 l -4.402049530726379 -20.141032202022792" fill="#fffc17" stroke="none" /><path d="M 104.48393922423573 120.51570834832081 l 5.825170402458552 26.652345422117058 a48.28149788258561,48.28149788258561 0 0,0 -0.8134479145637236,0.1704659195027566 l -5.36553102646545 -26.748667322346357" fill="#b3ff20" stroke="none" /><path d="M 104.13013068566511 120.58985236759428 l 3.457010437966216 17.234160361561116 a38.57746297211892,38.57746297211892 0 0,0 -0.6522023191791966,0.12499612672529538 l -3.1598405042153153 -17.29111368663488" fill="#ffd513" stroke="none" /><path d="M 103.7750983002368 120.6578951692458 l 5.573351541594205 30.49820235949493 a52.003267482104086,52.003267482104086 0 0,0 -0.8819532000269271,0.1533388687640105 l -5.047549370095228 -30.589619806779947" fill="#89ff24" stroke="none" /><path d="M 103.06178313531738 120.77559828337769 l 4.1151046836061855 27.92286651999802 a49.22446742191363,49.22446742191363 0 0,0 -0.8393273522782182,0.11632312305750919 l -3.633848740141137 -27.98956420854813" fill="#a8ff21" stroke="none" /><path d="M 102.70371172650421 120.8252237178851 l 0.5258252807286466 4.050146692913993 a25.084137664180226,25.084137664180226 0 0,0 -0.42866710114658513,0.05190561617035536 l -0.45603075653068126 -4.058597837809699" fill="#ff1c02" stroke="none" /><path d="M 101.98527174616119 120.90594882070398 l 2.856928664728732 30.084951626754084 a51.22029708291237,51.22029708291237 0 0,0 -0.8784419543512965,0.07579566811240462 l -2.338642392635894 -30.12967154714515" fill="#91ff23" stroke="none" /><path d="M 101.26447882468166 120.96189622390904 l 1.5855912792800158 26.285137561058317 a47.33291773253939,47.33291773253939 0 0,0 -0.8137022884880909,0.04205911387609455 l -1.1329009223784452 -26.308536481696613" fill="#beff1f" stroke="none" /><path d="M 100.90346689309514 120.98055641714683 l 1.2478815139758843 28.978647370456045 a50.00550312775425,50.00550312775425 0 0,0 -0.8602843135393872,0.02962993120110685 l -0.7488768487618448 -28.995834100083243" fill="#9fff22" stroke="none" /><line stroke="#e1ed5e" stroke-width="0.3" x1="102.19456741930631" x2="102.32365962044197" y1="184.97166512339345" y2="189.96999836594603" /><path d="M 102.22038585953345 185.97133177190398 a86.0,86.0 0 0,1 -42.740103519485714,-10.115201625700543" fill="none" id="id31" stroke="none" /><text fill="#e1ed5e" style="font-size:6.75px; font-family:Arial;" text-anchor="middle"><textPath startOffset="22.20632615414155" xlink:href="#id31">July</textPath></text><path d="M 100.54218724476979 120.99299961872073 l 0.8300118757719677 32.13730894575504 a53.148025537952236,53.148025537952236 0 0,0 -0.91475423009666,0.015748323641795733 l -0.27669795578263967 -32.14683474667599" fill="#7cff26" stroke="none" /><path d="M 100.18074693466247 120.99922214144158 l 0.050048949598612336 5.814698946511882 a26.81491433607773,26.81491433607773 0 0,0 -0.4615917685221316,0.0 l 0.05004894959860833 -5.814698946511882" fill="#ff3505" stroke="none" /><path d="M 99.09653310690486 120.98055641714683 l -1.101263364201092 25.5738404133475 a46.597540789784816,46.597540789784816 0 0,0 -0.8010603908429265,-0.041405672168741144 l 1.5413118234575074 -25.551094934416557" fill="#c6ff1e" stroke="none" /><path d="M 98.73552117531835 120.96189622390904 l -1.4853712954755038 24.623740897812063 a45.66850104258475,45.66850104258475 0 0,0 -0.7842743873982057,-0.054088153542325705 l 1.9090084436526396 -24.59452439975345" fill="#d1ff1c" stroke="none" /><path d="M 98.37488393609728 120.93702456842531 l -2.252883288238885 29.02480247618544 a50.11210473140007,50.11210473140007 0 0,0 -0.8594361556640339,-0.07415576782943745 l 2.7521637616444607 -28.98172245607734" fill="#9eff22" stroke="none" /><path d="M 98.01472825383883 120.90594882070398 l -3.4084807627399973 35.893083412879704 a57.054558352501125,57.054558352501125 0 0,0 -0.9769028285058803,-0.10125997248930324 l 4.025816187851471 -35.82909407193464" fill="#53ff2b" stroke="none" /><path d="M 97.65516085044442 120.86867818915974 l -1.6585391441327806 14.7607223589692 a35.85360820309981,35.85360820309981 0 0,0 -0.6127084175596321,-0.07419045655972413 l 1.912374984743802 -14.729986373684127" fill="#ffb210" stroke="none" /><path d="M 96.93821686468263 120.77559828337769 l -3.5859287252246093 24.332165726809073 a45.594982695242805,45.594982695242805 0 0,0 -0.7754710770538572,-0.12111263386762215 l 4.004235665886984 -24.266834785594344" fill="#d2ff1c" stroke="none" /><path d="M 96.58105272829116 120.7198165907248 l -1.4941154351694308 9.054774853725183 a30.17721791096111,30.17721791096111 0 0,0 -0.5117927236714703,-0.0889817252060983 l 1.649757130312951 -9.027714549998079" fill="#ff6509" stroke="none" /><path d="M 96.22490169976321 120.6578951692458 l -4.942941554368453 27.048505849886727 a48.49644231389325,48.49644231389325 0 0,0 -0.819895599975605,-0.15713494310329504 l 5.407804768915753 -26.959413708434965" fill="#b0ff20" stroke="none" /><path d="M 95.51606077576429 120.51570834832081 l -4.589926271644735 21.000638951659617 a42.49637782411487,42.49637782411487 0 0,0 -0.7132912812756417,-0.16234277334129774 l 4.95073770231324 -20.91851944474063" fill="#f8ff18" stroke="none" /><path d="M 94.46302465271185 120.25689768951611 l -5.739778825335849 20.998849576280843 a42.76916958662052,42.76916958662052 0 0,0 -0.7084790983444454,-0.2002232699985751 l 6.100389091784908 -20.896937512943747" fill="#f4ff19" stroke="none" /><path d="M 94.11515582081647 120.15858648285463 l -7.482898173197237 25.632734763033202 a47.70263763193534,47.70263763193534 0 0,0 -0.7862417461724434,-0.23688818848236676 l 7.923014893809925 -25.500131205445108" fill="#b9ff1f" stroke="none" /><path d="M 93.76903079525671 120.05430185196036 l -7.2669924752730495 23.388730688014114 a45.491670070293864,45.491670070293864 0 0,0 -0.7458005229222617,-0.23878177583544374 l 7.668514343286252 -23.260176065518962" fill="#d3ff1c" stroke="none" /><path d="M 93.08242187328487 119.8279376855182 l -7.361758050283948 21.10109596206418 a43.34841677594101,43.34841677594101 0 0,0 -0.7024103955487112,-0.2518593772789194 l 7.723888006462386 -20.9712490437453" fill="#edff1a" stroke="none" /><path d="M 92.06813273071674 119.44442032107085 l -9.253621863053292 22.68460967498236 a45.499408843698276,45.499408843698276 0 0,0 -0.7226357821603306,-0.30206181555051653 l 9.642729104711085 -22.52196281641187" fill="#d3ff1c" stroke="none" /><path d="M 91.40352486487194 119.15986991738527 l -10.287718292476491 22.929321743174956 a46.131473161503905,46.131473161503905 0 0,0 -0.7216983493309703,-0.33129631510911545 l 10.68088463757488 -22.748838357731763" fill="#ccff1d" stroke="none" /><path d="M 91.07499286063937 119.00905698771935 l -10.776182871548572 22.951810695137056 a46.35570412089683,46.35570412089683 0 0,0 -0.7193684161394882,-0.3453405556936153 l 11.169663955688304 -22.762915862943878" fill="#c9ff1d" stroke="none" /><path d="M 90.7491055286396 118.85261126421891 l -21.458337690940244 43.73044143094011 a69.71151572475763,69.71151572475763 0 0,0 -1.0727144712365344,-0.5378813050651247 l 22.20790606985954 -43.35459228496568" fill="#3bff9b" stroke="none" /><path d="M 90.10565033884886 118.52300852407294 l -6.647654608766022 12.444937484546095 a35.109138201595044,35.109138201595044 0 0,0 -0.5306114076255967,-0.2893316464021117 l 6.860888828260259 -12.328665186384217" fill="#ffa80f" stroke="none" /><line stroke="#e1ed5e" stroke-width="0.3" x1="58.666819895761336" x2="56.23545636021788" y1="174.27360380694188" y2="178.64263932499728" /><path d="M 58.180547188652646 175.14741091055294 a86.0,86.0 0 0,1 -31.652253787137756,-30.449443065178592" fill="none" id="id32" stroke="none" /><text fill="#e1ed5e" style="font-size:6.75px; font-family:Arial;" text-anchor="middle"><textPath startOffset="22.20632615414155" xlink:href="#id32">August</textPath></text><path d="M 89.7882731507175 118.34994917583269 l -10.699588443759367 19.22661142851725 a43.003267482104086,43.003267482104086 0 0,0 -0.6437204837817415,-0.3655212907639132 l 11.028957694462315 -19.039586971958702" fill="#f1ff19" stroke="none" /><path d="M 89.4739219176387 118.17145234162733 l -7.873393785398712 13.592051932237116 a36.70777531761216,36.70777531761216 0 0,0 -0.5440304315196305,-0.32142276825346605 l 8.106192087946726 -13.454510591689901" fill="#ffbd11" stroke="none" /><path d="M 89.1626897886671 117.98757091392108 l -12.587212005413614 20.892026170771487 a45.390872546701345,45.390872546701345 0 0,0 -0.6657777560764548,-0.40897507555043056 l 12.944968961422378 -20.67226262839268" fill="#d5ff1c" stroke="none" /><path d="M 88.8546689885994 117.79835938074946 l -6.609921646711808 10.555609414061525 a33.454394978395925,33.454394978395925 0 0,0 -0.48543633102034567,-0.3098284340822566 l 6.7906397797790765 -10.440266551155464" fill="#ff920d" stroke="none" /><path d="M 88.54995079064634 117.60387380957326 l -26.52683729759767 40.78367593149849 a69.65163223879244,69.65163223879244 0 0,0 -0.9994190032194058,-0.6623604186812655 l 27.22493099955704 -40.32101749172591" fill="#3bff9a" stroke="none" /><path d="M 88.24862548938628 117.40417183066458 l -5.22695514311292 7.741292338164304 a30.340699499129386,30.340699499129386 0 0,0 -0.43032230769244806,-0.295979607119158 l 5.359434335428258 -7.650171941680045" fill="#ff6709" stroke="none" /><path d="M 87.95078237400918 117.19931262002967 l -6.252710393779361 8.925253416715243 a31.897547238762655,31.897547238762655 0 0,0 -0.44697983147700215,-0.3189082417082523 l 6.40541755310525 -8.816300913162772" fill="#ff7c0b" stroke="none" /><path d="M 87.65650970185807 116.9893568818739 l -19.971055528294613 27.487799761870598 a54.976789057574585,54.976789057574585 0 0,0 -0.7608133894409232,-0.5628315570290949 l 20.4412538881541 -27.139958256101735" fill="#69ff28" stroke="none" /><path d="M 87.36589467227662 116.77436683061367 l -5.662074055766183 7.517564937907413 a30.411315806444676,30.411315806444676 0 0,0 -0.41543489683718615,-0.31853776384197025 l 5.790637681096856 -7.418987832238076" fill="#ff6809" stroke="none" /><path d="M 87.07902340077011 116.55440617244103 l -13.921487497272535 17.83626468049986 a43.62609449042327,43.62609449042327 0 0,0 -0.5880018651199453,-0.46714424358589596 l 14.226446855109838 -17.593986522908832" fill="#eaff1a" stroke="none" /><path d="M 86.79598089348748 116.32954008644616 l -15.393247445042746 19.036980269926428 a45.48180313420323,45.48180313420323 0 0,0 -0.6045395172574247,-0.49749486586206 l 15.71865709084486 -18.769190285207188" fill="#d3ff1c" stroke="none" /><path d="M 86.51685102203217 116.09983520530335 l -13.265353595976112 15.83977208768352 a41.660783765773125,41.660783765773125 0 0,0 -0.545824756515347,-0.4651636989175913 l 13.536043829068516 -15.609083998542978" fill="#fffc17" stroke="none" /><path d="M 85.97065885151581 115.62618273729859 l -7.155660642534974 7.970129147399633 a31.711042799716246,31.711042799716246 0 0,0 -0.4030329338152439,-0.36816102922159516 l 7.2917931258170725 -7.845775351591462" fill="#ff7a0b" stroke="none" /><path d="M 85.70375840098266 115.38237550388516 l -27.953138088365147 30.076832684244977 a62.06085475612115,62.06085475612115 0 0,0 -0.7762458395956792,-0.7339888921600981 l 28.466719762351644 -29.591209155338948" fill="#31ff41" stroke="none" /><path d="M 85.44109423537348 115.13401014063109 l -4.737424200925047 4.924561437266095 a27.833336916098798,27.833336916098798 0 0,0 -0.34241637703879474,-0.3351264940265249 l 4.821490530339636 -4.842284840317" fill="#ff4406" stroke="none" /><path d="M 85.18274418774928 114.88116024355367 l -16.108942990364078 16.17841825985625 a43.83066494120682,43.83066494120682 0 0,0 -0.5300575367556779,-0.5369454862511365 l 16.385041152175287 -15.89873227962445" fill="#e7ff1a" stroke="none" /><path d="M 84.9287848128048 114.62390073753433 l -4.706130222257516 4.56645203279141 a27.55744964423139,27.55744964423139 0 0,0 -0.3274001498542862,-0.3432777481936688 l 4.78403692349076 -4.4847671680152414" fill="#ff4006" stroke="none" /><path d="M 84.67929136418377 114.36230785411682 l -20.675810949574885 19.382416900554382 a49.3402054214407,49.3402054214407 0 0,0 -0.5755266927719289,-0.6246205571016156 l 21.006384050342543 -19.02364508865142" fill="#a7ff21" stroke="none" /><path d="M 84.43433777217949 114.09645910891817 l -23.091453628706677 20.911910272648974 a52.15322169436144,52.15322169436144 0 0,0 -0.5968840617413366,-0.6706055708908916 l 23.44799654009635 -20.51133053201722" fill="#87ff25" stroke="none" /><path d="M 84.19399662182784 113.82643327865904 l -11.719379268652535 10.251624756014852 a36.57047399987102,36.57047399987102 0 0,0 -0.41038600602936615,-0.47737163894678464 l 11.89410778425268 -10.048376017906538" fill="#ffbb11" stroke="none" /><path d="M 83.95833913139862 113.55231037782056 l -24.714297049816516 20.87912387203896 a53.35327328618414,53.35327328618414 0 0,0 -0.5866421057406307,-0.7066482076516765 l 25.070035155450682 -20.450614407273523" fill="#7aff26" stroke="none" /><path d="M 83.72743513129214 113.27417163493432 l -12.193142449935502 9.946426206042817 a36.735441432532944,36.735441432532944 0 0,0 -0.39548691907873423,-0.4934307404444538 l 12.362547281069098 -9.735067632020103" fill="#ffbd11" stroke="none" /><path d="M 83.50135304334701 112.99209946851258 l -10.36360639245882 8.16097256078584 a34.19112620649627,34.19112620649627 0 0,0 -0.36013542992922,-0.46552358992801657 l 10.50254863960611 -7.981370976744571" fill="#ff9c0e" stroke="none" /><path d="M 83.28015986056508 112.70617746262583 l -12.485004434269367 9.48793054482269 a36.68107654936692,36.68107654936692 0 0,0 -0.37770807282360586,-0.5060016877183215 l 12.646473773788058 -9.271615977595062" fill="#ffbd11" stroke="none" /><path d="M 82.6465618267979 111.8261652097733 l -18.61383305404772 12.685109583888783 a43.525247748231905,43.525247748231905 0 0,0 -0.41659236350586726,-0.6227490594471383 l 18.829428522964317 -12.362823610235823" fill="#ebff1a" stroke="none" /><line stroke="#e1ed5e" stroke-width="0.3" x1="26.63291911575756" x2="22.317208475507996" y1="142.92168965132927" y2="145.44649492493687" /><path d="M 25.769776987707644 143.4266507060508 a86.0,86.0 0 0,1 -11.730757126820373,-40.83630448921669" fill="none" id="id33" stroke="none" /><text fill="#e1ed5e" style="font-size:6.75px; font-family:Arial;" text-anchor="middle"><textPath startOffset="21.46611528233685" xlink:href="#id33">September</textPath></text><line stroke="#e1ed5e" stroke-width="0.3" x1="15.007084014347285" x2="10.007500721073583" y1="101.09737516637583" y2="101.16192664675087" /><path d="M 14.007167355692545 101.11028546245083 a86.0,86.0 0 0,1 10.666146001902534,-42.60595125391555" fill="none" id="id34" stroke="none" /><text fill="#e1ed5e" style="font-size:6.75px; font-family:Arial;" text-anchor="middle"><textPath startOffset="22.20632615414155" xlink:href="#id34">October</textPath></text><line stroke="#e1ed5e" stroke-width="0.3" x1="26.266209847984243" x2="21.928928074336255" y1="57.711370442889674" y2="55.22380399835377" /><path d="M 25.398753493254645 57.213857153982495 a86.0,86.0 0 0,1 29.58750427330803,-30.492523968695096" fill="none" id="id35" stroke="none" /><text fill="#e1ed5e" style="font-size:6.75px; font-family:Arial;" text-anchor="middle"><textPath startOffset="21.46611528233685" xlink:href="#id35">November</textPath></text><line stroke="#e1ed5e" stroke-width="0.3" x1="56.762969772571076" x2="54.21961505331055" y1="26.818313649435495" y2="22.513508569990535" /><path d="M 56.25429882871897 25.957352633546506 a86.0,86.0 0 0,1 42.265352541879196,-11.944610805530505" fill="none" id="id36" stroke="none" /><text fill="#e1ed5e" style="font-size:6.75px; font-family:Arial;" text-anchor="middle"><textPath startOffset="22.20632615414155" xlink:href="#id36">December</textPath></text></svg>