<?xml version="1.0" encoding="utf-8" ?>
<svg baseProfile="full" height="200mm" version="1.1" viewBox="0,0,200,200" width="200mm" xmlns="http://www.w3.org/2000/svg" xmlns:ev="http://www.w3.org/2001/xml-events" xmlns:xlink="http://www.w3.org/1999/xlink"><defs /><rect fill="#1a1a1a" height="200" width="200" x="0" y="0" /><text alignment-baseline="middle" fill="#e1ed5e" style="dominant-baseline: central; font-size:9.0px; font-family:Arial;" text-anchor="middle" x="100.0" y="100.0">2023</text><line stroke="#e1ed5e" stroke-width="0.3" x1="100.0" x2="100.0" y1="15.0" y2="10.0" /><path d="M 100.0 14.0 a86.0,86.0 0 0,1 42.46469731375804,11.215312516191453" fill="none" id="id25" stroke="none" /><text fill="#e1ed5e" style="font-size:6.75px; font-family:Arial;" text-anchor="middle"><textPath startOffset="22.20632615414155" xlink:href="#id25">January</textPath></text><path d="M 103.59715602781102 79.31037775812273 l 2.1324513197804675 -12.265137212382342 a33.4491340851402,33.4491340851402 0 0,0 0.5664131083599577,0.10350837513130672 l -2.343259549243326 12.226613355900298" fill="#ff0000" stroke="none" /><path d="M 103.95276090670814 79.375362276772 l 2.420977840079379 -12.632130317536355 a33.862031334955475,33.862031334955475 0 0,0 0.5715162547040467,0.1146407841478544 l -2.6380605042505514 12.58858557731129" fill="#ff0701" stroke="none" /><path d="M 105.01212808612495 79.60689891045804 l 12.382532914296464 -50.38144299721177 a72.88079528934512,72.88079528934512 0 0,0 1.2156902274011376,0.3099065074366004 l -13.247932030382627 50.160833493606305" fill="#3cffa5" stroke="none" /><path d="M 106.40334571778207 80.00007090966166 l 6.257834774783885 -19.545446594765703 a41.52279168771473,41.52279168771473 0 0,0 0.6788327454686776,0.22380048330914162 l -6.59335034249498 19.43483238719733" fill="#ff8a0c" stroke="none" /><path d="M 107.08798089147638 80.2323363322302 l 17.44757305654918 -48.65952113604901 a72.69300535617194,72.69300535617194 0 0,0 1.1742262956915375,0.43247745440654556 l -18.282581678013297 48.35198041383614" fill="#3cffa2" stroke="none" /><path d="M 107.4271985657038 80.35727306442388 l 5.459238827438194 -14.438059870734268 a36.43570087187219,36.43570087187219 0 0,0 0.5847354566122495,0.22686827275518354 l -5.706957449050111 14.341948894088537" fill="#ff3505" stroke="none" /><path d="M 108.09893153111575 80.62456947434976 l 8.611675124639982 -20.60208960229913 a43.329510617868564,43.329510617868564 0 0,0 0.685671435491177,0.29356872494531455 l -8.965030317921475 20.450801349391025" fill="#ffa80f" stroke="none" /><path d="M 108.76106565485865 80.91482961587045 l 8.175726590526436 -17.81006342621377 a40.59696059415333,40.59696059415333 0 0,0 0.6325814314961232,0.29700546407837447 l -8.481086233322157 17.666692979495394" fill="#ff7b0b" stroke="none" /><path d="M 109.41281617654863 81.2277094730956 l 20.515334615687305 -40.91441014452613 a66.76972702418183,66.76972702418183 0 0,0 1.0229742579329597,0.5240071474490046 l -21.21656936120902 40.555210471764624" fill="#33ff50" stroke="none" /><line stroke="#e1ed5e" stroke-width="0.3" x1="143.23703022742887" x2="145.7803849466894" y1="26.81831364943548" y2="22.513508569990506" /><path d="M 143.74570117128098 25.957352633546492 a86.0,86.0 0 0,1 28.547481713284135,27.462654790039103" fill="none" id="id26" stroke="none" /><text fill="#e1ed5e" style="font-size:6.75px; font-family:Arial;" text-anchor="middle"><textPath startOffset="19.985693538727396" xlink:href="#id26">February</textPath></text><path d="M 110.68208982089419 81.91981866633111 l 7.420663799890058 -12.559990541904426 a35.58833827561342,35.58833827561342 0 0,0 0.5247380728766049,0.3161488175737831 l -7.635763938984301 12.430395114872029" fill="#ff2603" stroke="none" /><path d="M 111.60114157652 82.49532879139004 l 34.803424729560035 -52.514013625829904 a84.0,84.0 0 0,0 1.1983812223738326,0.8091523508053196 l -35.70221064634041 51.90714936272591" fill="#4dd2ff" stroke="none" /><path d="M 112.19680574252982 82.90503203632743 l 9.347857075217886 -13.101899022021673 a37.09478766190948,37.09478766190948 0 0,0 0.5165973519327199,0.37532994603407116 l -9.571999743504396 12.939049841170927" fill="#ff4006" stroke="none" /><path d="M 112.77801427241765 83.33499621200491 l 13.622615654624324 -17.76652746246796 a43.38805832019034,43.38805832019034 0 0,0 0.5887706721951553,0.4595448485739728 l -13.926418881978911 17.52940422467076" fill="#ffa90f" stroke="none" /><path d="M 113.89432698308785 84.25364557470407 l 8.353248358066361 -9.466684453931187 a33.625168223902634,33.625168223902634 0 0,0 0.4307047996412508,0.38669102173198133 l -8.514964145303603 9.321494423429908" fill="#ff0300" stroke="none" /><path d="M 114.16331599549186 84.49514656593476 l 20.751221093396097 -22.716759389778492 a51.767910784453605,51.767910784453605 0 0,0 0.6527492689588116,0.6066593063119615 l -21.139178246149758 22.35619549739189" fill="#d6ff1c" stroke="none" /><path d="M 114.68862486808459 84.99185889309783 l 25.16081286763993 -25.708126749317803 a56.97185406841555,56.97185406841555 0 0,0 0.6949594957342733,0.6919751188021899 l -25.599608163541525 25.271215779865496" fill="#8eff24" stroke="none" /><path d="M 115.4437574822437 85.77008943001954 l 42.504561288477085 -39.16379201413172 a78.79654258908636,78.79654258908636 0 0,0 0.9104991503195805,1.0053959028353314 l -43.1724040794127 38.426343324026845" fill="#45fff0" stroke="none" /><path d="M 115.9244219780498 86.31012108654704 l 15.676952873129995 -13.477135111144621 a41.673655269216084,41.673655269216084 0 0,0 0.46295340340498975,0.5479908066112308 l -15.906616890022102 13.205285354904284" fill="#ff8d0d" stroke="none" /><path d="M 116.38621287248628 86.86637796730983 l 17.664558253504346 -14.158221504952433 a43.638282940071804,43.638282940071804 0 0,0 0.4647392337825282,0.5901716318957028 l -17.905651567880838 13.85205747910369" fill="#ffad10" stroke="none" /><path d="M 116.82858285166822 87.43820079747576 l 43.07584306309446 -32.154228065876595 a74.75335001754542,74.75335001754542 0 0,0 0.7608374161240294,1.0377813805468903 l -43.62294309173212 31.407984241658212" fill="#3fffbd" stroke="none" /><path d="M 117.2510076193507 88.02491185347247 l 16.75142575081667 -11.628294669641507 a41.391848901194244,41.391848901194244 0 0,0 0.40125560747712713,0.5887930916313048 l -16.94910582396253 11.338223554739795" fill="#ff880c" stroke="none" /><path d="M 117.45458315368197 88.32363383020206 l 31.68010174101375 -21.19262688587892 a59.115040084526484,59.115040084526484 0 0,0 0.5585058501771997,0.8506427267037914 l -32.04020422654887 20.644166095197455" fill="#72ff27" stroke="none" /><line stroke="#e1ed5e" stroke-width="0.3" x1="172.23445277983987" x2="176.4835382374775" y1="55.19839476539836" y2="52.563006222186495" /><path d="M 173.08426987136738 54.67131705675599 a86.0,86.0 0 0,1 12.851231095245387,41.99856678651699" fill="none" id="id27" stroke="none" /><text fill="#e1ed5e" style="font-size:6.75px; font-family:Arial;" text-anchor="middle"><textPath startOffset="22.20632615414155" xlink:href="#id27">March</textPath></text><path d="M 117.84615892207809 88.93136811851018 l 15.56356110046133 -9.6529079079848 a39.31401281008148,39.31401281008148 0 0,0 0.35173723395177736,0.578163529538228 l -15.72741413269933 9.38357660523949" fill="#ff6609" stroke="none" /><path d="M 118.3937258080291 89.86733742301442 l 48.25541588441271 -26.58275173675955 a76.09290201174579,76.09290201174579 0 0,0 0.6221207134466542,1.1526951982550546 l -48.70584469707783 25.74817555517204" fill="#41ffce" stroke="none" /><path d="M 118.89224826269711 90.83032412892265 l 18.86157796412197 -9.154789517008064 a41.96590790777667,41.96590790777667 0 0,0 0.30983191233772484,0.6525850243721473 l -19.01636807030145 8.828762076995377" fill="#ff920d" stroke="none" /><path d="M 119.196687751892 91.48605970444005 l 22.613904997649644 -10.029513397720281 a45.73822625488283,45.73822625488283 0 0,0 0.313000382292575,0.72244803684934 l -22.7831960897849 9.638766216284338" fill="#ffce13" stroke="none" /><line stroke="#e1ed5e" stroke-width="0.3" x1="184.98032266829074" x2="189.97916517819016" y1="98.17113171792111" y2="98.06355123074" /><path d="M 185.9800911702706 98.14961562048488 a86.0,86.0 0 0,1 -9.607161424134198,41.387399972396054" fill="none" id="id28" stroke="none" /><text fill="#e1ed5e" style="font-size:6.75px; font-family:Arial;" text-anchor="middle"><textPath startOffset="21.466115282336823" xlink:href="#id28">April</textPath></text><line stroke="#e1ed5e" stroke-width="0.3" x1="174.80103733775053" x2="179.2010983576182" y1="140.37084112569926" y2="142.7455964860345" /><path d="M 175.68104954172406 140.8457921977663 a86.0,86.0 0 0,1 -30.038265399797805,32.042727171017184" fill="none" id="id29" stroke="none" /><text fill="#e1ed5e" style="font-size:6.75px; font-family:Arial;" text-anchor="middle"><textPath startOffset="22.206326154141568" xlink:href="#id29">May</textPath></text><line stroke="#e1ed5e" stroke-width="0.3" x1="143.8653032363475" x2="146.44561519142675" y1="172.8068346515853" y2="177.08958963109032" /><path d="M 144.38136562736335 173.6633856474863 a86.0,86.0 0 0,1 -40.68145358897372,12.25698825130547" fill="none" id="id30" stroke="none" /><text fill="#e1ed5e" style="font-size:6.75px; font-family:Arial;" text-anchor="middle"><textPath startOffset="21.466115282336833" xlink:href="#id30">June</textPath></text><line stroke="#e1ed5e" stroke-width="0.3" x1="102.19456741930631" x2="102.32365962044197" y1="184.97166512339345" y2="189.96999836594603" /><path d="M 102.22038585953345 185.97133177190398 a86.0,86.0 0 0,1 -42.740103519485714,-10.115201625700543" fill="none" id="id31" stroke="none" /><text fill="#e1ed5e" style="font-size:6.75px; font-family:Arial;" text-anchor="middle"><textPath startOffset="22.20632615414155" xlink:href="#id31">July</textPath></text><line stroke="#e1ed5e" stroke-width="0.3" x1="58.666819895761336" x2="56.23545636021788" y1="174.27360380694188" y2="178.64263932499728" /><path d="M 58.180547188652646 175.14741091055294 a86.0,86.0 0 0,1 -31.652253787137756,-30.449443065178592" fill="none" id="id32" stroke="none" /><text fill="#e1ed5e" style="font-size:6.75px; font-family:Arial;" text-anchor="middle"><textPath startOffset="22.20632615414155" xlink:href="#id32">August</textPath></text><line stroke="#e1ed5e" stroke-width="0.3" x1="26.63291911575756" x2="22.317208475507996" y1="142.92168965132927" y2="145.44649492493687" /><path d="M 25.769776987707644 143.4266507060508 a86.0,86.0 0 0,1 -11.730757126820373,-40.83630448921669" fill="none" id="id33" stroke="none" /><text fill="#e1ed5e" style="font-size:6.75px; font-family:Arial;" text-anchor="middle"><textPath startOffset="21.46611528233685" xlink:href="#id33">September</textPath></text><line stroke="#e1ed5e" stroke-width="0.3" x1="15.007084014347285" x2="10.007500721073583" y1="101.09737516637583" y2="101.16192664675087" /><path d="M 14.007167355692545 101.11028546245083 a86.0,86.0 0 0,1 10.666146001902534,-42.60595125391555" fill="none" id="id34" stroke="none" /><text fill="#e1ed5e" style="font-size:6.75px; font-family:Arial;" text-anchor="middle"><textPath startOffset="22.20632615414155" xlink:href="#id34">October</textPath></text><line stroke="#e1ed5e" stroke-width="0.3" x1="26.266209847984243" x2="21.928928074336255" y1="57.711370442889674" y2="55.22380399835377" /><path d="M 25.398753493254645 57.213857153982495 a86.0,86.0 0 0,1 29.58750427330803,-30.492523968695096" fill="none" id="id35" stroke="none" /><text fill="#e1ed5e" style="font-size:6.75px; font-family:Arial;" text-anchor="middle"><textPath startOffset="21.46611528233685" xlink:href="#id35">November</textPath></text><line stroke="#e1ed5e" stroke-width="0.3" x1="56.762969772571076" x2="54.21961505331055" y1="26.818313649435495" y2="22.513508569990535" /><path d="M 56.25429882871897 25.957352633546506 a86.0,86.0 0 0,1 42.265352541879196,-11.944610805530505" fill="none" id="id36" stroke="none" /><text fill="#e1ed5e" style="font-size:6.75px; font-family:Arial;" text-anchor="middle"><textPath startOffset="22.20632615414155" xlink:href="#id36">December</textPath></text></svg>