<?xml version="1.0" encoding="utf-8" ?>
<svg baseProfile="full" height="200mm" version="1.1" viewBox="0,0,200,200" width="200mm" xmlns="http://www.w3.org/2000/svg" xmlns:ev="http://www.w3.org/2001/xml-events" xmlns:xlink="http://www.w3.org/1999/xlink"><defs /><rect fill="#1a1a1a" height="200" width="200" x="0" y="0" /><text alignment-baseline="middle" fill="#e1ed5e" style="dominant-baseline: central; font-size:9.0px; font-family:Arial;" text-anchor="middle" x="100.0" y="100.0">2022</text><line stroke="#e1ed5e" stroke-width="0.3" x1="100.0" x2="100.0" y1="15.0" y2="10.0" /><path d="M 100.0 14.0 a86.0,86.0 0 0,1 42.46469731375804,11.215312516191453" fill="none" id="id13" stroke="none" /><text fill="#e1ed5e" style="font-size:6.75px; font-family:Arial;" text-anchor="middle"><textPath startOffset="22.20632615414155" xlink:href="#id13">January</textPath></text><path d="M 100.0 79.0 l 0.0 -26.362914642348194 a47.362914642348194,47.362914642348194 0 0,0 0.815274718317137,0.00701732689197012 l -0.45379423904460864 26.359008692064783" fill="#c3ff1e" stroke="none" /><path d="M 100.36148047927253 79.00311137660856 l 0.26360399050038835 -15.311652901304608 a36.313921824073596,36.313921824073596 0 0,0 0.6248992437540952,0.01613930383381816 l -0.5271298694493514 15.304846805328431" fill="#ffaf10" stroke="none" /><path d="M 101.44485096284872 79.0497635885617 l 0.6583281979363517 -9.545712144517438 a30.568386298754135,30.568386298754135 0 0,0 0.5246260151158467,0.04072107581092287 l -0.8225444024145395 9.532965806518051" fill="#ff6008" stroke="none" /><path d="M 101.80526077348638 79.07773832637324 l 1.3302891185366537 -15.417527178553192 a36.474812226334876,36.474812226334876 0 0,0 0.6250651625885462,0.05935746889267213 l -1.595479408215444 15.392344165145342" fill="#ffb110" stroke="none" /><path d="M 102.16513564639614 79.11191278185805 l 2.5088315698717776 -24.203884285188906 a45.333562220455924,45.333562220455924 0 0,0 0.7754916665762552,0.08713552451475694 l -2.925089939957758 24.15711280720355" fill="#dcff1b" stroke="none" /><path d="M 102.52436894288641 79.15227682838746 l 1.7223570682074556 -14.224237491847086 a35.328134773754485,35.328134773754485 0 0,0 0.6030769516990847,0.0782966967549479 l -1.9669487484143866 14.192482471928002" fill="#ffa20e" stroke="none" /><path d="M 102.88285421437855 79.19881850522331 l 3.141577984237756 -22.667998091679785 a43.88465970285435,43.88465970285435 0 0,0 0.7473578853844421,0.11014112509806083 l -3.5313048500508537 22.610562482420757" fill="#edff19" stroke="none" /><path d="M 103.2404852339499 79.25152402106235 l 2.212603555493118 -14.16706092071972 a35.338801540755234,35.338801540755234 0 0,0 0.6002056380781862,0.09903907304325692 l -2.4561383997101793 14.126875584736839" fill="#ffa20f" stroke="none" /><path d="M 103.95276090670814 79.375362276772 l 5.3865692797005655 -28.105934709168775 a49.61745436758958,49.61745436758958 0 0,0 0.8374329764098019,0.16798117690739336 l -5.869568665577493 28.009049576184175" fill="#a9ff21" stroke="none" /><path d="M 104.307194497241 79.44645832069477 l 4.182469530894404 -19.95836544663292 a41.39189551459626,41.39189551459626 0 0,0 0.6960880505741247,0.15213788675966244 l -4.525400305622057 19.883414061777387" fill="#fff116" stroke="none" /><path d="M 105.36241919743992 79.69619591428918 l 2.6678050008945196 -10.101148023433453 a31.447505679065763,31.447505679065763 0 0,0 0.5221815051875986,0.14273193088840638 l -2.841284395305829 10.053729551718753" fill="#ff6c0a" stroke="none" /><path d="M 106.0581310904928 79.89281104454417 l 5.712091376567039 -18.958668758374557 a40.80048254422147,40.80048254422147 0 0,0 0.6707106368917267,0.2083930597343461 l -6.037587386169484 18.85753556375769" fill="#ffea16" stroke="none" /><path d="M 106.40334571778207 80.00007090966166 l 4.518207098957736 -14.111969832220364 a35.81762085945547,35.81762085945547 0 0,0 0.5855621194028271,0.19305062433221234 l -4.7604520406029796 14.032105483628916" fill="#ffa80f" stroke="none" /><path d="M 106.74666289553966 80.11325718540242 l 3.9158142562787543 -11.54241618857724 a33.18855909285449,33.18855909285449 0 0,0 0.5394215465524148,0.18819358577242326 l -4.113917806894443 11.47330174963261" fill="#ff840c" stroke="none" /><path d="M 108.09893153111575 80.62456947434976 l 3.683777236261999 -8.812862491669105 a30.551793550086302,30.551793550086302 0 0,0 0.4834693916824173,0.20699636228045912 l -3.8349303857347317 8.748146601425855" fill="#ff6008" stroke="none" /><path d="M 108.43124777332544 80.76684994638697 l 4.262831387611081 -9.724263588903876 a31.617581352911024,31.617581352911024 0 0,0 0.4965735095724451,0.22279805897478372 l -4.4295870156503065 9.64944519941256" fill="#ff6f0a" stroke="none" /><path d="M 108.76106565485865 80.91482961587045 l 5.087832002487885 -11.083370959497163 a33.19537397177163,33.19537397177163 0 0,0 0.5172499832200896,0.2428558026868919 l -5.2778601970075725 10.994150174170269" fill="#ff850c" stroke="none" /><path d="M 109.08828744355905 81.06846463323043 l 6.634544297309819 -13.820217591812133 a36.33021827365807,36.33021827365807 0 0,0 0.5614380812183195,0.2754952281550133 l -6.871453645538571 13.703967203522287" fill="#ffaf10" stroke="none" /><path d="M 110.05341064243156 81.56283822128135 l 6.475804913752435 -11.87611519003837 a34.52694205236499,34.52694205236499 0 0,0 0.5193442510641832,0.28901451343512785 l -6.679273253888653 11.762885279043061" fill="#ff970d" stroke="none" /><line stroke="#e1ed5e" stroke-width="0.3" x1="143.23703022742887" x2="145.7803849466894" y1="26.81831364943548" y2="22.513508569990506" /><path d="M 143.74570117128098 25.957352633546492 a86.0,86.0 0 0,1 28.547481713284135,27.462654790039103" fill="none" id="id14" stroke="none" /><text fill="#e1ed5e" style="font-size:6.75px; font-family:Arial;" text-anchor="middle"><textPath startOffset="19.985693538727396" xlink:href="#id14">February</textPath></text><path d="M 110.68208982089419 81.91981866633111 l 7.606020931104708 -12.873720401888791 a35.95273324146494,35.95273324146494 0 0,0 0.5301109540340793,0.31938591835358376 l -7.826493951356425 12.740887874076591" fill="#ffaa0f" stroke="none" /><path d="M 111.2981086023043 82.29822771554956 l 11.089387200622204 -17.37474951864749 a41.61204573352836,41.61204573352836 0 0,0 0.600467713420555,0.3905609039048268 l -11.386821939827039 17.181289690583135" fill="#fff417" stroke="none" /><path d="M 111.90073688211348 82.69761687909136 l 15.554976120386963 -22.615251386326225 a48.44825818467429,48.44825818467429 0 0,0 0.6830485995187415,0.47851919472322196 l -15.941955859489356 22.34414734883907" fill="#b6ff1f" stroke="none" /><path d="M 112.77801427241765 83.33499621200491 l 12.310459252314418 -16.055221546795405 a41.23159771050169,41.23159771050169 0 0,0 0.5595077641074262,0.4367046846509434 l -12.584999571581275 15.84093847292124" fill="#ffef16" stroke="none" /><path d="M 113.34407831869373 83.78471172551755 l 18.911961098439427 -22.98119763111618 a50.76235402566985,50.76235402566985 0 0,0 0.6699239916394003,0.5610420770153889 l -19.304742627037946 22.652254396706976" fill="#9cff22" stroke="none" /><path d="M 113.89432698308785 84.25364557470407 l 9.08320151781429 -10.293935833666682 a34.72842542904578,34.72842542904578 0 0,0 0.4448364218335871,0.3993785316664806 l -9.259048927243866 10.136058293230903" fill="#ff9a0e" stroke="none" /><path d="M 114.16331599549186 84.49514656593476 l 10.031818706918225 -10.98202417974643 a35.874213984376105,35.874213984376105 0 0,0 0.4523432875294976,0.4204037876062837 l -10.219369878242569 10.807715806065506" fill="#ffa90f" stroke="none" /><path d="M 114.68862486808459 84.99185889309783 l 16.685813060031492 -17.048773396920396 a44.855335499922404,44.855335499922404 0 0,0 0.5471586250744721,0.5448089520519639 l -16.976807485273287 16.75902859421831" fill="#e1ff1b" stroke="none" /><path d="M 115.19652480421416 85.50635884689758 l 13.830629367063256 -13.190922368789616 a40.11247607267323,40.11247607267323 0 0,0 0.4722435658020348,0.5037565097671993 l -14.055640254835753 12.950896442144362" fill="#ffe115" stroke="none" /><path d="M 115.4437574822437 85.77008943001954 l 18.96129926911576 -17.47098095786426 a46.78305733622422,46.78305733622422 0 0,0 0.5405812559075921,0.5969233245833407 l -19.259224165639388 17.142004846011368" fill="#caff1d" stroke="none" /><path d="M 116.15771136456269 86.58626213691792 l 22.911223292623394 -19.020338737070144 a50.7774652789209,50.7774652789209 0 0,0 0.5525108278462485,0.6773129453238455 l -23.23523261254605 18.623141622138196" fill="#9cff22" stroke="none" /><path d="M 116.60985879189232 87.15038557335679 l 23.623366842931453 -18.275360386506573 a50.867243901177204,50.867243901177204 0 0,0 0.5298042902702705,0.6971603430348308 l -23.934447073425837 17.866015267590708" fill="#9bff22" stroke="none" /><path d="M 117.04232023915458 87.72973835380427 l 24.121331828690487 -17.36706320731735 a50.72294624758375,50.72294624758375 0 0,0 0.5040589889636534,0.7129556932086493 l -24.416703437458025 16.94928101377691" fill="#9cff22" stroke="none" /><path d="M 117.45458315368197 88.32363383020206 l 35.69166437493375 -23.876189925701397 a63.94144095417712,63.94144095417712 0 0,0 0.6041046202557769,0.9200927818852612 l -36.09736563054745 23.258279079838463" fill="#33ff55" stroke="none" /><line stroke="#e1ed5e" stroke-width="0.3" x1="172.23445277983987" x2="176.4835382374775" y1="55.19839476539836" y2="52.563006222186495" /><path d="M 173.08426987136738 54.67131705675599 a86.0,86.0 0 0,1 12.851231095245387,41.99856678651699" fill="none" id="id15" stroke="none" /><text fill="#e1ed5e" style="font-size:6.75px; font-family:Arial;" text-anchor="middle"><textPath startOffset="22.20632615414155" xlink:href="#id15">March</textPath></text><path d="M 117.84615892207809 88.93136811851018 l 12.607627263679607 -7.819564181290761 a35.83569510354007,35.83569510354007 0 0,0 0.3206171889231857,0.5270103579761127 l -12.740360250889017 7.601386050107567" fill="#ffa90f" stroke="none" /><path d="M 118.21658344932153 89.55222093294921 l 16.566644524242715 -9.50148760623393 a40.09795741758888,40.09795741758888 0 0,0 0.33824032172891794,0.6016917904864144 l -16.727742487264067 9.214912305812723" fill="#ffe115" stroke="none" /><path d="M 118.73160827565052 90.50648371742162 l 13.301615247248158 -6.741498064450523 a35.91243656612878,35.91243656612878 0 0,0 0.27471301641878476,0.5538046778847859 l -13.415688276620351 6.511533798066788" fill="#ffaa0f" stroke="none" /><path d="M 119.04729006885535 91.15688171328212 l 16.72387954776482 -7.764424467684592 a39.43839565804264,39.43839565804264 0 0,0 0.28057166352354124,0.6182024693907804 l -16.85505352825171 7.475399989451748" fill="#ffd814" stroke="none" /><path d="M 119.196687751892 91.48605970444005 l 27.187099228627574 -12.057774895004247 a50.74102049166835,50.74102049166835 0 0,0 0.3472360017483643,0.801468566744529 l -27.39062594021862 11.588007183673115" fill="#9cff22" stroke="none" /><path d="M 119.47837535516314 92.15188598940014 l 27.55800358364249 -11.103510949213566 a50.71079798516623,50.71079798516623 0 0,0 0.31925212306119266,0.812461830697049 l -27.745049256585382 10.627500113620734" fill="#9cff22" stroke="none" /><path d="M 119.61058180528143 92.48833698450437 l 5.386423801800561 -2.063222848741484 a26.768054255654373,26.768054255654373 0 0,0 0.16111234441210742,0.4317009830063633 l -5.421140734714293 1.9701987287057872" fill="#ff2904" stroke="none" /><path d="M 119.7369772167798 92.82701384747503 l 27.907721720316076 -10.142470108247318 a50.6936126383317,50.6936126383317 0 0,0 0.29099803934151375,0.8226906434358673 l -28.0781728404674 9.660581838384836" fill="#9dff22" stroke="none" /><path d="M 119.97218684219823 93.5106431181261 l 17.776329330028474 -5.775879526048956 a39.69113877614369,39.69113877614369 0 0,0 0.20553303261432088,0.6515958803534018 l -17.873117846411002 5.469033479269135" fill="#ffdc14" stroke="none" /><path d="M 120.08093135843002 93.85539295169968 l 28.411066422257754 -8.693562856816724 a50.71139058333294,50.71139058333294 0 0,0 0.24823009053484657,0.8369084634953308 l -28.556502409904304 8.203225006574865" fill="#9cff22" stroke="none" /><path d="M 120.18372546131832 94.20196356495316 l 23.995435916790093 -6.892999609364163 a45.965864464333585,45.965864464333585 0 0,0 0.21190970392861833,0.7623519534049458 l -24.110532391285073 6.4789363525402655" fill="#d4ff1c" stroke="none" /><path d="M 120.45610955862082 95.25157060432595 l 31.526227985381563 -7.318110380251637 a53.364452575685604,53.364452575685604 0 0,0 0.20000390248904903,0.8965782780341686 l -31.64752627487265 6.774353932667505" fill="#7fff26" stroke="none" /><path d="M 120.78858239683441 97.02765380044208 l 3.8430274226681647 -0.5494750789887419 a24.88211059010549,24.88211059010549 0 0,0 0.05697292519322174,0.42451446834063655 l -3.851916346919223 0.483242268583441" fill="#ff0d01" stroke="none" /><path d="M 120.87857604477298 97.74499172005257 l 41.456772713274546 -4.477573831082082 a62.69787370133993,62.69787370133993 0 0,0 0.10665467915354601,1.073998063960708 l -41.52770451811032 3.7633002364169386" fill="#32ff46" stroke="none" /><path d="M 120.94382443527127 98.46500227214037 l 31.666178390755938 -2.320851763727966 a52.7511134731426,52.7511134731426 0 0,0 0.05857737095489047,0.9061660017140849 l -31.701436352715245 1.7754266977608457" fill="#85ff25" stroke="none" /><path d="M 120.98425023603335 99.18683210126433 l 39.62011749202028 -1.5353328008509561 a60.64985443719636,60.64985443719636 0 0,0 0.03144638792061167,1.0435525220232107 l -39.64067557439653 0.8531101314027462" fill="#32ff2f" stroke="none" /><line stroke="#e1ed5e" stroke-width="0.3" x1="184.98032266829074" x2="189.97916517819016" y1="98.17113171792111" y2="98.06355123074" /><path d="M 185.9800911702706 98.14961562048488 a86.0,86.0 0 0,1 -9.607161424134198,41.387399972396054" fill="none" id="id16" stroke="none" /><text fill="#e1ed5e" style="font-size:6.75px; font-family:Arial;" text-anchor="middle"><textPath startOffset="21.466115282336823" xlink:href="#id16">April</textPath></text><path d="M 120.99824983174949 100.27111621757518 l 38.681880553134604 0.4994361543600706 a59.68510462179539,59.68510462179539 0 0,0 -0.022106047732718872,1.0271811740928256 l -38.667552442716875 -1.1652071442430112" fill="#3cff2e" stroke="none" /><path d="M 120.95626037817324 101.35467743843564 l 3.9263604816284547 0.2538120763744309 a24.934555527859168,24.934555527859168 0 0,0 -0.031374131677200066,0.4280750998717231 l -3.921409791286917 -0.3213603127429242" fill="#ff0d01" stroke="none" /><path d="M 120.81339534386255 102.79330883721812 l 62.44018603158764 8.379926511654341 a84.0,84.0 0 0,0 -0.20466379593359463,1.4314181120783627 l -62.28668818463745 -9.453490095713112" fill="#4dd2ff" stroke="none" /><path d="M 120.70491114924044 103.5080841355445 l 24.149091705612438 4.091640137435514 a45.49326742638378,45.49326742638378 0 0,0 -0.13746236513422624,0.7709619449966307 l -24.075082898139023 -4.506720833165363" fill="#daff1c" stroke="none" /><path d="M 120.5718875245553 104.21870165774334 l 28.05465848189096 5.753202476131808 a49.63849160250773,49.63849160250773 0 0,0 -0.17885448492249556,0.8355486098339535 l -27.951469958244022 -6.23526490538193" fill="#a9ff21" stroke="none" /><path d="M 120.41448212921028 104.9243191809786 l 22.54759354925734 5.438861818622702 a44.194292244959385,44.194292244959385 0 0,0 -0.18475042056404611,0.7379860927544198 l -22.450631814398232 -5.826175750774518" fill="#eaff1a" stroke="none" /><path d="M 120.32669344350535 105.2749913415812 l 15.380460947145485 3.991391839071741 a36.88992724211398,36.88992724211398 0 0,0 -0.16479595419974233,0.6132670511769681 l -15.309476916603966 -4.255549823424258" fill="#ffb711" stroke="none" /><path d="M 120.02730092923936 106.31721596034902 l 38.23632717917292 12.060893136565664 a61.093414164977446,61.093414164977446 0 0,0 -0.3249813225762744,1.0001896663824472 l -38.023053605580394 -12.717281702925908" fill="#30ff32" stroke="none" /><path d="M 119.79798401119884 107.00284435728193 l 18.861825029110385 6.6717108619963135 a41.00700300531928,41.00700300531928 0 0,0 -0.2411128571448898,0.6634390290111155 l -18.744187910960267 -6.9953976880135595" fill="#ffec16" stroke="none" /><path d="M 118.64920377521936 109.65438752849418 l 20.2755261222849 10.496307986550645 a43.83132586785061,43.83132586785061 0 0,0 -0.3526282174547963,0.6670396960110365 l -20.091845396605212 -10.843762697647817" fill="#eeff19" stroke="none" /><line stroke="#e1ed5e" stroke-width="0.3" x1="174.80103733775053" x2="179.2010983576182" y1="140.37084112569926" y2="142.7455964860345" /><path d="M 175.68104954172406 140.8457921977663 a86.0,86.0 0 0,1 -30.038265399797805,32.042727171017184" fill="none" id="id17" stroke="none" /><text fill="#e1ed5e" style="font-size:6.75px; font-family:Arial;" text-anchor="middle"><textPath startOffset="22.206326154141568" xlink:href="#id17">May</textPath></text><path d="M 118.12598468904814 110.60418214915192 l 18.43893526256792 10.787266541101705 a42.36257131166431,42.36257131166431 0 0,0 -0.3736361124532317,0.6262356159806507 l -18.25051827441646 -11.10306425096846" fill="#fffe18" stroke="none" /><path d="M 117.75023020441432 111.22182372390056 l 2.5680786253048544 1.6235578530762382 a24.038250800713,24.038250800713 0 0,0 -0.22412250474773007,0.34784310447654854 l -2.539751257180074 -1.6675225574742398" fill="#ff0000" stroke="none" /><path d="M 117.35343817320211 111.8261652097733 l 16.440073548508135 11.203717897570128 a40.894705652728064,40.894705652728064 0 0,0 -0.40142845357737256,0.578287627327023 l -16.244784187768627 -11.485046787084169" fill="#ffeb16" stroke="none" /><path d="M 116.498646956653 112.99209946851258 l 12.813313109612572 10.090029738720709 a37.30919044506004,37.30919044506004 0 0,0 -0.40166379406486985,0.5011373417276062 l -12.637731403492849 -10.309094914026565" fill="#ffbc11" stroke="none" /><path d="M 116.0416608686014 113.55231037782055 l 10.804994848327231 9.128272004671144 a35.144725641158296,35.144725641158296 0 0,0 -0.39438656411518414,0.4587606734250734 l -10.646265774641268 -9.312909777257746" fill="#ff9f0e" stroke="none" /><path d="M 115.07121518719521 114.62390073753431 l 12.984013885350386 12.598647678752172 a39.091725730518334,39.091725730518334 0 0,0 -0.47274810628680347,0.4788913357560232 l -12.765225154008048 -12.820279508488861" fill="#ffd413" stroke="none" /><path d="M 114.55890576462653 115.13401014063108 l 20.712972890485794 21.531174583797426 a50.87672547184453,50.87672547184453 0 0,0 -0.6363567926185708,0.6017150668091761 l -20.339280263476414 -21.884524287352527" fill="#9aff22" stroke="none" /><path d="M 113.75828350139079 115.86535959552629 l 9.726882483139477 11.216550983473597 a35.84665816962417,35.84665816962417 0 0,0 -0.46965015294309725,0.40024604918058154 l -9.532366853619333 -11.382321422877126" fill="#ffa90f" stroke="none" /><path d="M 113.20401910651253 116.32954008644616 l 9.084636897572754 11.235059658203124 a35.448432201596255,35.448432201596255 0 0,0 -0.4777815775989902,0.3795785811346478 l -8.889897827256412 -11.389772153342898" fill="#ffa30f" stroke="none" /><path d="M 112.92097659922987 116.55440617244103 l 18.239394785462796 23.36838452567514 a50.64383439232821,50.64383439232821 0 0,0 -0.6918219602901012,0.5304595783486722 l -17.8344440966792 -23.678883445851184" fill="#9dff22" stroke="none" /><path d="M 112.34349029814194 116.9893568818739 l 22.449253835622144 30.89874710741846 a59.192951844344215,59.192951844344215 0 0,0 -0.8294699100832127,0.5918047570523273 l -21.91405659769005 -31.280596126315004" fill="#41ff2d" stroke="none" /><path d="M 111.7513745106137 117.40417183066458 l 7.131306834653291 10.561699775239044 a33.743823575060084,33.743823575060084 0 0,0 -0.48418418116288003,0.32089087351832957 l -6.9484479547504465 -10.68288866984869" fill="#ff8c0c" stroke="none" /><path d="M 111.1453310114006 117.79835938074945 l 14.865298775405748 23.73890283171029 a49.009152349463605,49.009152349463605 0 0,0 -0.7188494436819596,0.44157604073731443 l -14.45447013179148 -23.991267339275986" fill="#b0ff20" stroke="none" /><line stroke="#e1ed5e" stroke-width="0.3" x1="143.8653032363475" x2="146.44561519142675" y1="172.8068346515853" y2="177.08958963109032" /><path d="M 144.38136562736335 173.6633856474863 a86.0,86.0 0 0,1 -40.68145358897372,12.25698825130547" fill="none" id="id18" stroke="none" /><text fill="#e1ed5e" style="font-size:6.75px; font-family:Arial;" text-anchor="middle"><textPath startOffset="21.466115282336833" xlink:href="#id18">June</textPath></text><path d="M 110.5260780823613 118.17145234162733 l 13.330632855099186 23.013030847271256 a47.59521312369781,47.59521312369781 0 0,0 -0.7124578063848921,0.40455213647190535 l -12.932526281793095 -23.23908614953779" fill="#c1ff1e" stroke="none" /><path d="M 109.89434966115114 118.52300852407294 l 15.18543926656639 28.42834856350488 a53.22993279184284,53.22993279184284 0 0,0 -0.8119062729109751,0.424750988926799 l -14.69384209112892 -28.685528971376396" fill="#80ff25" stroke="none" /><path d="M 108.92500713936063 119.00905698771935 l 1.7058100023484628 3.6331443816846667 a25.013667383114715,25.013667383114715 0 0,0 -0.3913233465991336,0.1796373552255494 l -1.6430186599819099 -3.6619688072442904" fill="#ff0f01" stroke="none" /><path d="M 108.2653958097858 119.30500536409082 l 1.6081958426456144 3.7561697084155377 a25.085964359453115,25.085964359453115 0 0,0 -0.3984230990431955,0.1665408877131258 l -1.5433012841049578 -3.7832956391486365" fill="#ff1001" stroke="none" /><path d="M 107.59598834532513 119.57807347666477 l 5.485989598004317 14.139714617657166 a36.1666611796466,36.1666611796466 0 0,0 -0.582334531452945,0.22018909141039997 l -5.241784845791098 -14.232051959174196" fill="#ffad10" stroke="none" /><path d="M 106.57524785965236 119.94407469862006 l 9.551385336619033 28.971309780998244 a51.50517582763859,51.50517582763859 0 0,0 -0.8443872692759059,0.2703461387510425 l -9.051276722252187 -29.13142876640899" fill="#93ff23" stroke="none" /><path d="M 105.53697534728816 120.25689768951611 l 1.1389675188683361 4.166886622079297 a25.319744336219507,25.319744336219507 0 0,0 -0.42140441100372267,0.11129673503117356 l -1.067072665053116 -4.185874706414055" fill="#ff1302" stroke="none" /><path d="M 104.83641907484287 120.43548508189849 l 6.1182726868401325 25.851744500236624 a47.565879514445754,47.565879514445754 0 0,0 -0.7983816240594744,0.1817090583285307 l -5.6723709133877955 -25.95323029214284" fill="#c1ff1e" stroke="none" /><path d="M 104.13013068566511 120.58985236759428 l 4.358020863135197 21.72594840601258 a43.15872694863679,43.15872694863679 0 0,0 -0.729654560982047,0.1398400332047008 l -3.9833986875814453 -21.79774563756575" fill="#f6ff19" stroke="none" /><path d="M 103.7750983002368 120.6578951692458 l 5.428202985243365 29.703928032684704 a51.195839584616905,51.195839584616905 0 0,0 -0.8682595678292024,0.15095805528047712 l -4.916094445942113 -29.79296466648619" fill="#97ff23" stroke="none" /><path d="M 103.06178313531738 120.77559828337769 l 4.338895313703666 29.441388252271942 a50.75939103483631,50.75939103483631 0 0,0 -0.8654993646829717,0.11995032549688787 l -3.8314673578338634 -29.51171314326143" fill="#9cff22" stroke="none" /><line stroke="#e1ed5e" stroke-width="0.3" x1="102.19456741930631" x2="102.32365962044197" y1="184.97166512339345" y2="189.96999836594603" /><path d="M 102.22038585953345 185.97133177190398 a86.0,86.0 0 0,1 -42.740103519485714,-10.115201625700543" fill="none" id="id19" stroke="none" /><text fill="#e1ed5e" style="font-size:6.75px; font-family:Arial;" text-anchor="middle"><textPath startOffset="22.20632615414155" xlink:href="#id19">July</textPath></text><path d="M 100.54218724476979 120.99299961872073 l 0.6773598444321174 26.226760391491165 a47.235506036505924,47.235506036505924 0 0,0 -0.8129912357100694,0.013996381406788055 l -0.22580891882938003 -26.234534250177113" fill="#c5ff1e" stroke="none" /><path d="M 99.81925306533755 120.99922214144158 l -0.3657893324725772 42.49749221975124 a63.49906642272943,63.49906642272943 0 0,0 -1.092910583778924,-0.01881544683655161 l 1.0972596061441688 -42.48489929563553" fill="#33ff4f" stroke="none" /><path d="M 98.37488393609728 120.93702456842531 l -2.5550160314446138 32.91730025399508 a54.01631055906464,54.01631055906464 0 0,0 -0.9263943420230806,-0.0799332018938506 l 3.121254691209236 -32.86844279982256" fill="#77ff26" stroke="none" /><path d="M 98.01472825383883 120.90594882070398 l -1.1213704605908634 11.808616882546701 a32.86174120391491,32.86174120391491 0 0,0 -0.5626671883671747,-0.058322754681583724 l 1.3244702455636312 -11.787564759409356" fill="#ff800b" stroke="none" /><path d="M 97.65516085044442 120.86867818915974 l -2.749517253960761 24.47024596946204 a45.6242316212263,45.6242316212263 0 0,0 -0.7796802653909415,-0.09440842201964861 l 3.1703249424030915 -24.419292018717044" fill="#d8ff1c" stroke="none" /><path d="M 96.93821686468263 120.77559828337769 l -3.872679096318719 26.27789808412157 a47.5617313272788,47.5617313272788 0 0,0 -0.8089211759424414,-0.12633685137799033 l 4.324436135869678 -26.207342925396475" fill="#c1ff1e" stroke="none" /><path d="M 96.58105272829116 120.7198165907248 l -5.000610170299766 30.30515458009314 a51.7149555786533,51.7149555786533 0 0,0 -0.877063553314982,-0.15248874100729687 l 5.521522695086799 -30.214587260564837" fill="#91ff24" stroke="none" /><path d="M 95.86986931433489 120.58985236759428 l -9.984783188223705 49.77692654654019 a71.76847754005917,71.76847754005917 0 0,0 -1.2091571501850578,-0.2533906372360449 l 10.84013179983815 -49.597679928577605" fill="#3dffaf" stroke="none" /><path d="M 95.16358092515715 120.4354850818985 l -4.079007683064363 17.235169112990825 a38.71127770749166,38.71127770749166 0 0,0 -0.6471174706003965,-0.15904572998373923 l 4.375078438407971 -17.162402124693056" fill="#ffcf13" stroke="none" /><path d="M 94.81253420990036 120.34920634021253 l -8.868289484086382 34.78821064050707 a56.900782135516856,56.900782135516856 0 0,0 -0.9470174841840199,-0.25011592488097273 l 9.46579741108189 -34.63040336632251" fill="#58ff2a" stroke="none" /><path d="M 94.11515582081647 120.15858648285463 l -7.649331492932798 26.202853591563237 a48.29655305399698,48.29655305399698 0 0,0 -0.7960307457267966,-0.23983753374770558 l 8.09923721309984 -26.067300688709803" fill="#b8ff1f" stroke="none" /><path d="M 93.76903079525671 120.05430185196036 l -11.763301357798479 37.86004848576119 a60.645409950946046,60.645409950946046 0 0,0 -0.9942342935390573,-0.31832242390704224 l 12.413256996428478 -37.651953215194446" fill="#32ff2f" stroke="none" /><path d="M 93.08242187328487 119.8279376855182 l -9.034173604108004 25.89476085143513 a48.42544315525602,48.42544315525602 0 0,0 -0.7846776701700341,-0.281357495028692 l 9.478570834907766 -25.73541581536648" fill="#b7ff1f" stroke="none" /><path d="M 92.7421414339146 119.70592522655815 l -5.090430830082433 13.821108305596931 a35.728731134449234,35.728731134449234 0 0,0 -0.5752832367145964,-0.2175228950956643 l 5.327584287557312 -13.731437160394634" fill="#ffa70f" stroke="none" /><path d="M 92.06813273071674 119.44442032107085 l -8.004126746859068 19.62155939897829 a42.19131044148563,42.19131044148563 0 0,0 -0.6700955330208659,-0.2800999871490798 l 8.340693739377397 -19.48087436880924" fill="#fffb17" stroke="none" /><path d="M 91.40352486487194 119.15986991738527 l -11.208938684844846 24.982542697760707 a48.381887190002956,48.381887190002956 0 0,0 -0.756904684146966,-0.3474578166614602 l 11.637311364759231 -24.78589781076517" fill="#b7ff1f" stroke="none" /><path d="M 91.07499286063937 119.00905698771935 l -9.88755276571657 21.05914886764481 a44.264811426797664,44.264811426797664 0 0,0 -0.6869210141595947,-0.3297638309178952 l 10.248586447876407 -20.885830760227353" fill="#e9ff1a" stroke="none" /><path d="M 90.42595943632237 118.69057910512821 l -15.003051050417296 29.289171130102947 a53.908161393640384,53.908161393640384 0 0,0 -0.8222511677358554,-0.43016294896925267 l 15.504993120679647 -29.026578762188976" fill="#79ff26" stroke="none" /><line stroke="#e1ed5e" stroke-width="0.3" x1="58.666819895761336" x2="56.23545636021788" y1="174.27360380694188" y2="178.64263932499728" /><path d="M 58.180547188652646 175.14741091055294 a86.0,86.0 0 0,1 -31.652253787137756,-30.449443065178592" fill="none" id="id20" stroke="none" /><text fill="#e1ed5e" style="font-size:6.75px; font-family:Arial;" text-anchor="middle"><textPath startOffset="22.20632615414155" xlink:href="#id20">August</textPath></text><path d="M 89.7882731507175 118.34994917583269 l -25.054014099714312 45.02077779456626 a72.52255870719537,72.52255870719537 0 0,0 -1.085597893125524,-0.6164308160812971 l 25.825260759761044 -44.58284381269033" fill="#3effb8" stroke="none" /><path d="M 89.4739219176387 118.17145234162733 l -1.6143851148079058 2.7869565421448614 a24.220771036059126,24.220771036059126 0 0,0 -0.35896581594698956,-0.21208333134555962 l 1.6621188017832775 -2.758754638505552" fill="#ff0300" stroke="none" /><path d="M 89.1626897886671 117.98757091392108 l -20.336872183732847 33.754771565891325 a60.40777808609605,60.40777808609605 0 0,0 -0.886040577923374,-0.5442784908172065 l 20.91489196158853 -33.399704608245735" fill="#34ff2f" stroke="none" /><path d="M 88.24862548938628 117.40417183066458 l -17.118784130449054 25.3534818645508 a51.59169515997799,51.59169515997799 0 0,0 -0.7317252959063808,-0.5032873307518773 l 17.552666310978324 -25.055053744433824" fill="#92ff23" stroke="none" /><path d="M 87.65650970185807 116.9893568818739 l -20.257099002193307 27.881504827813526 a55.46343528216608,55.46343528216608 0 0,0 -0.7675479945340352,-0.5678136568753104 l 20.734031967145906 -27.52868122219845" fill="#68ff28" stroke="none" /><path d="M 87.07902340077011 116.55440617244103 l -12.73660217594518 16.31818493425332 a41.70034286036788,41.70034286036788 0 0,0 -0.5620461713211591,-0.44652347065023906 l 13.015605839983698 -16.09652754959795" fill="#fff517" stroke="none" /><path d="M 86.79598089348748 116.32954008644616 l -21.024535880993376 26.00124997534071 a54.43794415467753,54.43794415467753 0 0,0 -0.7235836359136452,-0.5954600710337922 l 21.46898964545171 -25.635494785449737" fill="#73ff27" stroke="none" /><path d="M 86.24171649860922 115.8653595955263 l -12.78741353127999 14.745801244024927 a40.51810951778501,40.51810951778501 0 0,0 -0.5229877824078094,-0.4614759112281019 l 13.039343666594387 -14.523502191024535" fill="#ffe615" stroke="none" /><path d="M 85.97065885151581 115.62618273729859 l -20.064274478668654 22.348021633850422 a51.03346768693886,51.03346768693886 0 0,0 -0.6486121675196523,-0.5924918365831399 l 20.44598619565516 -21.999337030680707" fill="#99ff23" stroke="none" /><path d="M 84.9287848128048 114.62390073753433 l -12.456861943428905 12.087141633850916 a38.35720030288351,38.35720030288351 0 0,0 -0.4557081039530716,-0.4778081250978046 l 12.663076598760933 -11.87092639217061" fill="#ffca12" stroke="none" /><path d="M 84.43433777217949 114.09645910891817 l -28.44123060773419 25.756735460485032 a59.37073129435668,59.37073129435668 0 0,0 -0.6794871360240516,-0.7634110005167011 l 28.88037659340658 -25.263350290227468" fill="#3fff2d" stroke="none" /><path d="M 83.50135304334701 112.99209946851258 l -16.442002039224693 12.947493604556124 a41.92790055638383,41.92790055638383 0 0,0 -0.44162694149670756,-0.5708623537953016 l 16.66243579793947 -12.66255325664757" fill="#fff817" stroke="none" /><path d="M 83.06392112726016 112.41649034213515 l -30.007071225108746 21.999337205616683 a58.207461093108456,58.207461093108456 0 0,0 -0.5854567627321485,-0.8131482379394466 l 30.381307780216503 -21.479555362226098" fill="#4bff2c" stroke="none" /><path d="M 82.85270091963577 112.12312394758628 l -16.910359686704517 11.955608024294786 a41.709824431035216,41.709824431035216 0 0,0 -0.4094297795542983,-0.5898141341638821 l 17.11365037342095 -11.662752627943892" fill="#fff517" stroke="none" /><path d="M 82.44556493220864 111.52570212397912 l -18.09083594933024 11.877886444111427 a42.641685048183874,42.641685048183874 0 0,0 -0.3975730738020072,-0.6170422394807437 l 18.292613886509294 -11.564722604709235" fill="#fdff18" stroke="none" /><path d="M 82.05923443525364 110.91462005526583 l -14.009749700374197 8.523108698852251 a37.39867276823298,37.39867276823298 0 0,0 -0.3298547342943093,-0.5528555078861315 l 14.154385310366738 -8.280691097080009" fill="#ffbe11" stroke="none" /><line stroke="#e1ed5e" stroke-width="0.3" x1="26.63291911575756" x2="22.317208475507996" y1="142.92168965132927" y2="145.44649492493687" /><path d="M 25.769776987707644 143.4266507060508 a86.0,86.0 0 0,1 -11.730757126820373,-40.83630448921669" fill="none" id="id21" stroke="none" /><text fill="#e1ed5e" style="font-size:6.75px; font-family:Arial;" text-anchor="middle"><textPath startOffset="21.46611528233685" xlink:href="#id21">September</textPath></text><path d="M 81.69416730710424 110.29060199501025 l -12.439818175662158 6.993028936930791 a35.27065275158379,35.27065275158379 0 0,0 -0.29295399494857105,-0.5317965950716376 l 12.558348580062244 -6.777861823461331" fill="#ffa10e" stroke="none" /><path d="M 81.51974371655577 109.97397251340807 l -6.636788539092754 3.5819387702709813 a28.54170056861205,28.54170056861205 0 0,0 -0.22962136771730232,-0.4343570926493422 l 6.697462415034942 -3.467166662535513" fill="#ff4306" stroke="none" /><path d="M 81.18737489456691 109.33194174019688 l -8.625619976571024 4.2787108467490045 a30.628535012675016,30.628535012675016 0 0,0 -0.23021973840060994,-0.4743208499393272 l 8.697992971586352 -4.129601040844392" fill="#ff6108" stroke="none" /><path d="M 79.76711848015287 105.62410040840567 l -10.163496628345905 2.825130245646878 a31.548839965572867,31.548839965572867 0 0,0 -0.14093606506456585,-0.5244755276083527 l 10.210620769752245 -2.6497637848629862" fill="#ff6e0a" stroke="none" /><path d="M 79.35854240842038 103.8639653848113 l -14.829661595015255 2.7760296876989745 a36.0872530253077,36.0872530253077 0 0,0 -0.10904117098388805,-0.6115607947263391 l 14.875249208338332 -2.5203501422394217" fill="#ffac0f" stroke="none" /><path d="M 79.23777060512086 103.15116336523772 l -18.75517059605519 2.846544336209367 a39.969956213579906,39.969956213579906 0 0,0 -0.09738574954727623,-0.6811157055130805 l 18.801390396619066 -2.523283158715886" fill="#ffdf14" stroke="none" /><path d="M 79.1416061653843 102.43462659150553 l -35.74522227178744 4.172242088829698 a56.98789406602296,56.98789406602296 0 0,0 -0.10533994714023208,-0.9753170826366215 l 35.81174452042872 -3.556328684308294" fill="#58ff2a" stroke="none" /><path d="M 79.07016306316243 101.71520430193888 l -16.964032341326682 1.3902058261553878 a38.0209008432766,38.0209008432766 0 0,0 -0.04784014490292581,-0.6527407680282943 l 16.985449044893944 -1.0979919216303329" fill="#ffc612" stroke="none" /><path d="M 79.0235259727143 100.99374915477108 l -14.797765271154544 0.701036156581053 a35.814361569538576,35.814361569538576 0 0,0 -0.02387260358425992,-0.6160458229802305 l 14.807640007590004 -0.44621308658682574" fill="#ffa80f" stroke="none" /><line stroke="#e1ed5e" stroke-width="0.3" x1="15.007084014347285" x2="10.007500721073583" y1="101.09737516637583" y2="101.16192664675087" /><path d="M 14.007167355692545 101.11028546245083 a86.0,86.0 0 0,1 10.666146001902534,-42.60595125391555" fill="none" id="id22" stroke="none" /><text fill="#e1ed5e" style="font-size:6.75px; font-family:Arial;" text-anchor="middle"><textPath startOffset="22.20632615414155" xlink:href="#id22">October</textPath></text><path d="M 79.00175016825051 100.2711162175752 l -34.554482034543916 0.4461457761737359 a55.55736209158934,55.55736209158934 0 0,0 -0.004115749466378479,-0.9563552291483798 l 34.5570420812998 0.1487189311783192" fill="#67ff28" stroke="none" /><path d="M 79.00486145842228 99.54816195383935 l -10.664890126287567 -0.2295199485174556 a31.66735959891451,31.66735959891451 0 0,0 0.0164192327188544,-0.544874398824546 l 10.659359199113068 0.4130644947669961" fill="#ff6f0a" stroke="none" /><path d="M 79.01574976396665 99.18683210126434 l -16.400881714228916 -0.6355562086307147 a37.41319142331733,37.41319142331733 0 0,0 0.030476414748684223,-0.6433089470831991 l 16.387511691246736 0.9177762623369229" fill="#ffbe11" stroke="none" /><path d="M 79.05617556472873 98.46500227214037 l -26.305395421647383 -1.9279536231537808 a47.37595180201577,47.37595180201577 0 0,0 0.0666094967379592,-0.812804575871493 l 26.268311441089928 2.380472116233052" fill="#c3ff1e" stroke="none" /><path d="M 79.12142395522702 97.74499172005258 l -31.448807479470034 -3.396655074014579 a52.631704942550904,52.631704942550904 0 0,0 0.10503696071245586,-0.8998925343933916 l 31.38568016575399 3.9374913467328323" fill="#87ff25" stroke="none" /><path d="M 79.16333360222342 97.38593545837743 l -16.8561764425747 -2.1146920675646044 a37.988307944107646,37.988307944107646 0 0,0 0.08698237309408426,-0.6481197120177694 l 16.817278070422784 2.404530121647033" fill="#ffc512" stroke="none" /><path d="M 79.26566170972629 96.67025291283419 l -22.84353157077643 -3.668464440172349 a44.13621762462198,44.13621762462198 0 0,0 0.1269192391375831,-0.7490845338762239 l 22.777000470118626 4.061134762364401" fill="#eaff1a" stroke="none" /><path d="M 79.3925641242962 95.95851677861259 l -17.78667418140693 -3.4882818853359994 a39.125503826020704,39.125503826020704 0 0,0 0.13530103026315224,-0.6597758747459938 l 17.723993855228784 3.7939334162453955" fill="#ffd413" stroke="none" /><path d="M 79.46518482838121 95.60439243477599 l -17.068032530980535 -3.6535207300214143 a38.45468270130701,38.45468270130701 0 0,0 0.1441237797451671,-0.646078644764317 l 17.00261436423333 3.9467775443356907" fill="#ffcb13" stroke="none" /><path d="M 79.62865764111835 94.90015583598534 l -38.55544545055839 -9.652126011533484 a60.745262742036374,60.745262742036374 0 0,0 0.2626615561180407,-1.012142122114855 l 38.38358756257004 10.314364559197204" fill="#31ff2f" stroke="none" /><path d="M 79.81627453868168 94.20196356495316 l -22.090529961967356 -6.34579071313899 a43.98391989577797,43.98391989577797 0 0,0 0.21529940891414479,-0.7258825757890889 l 21.978024655941503 6.725102675674618" fill="#ecff1a" stroke="none" /><path d="M 80.02781315780177 93.51064311812611 l -12.271985130360642 -3.98740968073152 a33.90352878098794,33.90352878098794 0 0,0 0.18511763622450855,-0.553478170093802 l 12.20153020036436 4.198060953747644" fill="#ff8e0d" stroke="none" /><path d="M 80.52162464483688 92.15188598940014 l -25.824652346499562 -10.405119123331334 a48.842039666451896,48.842039666451896 0 0,0 0.3209115353435406,-0.7771127373090309 l 25.641719124269823 10.848106431093676" fill="#b2ff20" stroke="none" /><path d="M 80.803312248108 91.48605970444005 l -25.07903254572438 -11.122824339509174 a48.43492472592335,48.43492472592335 0 0,0 0.34457454914797236,-0.7592243439602361 l 24.883855679613056 11.552870692311481" fill="#b7ff1f" stroke="none" /><path d="M 81.10775173730289 90.83032412892265 l -24.308121467177237 -11.798362576512677 a48.020106009227604,48.020106009227604 0 0,0 0.3673309146332413,-0.7405167090643694 l 24.10143053959058 12.215038874076008" fill="#bcff1f" stroke="none" /><path d="M 81.26839172434947 90.50648371742162 l -29.669296549520773 -15.0369336012468 a54.26223879824854,54.26223879824854 0 0,0 0.4294224868515323,-0.8295075621648254 l 29.406064629509128 15.54541388567196" fill="#75ff27" stroke="none" /><path d="M 81.6062741919709 89.86733742301443 l -38.59643371287604 -21.26185002262291 a65.06530337733923,65.06530337733923 0 0,0 0.5488486338231167,-0.9763404773950259 l 38.2247274377605 21.92307400995272" fill="#35ff62" stroke="none" /><line stroke="#e1ed5e" stroke-width="0.3" x1="26.266209847984243" x2="21.928928074336255" y1="57.711370442889674" y2="55.22380399835377" /><path d="M 25.398753493254645 57.213857153982495 a86.0,86.0 0 0,1 29.58750427330803,-30.492523968695096" fill="none" id="id23" stroke="none" /><text fill="#e1ed5e" style="font-size:6.75px; font-family:Arial;" text-anchor="middle"><textPath startOffset="21.46611528233685" xlink:href="#id23">November</textPath></text><path d="M 81.96595687620814 89.24020034530311 l -23.29167877542697 -13.896706108821572 a48.12232919298477,48.12232919298477 0 0,0 0.4305440669062772,-0.7077012420538902 l 23.049018910234476 14.295575124082537" fill="#baff1f" stroke="none" /><path d="M 82.34701348167596 88.62581576622439 l -16.206279012166213 -10.442040673231636 a40.278996157518236,40.278996157518236 0 0,0 0.38054706485985806,-0.5795992876149987 l 16.024135311948434 10.719458024824302" fill="#ffe315" stroke="none" /><line stroke="#e1ed5e" stroke-width="0.3" x1="56.762969772571076" x2="54.21961505331055" y1="26.818313649435495" y2="22.513508569990535" /><path d="M 56.25429882871897 25.957352633546506 a86.0,86.0 0 0,1 42.265352541879196,-11.944610805530505" fill="none" id="id24" stroke="none" /><text fill="#e1ed5e" style="font-size:6.75px; font-family:Arial;" text-anchor="middle"><textPath startOffset="22.20632615414155" xlink:href="#id24">December</textPath></text></svg>