<?xml version="1.0" encoding="utf-8" ?>
<svg baseProfile="full" height="200mm" version="1.1" viewBox="0,0,200,200" width="200mm" xmlns="http://www.w3.org/2000/svg" xmlns:ev="http://www.w3.org/2001/xml-events" xmlns:xlink="http://www.w3.org/1999/xlink"><defs /><rect fill="#1a1a1a" height="200" width="200" x="0" y="0" /><text alignment-baseline="middle" fill="#e1ed5e" style="dominant-baseline: central; font-size:9.0px; font-family:Arial;" text-anchor="middle" x="100.0" y="100.0">2023</text><line stroke="#e1ed5e" stroke-width="0.3" x1="100.0" x2="100.0" y1="15.0" y2="10.0" /><path d="M 100.0 14.0 a86.0,86.0 0 0,1 42.46469731375804,11.215312516191453" fill="none" id="id25" stroke="none" /><text fill="#e1ed5e" style="font-size:6.75px; font-family:Arial;" text-anchor="middle"><textPath startOffset="22.20632615414155" xlink:href="#id25">January</textPath></text><path d="M 103.59715602781102 79.31037775812273 l 1.8588996682388574 -10.691760831074347 a31.852154516291876,31.852154516291876 0 0,0 0.5393705499703648,0.09856652043729178 l -2.0426653393121232 10.658178829286317" fill="#ff0000" stroke="none" /><path d="M 103.95276090670814 79.375362276772 l 2.110413898780343 -11.01167592366693 a32.212085152728335,32.212085152728335 0 0,0 0.5436688094872479,0.10905484861252758 l -2.2996491177347163 10.973717118977193" fill="#ff0601" stroke="none" /><path d="M 105.01212808612495 79.60689891045804 l 10.79409696851231 -43.91849267750382 a66.22550749775621,66.22550749775621 0 0,0 1.1046765056565346,0.2816066379402765 l -11.54848236285387 43.72618304339468" fill="#33ff50" stroke="none" /><path d="M 106.40334571778207 80.00007090966166 l 5.455077393249434 -17.038149407476602 a38.89012030696933,38.89012030696933 0 0,0 0.6357926831638838,0.20961085145981465 l -5.747552898655735 16.94172483175755" fill="#ff760a" stroke="none" /><path d="M 107.08798089147638 80.2323363322302 l 15.209391870071597 -42.417459595642796 a66.06180732732975,66.06180732732975 0 0,0 1.0671110779446173,0.3930260157278463 l -15.93728527378879 42.14937031210862" fill="#33ff4e" stroke="none" /><path d="M 107.4271985657038 80.35727306442388 l 4.758925632218553 -12.585940159461042 a34.45560340046187,34.45560340046187 0 0,0 0.5529580193357319,0.21453912078400356 l -4.974866816553951 12.502158334786492" fill="#ff2d04" stroke="none" /><path d="M 108.09893153111575 80.62456947434976 l 7.50696622412093 -17.959245855461628 a40.4650726581487,40.4650726581487 0 0,0 0.6403428993570398,0.2741614113724459 l -7.814992881268285 17.82736491612639" fill="#ff8f0d" stroke="none" /><path d="M 108.76106565485865 80.91482961587045 l 7.126941330743149 -15.525381839764622 a38.08305517178786,38.08305517178786 0 0,0 0.5934097824994533,0.27861384963996927 l -7.3931293245422 15.400403007484648" fill="#ff6909" stroke="none" /><path d="M 109.41281617654863 81.2277094730956 l 17.883619830925987 -35.66589433407463 a60.89836935147182,60.89836935147182 0 0,0 0.9330196029420198,0.47792887930488975 l -18.494899921456764 35.35277292945724" fill="#53ff2b" stroke="none" /><line stroke="#e1ed5e" stroke-width="0.3" x1="143.23703022742887" x2="145.7803849466894" y1="26.81831364943548" y2="22.513508569990506" /><path d="M 143.74570117128098 25.957352633546492 a86.0,86.0 0 0,1 28.547481713284135,27.462654790039103" fill="none" id="id26" stroke="none" /><text fill="#e1ed5e" style="font-size:6.75px; font-family:Arial;" text-anchor="middle"><textPath startOffset="19.985693538727396" xlink:href="#id26">February</textPath></text><path d="M 110.68208982089419 81.91981866633111 l 6.468738276823979 -10.948790265389473 a33.71694079444954,33.71694079444954 0 0,0 0.4971449467169335,0.2995242678041769 l -6.65624528975855 10.83581938812668" fill="#ff2003" stroke="none" /><path d="M 111.60114157652 82.49532879139004 l 30.33882840993319 -45.777496349598096 a75.91833647630668,75.91833647630668 0 0,0 1.0830846293698133,0.7313035765361047 l -31.122317733709544 45.24848086076332" fill="#41ffcf" stroke="none" /><path d="M 112.19680574252982 82.90503203632743 l 8.148710479194285 -11.421182523333012 a35.03014229097546,35.03014229097546 0 0,0 0.48784424675185695,0.35443959230796307 l -8.344100042299932 11.279223696208375" fill="#ff3605" stroke="none" /><path d="M 112.77801427241765 83.33499621200491 l 11.875101431873995 -15.487430685704107 a40.51610983935541,40.51610983935541 0 0,0 0.5497986807524273,0.42912659108943857 l -12.139932667785853 15.280725705391443" fill="#ff900d" stroke="none" /><path d="M 113.89432698308785 84.25364557470407 l 7.281690539657858 -8.25229463739706 a32.005606930004134,32.005606930004134 0 0,0 0.4099598380710833,0.3680659904064877 l -7.422661365324932 8.125729638221275" fill="#ff0300" stroke="none" /><path d="M 114.16331599549186 84.49514656593476 l 18.08924670319619 -19.802645013002458 a47.82099170053347,47.82099170053347 0 0,0 0.6029819805434916,0.5604060355649507 l -18.427436567534528 19.488334391362866" fill="#fffe18" stroke="none" /><path d="M 114.68862486808459 84.99185889309783 l 21.933174398133914 -22.41027865070755 a52.35737119691821,52.35737119691821 0 0,0 0.6386706713333823,0.6359280165018057 l -22.31568086963462 22.029414783555627" fill="#c0ff1e" stroke="none" /><path d="M 115.4437574822437 85.77008943001954 l 37.05206029552992 -34.13984615111396 a71.3823805249942,71.3823805249942 0 0,0 0.8248280277312329,0.9107957095112678 l -37.634231963877184 33.49699765433314" fill="#3aff96" stroke="none" /><path d="M 115.9244219780498 86.31012108654704 l 13.665907504916758 -11.74828318683313 a39.021631051904436,39.021631051904436 0 0,0 0.43349201756337347,0.5131178183742077 l -13.866110135967249 11.511306418829815" fill="#ff780b" stroke="none" /><path d="M 116.38621287248628 86.86637796730983 l 15.398542124940825 -12.341999563731093 a40.73423555156661,40.73423555156661 0 0,0 0.4338116933920072,0.5508967963406414 l -15.608707898926795 12.075110373437413" fill="#ff930d" stroke="none" /><path d="M 116.82858285166822 87.43820079747576 l 37.55005783078735 -28.029471683455796 a67.85785020622612,67.85785020622612 0 0,0 0.6906552201676405,0.9420529441347139 l -38.02697566346862 27.378956295649587" fill="#35ff67" stroke="none" /><path d="M 117.2510076193507 88.02491185347247 l 14.602546600654257 -10.136612687508187 a38.77597490999667,38.77597490999667 0 0,0 0.37589713388182666,0.5515826607014919 l -14.774868200204818 9.883752003536287" fill="#ff740a" stroke="none" /><path d="M 117.45458315368197 88.32363383020206 l 27.616166460581308 -18.47402879580194 a54.225628510634,54.225628510634 0 0,0 0.5123117688733819,0.7802859716843249 l -27.930074864812614 17.99592476013994" fill="#a7ff21" stroke="none" /><line stroke="#e1ed5e" stroke-width="0.3" x1="172.23445277983987" x2="176.4835382374775" y1="55.19839476539836" y2="52.563006222186495" /><path d="M 173.08426987136738 54.67131705675599 a86.0,86.0 0 0,1 12.851231095245387,41.99856678651699" fill="none" id="id27" stroke="none" /><text fill="#e1ed5e" style="font-size:6.75px; font-family:Arial;" text-anchor="middle"><textPath startOffset="22.20632615414155" xlink:href="#id27">March</textPath></text><path d="M 117.84615892207809 88.93136811851018 l 13.56706167118561 -8.414629277230333 a36.96468440849914,36.96468440849914 0 0,0 0.33071810579488214,0.5436136094559174 l -13.709895575266716 8.179847894567333" fill="#ff5608" stroke="none" /><path d="M 118.3937258080291 89.86733742301442 l 42.06519311657606 -23.172706418182337 a69.02556397043253,69.02556397043253 0 0,0 0.5643395371714767,1.0456354540569743 l -42.45784075296601 22.445189980792904" fill="#37ff77" stroke="none" /><path d="M 118.89224826269711 90.83032412892265 l 16.44200770012289 -7.980409699441493 a39.27639341286569,39.27639341286569 0 0,0 0.28997537971964027,0.6107621026312958 l -16.576941273684287 7.696205181169657" fill="#ff7c0b" stroke="none" /><path d="M 119.196687751892 91.48605970444005 l 19.712984820700896 -8.742923674121084 a42.56479735385174,42.56479735385174 0 0,0 0.2912836577815321,0.6723228425128823 l -19.86055918832511 8.4023016870216" fill="#ffb010" stroke="none" /><path d="M 119.47837535516314 92.15188598940014 l 58.435126065489385 -23.54434203179955 a84.0,84.0 0 0,0 0.5288258004731983,1.3458039804168624 l -58.83174541584429 22.534989046486903" fill="#4dd2ff" stroke="none" /><path d="M 119.7369772167798 92.82701384747503 l 12.509194771208954 -4.546201775864401 a34.30969212307009,34.30969212307009 0 0,0 0.19694893732381163,0.5568011672435416 l -12.585596789342576 4.330202982194245" fill="#ff2a04" stroke="none" /><path d="M 120.08093135843002 93.85539295169968 l 25.552962023626332 -7.819005391371466 a47.72247581140613,47.72247581140613 0 0,0 0.23359948041152287,0.7875813194253769 l -25.683767401149556 7.3779946851995595" fill="#fffd17" stroke="none" /><line stroke="#e1ed5e" stroke-width="0.3" x1="184.98032266829074" x2="189.97916517819016" y1="98.17113171792111" y2="98.06355123074" /><path d="M 185.9800911702706 98.14961562048488 a86.0,86.0 0 0,1 -9.607161424134198,41.387399972396054" fill="none" id="id28" stroke="none" /><text fill="#e1ed5e" style="font-size:6.75px; font-family:Arial;" text-anchor="middle"><textPath startOffset="21.466115282336823" xlink:href="#id28">April</textPath></text><line stroke="#e1ed5e" stroke-width="0.3" x1="174.80103733775053" x2="179.2010983576182" y1="140.37084112569926" y2="142.7455964860345" /><path d="M 175.68104954172406 140.8457921977663 a86.0,86.0 0 0,1 -30.038265399797805,32.042727171017184" fill="none" id="id29" stroke="none" /><text fill="#e1ed5e" style="font-size:6.75px; font-family:Arial;" text-anchor="middle"><textPath startOffset="22.206326154141568" xlink:href="#id29">May</textPath></text><line stroke="#e1ed5e" stroke-width="0.3" x1="143.8653032363475" x2="146.44561519142675" y1="172.8068346515853" y2="177.08958963109032" /><path d="M 144.38136562736335 173.6633856474863 a86.0,86.0 0 0,1 -40.68145358897372,12.25698825130547" fill="none" id="id30" stroke="none" /><text fill="#e1ed5e" style="font-size:6.75px; font-family:Arial;" text-anchor="middle"><textPath startOffset="21.466115282336833" xlink:href="#id30">June</textPath></text><line stroke="#e1ed5e" stroke-width="0.3" x1="102.19456741930631" x2="102.32365962044197" y1="184.97166512339345" y2="189.96999836594603" /><path d="M 102.22038585953345 185.97133177190398 a86.0,86.0 0 0,1 -42.740103519485714,-10.115201625700543" fill="none" id="id31" stroke="none" /><text fill="#e1ed5e" style="font-size:6.75px; font-family:Arial;" text-anchor="middle"><textPath startOffset="22.20632615414155" xlink:href="#id31">July</textPath></text><line stroke="#e1ed5e" stroke-width="0.3" x1="58.666819895761336" x2="56.23545636021788" y1="174.27360380694188" y2="178.64263932499728" /><path d="M 58.180547188652646 175.14741091055294 a86.0,86.0 0 0,1 -31.652253787137756,-30.449443065178592" fill="none" id="id32" stroke="none" /><text fill="#e1ed5e" style="font-size:6.75px; font-family:Arial;" text-anchor="middle"><textPath startOffset="22.20632615414155" xlink:href="#id32">August</textPath></text><line stroke="#e1ed5e" stroke-width="0.3" x1="26.63291911575756" x2="22.317208475507996" y1="142.92168965132927" y2="145.44649492493687" /><path d="M 25.769776987707644 143.4266507060508 a86.0,86.0 0 0,1 -11.730757126820373,-40.83630448921669" fill="none" id="id33" stroke="none" /><text fill="#e1ed5e" style="font-size:6.75px; font-family:Arial;" text-anchor="middle"><textPath startOffset="21.46611528233685" xlink:href="#id33">September</textPath></text><line stroke="#e1ed5e" stroke-width="0.3" x1="15.007084014347285" x2="10.007500721073583" y1="101.09737516637583" y2="101.16192664675087" /><path d="M 14.007167355692545 101.11028546245083 a86.0,86.0 0 0,1 10.666146001902534,-42.60595125391555" fill="none" id="id34" stroke="none" /><text fill="#e1ed5e" style="font-size:6.75px; font-family:Arial;" text-anchor="middle"><textPath startOffset="22.20632615414155" xlink:href="#id34">October</textPath></text><line stroke="#e1ed5e" stroke-width="0.3" x1="26.266209847984243" x2="21.928928074336255" y1="57.711370442889674" y2="55.22380399835377" /><path d="M 25.398753493254645 57.213857153982495 a86.0,86.0 0 0,1 29.58750427330803,-30.492523968695096" fill="none" id="id35" stroke="none" /><text fill="#e1ed5e" style="font-size:6.75px; font-family:Arial;" text-anchor="middle"><textPath startOffset="21.46611528233685" xlink:href="#id35">November</textPath></text><line stroke="#e1ed5e" stroke-width="0.3" x1="56.762969772571076" x2="54.21961505331055" y1="26.818313649435495" y2="22.513508569990535" /><path d="M 56.25429882871897 25.957352633546506 a86.0,86.0 0 0,1 42.265352541879196,-11.944610805530505" fill="none" id="id36" stroke="none" /><text fill="#e1ed5e" style="font-size:6.75px; font-family:Arial;" text-anchor="middle"><textPath startOffset="22.20632615414155" xlink:href="#id36">December</textPath></text></svg>