<?xml version="1.0" encoding="utf-8" ?>
<svg baseProfile="full" height="200mm" version="1.1" viewBox="0,0,200,200" width="200mm" xmlns="http://www.w3.org/2000/svg" xmlns:ev="http://www.w3.org/2001/xml-events" xmlns:xlink="http://www.w3.org/1999/xlink"><defs /><rect fill="#1a1a1a" height="200" width="200" x="0" y="0" /><text alignment-baseline="middle" fill="#e1ed5e" style="dominant-baseline: central; font-size:9.0px; font-family:Arial;" text-anchor="middle" x="100.0" y="100.0">2022</text><line stroke="#e1ed5e" stroke-width="0.3" x1="100.0" x2="100.0" y1="15.0" y2="10.0" /><path d="M 100.0 14.0 a86.0,86.0 0 0,1 42.46469731375804,11.215312516191453" fill="none" id="id13" stroke="none" /><text fill="#e1ed5e" style="font-size:6.75px; font-family:Arial;" text-anchor="middle"><textPath startOffset="22.20632615414155" xlink:href="#id13">January</textPath></text><path d="M 100.0 79.0 l 0.0 -25.235163687723343 a46.23516368772334,46.23516368772334 0 0,0 0.7958623394800969,0.006850238418612991 l -0.4343818602075685 25.23142482591329" fill="#d2ff1c" stroke="none" /><path d="M 100.36148047927253 79.00311137660856 l 0.26178365757209743 -15.205917377688685 a36.20817063227746,36.20817063227746 0 0,0 0.623079450229737,0.016092303935997847 l -0.5234897429967021 15.199158281610327" fill="#ffac0f" stroke="none" /><path d="M 101.44485096284872 79.0497635885617 l 0.6580779950999703 -9.542084221148329 a30.564749757893445,30.564749757893445 0 0,0 0.5245636034490383,0.04071623146439341 l -0.8222317879113499 9.529342727495472" fill="#ff5d08" stroke="none" /><path d="M 101.80526077348638 79.07773832637324 l 1.3335646584332035 -15.455489396446882 a36.51291549586679,36.51291549586679 0 0,0 0.625718134459034,0.059419476439740916 l -1.5994079199824818 15.430244375491963" fill="#ffb010" stroke="none" /><path d="M 102.16513564639614 79.11191278185805 l 2.622447580753917 -25.299991657784116 a46.43554224304542,46.43554224304542 0 0,0 0.7943425197277434,0.08925363751029364 l -3.057556803991386 25.25110206680322" fill="#d0ff1d" stroke="none" /><path d="M 102.52436894288641 79.15227682838746 l 1.7252536602214148 -14.248159252023346 a35.352231264271275,35.352231264271275 0 0,0 0.6034882963155095,0.07835010109182937 l -1.9702566850447705 14.216350827767378" fill="#ffa00e" stroke="none" /><path d="M 102.88285421437855 79.19881850522331 l 3.266547760269395 -23.5697152092608 a44.794995467866364,44.794995467866364 0 0,0 0.7628609476603234,0.1124258734829026 l -3.671777688358374 23.509994851616927" fill="#e4ff1a" stroke="none" /><path d="M 103.2404852339499 79.25152402106235 l 2.263957769248028 -14.495876389263668 a35.671603084658145,35.671603084658145 0 0,0 0.6058580471668557,0.09997176897459734 l -2.513145022553759 14.454758357349446" fill="#ffa40f" stroke="none" /><path d="M 103.95276090670814 79.375362276772 l 5.67724580211724 -29.622620921916315 a51.16174381863907,51.16174381863907 0 0,0 0.8634971695030167,0.17320940884269423 l -6.186309381087383 29.520507556996414" fill="#98ff23" stroke="none" /><path d="M 104.307194497241 79.44645832069477 l 4.2618243289629945 -20.33703934923945 a41.77879486648479,41.77879486648479 0 0,0 0.7025945420569685,0.15355995378638868 l -4.611261595173491 20.26066589735719" fill="#fff517" stroke="none" /><path d="M 105.36241919743992 79.69619591428918 l 2.66447422274561 -10.088536650749141 a31.43446187578375,31.43446187578375 0 0,0 0.5219649146286944,0.1426727285069021 l -2.837737026598015 10.041177381415945" fill="#ff6a09" stroke="none" /><path d="M 106.0581310904928 79.89281104454417 l 9.159707003125922 -30.401448357150592 a52.75135106724765,52.75135106724765 0 0,0 0.8671684760802835,0.26943346667798984 l -9.681660851916924 30.23927475559008" fill="#86ff25" stroke="none" /><path d="M 106.40334571778207 80.00007090966166 l 4.56977695799717 -14.273040867495448 a35.98674604612479,35.98674604612479 0 0,0 0.588327051868305,0.19396217909473915 l -4.814786832107893 14.192264964141474" fill="#ffa90f" stroke="none" /><path d="M 106.74666289553966 80.11325718540242 l 4.162701625916192 -12.270151618696058 a33.9570330543761,33.9570330543761 0 0,0 0.5519117366703249,0.19255116785325024 l -4.373295366649791 12.1966795976706" fill="#ff8d0d" stroke="none" /><path d="M 108.09893153111575 80.62456947434976 l 3.64295496959292 -8.715201585572107 a30.445944081331433,30.445944081331433 0 0,0 0.48179436798258357,0.20627920454811005 l -3.792433095365819 8.651202853061207" fill="#ff5c08" stroke="none" /><path d="M 108.43124777332544 80.76684994638697 l 4.23043656486167 -9.650365335211127 a31.536894449142174,31.536894449142174 0 0,0 0.49530627225489665,0.2222294865294809 l -4.3959249555833475 9.576115518165114" fill="#ff6b09" stroke="none" /><path d="M 108.76106565485865 80.91482961587045 l 5.027481359188 -10.951902670644497 a33.05071536981323,33.05071536981323 0 0,0 0.5149959143399122,0.24179748712388466 l -5.215255484827511 10.86374020088061" fill="#ff800b" stroke="none" /><path d="M 109.08828744355905 81.06846463323043 l 6.612324172374423 -13.773931524862675 a36.27887497861583,36.27887497861583 0 0,0 0.5606446348141497,0.2751058874503871 l -6.848440074199005 13.658070477277457" fill="#ffad10" stroke="none" /><path d="M 110.05341064243156 81.56283822128135 l 6.4390187850375895 -11.80865233285975 a34.45010159189963,34.45010159189963 0 0,0 0.5181884391382015,0.28837130534968997 l -6.641331313247826 11.696065629949882" fill="#ff940d" stroke="none" /><line stroke="#e1ed5e" stroke-width="0.3" x1="143.23703022742887" x2="145.7803849466894" y1="26.81831364943548" y2="22.513508569990506" /><path d="M 143.74570117128098 25.957352633546492 a86.0,86.0 0 0,1 28.547481713284135,27.462654790039103" fill="none" id="id14" stroke="none" /><text fill="#e1ed5e" style="font-size:6.75px; font-family:Arial;" text-anchor="middle"><textPath startOffset="19.985693538727396" xlink:href="#id14">February</textPath></text><path d="M 110.68208982089419 81.91981866633111 l 7.5706456099610975 -12.813845205954545 a35.88318863395165,35.88318863395165 0 0,0 0.529085542197121,0.3187681191952278 l -7.790093218375856 12.681630477300702" fill="#ffa70f" stroke="none" /><path d="M 111.2981086023043 82.29822771554956 l 11.07734257042441 -17.355878103217098 a41.58965816025773,41.58965816025773 0 0,0 0.600144657567523,0.39035077939163154 l -11.374454253776213 17.162628399665937" fill="#fff216" stroke="none" /><path d="M 111.90073688211348 82.69761687909136 l 15.5124407524189 -22.55340956593623 a48.373200418405055,48.373200418405055 0 0,0 0.6819903963128021,0.4777778557521496 l -15.898362288315354 22.283046867420147" fill="#b9ff1f" stroke="none" /><path d="M 112.77801427241765 83.33499621200491 l 16.2593978822693 -21.205401834886988 a47.72147238594782,47.72147238594782 0 0,0 0.6475745738025407,0.5054422265105688 l -16.62200501123127 20.922381219153195" fill="#c0ff1e" stroke="none" /><path d="M 113.34407831869373 83.78471172551755 l 18.88725304201217 -22.951173207690182 a50.723470172279576,50.723470172279576 0 0,0 0.6694108313107764,0.5606123199978674 l -19.279521410282065 22.622659730298494" fill="#9dff22" stroke="none" /><path d="M 113.89432698308785 84.25364557470407 l 9.513687129029892 -10.781802501655848 a35.37906492000719,35.37906492000719 0 0,0 0.4531704634576232,0.406860916523672 l -9.697868580083506 10.616442576362878" fill="#ffa00e" stroke="none" /><path d="M 114.16331599549186 84.49514656593476 l 9.930403627629918 -10.871003149016776 a35.723845478460376,35.723845478460376 0 0,0 0.4504472687251151,0.4186416447632042 l -10.11605878014988 10.69845691817893" fill="#ffa50f" stroke="none" /><path d="M 114.68862486808459 84.99185889309783 l 16.65129074777751 -17.013500133541594 a44.805979718571564,44.805979718571564 0 0,0 0.5465565686822409,0.5442094810812138 l -16.941683116627072 16.72435480181026" fill="#e4ff1b" stroke="none" /><path d="M 115.19652480421416 85.50635884689758 l 22.745533591576468 -21.693486238427766 a52.4319366813817,52.4319366813817 0 0,0 0.6172803866672912,0.6584716778663668 l -23.115581300214224 21.298745143683345" fill="#8aff24" stroke="none" /><path d="M 115.4437574822437 85.77008943001954 l 19.038090906563156 -17.54173693384065 a46.887476509359345,46.887476509359345 0 0,0 0.5417878262124899,0.5982556496498729 l -19.337222373391683 17.211428496921226" fill="#caff1d" stroke="none" /><path d="M 116.15771136456269 86.58626213691792 l 22.76369741714944 -18.897866353637834 a50.58572751884755,50.58572751884755 0 0,0 0.5504245246413603,0.6747553842819202 l -23.08562043386721 18.503226799747814" fill="#9fff22" stroke="none" /><path d="M 116.60985879189232 87.15038557335679 l 23.665752346567253 -18.308150393081764 a50.92083229030826,50.92083229030826 0 0,0 0.5303624364620607,0.6978947979980654 l -23.97739072325343 17.898070819202665" fill="#9bff22" stroke="none" /><path d="M 117.04232023915458 87.72973835380427 l 24.580367532043194 -17.697563286299708 a51.28858224286681,51.28858224286681 0 0,0 0.5096799934398555,0.7209062054117926 l -24.881360145286934 17.271830580556124" fill="#97ff23" stroke="none" /><path d="M 117.45458315368197 88.32363383020206 l 36.04129892747163 -24.110080418822946 a64.36209411665305,64.36209411665305 0 0,0 0.6080788584835177,0.9261458193629228 l -36.45097442131307 23.48611653548235" fill="#34ff59" stroke="none" /><line stroke="#e1ed5e" stroke-width="0.3" x1="172.23445277983987" x2="176.4835382374775" y1="55.19839476539836" y2="52.563006222186495" /><path d="M 173.08426987136738 54.67131705675599 a86.0,86.0 0 0,1 12.851231095245387,41.99856678651699" fill="none" id="id15" stroke="none" /><text fill="#e1ed5e" style="font-size:6.75px; font-family:Arial;" text-anchor="middle"><textPath startOffset="22.20632615414155" xlink:href="#id15">March</textPath></text><path d="M 117.84615892207809 88.93136811851018 l 12.671219889943448 -7.859005910660369 a35.91052606057523,35.91052606057523 0 0,0 0.3212866915244252,0.5281108442186944 l -12.804622379754097 7.639727293234594" fill="#ffa80f" stroke="none" /><path d="M 118.21658344932153 89.55222093294921 l 16.573699320707554 -9.505533752155458 a40.106090156978446,40.106090156978446 0 0,0 0.3383089242354999,0.6018138266907503 l -16.734865886235486 9.218836415529914" fill="#ffdf14" stroke="none" /><path d="M 118.3937258080291 89.86733742301442 l 8.399299105212354 -4.626972512504417 a30.5894264734807,30.5894264734807 0 0,0 0.250093179764234,0.4633846795317969 l -8.477700384195053 4.481706849640162" fill="#ff5e08" stroke="none" /><path d="M 118.56541770881063 90.18545643968196 l 9.962601818880836 -5.266694833324802 a32.26905095688798,32.26905095688798 0 0,0 0.25537199380525255,0.4932974087586649 l -10.051783245846204 5.094424702305792" fill="#ff750a" stroke="none" /><path d="M 118.73160827565052 90.50648371742162 l 32.102263727317236 -16.27000516549762 a56.989837517048436,56.989837517048436 0 0,0 0.4359450838345732,0.8788386872809024 l -32.37756882410522 15.715006889717767" fill="#58ff2a" stroke="none" /><path d="M 119.04729006885535 91.15688171328212 l 17.133736964152423 -7.954709678898471 a39.89027126412758,39.89027126412758 0 0,0 0.2837863858363924,0.6252856838795574 l -17.268125666952162 7.65860198617685" fill="#ffdc14" stroke="none" /><path d="M 119.196687751892 91.48605970444005 l 28.94090089173977 -12.835605052111394 a52.65957203563073,52.65957203563073 0 0,0 0.36036522462993864,0.831772623329625 l -29.15755682621239 12.335533284195165" fill="#88ff25" stroke="none" /><path d="M 119.47837535516314 92.15188598940014 l 28.417197501544727 -11.44969237871987 a51.63711098339913,51.63711098339913 0 0,0 0.32508376845142173,0.8273027321272124 l -28.610074819877852 10.958840641696874" fill="#93ff23" stroke="none" /><path d="M 119.61058180528143 92.48833698450437 l 5.667149845887565 -2.170752521435174 a27.06866986126784,27.06866986126784 0 0,0 0.1629216983727906,0.43654915206680117 l -5.703676132761981 2.0728802323390396" fill="#ff2a04" stroke="none" /><path d="M 119.7369772167798 92.82701384747503 l 30.515898869845923 -11.090356827243186 a53.468694128194365,53.468694128194365 0 0,0 0.30692792144173603,0.8677265652741893 l -30.702279872097467 10.563432635542382" fill="#7fff26" stroke="none" /><path d="M 119.97218684219823 93.5106431181261 l 18.571206177553968 -6.0341506698895095 a40.526921754238344,40.526921754238344 0 0,0 0.20986097621563857,0.6653166442868191 l -18.672322637537814 5.713583859176271" fill="#ffe515" stroke="none" /><path d="M 120.08093135843002 93.85539295169968 l 28.51211552405672 -8.724483087161405 a50.81706452344566,50.81706452344566 0 0,0 0.24874735995734937,0.8386524388396058 l -28.65806878112577 8.232401261575268" fill="#9cff22" stroke="none" /><path d="M 120.18372546131832 94.20196356495316 l 23.94021163350355 -6.8771357190626246 a45.908406788780084,45.908406788780084 0 0,0 0.2116448152083286,0.7613990077417503 l -24.055043219278243 6.464025407901922" fill="#d6ff1c" stroke="none" /><path d="M 120.45610955862082 95.25157060432595 l 31.21061877267344 -7.2448487437281255 a53.040451892766036,53.040451892766036 0 0,0 0.19878958475757555,0.8911347297477522 l -31.33070274443305 6.706535844430409" fill="#83ff25" stroke="none" /><path d="M 120.67395015179393 96.31383870115 l 13.611610929779843 -2.4269475865019547 a34.82628029121823,34.82628029121823 0 0,0 0.10014734461721973,0.5910752969469628 l -13.651370135917285 2.192286501239154" fill="#ff990e" stroke="none" /><path d="M 120.73433829027371 96.67025291283417 l 14.21636189346133 -2.2830190644209503 a35.39851108741348,35.39851108741348 0 0,0 0.0914362194055134,0.6024504420304905 l -14.253554006306144 2.0379695099983777" fill="#ffa10e" stroke="none" /><path d="M 120.83666639777658 97.38593545837742 l 25.513797115498775 -3.2008341012214188 a46.71379361732484,46.71379361732484 0 0,0 0.09322660001739454,0.7987085764238577 l -25.56511406851976 2.7611817864727084" fill="#ccff1d" stroke="none" /><path d="M 120.87857604477298 97.74499172005257 l 45.90776089192093 -4.958306577188515 a67.17474758158593,67.17474758158593 0 0,0 0.11427024119928607,1.1506857344690258 l -45.986308258802445 4.167345312015055" fill="#37ff7b" stroke="none" /><path d="M 120.94382443527127 98.46500227214037 l 32.93018220992342 -2.4134921024791085 a54.01850760569724,54.01850760569724 0 0,0 0.05998474629468311,0.9279374753016073 l -32.96684754722252 1.846295562924466" fill="#78ff26" stroke="none" /><path d="M 120.98425023603335 99.18683210126433 l 39.60856722899263 -1.53488521263549 a60.638295505099556,60.638295505099556 0 0,0 0.031440394721352787,1.0433536369169982 l -39.62911931816962 0.8528614282934927" fill="#33ff2f" stroke="none" /><line stroke="#e1ed5e" stroke-width="0.3" x1="184.98032266829074" x2="189.97916517819016" y1="98.17113171792111" y2="98.06355123074" /><path d="M 185.9800911702706 98.14961562048488 a86.0,86.0 0 0,1 -9.607161424134198,41.387399972396054" fill="none" id="id16" stroke="none" /><text fill="#e1ed5e" style="font-size:6.75px; font-family:Arial;" text-anchor="middle"><textPath startOffset="21.466115282336823" xlink:href="#id16">April</textPath></text><path d="M 120.99824983174949 100.27111621757518 l 40.927954330926916 0.528436048727892 a61.931365605999936,61.931365605999936 0 0,0 -0.022938013310254895,1.065839345334961 l -40.912794254931654 -1.232865209852968" fill="#31ff3b" stroke="none" /><path d="M 120.9764740272857 100.99374915477107 l 14.312305235075353 0.6780377489410695 a35.328357070193164,35.328357070193164 0 0,0 -0.03400547683509324,0.6071906324778158 l -14.298513407352731 -0.9243000977543085" fill="#ffa00e" stroke="none" /><path d="M 120.95626037817324 101.35467743843564 l 3.8838818721145882 0.2510661277707149 a24.891988257568887,24.891988257568887 0 0,0 -0.031320571021517474,0.42734430727907313 l -3.8789847424287327 -0.3178835715465583" fill="#ff0a01" stroke="none" /><path d="M 120.89721153311464 102.0752229133903 l 15.65096362346822 1.554237907607495 a36.727947031210704,36.727947031210704 0 0,0 -0.06789020830204161,0.6285790120303658 l -15.621891113665127 -1.8234132415226523" fill="#ffb310" stroke="none" /><path d="M 120.81339534386255 102.79330883721812 l 62.44018603158764 8.379926511654341 a84.0,84.0 0 0,0 -0.20466379593359463,1.4314181120783627 l -62.28668818463745 -9.453490095713112" fill="#4dd2ff" stroke="none" /><path d="M 120.70491114924044 103.5080841355445 l 28.16438258958886 4.771960769972538 a49.56578471253491,49.56578471253491 0 0,0 -0.14976787515524725,0.8399777802088224 l -28.078068272094423 -5.256057300914579" fill="#abff21" stroke="none" /><path d="M 120.5718875245553 104.21870165774334 l 27.76047747312897 5.692874423693282 a49.33818852255807,49.33818852255807 0 0,0 -0.17777245057876218,0.8304937056078123 l -27.658370983825762 -6.169881948717263" fill="#adff20" stroke="none" /><path d="M 120.41448212921028 104.9243191809786 l 23.768856424015823 5.733451128364987 a45.45058276497368,45.45058276497368 0 0,0 -0.19000223454574278,0.758964478992419 l -23.666642875175018 -6.141743446754802" fill="#dcff1b" stroke="none" /><path d="M 120.32669344350535 105.2749913415812 l 15.756940418747929 4.089092232817802 a37.27887731535756,37.27887731535756 0 0,0 -0.1665334853701227,0.6197330510394143 l -15.68421885703603 -4.359716217032765" fill="#ffba11" stroke="none" /><path d="M 120.02730092923936 106.31721596034902 l 40.94457073156425 12.915154999116538 a63.93319346430303,63.93319346430303 0 0,0 -0.34008729177333724,1.0466810590933244 l -40.716191188774665 -13.618034958187657" fill="#33ff54" stroke="none" /><path d="M 119.79798401119884 107.00284435728193 l 18.760878014519182 6.636004386472615 a40.89992708762907,40.89992708762907 0 0,0 -0.24048327247511161,0.6617066823957423 l -18.643870481038846 -6.957958865874488" fill="#ffe915" stroke="none" /><path d="M 119.26925614724726 108.34839909993367 l 14.375523208771352 6.228190860098504 a36.66671723481784,36.66671723481784 0 0,0 -0.2558968716380973,0.576979890742752 l -14.266185252401982 -6.474719087333943" fill="#ffb210" stroke="none" /><path d="M 119.12269723197855 108.67885076344098 l 13.888676413522923 6.303386412096463 a36.25214780874321,36.25214780874321 0 0,0 -0.26278557574119066,0.5660167516442196 l -13.7781162209419 -6.5415232310195135" fill="#ffac0f" stroke="none" /><path d="M 118.81262510543309 109.33194174019688 l 12.40430588277155 6.15311574949607 a34.84657495050879,34.84657495050879 0 0,0 -0.27117493484783917,0.5350538728275216 l -12.296552278137442 -6.365723834026286" fill="#ff990e" stroke="none" /><path d="M 118.64920377521936 109.65438752849418 l 20.841706409824656 10.789410253692274 a44.4688751263414,44.4688751263414 0 0,0 -0.35775737688837245,0.6767421326851616 l -20.65289652471139 -11.146567401463571" fill="#e8ff1a" stroke="none" /><line stroke="#e1ed5e" stroke-width="0.3" x1="174.80103733775053" x2="179.2010983576182" y1="140.37084112569926" y2="142.7455964860345" /><path d="M 175.68104954172406 140.8457921977663 a86.0,86.0 0 0,1 -30.038265399797805,32.042727171017184" fill="none" id="id17" stroke="none" /><text fill="#e1ed5e" style="font-size:6.75px; font-family:Arial;" text-anchor="middle"><textPath startOffset="22.206326154141568" xlink:href="#id17">May</textPath></text><path d="M 118.12598468904814 110.60418214915192 l 30.119315418385256 17.62059895688292 a55.89496623972408,55.89496623972408 0 0,0 -0.49299127141899274,0.826281727703183 l -29.811543271268036 -18.136442778472205" fill="#64ff29" stroke="none" /><path d="M 117.55443506779139 111.5257021239791 l 15.374765293679003 10.094597992855336 a39.39250707416135,39.39250707416135 0 0,0 -0.37703674247583974,0.5636187729843858 l -15.198725445792443 -10.35775368004553" fill="#ffd614" stroke="none" /><path d="M 117.35343817320211 111.8261652097733 l 37.40655159112284 25.492127532840275 a66.2669710505345,66.2669710505345 0 0,0 -0.6504863474985791,0.9370740991360018 l -36.96220433646213 -26.132242894163294" fill="#36ff70" stroke="none" /><path d="M 116.71984013943494 112.70617746262583 l 7.899698230225228 6.003344934960916 a30.92196465105296,30.92196465105296 0 0,0 -0.32570132281127545,0.42101286471372174 l -7.795190090195884 -6.13843579378789" fill="#ff6209" stroke="none" /><path d="M 116.498646956653 112.99209946851258 l 13.158531274264124 10.3618768026208 a37.74859505058493,37.74859505058493 0 0,0 -0.40639434219200227,0.50703942787123 l -12.978219020017267 -10.58684406407028" fill="#ffc011" stroke="none" /><path d="M 116.0416608686014 113.55231037782055 l 10.326412210228574 8.7239559861444 a34.518217233930756,34.518217233930756 0 0,0 -0.38735602130661034,0.4505825638065541 l -10.174713679351184 -8.900415649112484" fill="#ff950d" stroke="none" /><path d="M 115.07121518719521 114.62390073753431 l 12.870680238354174 12.488677780286153 a38.93380836570341,38.93380836570341 0 0,0 -0.47083836365531423,0.4769567765529679 l -12.653801249643324 -12.708375050819786" fill="#ffd013" stroke="none" /><path d="M 114.55890576462653 115.13401014063108 l 21.459618199352196 22.307313797727467 a51.95369868258477,51.95369868258477 0 0,0 -0.6498273768939298,0.6144523450330052 l -21.07245498806746 -22.673400779506395" fill="#8fff24" stroke="none" /><path d="M 113.75828350139079 115.86535959552629 l 9.7786441313476 11.27623990920303 a35.92566472682011,35.92566472682011 0 0,0 -0.4706852687269731,0.4011281973079579 l -9.58309338604358 -11.442892496733934" fill="#ffa80f" stroke="none" /><path d="M 113.20401910651253 116.32954008644616 l 10.053706631919113 12.433517714490366 a36.98966478064003,36.98966478064003 0 0,0 -0.4985546410979546,0.39608195911833155 l -9.838194498103809 -12.604733587613822" fill="#ffb610" stroke="none" /><path d="M 112.92097659922987 116.55440617244103 l 18.559683891660406 23.778740191586596 a51.16438879303432,51.16438879303432 0 0,0 -0.6989330128052854,0.5359120301864805 l -18.147622150361624 -24.09469156360045" fill="#98ff23" stroke="none" /><path d="M 112.34349029814194 116.9893568818739 l 22.4748889463151 30.93403081030552 a59.23656489961053,59.23656489961053 0 0,0 -0.830081059145779,0.5922407956814543 l -21.939080559320438 -31.316315867831193" fill="#41ff2d" stroke="none" /><path d="M 111.7513745106137 117.40417183066458 l 10.996993899096205 16.28690935411649 a40.65190298993882,40.65190298993882 0 0,0 -0.5833069959636699,0.3865840701664063 l -10.715012204392572 -16.47379144537421" fill="#ffe615" stroke="none" /><path d="M 111.1453310114006 117.79835938074945 l 15.320162178951021 24.465289721177136 a49.86620464021027,49.86620464021027 0 0,0 -0.7314203928388946,0.4492981444487633 l -14.896762586179818 -24.725376332454278" fill="#a7ff21" stroke="none" /><line stroke="#e1ed5e" stroke-width="0.3" x1="143.8653032363475" x2="146.44561519142675" y1="172.8068346515853" y2="177.08958963109032" /><path d="M 144.38136562736335 173.6633856474863 a86.0,86.0 0 0,1 -40.68145358897372,12.25698825130547" fill="none" id="id18" stroke="none" /><text fill="#e1ed5e" style="font-size:6.75px; font-family:Arial;" text-anchor="middle"><textPath startOffset="21.466115282336833" xlink:href="#id18">June</textPath></text><path d="M 110.5260780823613 118.17145234162733 l 13.222626676418543 22.826576869527596 a47.37973593128611,47.37973593128611 0 0,0 -0.7092323053784647,0.4027206128200506 l -12.827745604118878 -23.05080064814228" fill="#c4ff1e" stroke="none" /><path d="M 109.89434966115114 118.52300852407294 l 15.745301252029854 29.476454672970757 a54.41819701307766,54.41819701307766 0 0,0 -0.8300306462568694,0.43423280445058576 l -15.23557970324649 -29.74311689636606" fill="#74ff27" stroke="none" /><path d="M 108.59647513512805 119.15986991738527 l 11.548470429148352 25.73929287168898 a49.21131628952278,49.21131628952278 0 0,0 -0.7758499712542425,0.3401098272689416 l -11.103699783236356 -25.934267252252376" fill="#afff20" stroke="none" /><path d="M 107.93186726928326 119.44442032107085 l 10.13681924069627 24.849706549946745 a47.83771636963578,47.83771636963578 0 0,0 -0.7651276523260793,0.30446008329567975 l -9.707570512328324 -25.020513477648493" fill="#bfff1e" stroke="none" /><path d="M 107.59598834532513 119.57807347666477 l 5.4398080034349485 14.020685123318211 a36.03898674916204,36.03898674916204 0 0,0 -0.580278792072264,0.21941178667925282 l -5.1976589906024095 -14.112245160104093" fill="#ffa90f" stroke="none" /><path d="M 106.57524785965236 119.94407469862006 l 19.087625623141168 57.89668152028396 a81.96198145557923,81.96198145557923 0 0,0 -1.3437028918670528,0.43021123323706756 l -18.088201386183176 -58.21666560018074" fill="#4ae5ff" stroke="none" /><path d="M 105.53697534728816 120.25689768951611 l 1.142145980027956 4.1785149495473 a25.33179923626249,25.33179923626249 0 0,0 -0.4216050444692453,0.11134972415294726 l -1.0700504927472134 -4.197556023003831" fill="#ff1101" stroke="none" /><path d="M 105.18746579009965 120.34920634021253 l 7.100415269637476 27.85325653593815 a49.744039323972586,49.744039323972586 0 0,0 -0.8315467432516721,0.20437395805951272 l -6.619915241642593 -27.971351752311694" fill="#a9ff21" stroke="none" /><path d="M 104.83641907484287 120.43548508189849 l 12.191851449181483 51.51464224976523 a73.93769552861369,73.93769552861369 0 0,0 -1.2410260892458,0.282453497478287 l -11.30330521054282 -51.7168724808212" fill="#40ffc7" stroke="none" /><path d="M 104.13013068566511 120.58985236759428 l 8.6621305979869 43.183134814691705 a65.04333819001938,65.04333819001938 0 0,0 -1.0996424530391402,0.21074909329604746 l -7.917520530376056 -43.32584110633622" fill="#35ff61" stroke="none" /><path d="M 103.7750983002368 120.6578951692458 l 5.443351206829412 29.78682133734526 a51.28010564287744,51.28010564287744 0 0,0 -0.8696886841777492,0.15120652547618776 l -4.929813551179613 -29.87610644134245" fill="#97ff23" stroke="none" /><path d="M 103.06178313531738 120.77559828337769 l 4.3510036574463955 29.523548899959337 a50.842439117394576,50.842439117394576 0 0,0 -0.866915419155394,0.12014657774364788 l -3.8421596471041712 -29.594070043195586" fill="#9cff22" stroke="none" /><path d="M 101.26447882468166 120.96189622390904 l 1.1531361955751405 19.116113921294595 a40.150862501137084,40.150862501137084 0 0,0 -0.6902352584000138,0.035677278711213324 l -0.8239128687616472 -19.13313100676801" fill="#ffe015" stroke="none" /><line stroke="#e1ed5e" stroke-width="0.3" x1="102.19456741930631" x2="102.32365962044197" y1="184.97166512339345" y2="189.96999836594603" /><path d="M 102.22038585953345 185.97133177190398 a86.0,86.0 0 0,1 -42.740103519485714,-10.115201625700543" fill="none" id="id19" stroke="none" /><text fill="#e1ed5e" style="font-size:6.75px; font-family:Arial;" text-anchor="middle"><textPath startOffset="22.20632615414155" xlink:href="#id19">July</textPath></text><path d="M 100.54218724476979 120.99299961872073 l 1.1231977404569526 43.48920039085804 a64.5037024148563,64.5037024148563 0 0,0 -1.1102018192331775,0.0191131311359413 l -0.3744362313311072 -43.502090999273136" fill="#34ff5b" stroke="none" /><path d="M 99.81925306533755 120.99922214144158 l -0.3668101229399143 42.61608790063241 a63.617666496662146,63.617666496662146 0 0,0 -1.094951862231352,-0.018850589296301117 l 1.1003216750639342 -42.60345983405695" fill="#33ff50" stroke="none" /><path d="M 98.73552117531835 120.96189622390904 l -1.155948494042131 19.162734795812472 a40.197568121392884,40.197568121392884 0 0,0 -0.6903209519380962,-0.047608574552306764 l 1.4856322067591572 -19.13999787674388" fill="#ffe015" stroke="none" /><path d="M 98.37488393609728 120.93702456842531 l -2.5621461901924425 33.00916095994464 a54.10844756824836,54.10844756824836 0 0,0 -0.9279745166613574,-0.08006954601066925 l 3.1299650245953416 -32.9601671616553" fill="#77ff26" stroke="none" /><path d="M 98.01472825383883 120.90594882070398 l -1.124499814497351 11.841570614315364 a32.894843187138775,32.894843187138775 0 0,0 -0.5632339690412228,-0.05838150381587517 l 1.328166380144167 -11.82045974204373" fill="#ff7e0b" stroke="none" /><path d="M 97.65516085044442 120.86867818915974 l -2.757190197793349 24.538533892595755 a45.692949264615564,45.692949264615564 0 0,0 -0.7808545929035577,-0.09455061672730196 l 3.179172213748296 -24.487437747143105" fill="#d9ff1c" stroke="none" /><path d="M 96.93821686468263 120.77559828337769 l -3.883486393179608 26.35123053393525 a47.63585585669461,47.63585585669461 0 0,0 -0.810181872301214,-0.1265337462217005 l 4.336504129089339 -26.280478480366444" fill="#c1ff1e" stroke="none" /><path d="M 96.58105272829116 120.7198165907248 l -5.01456512945127 30.389725698385263 a51.80067030862488,51.80067030862488 0 0,0 -0.8785172385168569,-0.15274148281308392 l 5.536931339440177 -30.298905637051174" fill="#91ff24" stroke="none" /><path d="M 95.86986931433489 120.58985236759428 l -10.012647236166467 49.915836590112484 a71.91015465667654,71.91015465667654 0 0,0 -1.2115441298793097,-0.25389085203914424 l 10.870382827475163 -49.7360897573468" fill="#3dffb1" stroke="none" /><path d="M 95.16358092515715 120.4354850818985 l -4.090390771059089 17.283266459664553 a38.76070370722205,38.76070370722205 0 0,0 -0.647943700831522,-0.15924879727246824 l 4.387287756633821 -17.210296404078054" fill="#ffce13" stroke="none" /><path d="M 94.81253420990036 120.34920634021253 l -8.893037787449272 34.88529240491364 a57.000968698985396,57.000968698985396 0 0,0 -0.948684920442788,-0.2505563099520057 l 9.492213150703549 -34.727044745658056" fill="#58ff2a" stroke="none" /><path d="M 94.11515582081647 120.15858648285463 l -7.670678109622535 26.27597661836802 a48.37272821460194,48.37272821460194 0 0,0 -0.7972862756987685,-0.2402158146289913 l 8.121839359761548 -26.1400454346333" fill="#b9ff1f" stroke="none" /><path d="M 93.76903079525671 120.05430185196036 l -11.796128629740188 37.96570267836967 a60.756046464805095,60.756046464805095 0 0,0 -0.9960480930712107,-0.3189031452393364 l 12.44789806790234 -37.757026686470624" fill="#32ff2f" stroke="none" /><path d="M 93.08242187328487 119.8279376855182 l -9.059384832202067 25.96702409884161 a48.501978003186494,48.501978003186494 0 0,0 -0.7859178278691255,-0.28180217145688863 l 9.50502222070092 -25.807234386344764" fill="#b7ff1f" stroke="none" /><path d="M 92.7421414339146 119.70592522655815 l -5.104636447372753 13.85967819912286 a35.76983388678044,35.76983388678044 0 0,0 -0.5759450493132581,-0.21777313599142517 l 5.342451717446294 -13.7697568130248" fill="#ffa60f" stroke="none" /><path d="M 92.06813273071674 119.44442032107085 l -8.026463473376822 19.67631632874815 a42.25044799900495,42.25044799900495 0 0,0 -0.6710347741279279,-0.2804925900080064 l 8.36396970700221 -19.53523869572017" fill="#fffb17" stroke="none" /><path d="M 91.40352486487194 119.15986991738527 l -11.240218923886024 25.052260262412833 a48.45830048842343,48.45830048842343 0 0,0 -0.7581001229126851,-0.348006583966233 l 11.669787042566128 -24.855066608112526" fill="#b8ff1f" stroke="none" /><path d="M 91.07499286063937 119.00905698771935 l -9.915145477456715 21.11791760829948 a44.329735402487,44.329735402487 0 0,0 -0.6879285332653193,-0.3302475013154782 l 10.277186678722275 -20.944115830484435" fill="#e9ff1a" stroke="none" /><path d="M 90.42595943632237 118.69057910512821 l -15.044919333971972 29.37090699288417 a53.99999659621764,53.99999659621764 0 0,0 -0.8236519130146087,-0.430895752695786 l 15.548262149513077 -29.107581821243667" fill="#79ff26" stroke="none" /><line stroke="#e1ed5e" stroke-width="0.3" x1="58.666819895761336" x2="56.23545636021788" y1="174.27360380694188" y2="178.64263932499728" /><path d="M 58.180547188652646 175.14741091055294 a86.0,86.0 0 0,1 -31.652253787137756,-30.449443065178592" fill="none" id="id20" stroke="none" /><text fill="#e1ed5e" style="font-size:6.75px; font-family:Arial;" text-anchor="middle"><textPath startOffset="22.20632615414155" xlink:href="#id20">August</textPath></text><path d="M 89.7882731507175 118.34994917583269 l -25.12393111612548 45.14641508555597 a72.66634020138386,72.66634020138386 0 0,0 -1.0877501736013364,-0.6176529371065334 l 25.897330056648023 -44.70725898265481" fill="#3effb9" stroke="none" /><path d="M 89.4739219176387 118.17145234162733 l -1.6188903006881716 2.794733965974787 a24.229759084859953,24.229759084859953 0 0,0 -0.3590990240214459,-0.21216203302393055 l 1.6667571957379994 -2.7664533606571076" fill="#ff0000" stroke="none" /><path d="M 89.1626897886671 117.98757091392108 l -20.393625302038075 33.848969362225866 a60.51775145228829,60.51775145228829 0 0,0 -0.887653629553882,-0.545269358875553 l 20.973258131524265 -33.49291153652194" fill="#34ff2f" stroke="none" /><path d="M 88.24862548938628 117.40417183066458 l -17.166556687222766 25.42423459106198 a51.67706591310494,51.67706591310494 0 0,0 -0.73293610976702,-0.5041201395660151 l 17.601649681612678 -25.124973662130863" fill="#93ff23" stroke="none" /><path d="M 87.65650970185807 116.9893568818739 l -20.313629501367696 27.959312384832366 a55.55961071180456,55.55961071180456 0 0,0 -0.7688789481211492,-0.5687982645204509 l 20.79189341990741 -27.60550417157215" fill="#68ff28" stroke="none" /><path d="M 87.07902340077011 116.55440617244103 l -12.772145591056784 16.363723297858765 a41.758110298580576,41.758110298580576 0 0,0 -0.5628247732521598,-0.4471420391135171 l 13.051927857026302 -16.141447344740115" fill="#fff417" stroke="none" /><path d="M 86.79598089348748 116.32954008644616 l -21.083208028872683 26.073810396756677 a54.53125779619277,54.53125779619277 0 0,0 -0.7248239513784631,-0.5964807662210904 l 21.528902108795837 -25.70703451167841" fill="#73ff27" stroke="none" /><path d="M 86.24171649860922 115.8653595955263 l -12.823098743165179 14.786951633079191 a40.57257775501193,40.57257775501193 0 0,0 -0.5236908315613359,-0.4620962703639655 l 13.075731927633104 -14.564032220942936" fill="#ffe515" stroke="none" /><path d="M 85.97065885151581 115.62618273729859 l -20.12026687184046 22.410387168934434 a51.11728062185598,51.11728062185598 0 0,0 -0.6496773918096468,-0.5934648937158257 l 20.503043813116964 -22.060729508632033" fill="#99ff23" stroke="none" /><path d="M 85.18274418774928 114.88116024355367 l -7.840531646193791 7.8743465929228895 a32.112122693727,32.112122693727 0 0,0 -0.38834164797328263,-0.39338803911526177 l 7.974913919222607 -7.738218059826963" fill="#ff730a" stroke="none" /><path d="M 84.9287848128048 114.62390073753433 l -23.32998053922067 22.63754550489333 a53.5076369249832,53.5076369249832 0 0,0 -0.6357049935226997,-0.6665341441934782 l 23.716192084122326 -22.23260424411735" fill="#7eff26" stroke="none" /><path d="M 84.43433777217949 114.09645910891817 l -28.520600164214862 25.828613527158165 a59.477810624596486,59.477810624596486 0 0,0 -0.6807126393292289,-0.764787866471539 l 28.960971653192427 -25.33385149094576" fill="#3fff2d" stroke="none" /><path d="M 83.72743513129214 113.27417163493432 l -7.430308265641638 6.061194901626485 a30.588929270672786,30.588929270672786 0 0,0 -0.3293147141676135,-0.4108707403761933 l 7.533540891864112 -5.9323963276720315" fill="#ff5e08" stroke="none" /><path d="M 83.50135304334701 112.99209946851258 l -16.487885933192093 12.983625544102036 a41.98630302877123,41.98630302877123 0 0,0 -0.44224209524669345,-0.5716575229407184 l 16.708934845656856 -12.697890027048066" fill="#fff717" stroke="none" /><path d="M 83.06392112726016 112.41649034213515 l -30.09081049670599 22.0607296840562 a58.31129414187706,58.31129414187706 0 0,0 -0.5865011264521094,-0.8145987678038401 l 30.466091415533707 -21.53949731080122" fill="#4bff2c" stroke="none" /><path d="M 82.85270091963577 112.12312394758628 l -16.95755060353838 11.988971957080697 a41.76761832900519,41.76761832900519 0 0,0 -0.4099970929685409,-0.5906313914493324 l 17.161408603669056 -11.695299303444353" fill="#fff417" stroke="none" /><path d="M 82.44556493220864 111.52570212397912 l -18.141321163752455 11.911033483070446 a42.70207944417396,42.70207944417396 0 0,0 -0.39813616565982335,-0.6179161705487045 l 18.343662192789324 -11.596995712600293" fill="#feff18" stroke="none" /><path d="M 82.05923443525364 110.91462005526583 l -14.048846026249127 8.54689372301645 a37.444435745315005,37.444435745315005 0 0,0 -0.3302583618438604,-0.5535320108757926 l 14.193885263791218 -8.303799618254546" fill="#ffbc11" stroke="none" /><line stroke="#e1ed5e" stroke-width="0.3" x1="26.63291911575756" x2="22.317208475507996" y1="142.92168965132927" y2="145.44649492493687" /><path d="M 25.769776987707644 143.4266507060508 a86.0,86.0 0 0,1 -11.730757126820373,-40.83630448921669" fill="none" id="id21" stroke="none" /><text fill="#e1ed5e" style="font-size:6.75px; font-family:Arial;" text-anchor="middle"><textPath startOffset="21.46611528233685" xlink:href="#id21">September</textPath></text><line stroke="#e1ed5e" stroke-width="0.3" x1="15.007084014347285" x2="10.007500721073583" y1="101.09737516637583" y2="101.16192664675087" /><path d="M 14.007167355692545 101.11028546245083 a86.0,86.0 0 0,1 10.666146001902534,-42.60595125391555" fill="none" id="id22" stroke="none" /><text fill="#e1ed5e" style="font-size:6.75px; font-family:Arial;" text-anchor="middle"><textPath startOffset="22.20632615414155" xlink:href="#id22">October</textPath></text><line stroke="#e1ed5e" stroke-width="0.3" x1="26.266209847984243" x2="21.928928074336255" y1="57.711370442889674" y2="55.22380399835377" /><path d="M 25.398753493254645 57.213857153982495 a86.0,86.0 0 0,1 29.58750427330803,-30.492523968695096" fill="none" id="id23" stroke="none" /><text fill="#e1ed5e" style="font-size:6.75px; font-family:Arial;" text-anchor="middle"><textPath startOffset="21.46611528233685" xlink:href="#id23">November</textPath></text><line stroke="#e1ed5e" stroke-width="0.3" x1="56.762969772571076" x2="54.21961505331055" y1="26.818313649435495" y2="22.513508569990535" /><path d="M 56.25429882871897 25.957352633546506 a86.0,86.0 0 0,1 42.265352541879196,-11.944610805530505" fill="none" id="id24" stroke="none" /><text fill="#e1ed5e" style="font-size:6.75px; font-family:Arial;" text-anchor="middle"><textPath startOffset="22.20632615414155" xlink:href="#id24">December</textPath></text></svg>