<?xml version="1.0" encoding="utf-8" ?>
<svg baseProfile="full" height="200mm" version="1.1" viewBox="0,0,200,200" width="200mm" xmlns="http://www.w3.org/2000/svg" xmlns:ev="http://www.w3.org/2001/xml-events" xmlns:xlink="http://www.w3.org/1999/xlink"><defs /><rect fill="#1a1a1a" height="200" width="200" x="0" y="0" /><text alignment-baseline="middle" fill="#e1ed5e" style="dominant-baseline: central; font-size:9.0px; font-family:Arial;" text-anchor="middle" x="100.0" y="100.0">2023</text><line stroke="#e1ed5e" stroke-width="0.3" x1="100.0" x2="100.0" y1="15.0" y2="10.0" /><path d="M 100.0 14.0 a86.0,86.0 0 0,1 42.46469731375804,11.215312516191453" fill="none" id="id25" stroke="none" /><text fill="#e1ed5e" style="font-size:6.75px; font-family:Arial;" text-anchor="middle"><textPath startOffset="22.20632615414155" xlink:href="#id25">January</textPath></text><path d="M 103.59715602781102 79.31037775812273 l 1.726046978612513 -9.927637189804585 a31.07656778594619,31.07656778594619 0 0,0 0.5262371011456612,0.09616646661146944 l -1.896679200861075 9.896455241842379" fill="#ff710a" stroke="none" /><path d="M 103.95276090670814 79.375362276772 l 1.9337843450419594 -10.090061729677284 a31.27369785431845,31.27369785431845 0 0,0 0.5278309057022069,0.10587791410851144 l -2.1071816602112916 10.055279859491565" fill="#ff730a" stroke="none" /><path d="M 105.01212808612495 79.60689891045804 l 9.969864579458958 -40.56489633231644 a62.77210808882322,62.77210808882322 0 0,0 1.047071976286553,0.2669219607855185 l -10.666645444430536 40.387271375362054" fill="#32ff4a" stroke="none" /><path d="M 106.40334571778207 80.00007090966166 l 4.999792814360173 -15.616133527805545 a37.39699833947604,37.39699833947604 0 0,0 0.6113824726911388,0.20156318885375338 l -5.267858109293729 15.527756614692555" fill="#ffc612" stroke="none" /><path d="M 107.08798089147638 80.2323363322302 l 13.884177735656234 -38.721571062929634 a62.135513330658725,62.135513330658725 0 0,0 1.0036887770930059,0.36966704708138337 l -14.548648838521816 38.47684074804192" fill="#31ff42" stroke="none" /><path d="M 107.4271985657038 80.35727306442388 l 4.348867135809061 -11.5014576319872 a33.29618530379714,33.29618530379714 0 0,0 0.5343511899366815,0.20731996005161077 l -4.54620149074541 11.424894968045042" fill="#ff8f0d" stroke="none" /><path d="M 108.09893153111575 80.62456947434976 l 6.93666283798167 -16.594883952384514 a38.98631326094775,38.98631326094775 0 0,0 0.6169421485946551,0.26414243113134067 l -7.221288744366641 16.473021993290384" fill="#ffda14" stroke="none" /><path d="M 108.76106565485865 80.91482961587045 l 6.540931047749726 -14.248812694140303 a36.67840687583117,36.67840687583117 0 0,0 0.5715225668852667,0.2683375084335885 l -6.78523182593459 14.134110203066712" fill="#ffbc11" stroke="none" /><path d="M 109.41281617654863 81.2277094730956 l 16.129982662866112 -32.16855774743064 a56.98600350489258,56.98600350489258 0 0,0 0.8730785229490288,0.4472247300083019 l -16.681321673403893 31.886140492109835" fill="#54ff2b" stroke="none" /><line stroke="#e1ed5e" stroke-width="0.3" x1="143.23703022742887" x2="145.7803849466894" y1="26.81831364943548" y2="22.513508569990506" /><path d="M 143.74570117128098 25.957352633546492 a86.0,86.0 0 0,1 28.547481713284135,27.462654790039103" fill="none" id="id26" stroke="none" /><text fill="#e1ed5e" style="font-size:6.75px; font-family:Arial;" text-anchor="middle"><textPath startOffset="19.985693538727396" xlink:href="#id26">February</textPath></text><path d="M 110.68208982089419 81.91981866633111 l 5.930177027388276 -10.037237824589111 a32.65817921990934,32.65817921990934 0 0,0 0.48153386355937217,0.2901187648753479 l -6.102072957165285 9.933672450255148" fill="#ff860c" stroke="none" /><path d="M 111.60114157652 82.49532879139004 l 27.710598557114746 -41.81182632214545 a71.16080235389806,71.16080235389806 0 0,0 1.01521153940437,0.6854753632124921 l -28.42621479092566 41.328639046634294" fill="#3dffab" stroke="none" /><path d="M 112.19680574252982 82.90503203632743 l 7.506091560298919 -10.520491796328976 a33.923705279377735,33.923705279377735 0 0,0 0.4724355474089392,0.34324451693408514 l -7.686072424061647 10.389728044578215" fill="#ff980e" stroke="none" /><path d="M 112.77801427241765 83.33499621200491 l 10.909410382600633 -14.227982648546089 a38.92904696695625,38.92904696695625 0 0,0 0.5282624306786692,0.412317206304532 l -11.152705368438733 14.038087053018334" fill="#ffd914" stroke="none" /><path d="M 113.89432698308785 84.25364557470407 l 6.598614326624214 -7.47816861006167 a30.973199927407553,30.973199927407553 0 0,0 0.3967357361650148,0.3561932611455071 l -6.7263610503852185 7.363476340146865" fill="#ff6f0a" stroke="none" /><path d="M 114.16331599549186 84.49514656593476 l 16.582976739737997 -18.15370241912206 a45.58763976213922,45.58763976213922 0 0,0 0.5748213145435729,0.5342337655782775 l -16.893005938076417 17.86556406746914" fill="#d2ff1c" stroke="none" /><path d="M 114.68862486808459 84.99185889309783 l 19.840310405196227 -20.27188935928987 a49.3652501340959,49.3652501340959 0 0,0 0.6021718952447929,0.5995859777570136 l -20.186318100608343 19.927367530882737" fill="#a7ff21" stroke="none" /><path d="M 115.4437574822437 85.77008943001954 l 33.81022476175584 -31.152812083709783 a66.97422102834786,66.97422102834786 0 0,0 0.7738914593959924,0.8545502785399507 l -34.341459861767866 30.56620901790028" fill="#37ff7c" stroke="none" /><path d="M 115.9244219780498 86.31012108654704 l 12.417037190767935 -10.67465656460033 a37.37470932166672,37.37470932166672 0 0,0 0.41519633374995,0.49146149949485096 l -12.598944138005002 10.459336115476372" fill="#ffc512" stroke="none" /><path d="M 116.38621287248628 86.86637796730983 l 14.050227815464815 -11.261319686096947 a39.00628286845833,39.00628286845833 0 0,0 0.41540933308229866,0.52752766753626 l -14.241991229141078 11.017799624607648" fill="#ffda14" stroke="none" /><path d="M 116.82858285166822 87.43820079747576 l 34.632012043081154 -25.85127845280576 a64.21648823998333,64.21648823998333 0 0,0 0.6535935442839749,0.891500859880143 l -35.07186819987876 25.251315149254125" fill="#34ff5b" stroke="none" /><path d="M 117.2510076193507 88.02491185347247 l 13.348966039796755 -9.266417853311768 a37.24996597423583,37.24996597423583 0 0,0 0.3611038917631695,0.5298754032825632 l -13.506494397228657 9.035264426758799" fill="#ffc412" stroke="none" /><path d="M 117.45458315368197 88.32363383020206 l 24.945486895141773 -16.687458915919656 a51.01247409838443,51.01247409838443 0 0,0 0.4819545952302941,0.7340499135399318 l -25.22903812572999 16.25559093840205" fill="#94ff23" stroke="none" /><line stroke="#e1ed5e" stroke-width="0.3" x1="172.23445277983987" x2="176.4835382374775" y1="55.19839476539836" y2="52.563006222186495" /><path d="M 173.08426987136738 54.67131705675599 a86.0,86.0 0 0,1 12.851231095245387,41.99856678651699" fill="none" id="id27" stroke="none" /><text fill="#e1ed5e" style="font-size:6.75px; font-family:Arial;" text-anchor="middle"><textPath startOffset="22.20632615414155" xlink:href="#id27">March</textPath></text><path d="M 117.84615892207809 88.93136811851018 l 12.477142071334027 -7.738634017754459 a35.68215007173677,35.68215007173677 0 0,0 0.31924344198378196,0.5247522792101698 l -12.608501311604034 7.522713965337207" fill="#ffaf10" stroke="none" /><path d="M 118.3937258080291 89.86733742301442 l 38.47205217134463 -21.193331213312828 a64.92329776089043,64.92329776089043 0 0,0 0.5308002094082317,0.9834921734527833 l -38.831160479971324 20.527958056527584" fill="#35ff64" stroke="none" /><path d="M 118.89224826269711 90.83032412892265 l 15.108294165872522 -7.333069020667302 a37.793881441299035,37.793881441299035 0 0,0 0.27903007811378727,0.5877085060494488 l -15.232282437828065 7.071918098977312" fill="#ffcb12" stroke="none" /><path d="M 119.196687751892 91.48605970444005 l 18.144425518430772 -8.04725052351432 a40.84888960073292,40.84888960073292 0 0,0 0.2795411870588585,0.6452196011071684 l -18.28025741533231 7.733731777820549" fill="#fff216" stroke="none" /><path d="M 119.47837535516314 92.15188598940014 l 53.28758987953529 -21.470326610880594 a78.45034516821843,78.45034516821843 0 0,0 0.49388769739264066,1.2568903189579184 l -53.64927112680963 20.54988728702689" fill="#46fff7" stroke="none" /><path d="M 119.7369772167798 92.82701384747503 l 11.335110271738559 -4.1195056428093615 a33.060474767338604,33.060474767338604 0 0,0 0.18977801810322367,0.5365280129605721 l -11.404341370651592 3.923780003422175" fill="#ff8c0c" stroke="none" /><path d="M 120.08093135843002 93.85539295169968 l 23.462708952107363 -7.179404392456893 a45.53655556107516,45.53655556107516 0 0,0 0.22289949416780216,0.7515062850596445 l -23.582814343386868 6.774468720650718" fill="#d3ff1c" stroke="none" /><path d="M 120.28053869075195 94.5502522615342 l 17.923765286069667 -4.816440076963666 a39.55961898976102,39.55961898976102 0 0,0 0.17105516733731102,0.6591453375449027 l -18.004016785277283 4.507198313869913" fill="#ffe115" stroke="none" /><path d="M 120.37134235888165 94.90015583598534 l 13.775961600799537 -3.4487298939776045 a35.20108643408377,35.20108643408377 0 0,0 0.1420903583235304,0.5890562683128938 l -13.833284759383886 3.211088394005305" fill="#ffa90f" stroke="none" /><path d="M 120.6074358757038 95.95851677861258 l 19.543102694594214 -3.8327486306617713 a40.91539166065522,40.91539166065522 0 0,0 0.12959322177395532,0.6922921726779161 l -19.60618164027803 3.4957783805212923" fill="#fff216" stroke="none" /><path d="M 120.73433829027371 96.67025291283417 l 19.521987759817467 -3.135054563541661 a40.772116052937946,40.772116052937946 0 0,0 0.10531652418479988,0.693904307951098 l -19.57306017744157 2.798551143198481" fill="#fff116" stroke="none" /><path d="M 120.83666639777658 97.38593545837742 l 41.42180646404914 -5.19657384058219 a62.74650201424984,62.74650201424984 0 0,0 0.12522303569889562,1.0728344974489832 l -41.50511985275162 4.482795604808354" fill="#32ff4a" stroke="none" /><path d="M 120.91429891909075 98.10471618934814 l 17.898487550835377 -1.6219866523609487 a38.971830661005185,38.971830661005185 0 0,0 0.054793496036448536,0.668619438480749 l -17.92375553069132 1.313653296672431" fill="#ffda14" stroke="none" /><path d="M 120.96714384426684 98.82574320788733 l 9.510463001631726 -0.5326298068420958 a30.52536618805506,30.52536618805506 0 0,0 0.02486566061089763,0.5248747950844048 l -9.51822227047612 0.3688439051346912" fill="#ff6909" stroke="none" /><path d="M 120.98425023603335 99.18683210126433 l 16.62547629160222 -0.6442595503511016 a37.63795457052477,37.63795457052477 0 0,0 0.01951493092516305,0.6476055512472523 l -16.63410291698303 0.35798385167885033" fill="#ffc912" stroke="none" /><line stroke="#e1ed5e" stroke-width="0.3" x1="184.98032266829074" x2="189.97916517819016" y1="98.17113171792111" y2="98.06355123074" /><path d="M 185.9800911702706 98.14961562048488 a86.0,86.0 0 0,1 -9.607161424134198,41.387399972396054" fill="none" id="id28" stroke="none" /><text fill="#e1ed5e" style="font-size:6.75px; font-family:Arial;" text-anchor="middle"><textPath startOffset="21.466115282336823" xlink:href="#id28">April</textPath></text><path d="M 120.99513854157772 99.54816195383933 l 50.33385490162846 -1.083238894063392 a71.34550978746564,71.34550978746564 0 0,0 0.01585566601719322,1.2280388065886292 l -50.34504357476337 0.21666382941430007" fill="#3dffad" stroke="none" /><path d="M 120.99824983174949 100.27111621757518 l 14.825209570664473 0.19141379761472768 a35.82644522655511,35.82644522655511 0 0,0 -0.013269325961483787,0.616573436614983 l -14.819718182017981 -0.4465770500198255" fill="#ffb110" stroke="none" /><path d="M 120.9904718944345 100.63252640178507 l 22.2250290289007 0.6697285183448719 a43.23511753114346,43.23511753114346 0 0,0 -0.028819020541121995,0.7436908657272688 l -22.210207875508374 -1.0521966310861468" fill="#efff19" stroke="none" /><path d="M 120.89721153311464 102.0752229133903 l 57.175663423674514 5.677898538619826 a78.45689705990198,78.45689705990198 0 0,0 -0.14502457977306113,1.342747494135003 l -57.069456542400395 -6.6612423546396204" fill="#46fff7" stroke="none" /><path d="M 120.76222939487914 103.15116336523771 l 12.546258975560278 1.9041939525204057 a33.689939672458735,33.689939672458735 0 0,0 -0.09195467798568399,0.5726018675944489 l -12.511622543213305 -2.1198750498080594" fill="#ff940d" stroke="none" /><path d="M 120.70491114924044 103.5080841355445 l 14.352484712913014 2.4317768651164764 a35.5570380282569,35.5570380282569 0 0,0 -0.10743907441779328,0.6025753863677394 l -14.308499196156031 -2.6784710022174343" fill="#ffad10" stroke="none" /><path d="M 120.64145759157962 103.86396538481128 l 9.362735343571666 1.7526516775379302 a30.52536618805506,30.52536618805506 0 0,0 -0.1011262748402565,0.515640696735087 l -9.331179135755747 -1.913556101340962" fill="#ff6909" stroke="none" /><path d="M 120.49622156327973 104.57218783832717 l 44.764852998570866 9.985904759697476 a66.86513226682561,66.86513226682561 0 0,0 -0.2602627652604313,1.1212051810325285 l -44.586329667379886 -10.75497859807857" fill="#37ff7a" stroke="none" /><path d="M 120.23288151984713 105.62410040840565 l 21.456688171173468 5.9642799068514165 a43.270206601696515,43.270206601696515 0 0,0 -0.2056516772528106,0.7159004674824638 l -21.35084385703456 -6.3327378498384626" fill="#eeff19" stroke="none" /><path d="M 120.02730092923936 106.31721596034902 l 11.16241454903621 3.5209628893253884 a32.704558010986226,32.704558010986226 0 0,0 -0.17396916937694468,0.5354220485674797 l -11.100153128643019 -3.712583837870663" fill="#ff870c" stroke="none" /><path d="M 119.79798401119884 107.00284435728193 l 43.58095017134244 15.415236764497706 a67.22692659416754,67.22692659416754 0 0,0 -0.39528068769343866,1.0876426862321682 l -43.30914522264377 -16.163127247736004" fill="#38ff7e" stroke="none" /><path d="M 119.67450827220406 107.3425965602758 l 14.193046092799777 5.296895352045956 a36.1492461120303,36.1492461120303 0 0,0 -0.2225859195556049,0.5811015982938109 l -14.099765893650666 -5.540420517172911" fill="#ffb510" stroke="none" /><path d="M 119.41010516605496 108.01547362559984 l 12.247924398829415 5.057824991017872 a34.25116016502728,34.25116016502728 0 0,0 -0.22972582391757937,0.5430039878298054 l -12.159047593719526 -5.267903504513841" fill="#ff9c0e" stroke="none" /><path d="M 119.12269723197855 108.67885076344098 l 14.294350919046511 6.487502096681177 a36.69764796558034,36.69764796558034 0 0,0 -0.2660149296494024,0.5729724926656972 l -14.180561372557277 -6.732594656625705" fill="#ffbc11" stroke="none" /><path d="M 118.81262510543309 109.33194174019688 l 43.269056536264394 21.463475325040697 a69.30002097895067,69.30002097895067 0 0,0 -0.5392905529628371,1.0640714235036939 l -42.893187313515284 -22.205100960247083" fill="#3aff96" stroke="none" /><line stroke="#e1ed5e" stroke-width="0.3" x1="174.80103733775053" x2="179.2010983576182" y1="140.37084112569926" y2="142.7455964860345" /><path d="M 175.68104954172406 140.8457921977663 a86.0,86.0 0 0,1 -30.038265399797805,32.042727171017184" fill="none" id="id29" stroke="none" /><text fill="#e1ed5e" style="font-size:6.75px; font-family:Arial;" text-anchor="middle"><textPath startOffset="22.206326154141568" xlink:href="#id29">May</textPath></text><path d="M 118.48025628344425 109.97397251340804 l 18.84548132919754 10.17108799231052 a42.41502270548543,42.41502270548543 0 0,0 -0.35229431207078643,0.6395165072087228 l -18.667610607675243 -10.493975017917048" fill="#f9ff18" stroke="none" /><path d="M 118.12598468904814 110.60418214915192 l 18.323610736251123 10.719798632223524 a42.2289611881759,42.2289611881759 0 0,0 -0.3724576767355948,0.6242604899343954 l -18.1363721838173 -11.033621216044024" fill="#fbff18" stroke="none" /><path d="M 117.75023020441432 111.22182372390056 l 1.8939720725835045 1.1973828221809217 a23.240726630934752,23.240726630934752 0 0,0 -0.21668672599621402,0.33630261072720635 l -1.8730804832102401 -1.229807032829581" fill="#ff0000" stroke="none" /><path d="M 117.55443506779139 111.5257021239791 l 23.062365504362827 15.14203983501133 a48.58902087827501,48.58902087827501 0 0,0 -0.46505915750794835,0.695200340419285 l -22.798303241444156 -15.536777089636422" fill="#afff20" stroke="none" /><path d="M 117.14729908036423 112.12312394758627 l 24.952245332825825 17.64121343674627 a51.55858240609936,51.55858240609936 0 0,0 -0.5185816419350429,0.7202645442156244 l -24.64488389851518 -18.068111586413025" fill="#8eff24" stroke="none" /><path d="M 116.71984013943494 112.70617746262583 l 16.34317068127561 12.419928973393247 a41.52690584626528,41.52690584626528 0 0,0 -0.4374032607248104,0.5654026770397268 l -16.12696060333273 -12.699409644546227" fill="#fffa17" stroke="none" /><path d="M 116.0416608686014 113.55231037782055 l 48.12498260580419 40.656931133461654 a84.0,84.0 0 0,0 -0.942629961716885,1.096491603353888 l -47.41801013451653 -41.47929983597707" fill="#4dd2ff" stroke="none" /><path d="M 115.56566222782051 114.09645910891815 l 11.544765571504323 10.455084622733944 a36.57531401190741,36.57531401190741 0 0,0 -0.4266311688524343,0.46302387311013055 l -11.363087994656166 -10.652259750645408" fill="#ffbb11" stroke="none" /><path d="M 115.32070863581623 114.36230785411682 l 3.2291440084556533 3.0271419852144485 a25.426167600305384,25.426167600305384 0 0,0 -0.30207915427698234,0.31672878556287243 l -3.1765583027997066 -3.082277887359828" fill="#ff2003" stroke="none" /><path d="M 112.34349029814194 116.9893568818739 l 2.7365895737838586 3.7665924131060167 a25.655764266134007,25.655764266134007 0 0,0 -0.3595138241273502,0.2565035678308032 l -2.671348421807624 -3.813140242781039" fill="#ff2403" stroke="none" /><line stroke="#e1ed5e" stroke-width="0.3" x1="143.8653032363475" x2="146.44561519142675" y1="172.8068346515853" y2="177.08958963109032" /><path d="M 144.38136562736335 173.6633856474863 a86.0,86.0 0 0,1 -40.68145358897372,12.25698825130547" fill="none" id="id30" stroke="none" /><text fill="#e1ed5e" style="font-size:6.75px; font-family:Arial;" text-anchor="middle"><textPath startOffset="21.466115282336833" xlink:href="#id30">June</textPath></text><path d="M 110.8373102113329 117.98757091392108 l 9.882879621203589 16.403424332566072 a40.150551935686394,40.150551935686394 0 0,0 -0.5950543694442472,0.35156861014895113 l -9.59905738073096 -16.571111515008774" fill="#ffe915" stroke="none" /><path d="M 109.57404056367764 118.69057910512821 l 6.431529953151868 12.555724885106518 a35.107118945013994,35.107118945013994 0 0,0 -0.5402251571237048,0.270880108672122 l -6.214450888345403 -12.664572834687942" fill="#ffa70f" stroke="none" /><path d="M 109.2508944713604 118.85261126421891 l 7.324819849820733 14.927419357838314 a37.627712846843785,37.627712846843785 0 0,0 -0.5839235689957757,0.28031879809482263 l -7.066783612824724 -15.051292432432696" fill="#ffc912" stroke="none" /><path d="M 108.92500713936063 119.00905698771935 l 10.809833407383396 23.02348178103799 a46.43488178893644,46.43488178893644 0 0,0 -0.7264449895439163,0.3334752648228782 l -10.411920422072061 -23.20614411619494" fill="#c8ff1d" stroke="none" /><path d="M 108.59647513512805 119.15986991738527 l 6.359833782503235 14.174831666879388 a36.53619446728948,36.53619446728948 0 0,0 -0.576018029276348,0.25250937642527316 l -6.114895078569133 -14.282205596599116" fill="#ffba11" stroke="none" /><path d="M 107.93186726928326 119.44442032107085 l 17.08631450645459 41.88591030615347 a66.23683925285468,66.23683925285468 0 0,0 -1.059407537839843,0.4215601229862852 l -16.36278589257288 -42.17381727354582" fill="#36ff73" stroke="none" /><path d="M 106.91757812671514 119.82793768551818 l 9.253961089816553 26.524740374739025 a49.09266181406008,49.09266181406008 0 0,0 -0.8002811442680755,0.2714988146812148 l -8.79601021261125 -26.680102176318364" fill="#aaff21" stroke="none" /><path d="M 106.57524785965236 119.94407469862006 l 8.379837546193842 25.41776516276105 a47.76349123656832,47.76349123656832 0 0,0 -0.7830452626993523,0.2507063653619513 l -7.941070938403549 -25.558244374782706" fill="#b9ff1f" stroke="none" /><path d="M 106.2309692047433 120.05430185196036 l 7.889445589157719 25.392088789195697 a47.58950027327851,47.58950027327851 0 0,0 -0.7843769999268787,0.23632635573532482 l -7.451193614790595 -25.524130514036745" fill="#bbff1f" stroke="none" /><path d="M 105.53697534728816 120.25689768951611 l 3.3325964141698905 12.19222777203643 a33.6394864177685,33.6394864177685 0 0,0 -0.5598724762820436,0.14786740958783923 l -3.1222334950763493 -12.247786530927854" fill="#ff940d" stroke="none" /><path d="M 104.83641907484287 120.43548508189849 l 4.729752748143816 19.984784244302002 a41.536848890467,41.536848890467 0 0,0 -0.6971858234096701,0.15867722356587607 l -4.385046775341284 -20.063238201445564" fill="#fffa17" stroke="none" /><path d="M 104.48393922423573 120.51570834832081 l 5.850301696628612 26.767330544757005 a48.39919733192666,48.39919733192666 0 0,0 -0.8154309179047675,0.1708814771332527 l -5.388679317294466 -26.864068002616797" fill="#b2ff20" stroke="none" /><path d="M 104.13013068566511 120.58985236759428 l 3.4427334790844633 17.162985743127425 a38.50487056298344,38.50487056298344 0 0,0 -0.6509750498373225,0.12476091763499955 l -3.1467908146754366 -17.21970385911089" fill="#ffd413" stroke="none" /><path d="M 103.7750983002368 120.6578951692458 l 5.55087215771633 30.375191852566076 a51.87821986111743,51.87821986111743 0 0,0 -0.8798324457969571,0.1529701484571505 l -5.027190740447323 -30.466240579544234" fill="#8aff24" stroke="none" /><path d="M 103.06178313531738 120.77559828337769 l 4.0980487377482735 27.807134130136816 a49.107484981555714,49.107484981555714 0 0,0 -0.8373326824103438,0.11604667998929503 l -3.6187874641510995 -27.873555375618714" fill="#a9ff21" stroke="none" /><path d="M 102.70371172650421 120.8252237178851 l 0.5212965132802797 4.015264055703087 a25.04896227344481,25.04896227344481 0 0,0 -0.42806598290285214,0.05183282912243695 l -0.45210310732604725 -4.023642413550874" fill="#ff1b02" stroke="none" /><path d="M 101.98527174616119 120.90594882070398 l 2.863597108579666 30.155173824864207 a51.29083519495693,51.29083519495693 0 0,0 -0.8796517020593265,0.07590005023500634 l -2.344101088778798 -30.199998127377878" fill="#91ff24" stroke="none" /><path d="M 101.26447882468166 120.96189622390904 l 1.5978985379197443 26.489161126634237 a47.53731216476673,47.53731216476673 0 0,0 -0.8172160422397062,0.042240734809527516 l -1.1416944272665583 -26.512741668205965" fill="#bcff1f" stroke="none" /><path d="M 100.90346689309514 120.98055641714683 l 1.2518730695830638 29.07134037143775 a50.0982820313216,50.0982820313216 0 0,0 -0.861880462570474,0.02968490580105421 l -0.7512722553379374 -29.0885820756649" fill="#9eff22" stroke="none" /><line stroke="#e1ed5e" stroke-width="0.3" x1="102.19456741930631" x2="102.32365962044197" y1="184.97166512339345" y2="189.96999836594603" /><path d="M 102.22038585953345 185.97133177190398 a86.0,86.0 0 0,1 -42.740103519485714,-10.115201625700543" fill="none" id="id31" stroke="none" /><text fill="#e1ed5e" style="font-size:6.75px; font-family:Arial;" text-anchor="middle"><textPath startOffset="22.20632615414155" xlink:href="#id31">July</textPath></text><path d="M 100.54218724476979 120.99299961872073 l 0.8295164611662259 32.11812694040584 a53.1288371361207,53.1288371361207 0 0,0 -0.9144239700057812,0.015742637914825577 l -0.27653280126777674 -32.127647055599816" fill="#7dff26" stroke="none" /><path d="M 100.18074693466247 120.99922214144158 l 0.050707421318578506 5.891200348581295 a26.89141857193165,26.89141857193165 0 0,0 -0.46290871196206385,0.0 l 0.050707421318574454 -5.891200348581295" fill="#ff3605" stroke="none" /><path d="M 99.09653310690486 120.98055641714683 l -1.1038645732564007 25.634246404706783 a46.658002761971034,46.658002761971034 0 0,0 -0.8020997952889491,-0.041459397506099865 l 1.544952436958839 -25.61144720043848" fill="#c6ff1e" stroke="none" /><path d="M 98.73552117531835 120.96189622390904 l -1.4958869659023133 24.798064411902626 a45.84314143564835,45.84314143564835 0 0,0 -0.7872735221225361,-0.05429499143231706 l 1.9225232488037793 -24.768641075954022" fill="#cfff1d" stroke="none" /><path d="M 98.37488393609728 120.93702456842531 l -2.258875561980822 29.102003351459768 a50.18953781533531,50.18953781533531 0 0,0 -0.8607641540056562,-0.07427035311427822 l 2.75948403372802 -29.058808746066827" fill="#9dff22" stroke="none" /><path d="M 98.01472825383883 120.90594882070398 l -3.4037173937914167 35.84292264892096 a57.00417192650498,57.00417192650498 0 0,0 -0.9760400991553204,-0.10117054706463023 l 4.02019008955233 -35.779022733400566" fill="#54ff2b" stroke="none" /><path d="M 97.65516085044442 120.86867818915974 l -1.6558449808265443 14.736744753922158 a35.829479712477465,35.829479712477465 0 0,0 -0.6122960816735596,-0.07414052842626463 l 1.9092684855514934 -14.706058696770546" fill="#ffb110" stroke="none" /><path d="M 96.93821686468263 120.77559828337769 l -3.59771336416974 24.412129889461404 a45.67581056805754,45.67581056805754 0 0,0 -0.7768457826438685,-0.12132733460853354 l 4.017395010422126 -24.346584247505763" fill="#d1ff1c" stroke="none" /><path d="M 96.58105272829116 120.7198165907248 l -1.2999026653044836 7.877788883664562 a28.98431616576239,28.98431616576239 0 0,0 -0.4915616196959793,-0.08546428845621844 l 1.4353132564725128 -7.854246016687338" fill="#ff5307" stroke="none" /><path d="M 96.22490169976321 120.6578951692458 l -4.950024274754865 27.087263541374234 a48.53584185167623,48.53584185167623 0 0,0 -0.8205617005415033,-0.15726260286208216 l 5.415553589868063 -26.998043740163684" fill="#b0ff20" stroke="none" /><path d="M 95.51606077576429 120.51570834832081 l -4.593856717968443 21.01862222182083 a42.5147856054585,42.5147856054585 0 0,0 -0.7136002513717374,-0.16241309392924885 l 4.9549771187330425 -20.936432394313893" fill="#f8ff18" stroke="none" /><path d="M 94.46302465271185 120.25689768951611 l -5.728241126076266 20.956639167381653 a42.72541073467441,42.72541073467441 0 0,0 -0.7077542249772275,-0.20001841354443495 l 6.0881265191581075 -20.854931960498696" fill="#f5ff19" stroke="none" /><path d="M 94.11515582081647 120.15858648285463 l -7.4884624367464685 25.651795197694728 a47.72249364357745,47.72249364357745 0 0,0 -0.7865690158170691,-0.23698679214165866 l 7.928906427003784 -25.519093036447345" fill="#b9ff1f" stroke="none" /><path d="M 93.76903079525671 120.05430185196036 l -7.2885120896268685 23.457991316306217 a45.56419681317781,45.56419681317781 0 0,0 -0.7469895424215485,-0.23916246233111713 l 7.691222977139357 -23.32905600731539" fill="#d3ff1c" stroke="none" /><path d="M 93.08242187328487 119.8279376855182 l -7.340800315709777 21.041024554476966 a43.284794447722135,43.284794447722135 0 0,0 -0.7013794701296598,-0.25148972410221715 l 7.701899346469164 -20.911547289334788" fill="#eeff19" stroke="none" /><path d="M 92.06813273071674 119.44442032107085 l -9.305589912692612 22.812005730179404 a45.63699675400686,45.63699675400686 0 0,0 -0.7248209962039505,-0.3029752351979757 l 9.696882368394025 -22.648445451961454" fill="#d2ff1c" stroke="none" /><path d="M 91.40352486487194 119.15986991738527 l -10.3364821171425 23.038006817299937 a46.25059644190539,46.25059644190539 0 0,0 -0.7235619593338779,-0.3321518070571518 l 10.731512072243799 -22.85666793990871" fill="#cbff1d" stroke="none" /><path d="M 91.07499286063937 119.00905698771935 l -10.833828917608388 23.07458896943502 a46.49134176783129,46.49134176783129 0 0,0 -0.7214733014194022,-0.3463510285416419 l 11.229414887028032 -22.884683664393815" fill="#c8ff1d" stroke="none" /><path d="M 90.7491055286396 118.85261126421891 l -21.442225755065312 43.69760654511318 a69.6749408125239,69.6749408125239 0 0,0 -1.0721516598096212,-0.5375990997318968 l 22.191231322557694 -43.32203960447198" fill="#3bff9a" stroke="none" /><path d="M 90.10565033884886 118.52300852407294 l -6.61936959695803 12.391985695619528 a35.049105428516484,35.049105428516484 0 0,0 -0.5297041203534346,-0.2888369210410627 l 6.831696529180105 -12.2762081228187" fill="#ffa70f" stroke="none" /><line stroke="#e1ed5e" stroke-width="0.3" x1="58.666819895761336" x2="56.23545636021788" y1="174.27360380694188" y2="178.64263932499728" /><path d="M 58.180547188652646 175.14741091055294 a86.0,86.0 0 0,1 -31.652253787137756,-30.449443065178592" fill="none" id="id32" stroke="none" /><text fill="#e1ed5e" style="font-size:6.75px; font-family:Arial;" text-anchor="middle"><textPath startOffset="22.20632615414155" xlink:href="#id32">August</textPath></text><path d="M 89.7882731507175 118.34994917583269 l -10.740496700735376 19.300121467265924 a43.08739364501223,43.08739364501223 0 0,0 -0.6449797772600444,-0.3662363504664346 l 11.071125244916628 -19.112381951004856" fill="#f1ff19" stroke="none" /><path d="M 89.4739219176387 118.17145234162733 l -7.8923227535861935 13.624729520281175 a36.74553946194273,36.74553946194273 0 0,0 -0.5445901179500492,-0.3217534408618284 l 8.125680742564624 -13.486857507125597" fill="#ffbd11" stroke="none" /><path d="M 89.1626897886671 117.98757091392108 l -12.38201776425793 20.551448491260537 a44.9932573654211,44.9932573654211 0 0,0 -0.6599456729213595,-0.4053925337379378 l 12.733942637111598 -20.33526749069422" fill="#daff1c" stroke="none" /><path d="M 88.54995079064634 117.60387380957326 l -26.683989896616957 41.025290135193096 a69.93985847424906,69.93985847424906 0 0,0 -1.0035547107065492,-0.6651013400905077 l 27.38621930606347 -40.55989077401127" fill="#3bff9d" stroke="none" /><path d="M 87.95078237400918 117.19931262002967 l -5.494264798908534 7.842631847715651 a30.575689008072956,30.575689008072956 0 0,0 -0.4284566527270021,-0.30569244549102614 l 5.628448779484423 -7.746895140380406" fill="#ff6a09" stroke="none" /><path d="M 87.65650970185807 116.9893568818739 l -20.145591941491887 27.72802852545921 a55.273728139520834,55.273728139520834 0 0,0 -0.7649226732544325,-0.5658715069552278 l 20.619899585164884 -27.377147069764213" fill="#66ff29" stroke="none" /><path d="M 87.07902340077011 116.55440617244103 l -14.01738934552198 17.959134506663286 a43.78196032593282,43.78196032593282 0 0,0 -0.5901026583048181,-0.46881324074643654 l 14.324449496544156 -17.71518735191172" fill="#e8ff1a" stroke="none" /><path d="M 86.79598089348748 116.32954008644616 l -15.417021745051553 19.06638218020006 a45.519614371536164,45.519614371536164 0 0,0 -0.6050421003915346,-0.4979084575657468 l 15.742933973987776 -18.79817860377713" fill="#d3ff1c" stroke="none" /><path d="M 86.51685102203217 116.09983520530335 l -13.32052819321915 15.905654466094042 a41.74671818242884,41.74671818242884 0 0,0 -0.5469506386473565,-0.466123200095981 l 13.592344308443565 -15.67400687577511" fill="#fffd17" stroke="none" /><path d="M 85.70375840098266 115.38237550388516 l -28.170888025097945 30.311125821330837 a62.380711456899284,62.380711456899284 0 0,0 -0.7802465488063646,-0.7377718124304794 l 28.688470408295128 -29.821719372154426" fill="#32ff45" stroke="none" /><path d="M 85.18274418774928 114.88116024355367 l -16.115789428105845 16.18529422517829 a43.84036816793105,43.84036816793105 0 0,0 -0.5301748808220508,-0.5370643551708445 l 16.39200493398343 -15.905489376026779" fill="#e7ff1a" stroke="none" /><path d="M 84.67929136418377 114.36230785411682 l -4.848350831117845 4.5450578609980745 a27.645604317247717,27.645604317247717 0 0,0 -0.32247095622088623,-0.34997853419042135 l 4.92586819533446 -4.4609280720063085" fill="#ff4006" stroke="none" /><path d="M 84.43433777217949 114.09645910891817 l -16.41956065111486 14.869760240021023 a43.15201439082571,43.15201439082571 0 0,0 -0.49386689422297675,-0.5548646911065186 l 16.673086394986175 -14.58492137917364" fill="#f0ff19" stroke="none" /><path d="M 84.19399662182784 113.82643327865904 l -7.145608454994077 6.250680591074419 a30.493720453211022,30.493720453211022 0 0,0 -0.3421939826597107,-0.3980489099043609 l 7.252144947224567 -6.126754582008528" fill="#ff6909" stroke="none" /><path d="M 83.95833913139862 113.55231037782056 l -24.32228605999445 20.547945283418887 a52.840095077662326,52.840095077662326 0 0,0 -0.5809994914018137,-0.6998513151852541 l 24.6723815512898 -20.12623271111987" fill="#80ff26" stroke="none" /><path d="M 83.72743513129214 113.27417163493432 l -12.240616103512405 9.985152333780002 a36.796706926519825,36.796706926519825 0 0,0 -0.39614649197395063,-0.4942536590452051 l 12.410680507541215 -9.772970841156537" fill="#ffbe11" stroke="none" /><path d="M 83.50135304334701 112.99209946851258 l -11.68060046898028 9.19805869800444 a35.867437947672,35.867437947672 0 0,0 -0.37779203608947626,-0.4883471335246104 l 11.837199322287825 -8.995633570366577" fill="#ffb210" stroke="none" /><path d="M 83.28015986056508 112.70617746262583 l -12.54325596086109 9.532198565818751 a36.75424005142344,36.75424005142344 0 0,0 -0.37846144344307503,-0.5070109507771676 l 12.70547867099925 -9.314874735532277" fill="#ffbd11" stroke="none" /><path d="M 82.6465618267979 111.8261652097733 l -18.71756300791632 12.755800334586622 a43.650774978599685,43.650774978599685 0 0,0 -0.417793819862549,-0.6245450736846383 l 18.934359933189597 -12.431718346696163" fill="#eaff1a" stroke="none" /><path d="M 82.44556493220864 111.52570212397912 l -18.881660924578757 12.397117798565054 a43.58773226736723,43.58773226736723 0 0,0 -0.4063936187797106,-0.6307319211647532 l 19.09225940673551 -12.070264277478852" fill="#ebff1a" stroke="none" /><path d="M 82.05923443525364 110.91462005526583 l -16.725171851161114 10.17508954429233 a40.577124934096915,40.577124934096915 0 0,0 -0.35788854985604146,-0.5998417952696532 l 16.897841276715386 -9.885685655136564" fill="#ffee16" stroke="none" /><line stroke="#e1ed5e" stroke-width="0.3" x1="26.63291911575756" x2="22.317208475507996" y1="142.92168965132927" y2="145.44649492493687" /><path d="M 25.769776987707644 143.4266507060508 a86.0,86.0 0 0,1 -11.730757126820373,-40.83630448921669" fill="none" id="id33" stroke="none" /><text fill="#e1ed5e" style="font-size:6.75px; font-family:Arial;" text-anchor="middle"><textPath startOffset="21.46611528233685" xlink:href="#id33">September</textPath></text><path d="M 81.87401531095188 110.60418214915194 l -7.883755510450935 4.612206226937526 a30.133786029263373,30.133786029263373 0 0,0 -0.25807148884449527,-0.44996939371091454 l 7.961978995447808 -4.4758169873683045" fill="#ff6409" stroke="none" /><path d="M 81.18737489456691 109.33194174019688 l -21.816033866097026 10.82177292640483 a45.35262004215072,45.35262004215072 0 0,0 -0.34089349417350084,-0.7023415673151231 l 21.999080616885244 -10.444642403124421" fill="#d5ff1c" stroke="none" /><path d="M 81.02952815118164 109.00673069616217 l -10.471532677228033 4.971635684735462 a32.59181426662753,32.59181426662753 0 0,0 -0.23625244831536088,-0.5088667556667998 l 10.55555974238322 -4.790648861789835" fill="#ff860c" stroke="none" /><path d="M 80.87730276802145 108.67885076344099 l -25.83160528556742 11.72369381441895 a49.36753123350003,49.36753123350003 0 0,0 -0.34453580128935357,-0.7768372771123276 l 26.029582171588054 -11.277308200813927" fill="#a7ff21" stroke="none" /><path d="M 80.73074385275274 108.34839909993369 l -26.543521559764283 11.499972277355555 a49.927632104505506,49.927632104505506 0 0,0 -0.3348694282529092,-0.7915324095599053 l 26.7375419692095 -11.04136534212949" fill="#a0ff22" stroke="none" /><path d="M 80.58989483394504 108.01547362559985 l -15.060679984091571 6.219362654830025 a37.294310461492714,37.294310461492714 0 0,0 -0.23992208792481043,-0.5954669463621516 l 15.16550468627377 -5.959196340625068" fill="#ffc412" stroke="none" /><path d="M 80.20201598880116 107.00284435728193 l -26.86762345396842 9.503482030886095 a49.49886595595707,49.49886595595707 0 0,0 -0.2772152616348871,-0.805717311898573 l 27.027229546546536 -9.039592015898226" fill="#a5ff21" stroke="none" /><path d="M 79.86692584326677 105.97154293290107 l -27.11872722296106 8.043513009332774 a49.28645378488924,49.28645378488924 0 0,0 -0.23424528521450907,-0.8154385679260941 l 27.253165145061672 -7.575516965902083" fill="#a7ff21" stroke="none" /><path d="M 79.76711848015287 105.62410040840567 l -34.20470740161112 9.507825599536805 a56.50155991024955,56.50155991024955 0 0,0 -0.25240571547004587,-0.9392955644949333 l 34.36330119342294 -8.917639101866333" fill="#59ff2a" stroke="none" /><path d="M 79.67330655649465 105.27499134158121 l -9.46929777318358 2.457382648251503 a30.782961197773766,30.782961197773766 0 0,0 -0.12868550979327475,-0.5140346434747417 l 9.510194597271914 -2.2940201653793695" fill="#ff6d0a" stroke="none" /><path d="M 79.58551787078972 104.9243191809786 l -14.245865534326574 3.4363442803160673 a35.65445825798329,35.65445825798329 0 0,0 -0.13877977333619992,-0.5978596313282319 l 14.30290587359333 -3.190615991639261" fill="#ffaf10" stroke="none" /><path d="M 79.50377843672027 104.57218783832718 l -24.778589887068122 5.527475734138239 a46.38762503234601,46.38762503234601 0 0,0 -0.16714115425536455,-0.7808278285256735 l 24.870065080047926 -5.100134086196402" fill="#c9ff1d" stroke="none" /><path d="M 79.4281124754447 104.21870165774334 l -20.602083664178586 4.224894016326586 a42.03082453816317,42.03082453816317 0 0,0 -0.1392422514384769,-0.7099932402347024 l 20.671755848592728 -3.869637049023929" fill="#feff18" stroke="none" /><path d="M 79.35854240842038 103.8639653848113 l -26.49355896092098 4.959446022223555 a47.95375245236079,47.95375245236079 0 0,0 -0.14489696172800695,-0.8126591109417322 l 26.575002364988173 -4.502668160548609" fill="#b7ff1f" stroke="none" /><path d="M 79.23777060512086 103.15116336523772 l -31.452659311964158 4.773691007749387 a52.812857520693626,52.812857520693626 0 0,0 -0.12867714159863977,-0.8999676286397224 l 31.530170504579395 -4.231577907129265" fill="#80ff25" stroke="none" /><path d="M 79.1416061653843 102.43462659150553 l -26.054524095406947 3.041127600459275 a47.231406422843904,47.231406422843904 0 0,0 -0.08730545210491601,-0.808340056710706 l 26.103011849012915 -2.592191221863787" fill="#bfff1e" stroke="none" /><path d="M 79.10278846688536 102.07522291339032 l -26.67285783059601 2.648780467572991 a47.8040553427384,47.8040553427384 0 0,0 -0.07426793357856543,-0.8195404583923893 l 26.714500360451648 -2.1892586206320352" fill="#b8ff1f" stroke="none" /><path d="M 79.07016306316243 101.71520430193888 l -23.65026591435217 1.9381439980021438 a44.72954866778043,44.72954866778043 0 0,0 -0.056281362152088246,-0.7679144708147798 l 23.680123835168594 -1.5307563906906034" fill="#ddff1b" stroke="none" /><path d="M 79.0095281055655 100.63252640178507 l -11.840566920609149 0.3568033737904714 a32.845941653113606,32.845941653113606 0 0,0 -0.012165413106181916,-0.5652789439713557 l 11.844954396400338 -0.15293461402898686" fill="#ff890c" stroke="none" /><line stroke="#e1ed5e" stroke-width="0.3" x1="15.007084014347285" x2="10.007500721073583" y1="101.09737516637583" y2="101.16192664675087" /><path d="M 14.007167355692545 101.11028546245083 a86.0,86.0 0 0,1 10.666146001902534,-42.60595125391555" fill="none" id="id34" stroke="none" /><text fill="#e1ed5e" style="font-size:6.75px; font-family:Arial;" text-anchor="middle"><textPath startOffset="22.20632615414155" xlink:href="#id34">October</textPath></text><path d="M 79.00175016825051 100.2711162175752 l -29.48461483812118 0.38068683417065285 a50.487072330397034,50.487072330397034 0 0,0 -0.003740136917593147,-0.8690761009849527 l 29.486799272328273 0.12689874501797518" fill="#9aff23" stroke="none" /><path d="M 79.00019446554 99.90962569577889 l -13.191372014853796 -0.056770100352028105 a34.19149417156987,34.19149417156987 0 0,0 0.007598640949208895,-0.5885231155123433 l 13.188440366786873 0.2838294739248433" fill="#ff9b0e" stroke="none" /><path d="M 79.01574976396665 99.18683210126434 l -25.082270355659542 -0.9719716859651174 a46.10109589545276,46.10109589545276 0 0,0 0.037553495583459766,-0.7926949381121702 l 25.061823251842583 1.4035777307002966" fill="#ccff1d" stroke="none" /><path d="M 79.03285615573316 98.82574320788736 l -21.950204621190622 -1.2293127312017407 a42.984601263230424,42.984601263230424 0 0,0 0.0477321665414042,-0.7383954896385198 l 21.925791863644804 1.6069672850932721" fill="#f2ff19" stroke="none" /><path d="M 79.05617556472873 98.46500227214037 l -22.409469444348005 -1.6424165885235338 a43.46957616483729,43.46957616483729 0 0,0 0.061117222591167024,-0.7457849198603501 l 22.37787773793734 2.027915425591662" fill="#ecff1a" stroke="none" /><path d="M 79.08570108090925 98.10471618934814 l -30.005575067496792 -2.71914831449669 a51.12852971333675,51.12852971333675 0 0,0 0.08697419242866501,-0.8758182484282299 l 29.9543237493859 3.2352420936293504" fill="#93ff23" stroke="none" /><path d="M 79.16333360222342 97.38593545837743 l -19.08238972647259 -2.39398171478704 a40.23197197698981,40.23197197698981 0 0,0 0.09211972278318,-0.6863989343773368 l 19.03835400463158 2.722098991229036" fill="#ffea16" stroke="none" /><path d="M 79.21141760316559 97.0276538004421 l -25.47286074838171 -3.6421031214157944 a46.73191694867431,46.73191694867431 0 0,0 0.12071100394045561,-0.7953346950988207 l 25.40639385100195 4.080036928906707" fill="#c5ff1e" stroke="none" /><path d="M 79.32604984820605 96.31383870115002 l -18.56664772621001 -3.3104296854366586 a39.85946320793356,39.85946320793356 0 0,0 0.12624873050558122,-0.6744257665882286 l 18.506913271794566 3.62953352948746" fill="#ffe515" stroke="none" /><path d="M 79.46518482838121 95.60439243477599 l -40.54544542809428 -8.67901002125547 a62.46394047737895,62.46394047737895 0 0,0 0.23410774883525462,-1.0494591341119635 l 40.39004329225699 9.375647324917393" fill="#32ff46" stroke="none" /><path d="M 79.62865764111835 94.90015583598534 l -18.560028488146905 -4.646392530335835 a40.132789159628175,40.132789159628175 0 0,0 0.17353354609380017,-0.6686955418879861 l 18.4772986101828 4.965184497772685" fill="#ffe915" stroke="none" /><path d="M 79.71946130924805 94.55025226153421 l -27.79537615397765 -7.469120551714948 a49.781429730942136,49.781429730942136 0 0,0 0.22950004657506146,-0.8256337749967303 l 27.662689336836227 7.9464656301306205" fill="#a2ff22" stroke="none" /><path d="M 79.91906864156998 93.8553929516997 l -18.17404571374925 -5.561115039714295 a40.005839578676444,40.005839578676444 0 0,0 0.20716265102047682,-0.6567622160342983 l 18.075627578960567 5.873127422175008" fill="#ffe715" stroke="none" /><path d="M 80.14247586403 93.16781622104843 l -28.430200804012703 -9.78170065087136 a51.06589405588568,51.06589405588568 0 0,0 0.29313505733950845,-0.8287322810901454 l 28.257612665863387 10.269630558388116" fill="#93ff23" stroke="none" /><path d="M 80.52162464483688 92.15188598940014 l -19.05775804850258 -7.678641325259678 a41.546524631607426,41.546524631607426 0 0,0 0.2729771135433402,-0.661035732795615 l 18.922759248073042 8.005551628508604" fill="#fffa17" stroke="none" /><path d="M 80.65960295795068 91.81776055985345 l -28.132756844435605 -11.90197657846028 a51.54683378260921,51.54683378260921 0 0,0 0.3527504234645759,-0.8141966123592314 l 27.923715711128345 12.38447233540611" fill="#8eff24" stroke="none" /><path d="M 80.803312248108 91.48605970444005 l -28.040669704882408 -12.436342706639879 a51.674774284667606,51.674774284667606 0 0,0 0.3676234071224342,-0.8100094472650616 l 27.82244398079662 12.917174162747012" fill="#8dff24" stroke="none" /><path d="M 81.10775173730289 90.83032412892265 l -37.327618879549796 -18.1175983612505 a62.49214987918208,62.49214987918208 0 0,0 0.4780351498621522,-0.9636896920218523 l 37.01022371673423 18.757447641771314" fill="#32ff47" stroke="none" /><path d="M 81.43458229118936 90.18545643968196 l -20.91910265196785 -11.058810926891669 a44.662336209265284,44.662336209265284 0 0,0 0.3651505427196395,-0.6765684989031414 l 20.72564401002974 11.417260409127284" fill="#deff1b" stroke="none" /><line stroke="#e1ed5e" stroke-width="0.3" x1="26.266209847984243" x2="21.928928074336255" y1="57.711370442889674" y2="55.22380399835377" /><path d="M 25.398753493254645 57.213857153982495 a86.0,86.0 0 0,1 29.58750427330803,-30.492523968695096" fill="none" id="id35" stroke="none" /><text fill="#e1ed5e" style="font-size:6.75px; font-family:Arial;" text-anchor="middle"><textPath startOffset="21.46611528233685" xlink:href="#id35">November</textPath></text><path d="M 81.78341655067845 89.55222093294921 l -26.69756369796996 -15.311885893471095 a51.776837995834505,51.776837995834505 0 0,0 0.4500648029836608,-0.7693066389484583 l 26.430039220515976 15.769171944773445" fill="#8cff24" stroke="none" /><path d="M 82.34701348167596 88.62581576622439 l -34.867075869912775 -22.465577947717765 a62.47788775050191,62.47788775050191 0 0,0 0.5902772926395122,-0.89903281328727 l 34.47520194191534 23.0624288249827" fill="#32ff46" stroke="none" /><path d="M 83.84228863543731 86.58626213691792 l -18.631932611354753 -15.467775992054131 a45.215718180025775,45.215718180025775 0 0,0 0.502302245474157,-0.5945674243574379 l 18.36291975239347 15.786202366040685" fill="#d7ff1c" stroke="none" /><path d="M 84.80347519578584 85.50635884689758 l -18.521146367609216 -17.66448926018752 a46.59427755561161,46.59427755561161 0 0,0 0.5585449889372931,-0.5756297085905199 l 18.214337114968806 17.980683164328163" fill="#c7ff1e" stroke="none" /><path d="M 85.05521093208273 85.24692304244772 l -18.612007698705508 -18.373252420338407 a47.15307314787584,47.15307314787584 0 0,0 0.5751871072656077,-0.5727170710331486 l 18.292984791272588 18.690905342021665" fill="#c0ff1e" stroke="none" /><path d="M 85.57189188830299 84.74124197986013 l -31.430436106813527 -33.23993799523351 a66.74675717241011,66.74675717241011 0 0,0 0.8416197657863494,-0.7821938492628218 l 30.853608457232323 33.77603643057098" fill="#37ff79" stroke="none" /><path d="M 86.10567301691215 84.25364557470407 l -20.422127462400056 -23.14427014226312 a51.86617129655971,51.86617129655971 0 0,0 0.6745225248351987,-0.5849392866817473 l 20.02071113891808 23.49237442236455" fill="#8bff24" stroke="none" /><path d="M 86.37877921826538 84.01681056812374 l -14.582821613326194 -17.1115353045008 a43.482511574182965,43.482511574182965 0 0,0 0.5738500169939551,-0.4805828861894297 l 14.286114059373128 17.360019348084045" fill="#ecff1a" stroke="none" /><path d="M 86.93701828274178 83.55741782278169 l -6.28925766540534 -7.916388328133741 a31.11058683478224,31.11058683478224 0 0,0 0.4221668779904146,-0.32950794457157606 l 6.1520582322554995 8.023474661928539" fill="#ff710a" stroke="none" /><path d="M 87.51073957382395 83.11751280151077 l -37.199161441863566 -50.28435194773829 a83.54833061546759,83.54833061546759 0 0,0 1.1635285999674394,-0.8453530104268843 l 36.328087525542344 50.917224192981834" fill="#4cd6ff" stroke="none" /><path d="M 88.39885842347998 82.49532879139004 l -15.791532924588434 -23.827447488816727 a49.585306819075406,49.585306819075406 0 0,0 0.715523000132528,-0.4653960628533004 l 15.379042898671619 24.09574247582956" fill="#a4ff21" stroke="none" /><path d="M 88.70189139769569 82.29822771554957 l -14.074940968599124 -22.05248760774064 a47.16134883676881,47.16134883676881 0 0,0 0.6880635253275045,-0.4308653164370161 l 13.693258290899378 22.29149726550059" fill="#c0ff1e" stroke="none" /><path d="M 89.00827224532344 82.1063720568725 l -11.38294359724479 -18.530495129852966 a42.74742869158468,42.74742869158468 0 0,0 0.6302964521224125,-0.3797465599686201 l 11.062285078904727 18.723688299280205" fill="#f5ff19" stroke="none" /><line stroke="#e1ed5e" stroke-width="0.3" x1="56.762969772571076" x2="54.21961505331055" y1="26.818313649435495" y2="22.513508569990535" /><path d="M 56.25429882871897 25.957352633546506 a86.0,86.0 0 0,1 42.265352541879196,-11.944610805530505" fill="none" id="id36" stroke="none" /><text fill="#e1ed5e" style="font-size:6.75px; font-family:Arial;" text-anchor="middle"><textPath startOffset="22.20632615414155" xlink:href="#id36">December</textPath></text><path d="M 89.63071344664047 81.73862282372117 l -30.997227543142174 -54.58929702360901 a83.77594654716995,83.77594654716995 0 0,0 1.260133496639949,-0.7012629265625475 l 30.05296995743018 55.11477534773174" fill="#4dd4ff" stroke="none" /><path d="M 89.94658935756843 81.56283822128135 l -5.979530530705629 -10.965987133769607 a33.49030260584752,33.49030260584752 0 0,0 0.5085023275781183,-0.2716243328414156 l 5.789883156599205 11.067290193112772" fill="#ff920d" stroke="none" /><path d="M 90.58718382345135 81.22770947309562 l -12.74332620974987 -25.414436806334646 a49.43037039982552,49.43037039982552 0 0,0 0.7638845465267009,-0.3748348294664891 l 12.303970396212742 25.630026795935965" fill="#a6ff21" stroke="none" /><path d="M 90.91171255644093 81.06846463323043 l -9.225224962305933 -19.216785750331237 a42.31641691699818,42.31641691699818 0 0,0 0.6593739826176978,-0.30958492607884247 l 8.893072768388627 19.372735659050086" fill="#faff18" stroke="none" /><path d="M 91.90106846888425 80.62456947434976 l -19.38795911980013 -46.38266832070409 a71.27171052768632,71.27171052768632 0 0,0 1.1359900550306787,-0.46339886645861517 l 18.58668519518107 46.709528073346284" fill="#3dffac" stroke="none" /><path d="M 92.23578459929587 80.48803036053334 l -3.531254164075639 -8.87426745430522 a30.55104071930606,30.55104071930606 0 0,0 0.4902959547231685,-0.19022721322791056 l 3.377975044352794 8.933737371423682" fill="#ff6909" stroke="none" /><path d="M 92.91201910852362 80.23233633223022 l -12.879848685006472 -35.920598657813585 a59.15992544652547,59.15992544652547 0 0,0 0.9615403425320725,-0.3354625451699013 l 12.259626338411113 36.136982056155695" fill="#3eff2e" stroke="none" /><path d="M 93.59665428221793 80.00007090966166 l -2.980828051349484 -9.31018756209377 a30.77573159988947,30.77573159988947 0 0,0 0.5059158435147852,-0.1571905152521786 l 2.82012683512397 9.360118212228473" fill="#ff6d0a" stroke="none" /><path d="M 94.28887869178378 79.79150937346287 l -11.277207275860047 -39.90378162688917 a62.46669979717663,62.46669979717663 0 0,0 1.0372509558335028,-0.2835198686111534 l 10.588658430802822 40.09198803632662" fill="#32ff46" stroke="none" /><path d="M 94.98787191387505 79.60689891045804 l -6.351141267538798 -25.841212290928578 a47.6102470500571,47.6102470500571 0 0,0 0.7975312938129513,-0.18874989004287104 l 5.905386286763313 25.946708093112317" fill="#bbff1f" stroke="none" /><path d="M 95.33964822691252 79.52364482259891 l -4.894637611129914 -21.505745289215255 a43.05571485554009,43.05571485554009 0 0,0 0.7240685222859675,-0.15825333412766193 l 4.523726364690426 21.586812121438786" fill="#f1ff19" stroke="none" /><path d="M 95.692805502759 79.44645832069477 l -4.371070516101216 -20.858352250732267 a42.31143158195519,42.31143158195519 0 0,0 0.7141234579132371,-0.14324644753270394 l 4.011380648720843 20.93050265434218" fill="#faff18" stroke="none" /><path d="M 96.04723909329186 79.375362276772 l -8.860057608020469 -46.22983344685383 a68.07120267574737,68.07120267574737 0 0,0 1.1526881801852167,-0.2106463971314248 l 8.06297430673236 46.37549532533599" fill="#39ff88" stroke="none" /><path d="M 98.91598698831166 79.02799685794201 l -0.8059590457445875 -15.592594791274678 a36.61341033561546,36.61341033561546 0 0,0 0.6296794666761427,-0.027115322401021474 l 0.5374387466791207 15.60415784019989" fill="#ffbb11" stroke="none" /></svg>