<?xml version="1.0" encoding="utf-8" ?>
<svg baseProfile="full" height="200mm" version="1.1" viewBox="0,0,200,200" width="200mm" xmlns="http://www.w3.org/2000/svg" xmlns:ev="http://www.w3.org/2001/xml-events" xmlns:xlink="http://www.w3.org/1999/xlink"><defs /><rect fill="#1a1a1a" height="200" width="200" x="0" y="0" /><text alignment-baseline="middle" fill="#e1ed5e" style="dominant-baseline: central; font-size:9.0px; font-family:Arial;" text-anchor="middle" x="100.0" y="100.0">2022</text><line stroke="#e1ed5e" stroke-width="0.3" x1="100.0" x2="100.0" y1="15.0" y2="10.0" /><path d="M 100.0 14.0 a86.0,86.0 0 0,1 42.46469731375804,11.215312516191453" fill="none" id="id13" stroke="none" /><text fill="#e1ed5e" style="font-size:6.75px; font-family:Arial;" text-anchor="middle"><textPath startOffset="22.20632615414155" xlink:href="#id13">January</textPath></text><path d="M 100.0 79.0 l 0.0 -22.647233519199297 a43.6472335191993,43.6472335191993 0 0,0 0.7513153757828632,0.006466808638092538 l -0.3898348965103348 22.643878087169764" fill="#efff19" stroke="none" /><path d="M 100.36148047927253 79.00311137660856 l 0.23493707819417226 -13.646511906467236 a34.648534084071535,34.648534084071535 0 0,0 0.5962408260726781,0.015399141455675057 l -0.4698045394617182 13.6404459728692" fill="#ff9b0e" stroke="none" /><path d="M 101.44485096284872 79.0497635885617 l 0.5905904242707963 -8.563519234129025 a29.583860362479,29.583860362479 0 0,0 0.5077292148177142,0.03940955890921081 l -0.7379098284508516 8.55208441303135" fill="#ff5407" stroke="none" /><path d="M 101.80526077348638 79.07773832637324 l 1.1968042136053494 -13.87048968044239 a34.922026587424774,34.922026587424774 0 0,0 0.5984552323762192,0.0568305353834148 l -1.4353845730718129 13.847833600543796" fill="#ff9e0e" stroke="none" /><path d="M 102.16513564639614 79.11191278185805 l 2.353508916690183 -22.7054132161773 a43.82706274443339,43.82706274443339 0 0,0 0.7497209631032816,0.08423988570777174 l -2.7439965833031903 22.661537376998925" fill="#ecff1a" stroke="none" /><path d="M 102.52436894288641 79.15227682838746 l 1.5483245128263607 -12.78697431062411 a33.88037347352863,33.88037347352863 0 0,0 0.5783626134720704,0.075088066346825 l -1.7682018548062772 12.75842792111315" fill="#ff900d" stroke="none" /><path d="M 102.88285421437855 79.19881850522331 l 2.931554985887733 -21.15258101475425 a42.35475821031522,42.35475821031522 0 0,0 0.7213035886882283,0.10630139903390948 l -3.295227555004617 21.098985131559374" fill="#ffff18" stroke="none" /><path d="M 103.2404852339499 79.25152402106235 l 2.0317831464160108 -13.009287425895014 a34.16699290208703,34.16699290208703 0 0,0 0.5803032610587999,0.09575501030491144 l -2.255415613613686 12.972386152650477" fill="#ff940d" stroke="none" /><path d="M 103.95276090670814 79.375362276772 l 5.09502981702445 -26.584745863793604 a48.068580337336854,48.068580337336854 0 0,0 0.81129140575144,0.16273742376045433 l -5.551887632243015 26.493104483955943" fill="#baff1f" stroke="none" /><path d="M 104.307194497241 79.44645832069477 l 3.824763413077645 -18.251424279662476 a39.647876645942034,39.647876645942034 0 0,0 0.6667588623513261,0.14572766220127117 l -4.138364999582499 18.182883119365336" fill="#ffdd14" stroke="none" /><path d="M 105.36241919743992 79.69619591428918 l 2.391225619739615 -9.0539315783265 a30.364381292403515,30.364381292403515 0 0,0 0.5041963737655797,0.13781591507849314 l -2.5467198827289055 9.011429122421713" fill="#ff5f08" stroke="none" /><path d="M 106.0581310904928 79.89281104454417 l 8.220355771583778 -27.283702566241725 a49.49516932279147,49.49516932279147 0 0,0 0.8136407823993976,0.2528021516918771 l -8.688781926693894 27.13816027966733" fill="#a9ff21" stroke="none" /><path d="M 106.40334571778207 80.00007090966166 l 4.101134717377177 -12.809304253195698 a34.44981715195466,34.44981715195466 0 0,0 0.5632006666130397,0.18567840492285878 l -4.321018206232635 12.736812124013603" fill="#ff980e" stroke="none" /><path d="M 106.74666289553966 80.11325718540242 l 3.735805995137563 -11.011816386979854 a32.62825638579851,32.62825638579851 0 0,0 0.5303148133576401,0.18501642537615998 l -3.9248028125584766 10.945879108431486" fill="#ff7f0b" stroke="none" /><path d="M 108.09893153111575 80.62456947434976 l 3.2693606792982783 -7.821435514260942 a29.47723850997977,29.47723850997977 0 0,0 0.46646500630262305,0.19971597188349152 l -3.4035094433912167 7.76400001441466" fill="#ff5307" stroke="none" /><path d="M 108.43124777332544 80.76684994638697 l 3.7965945439534052 -8.660695844760331 a30.456309145043093,30.456309145043093 0 0,0 0.4783350172161401,0.21461497909380112 l -3.9451116796363257 8.59406053515" fill="#ff6108" stroke="none" /><path d="M 108.76106565485865 80.91482961587045 l 4.51190036902131 -9.828757218733342 a31.814883883092662,31.814883883092662 0 0,0 0.4957392005486273,0.23275620179453488 l -4.680417780869535 9.749636034298804" fill="#ff740a" stroke="none" /><path d="M 109.08828744355905 81.06846463323043 l 5.934213524014593 -12.361379842080533 a34.71198752000572,34.71198752000572 0 0,0 0.5364303490198647,0.2632240425726201 l -6.1461151400448895 12.257400639373081" fill="#ff9c0e" stroke="none" /><path d="M 110.05341064243156 81.56283822128135 l 5.778681044585424 -10.597645025754918 a33.07075949172043,33.07075949172043 0 0,0 0.49744077521556346,0.27682525283976106 l -5.960245908873023 10.496604375354977" fill="#ff850c" stroke="none" /><line stroke="#e1ed5e" stroke-width="0.3" x1="143.23703022742887" x2="145.7803849466894" y1="26.81831364943548" y2="22.513508569990506" /><path d="M 143.74570117128098 25.957352633546492 a86.0,86.0 0 0,1 28.547481713284135,27.462654790039103" fill="none" id="id14" stroke="none" /><text fill="#e1ed5e" style="font-size:6.75px; font-family:Arial;" text-anchor="middle"><textPath startOffset="19.985693538727396" xlink:href="#id14">February</textPath></text><path d="M 110.68208982089419 81.91981866633111 l 6.794256662709927 -11.499752815128495 a34.35687981557946,34.35687981557946 0 0,0 0.5065806322526181,0.30520916276282084 l -6.991199361180183 11.38109704290706" fill="#ff970d" stroke="none" /><path d="M 111.2981086023043 82.29822771554956 l 9.941332937999341 -15.575988695707826 a39.47813638960836,39.47813638960836 0 0,0 0.56967509936366,0.3705325311699378 l -10.207975063147282 15.40255724037836" fill="#ffdb14" stroke="none" /><path d="M 111.90073688211348 82.69761687909136 l 13.921600530123973 -20.240500097979822 a45.56600914956822,45.56600914956822 0 0,0 0.6424131620301713,0.4500514739227448 l -14.267944831737795 19.99786378129314" fill="#d7ff1c" stroke="none" /><path d="M 112.77801427241765 83.33499621200491 l 14.591955308000161 -19.03073398556067 a44.98111748313343,44.98111748313343 0 0,0 0.6103882912020006,0.4764177431018064 l -14.917376154361591 18.776737853235637" fill="#deff1b" stroke="none" /><path d="M 113.34407831869373 83.78471172551755 l 16.95031724271122 -20.59747206740007 a47.675252767235015,47.675252767235015 0 0,0 0.6291827132384842,0.5269224280110646 l -17.302357492908822 20.302648481995185" fill="#beff1f" stroke="none" /><path d="M 113.89432698308785 84.25364557470407 l 8.538034335975372 -9.67610125436505 a33.90445526967409,33.90445526967409 0 0,0 0.4342821875755031,0.38990283594110997 l -8.703327511146865 9.527699409654645" fill="#ff910d" stroke="none" /><path d="M 114.16331599549186 84.49514656593476 l 8.912015498605554 -9.756154148645635 a34.21387770563664,34.21387770563664 0 0,0 0.4314078610123732,0.4009465902838228 l -9.078631243412774 9.601302972287172" fill="#ff950d" stroke="none" /><path d="M 114.68862486808459 84.99185889309783 l 14.943658564198584 -15.268722456937892 a42.36461599819536,42.36461599819536 0 0,0 0.5167760932569696,0.5145568924816225 l -15.204270457622876 15.009229713806151" fill="#ffff18" stroke="none" /><path d="M 115.19652480421416 85.50635884689758 l 20.412921316528916 -19.468764093106373 a49.20851169395203,49.20851169395203 0 0,0 0.5793310537115978,0.6179899754099537 l -20.745019692210974 19.114504700818365" fill="#acff20" stroke="none" /><path d="M 115.4437574822437 85.77008943001954 l 17.085686300914933 -15.742787230911492 a44.23265000319641,44.23265000319641 0 0,0 0.5111111340800353,0.564381680001812 l -17.354141075611004 15.446352763640132" fill="#e8ff1a" stroke="none" /><path d="M 116.15771136456269 86.58626213691792 l 20.429222395628045 -16.959842132257123 a47.55163597297,47.55163597297 0 0,0 0.517410501145587,0.6342840950981806 l -20.718131388850043 16.60567386755084" fill="#c0ff1e" stroke="none" /><path d="M 116.60985879189232 87.15038557335679 l 21.23876929956228 -16.43060304215328 a47.85237489848609,47.85237489848609 0 0,0 0.4984031289387906,0.6558400955253608 l -21.51844836872518 16.062578170746885" fill="#bcff1f" stroke="none" /><path d="M 117.04232023915458 87.72973835380427 l 22.059588373375394 -15.882633194910614 a48.18241115881436,48.18241115881436 0 0,0 0.47881243601262513,0.6772462344856998 l -22.329713429191905 15.500560460093121" fill="#b8ff1f" stroke="none" /><path d="M 117.45458315368197 88.32363383020206 l 32.34517212752648 -21.637530398798024 a59.91520116507461,59.91520116507461 0 0,0 0.5660655954455991,0.8621567373918747 l -32.71283435833001 21.077555597428475" fill="#38ff2e" stroke="none" /><line stroke="#e1ed5e" stroke-width="0.3" x1="172.23445277983987" x2="176.4835382374775" y1="55.19839476539836" y2="52.563006222186495" /><path d="M 173.08426987136738 54.67131705675599 a86.0,86.0 0 0,1 12.851231095245387,41.99856678651699" fill="none" id="id15" stroke="none" /><text fill="#e1ed5e" style="font-size:6.75px; font-family:Arial;" text-anchor="middle"><textPath startOffset="22.20632615414155" xlink:href="#id15">March</textPath></text><path d="M 117.84615892207809 88.93136811851018 l 11.371754087740644 -7.0530448817370175 a34.38141371962779,34.38141371962779 0 0,0 0.3076059271668255,0.5056232647295833 l -11.491475813193693 6.856253843800353" fill="#ff970d" stroke="none" /><path d="M 118.21658344932153 89.55222093294921 l 14.874024335164593 -8.530717108620308 a38.14671205538764,38.14671205538764 0 0,0 0.3217808833537975,0.5724122862105636 l -15.018662859810824 8.27342131247495" fill="#ffc912" stroke="none" /><path d="M 118.3937258080291 89.86733742301442 l 7.53792963609293 -4.1524647224136 a29.60600641816967,29.60600641816967 0 0,0 0.24205292935647052,0.4484873166286215 l -7.608290664667866 4.0220964224525195" fill="#ff5507" stroke="none" /><path d="M 118.56541770881063 90.18545643968196 l 8.940911683515587 -4.726581893451074 a31.113381142225634,31.113381142225634 0 0,0 0.24622621182532498,0.4756306690173818 l -9.020947328501029 4.571978502173348" fill="#ff6a09" stroke="none" /><path d="M 118.73160827565052 90.50648371742162 l 28.810094997765617 -14.601474787376185 a53.298988215525604,53.298988215525604 0 0,0 0.4077118465018327,0.821922203633592 l -29.05716685722086 14.103392995243643" fill="#7eff26" stroke="none" /><path d="M 119.04729006885535 91.15688171328212 l 15.376628695001115 -7.138933985321873 a37.95302593847822,37.95302593847822 0 0,0 0.2700044828304114,0.5949190874663498 l -15.497235494794873 6.87319288901346" fill="#ffc712" stroke="none" /><path d="M 119.196687751892 91.48605970444005 l 25.97293795522692 -11.519281133761746 a49.412802464113014,49.412802464113014 0 0,0 0.3381466079429294,0.78048899265331 l -26.16737527301253 11.070492996521834" fill="#aaff21" stroke="none" /><path d="M 119.47837535516314 92.15188598940014 l 25.50294167863002 -10.275497327168685 a48.49519739125826,48.49519739125826 0 0,0 0.30530370928021316,0.7769646390506763 l -25.676038937791933 9.834983683222225" fill="#b5ff20" stroke="none" /><path d="M 119.61058180528143 92.48833698450437 l 5.085969226763869 -1.948136333637085 a26.446312344148655,26.446312344148655 0 0,0 0.15917583482634365,0.42651210008850887 l -5.118749650091838 1.8603010965192428" fill="#ff2703" stroke="none" /><path d="M 119.7369772167798 92.82701384747503 l 27.386415887996964 -9.953012549707074 a50.138947029790884,50.138947029790884 0 0,0 0.2878140759943543,0.8136891502963323 l -27.553683044801126 9.480125772984128" fill="#a2ff22" stroke="none" /><path d="M 119.97218684219823 93.5106431181261 l 16.666681787400982 -5.415333183572841 a38.52438630285206,38.52438630285206 0 0,0 0.19949122626811386,0.6324417031634564 l -16.757428497437303 5.127641313982965" fill="#ffce13" stroke="none" /><path d="M 120.08093135843002 93.85539295169968 l 25.58812561670986 -7.82976517427436 a47.759248779829434,47.759248779829434 0 0,0 0.2337794825210283,0.7881881970547872 l -25.719110996342593 7.388147590473043" fill="#bdff1f" stroke="none" /><path d="M 120.18372546131832 94.20196356495316 l 21.485082089115664 -6.171867973600972 a43.353986370658816,43.353986370658816 0 0,0 0.1998685442554933,0.7190334954585373 l -21.58813740393752 5.801123174723483" fill="#f2ff19" stroke="none" /><path d="M 120.45610955862082 95.25157060432595 l 28.009890499236533 -6.50187109308547 a49.75462212393551,49.75462212393551 0 0,0 0.18647466827363463,0.8359293738627044 l -28.11765955451221 6.018763549672802" fill="#a6ff21" stroke="none" /><path d="M 120.67395015179393 96.31383870115 l 12.215705636543094 -2.178057943690145 a33.40836010940779,33.40836010940779 0 0,0 0.09606993698424642,0.5670102062883421 l -12.251387435047564 1.967461949085965" fill="#ff8a0c" stroke="none" /><path d="M 120.73433829027371 96.67025291283417 l 12.758437851992062 -2.048889657326799 a33.9219071831926,33.9219071831926 0 0,0 0.0876220737136799,0.577319987458402 l -12.791815819145041 1.828970557476315" fill="#ff910d" stroke="none" /><path d="M 120.83666639777658 97.38593545837742 l 22.897292380840653 -2.872580429579047 a44.0767787331357,44.0767787331357 0 0,0 0.08796391606879221,0.7536211142191589 l -22.943346649913035 2.478015577035036" fill="#e9ff1a" stroke="none" /><path d="M 120.87857604477298 97.74499172005257 l 41.19980334301117 -4.44981963671585 a62.439409869134195,62.439409869134195 0 0,0 0.10621500910623292,1.0695706465858363 l -41.270295477799635 3.739973459425578" fill="#31ff43" stroke="none" /><path d="M 120.94382443527127 98.46500227214037 l 29.55310833591825 -2.16598235374945 a50.632375737886335,50.632375737886335 0 0,0 0.05622462277380383,0.8697700287036682 l -29.586013549696467 1.6569532607927464" fill="#9cff22" stroke="none" /><path d="M 120.98425023603335 99.18683210126433 l 35.54660799891282 -1.3774788333405048 a56.57328756475389,56.57328756475389 0 0,0 0.029332725745414095,0.9734103645455074 l -35.565052419113876 0.7653983213699982" fill="#5bff2a" stroke="none" /><line stroke="#e1ed5e" stroke-width="0.3" x1="184.98032266829074" x2="189.97916517819016" y1="98.17113171792111" y2="98.06355123074" /><path d="M 185.9800911702706 98.14961562048488 a86.0,86.0 0 0,1 -9.607161424134198,41.387399972396054" fill="none" id="id16" stroke="none" /><text fill="#e1ed5e" style="font-size:6.75px; font-family:Arial;" text-anchor="middle"><textPath startOffset="21.466115282336823" xlink:href="#id16">April</textPath></text><path d="M 120.99824983174949 100.27111621757518 l 36.730688600468895 0.47424358896969143 a57.7337500406138,57.7337500406138 0 0,0 -0.02138330898930202,0.9935983446336046 l -36.717083228794586 -1.1064317493934108" fill="#4fff2b" stroke="none" /><path d="M 120.9764740272857 100.99374915477107 l 12.844541960094283 0.608503254630007 a33.85894763872682,33.85894763872682 0 0,0 -0.03259108985174963,0.5819358027587829 l -12.832164519355004 -0.8295107737242132" fill="#ff900d" stroke="none" /><path d="M 120.95626037817324 101.35467743843564 l 3.485579915677557 0.22531865831132578 a24.492854970702044,24.492854970702044 0 0,0 -0.030818357926725277,0.42049200861079516 l -3.481184999086494 -0.28528380341889115" fill="#ff0a01" stroke="none" /><path d="M 120.89721153311464 102.0752229133903 l 14.045917528706791 1.3948468602604194 a35.11500609234056,35.11500609234056 0 0,0 -0.06490874853720009,0.6009743974583407 l -14.01982647866854 -1.6364175796035514" fill="#ffa10e" stroke="none" /><path d="M 120.81339534386255 102.79330883721812 l 56.03678626929438 7.520543751237571 a77.53918989254142,77.53918989254142 0 0,0 -0.18892220163123022,1.3213214381912772 l -55.89903001664655 -8.484010661409258" fill="#45ffed" stroke="none" /><path d="M 120.70491114924044 103.5080841355445 l 25.276053578396066 4.282584065606913 a46.636290893515365,46.636290893515365 0 0,0 -0.14091612253800218,0.7903324506834896 l -25.198591013518875 -4.717035267023621" fill="#caff1d" stroke="none" /><path d="M 120.5718875245553 104.21870165774334 l 24.913569958108845 5.109055683739473 a46.43203527123093,46.43203527123093 0 0,0 -0.1673011706084882,0.7815753716552927 l -24.821934748775913 -5.537144874810934" fill="#cdff1d" stroke="none" /><path d="M 120.41448212921028 104.9243191809786 l 21.331299791841012 5.145471144225935 a42.94311336400234,42.94311336400234 0 0,0 -0.17951997534780825,0.7170930641122506 l -21.239568502198143 -5.511892047735582" fill="#f7ff18" stroke="none" /><path d="M 120.32669344350535 105.2749913415812 l 14.141026134302386 3.6697454323714593 a35.609437075720415,35.609437075720415 0 0,0 -0.15907570440284624,0.5919798736975613 l -14.075762353557762 -3.912616239244569" fill="#ffa80f" stroke="none" /><path d="M 120.02730092923936 106.31721596034902 l 36.74560094699214 11.590673031534216 a59.53028536462615,59.53028536462615 0 0,0 -0.31666638925918306,0.9745989329997251 l -36.54064230671671 -12.221470864511737" fill="#3cff2e" stroke="none" /><path d="M 119.79798401119884 107.00284435728193 l 16.83690229545564 5.955465271976395 a38.8591389913522,38.8591389913522 0 0,0 -0.22848385255513431,0.6286894323217551 l -16.73189418189528 -6.244402501304282" fill="#ffd313" stroke="none" /><path d="M 119.26925614724726 108.34839909993367 l 12.901276769926346 5.589474059144447 a35.06005556717646,35.06005556717646 0 0,0 -0.24468398634222283,0.5516977945158222 l -12.803151698852849 -5.810720190152957" fill="#ffa00e" stroke="none" /><path d="M 119.12269723197855 108.67885076344098 l 12.464357350797362 5.656958116183927 a34.68800128932765,34.68800128932765 0 0,0 -0.25144734701563454,0.5415952156655518 l -12.365135386941896 -5.870673399128309" fill="#ff9b0e" stroke="none" /><path d="M 118.81262510543309 109.33194174019688 l 11.13221279033634 5.522098091929297 a33.42657349981149,33.42657349981149 0 0,0 -0.26012452884886866,0.513250373439264 l -11.035509591701203 -5.712902677071255" fill="#ff8a0c" stroke="none" /><path d="M 118.64920377521936 109.65438752849418 l 18.704336450629746 9.682928812095891 a42.06208233861204,42.06208233861204 0 0,0 -0.33839444333078705,0.6401147595062431 l -18.534889499074065 -10.003458586688268" fill="#fffc17" stroke="none" /><line stroke="#e1ed5e" stroke-width="0.3" x1="174.80103733775053" x2="179.2010983576182" y1="140.37084112569926" y2="142.7455964860345" /><path d="M 175.68104954172406 140.8457921977663 a86.0,86.0 0 0,1 -30.038265399797805,32.042727171017184" fill="none" id="id17" stroke="none" /><text fill="#e1ed5e" style="font-size:6.75px; font-family:Arial;" text-anchor="middle"><textPath startOffset="22.206326154141568" xlink:href="#id17">May</textPath></text><path d="M 118.12598468904814 110.60418214915192 l 27.030503077356105 15.813561753071756 a52.31639877018384,52.31639877018384 0 0,0 -0.4614284555636092,0.7733806328397842 l -26.75429374609427 -16.276504479797644" fill="#89ff24" stroke="none" /><path d="M 117.55443506779139 111.5257021239791 l 13.798044039564644 9.059371314395483 a37.50630873120508,37.50630873120508 0 0,0 -0.35898340868947526,0.536631488482265 l -13.640057525464448 -9.295539717083555" fill="#ffc111" stroke="none" /><path d="M 117.35343817320211 111.8261652097733 l 33.5704146608832 22.877845068954596 a61.624728128354676,61.624728128354676 0 0,0 -0.6049174072742391,0.8714286420506798 l -33.171636346446824 -23.452314973192294" fill="#30ff39" stroke="none" /><path d="M 116.71984013943494 112.70617746262583 l 7.089564100515514 5.387686655050505 a29.90444196052328,29.90444196052328 0 0,0 -0.314983747455509,0.4071589538226967 l -6.995773535841937 -5.508923602986455" fill="#ff5908" stroke="none" /><path d="M 116.498646956653 112.99209946851258 l 11.809090451151814 9.299240002960275 a36.03098406346509,36.03098406346509 0 0,0 -0.3879028622755462,0.4839684634804351 l -11.647269676821413 -9.50113630001896" fill="#ffad10" stroke="none" /><path d="M 116.0416608686014 113.55231037782055 l 9.267412394647172 7.82929212880622 a33.13188970155297,33.13188970155297 0 0,0 -0.37179895144027303,0.4324861769166665 l -9.13127093363612 -7.987655404884414" fill="#ff860c" stroke="none" /><path d="M 115.07121518719521 114.62390073753431 l 11.550759270515664 11.207932135339073 a37.094650741031,37.094650741031 0 0,0 -0.448596872189307,0.45442626312368606 l -11.356121773270822 -11.405098892443423" fill="#ffbc11" stroke="none" /><path d="M 114.55890576462653 115.13401014063108 l 19.258879815787484 20.019642076225754 a48.77931821732015,48.77931821732015 0 0,0 -0.6101228056446512,0.5769091946824291 l -18.911421175752025 -20.348185907654106" fill="#b1ff20" stroke="none" /><path d="M 113.75828350139079 115.86535959552629 l 8.77581932434679 10.119832849210862 a34.394999877176026,34.394999877176026 0 0,0 -0.45063104282568306,0.38403755092773895 l -8.60032280494406 -10.269394790361547" fill="#ff970e" stroke="none" /><path d="M 113.20401910651253 116.32954008644616 l 9.022673466444092 11.158428874473783 a35.34988402143949,35.34988402143949 0 0,0 -0.47645332407519436,0.37852333620351597 l -8.829262649651545 -11.312086124682425" fill="#ffa40f" stroke="none" /><path d="M 112.92097659922987 116.55440617244103 l 16.656341141208408 21.340169953928907 a48.07095406288596,48.07095406288596 0 0,0 -0.6566750340262356,0.5035104140313613 l -16.286537378688678 -21.62371970978764" fill="#baff1f" stroke="none" /><path d="M 112.34349029814194 116.9893568818739 l 20.170031967452214 27.761667335326834 a55.31530799519942,55.31530799519942 0 0,0 -0.7751325473623473,0.5530364914974502 l -19.689172092240984 -28.104748088668504" fill="#68ff28" stroke="none" /><path d="M 111.7513745106137 117.40417183066458 l 9.869224227113014 14.616645408492083 a38.63655039520561,38.63655039520561 0 0,0 -0.5543890565468519,0.3674188367679792 l -9.616160471826198 -14.784362266351382" fill="#ffd013" stroke="none" /><path d="M 111.1453310114006 117.79835938074945 l 13.749040613019726 21.95631208447104 a46.905901994123944,46.905901994123944 0 0,0 -0.6879996885774654,0.4226256014812394 l -13.369061724509953 -22.189726152780658" fill="#c7ff1e" stroke="none" /><line stroke="#e1ed5e" stroke-width="0.3" x1="143.8653032363475" x2="146.44561519142675" y1="172.8068346515853" y2="177.08958963109032" /><path d="M 144.38136562736335 173.6633856474863 a86.0,86.0 0 0,1 -40.68145358897372,12.25698825130547" fill="none" id="id18" stroke="none" /><text fill="#e1ed5e" style="font-size:6.75px; font-family:Arial;" text-anchor="middle"><textPath startOffset="21.466115282336833" xlink:href="#id18">June</textPath></text><path d="M 110.5260780823613 118.17145234162733 l 11.866612706923997 20.485653400363724 a44.67442697038228,44.67442697038228 0 0,0 -0.6687362478680242,0.37972589448344307 l -11.512227692134774 -20.686882460641794" fill="#e2ff1b" stroke="none" /><path d="M 109.89434966115114 118.52300852407294 l 14.130580593710892 26.453569335142596 a50.99107598077394,50.99107598077394 0 0,0 -0.77775740602879,0.4068859157491612 l -13.673132285155607 -26.692884669836477" fill="#98ff23" stroke="none" /><path d="M 108.59647513512805 119.15986991738527 l 10.36414543749235 23.099662974161287 a46.31817410812501,46.31817410812501 0 0,0 -0.7302376111810821,0.32011470903656913 l -9.964987151653514 -23.274642236492312" fill="#ceff1d" stroke="none" /><path d="M 107.93186726928326 119.44442032107085 l 9.097262665969742 22.301305990497923 a45.085440350873085,45.085440350873085 0 0,0 -0.7211071043442798,0.2869433987731495 l -8.712034485583597 -22.45459623367714" fill="#ddff1b" stroke="none" /><path d="M 107.59598834532513 119.57807347666477 l 4.881941868018655 12.58282823191776 a34.49670043813154,34.49670043813154 0 0,0 -0.5554457954116357,0.2100220722172605 l -4.664625851846743 -12.664998554241652" fill="#ff990e" stroke="none" /><path d="M 106.57524785965236 119.94407469862006 l 8.534353519675848 25.88644378644689 a48.25698372725196,48.25698372725196 0 0,0 -0.7911356879803183,0.25329666404970697 l -8.08749648660459 -26.029513297156303" fill="#b7ff1f" stroke="none" /><path d="M 105.18746579009965 120.34920634021253 l 6.372249638824347 24.996834292239324 a46.79626504153593,46.79626504153593 0 0,0 -0.7822702442436804,0.19226299349461282 l -5.9410261098374555 -25.102818544047967" fill="#c9ff1d" stroke="none" /><path d="M 104.83641907484287 120.43548508189849 l 5.435394838013925 22.96635763104761 a44.600786001366295,44.600786001366295 0 0,0 -0.7486132565105962,0.1703819399062996 l -5.039261432110467 -23.056516304531595" fill="#e3ff1b" stroke="none" /><path d="M 104.13013068566511 120.58985236759428 l 3.8517978415800176 19.202285579779247 a40.584793031834636,40.584793031834636 0 0,0 -0.6861388515336153,0.13150014392064746 l -3.5206913754746982 -19.26574292204836" fill="#ffe915" stroke="none" /><path d="M 103.7750983002368 120.6578951692458 l 4.839564842637807 26.4828132230909 a47.92138154098363,47.92138154098363 0 0,0 -0.8127261583000781,0.14130286020261532 l -4.382989712865679 -26.562194661814523" fill="#bbff1f" stroke="none" /><path d="M 103.06178313531738 120.77559828337769 l 3.860006686335602 26.191909989127176 a47.474814456329916,47.474814456329916 0 0,0 -0.8094939855010419,0.11218849026444976 l -3.4085841096477294 -26.25447304488423" fill="#c1ff1e" stroke="none" /><path d="M 101.26447882468166 120.96189622390904 l 1.034879148152153 17.155707857198884 a38.18689288186889,38.18689288186889 0 0,0 -0.6564725695510018,0.033932133348893834 l -0.7394185101876718 -17.17097979730998" fill="#ffca12" stroke="none" /><line stroke="#e1ed5e" stroke-width="0.3" x1="102.19456741930631" x2="102.32365962044197" y1="184.97166512339345" y2="189.96999836594603" /><path d="M 102.22038585953345 185.97133177190398 a86.0,86.0 0 0,1 -42.740103519485714,-10.115201625700543" fill="none" id="id19" stroke="none" /><text fill="#e1ed5e" style="font-size:6.75px; font-family:Arial;" text-anchor="middle"><textPath startOffset="22.20632615414155" xlink:href="#id19">July</textPath></text><path d="M 100.54218724476979 120.99299961872073 l 0.9956419332537656 38.550354931446556 a59.563210034951176,59.563210034951176 0 0,0 -1.025168814572424,0.017649210846127097 l -0.3319134287886735 -38.561781619571846" fill="#3cff2e" stroke="none" /><path d="M 99.81925306533755 120.99922214144158 l -0.3247403382284417 37.72841024098811 a58.729807786411655,58.729807786411655 0 0,0 -1.010824758993554,-0.017402264921025354 l 0.9741247871146635 -37.71723049878793" fill="#45ff2d" stroke="none" /><path d="M 98.73552117531835 120.96189622390904 l -1.037403038264212 17.197547642553218 a38.228808722070355,38.228808722070355 0 0,0 -0.6565110493446576,-0.04527684571848413 l 1.3332768483877997 -17.17714245231845" fill="#ffca12" stroke="none" /><path d="M 98.37488393609728 120.93702456842531 l -2.267033632136597 29.207107053943766 a50.294957654002,50.294957654002 0 0,0 -0.8625721327636838,-0.0744263531290987 l 2.7694500826418222 -29.163756448536006" fill="#a0ff22" stroke="none" /><path d="M 98.01472825383883 120.90594882070398 l -0.9991501602562529 10.521573258122404 a31.568907458615417,31.568907458615417 0 0,0 -0.540530956328222,-0.05602824372115438 l 1.1801137131900683 -10.502815645945489" fill="#ff700a" stroke="none" /><path d="M 97.65516085044442 120.86867818915974 l -2.4449686814280116 21.75981435868035 a42.896743885276535,42.896743885276535 0 0,0 -0.7330697628958928,-0.08876453928280131 l 2.8191658673752937 -21.7145042906722" fill="#f8ff18" stroke="none" /><path d="M 96.93821686468263 120.77559828337769 l -3.4697658031466685 23.543947196020003 a44.798250446149694,44.798250446149694 0 0,0 -0.7619204015451627,-0.11899629703688115 l 3.8745220683003483 -23.480732591636016" fill="#e1ff1b" stroke="none" /><path d="M 96.58105272829116 120.7198165907248 l -4.445752437131279 26.94255505703872 a48.30688535395096,48.30688535395096 0 0,0 -0.819264138275781,-0.1424395718256872 l 4.9088655468791105 -26.86203690669203" fill="#b7ff1f" stroke="none" /><path d="M 95.86986931433489 120.58985236759428 l -8.898160470727973 44.359809502238164 a66.24345211008644,66.24345211008644 0 0,0 -1.1160713800448614,-0.23388360904717595 l 9.660423312202221 -44.20006991246444" fill="#36ff71" stroke="none" /><path d="M 95.16358092515715 120.4354850818985 l -3.731732612445947 15.76781601245983 a37.20339008027571,37.20339008027571 0 0,0 -0.6219108516237054,-0.15285055631326136 l 4.002596748812863 -15.70124419783254" fill="#ffbd11" stroke="none" /><path d="M 94.81253420990036 120.34920634021253 l -7.954036994495168 31.201813484259556 a53.199687408674,53.199687408674 0 0,0 -0.8854190089891829,-0.23384720772218737 l 8.489946446295841 -31.060274927233785" fill="#7fff26" stroke="none" /><path d="M 94.11515582081647 120.15858648285463 l -6.8042439194926665 23.307998534051386 a45.28086759115692,45.28086759115692 0 0,0 -0.746325783445573,-0.22486183634839582 l 7.204444677378485 -23.187421328597264" fill="#dbff1b" stroke="none" /><path d="M 93.76903079525671 120.05430185196036 l -10.37354348015128 33.387128934456015 a55.96156150432328,55.96156150432328 0 0,0 -0.9174462438723348,-0.29373731529044306 l 10.946711069114556 -33.20361877250587" fill="#61ff29" stroke="none" /><path d="M 93.08242187328487 119.8279376855182 l -8.03422046284396 23.028583092364894 a45.389840870484065,45.389840870484065 0 0,0 -0.7354892854454813,-0.26372029030537064 l 8.429429308919168 -22.886875261019565" fill="#d9ff1c" stroke="none" /><path d="M 92.7421414339146 119.70592522655815 l -4.488727652628957 12.18741460441533 a33.98775387352994,33.98775387352994 0 0,0 -0.5472510340052626,-0.20692351465123132 l 4.697848907394502 -12.108342839657466" fill="#ff920d" stroke="none" /><path d="M 92.06813273071674 119.44442032107085 l -7.099301981845687 17.403444489773037 a39.795743367530044,39.795743367530044 0 0,0 -0.6320483906469448,-0.26419627855106614 l 7.397821831990094 -17.278663168201998" fill="#ffdf14" stroke="none" /><path d="M 91.40352486487194 119.15986991738527 l -9.977545604034624 22.238007190517518 a45.373764175565896,45.373764175565896 0 0,0 -0.7098444611511965,-0.32585477644228167 l 10.35885806095324 -22.062965343741162" fill="#daff1c" stroke="none" /><path d="M 91.07499286063937 119.00905698771935 l -8.571527465892554 18.256193135395698 a41.16828378656497,41.16828378656497 0 0,0 -0.6388677222005976,-0.30669533058383297 l 8.884507856093395 -18.105943528312302" fill="#fff016" stroke="none" /><path d="M 90.42595943632237 118.69057910512821 l -13.33630835961466 26.03533217849791 a50.252275848341384,50.252275848341384 0 0,0 -0.7664886249034195,-0.40099062205985436 l 13.782487887044576 -25.80191213749334" fill="#a0ff22" stroke="none" /><line stroke="#e1ed5e" stroke-width="0.3" x1="58.666819895761336" x2="56.23545636021788" y1="174.27360380694188" y2="178.64263932499728" /><path d="M 58.180547188652646 175.14741091055294 a86.0,86.0 0 0,1 -31.652253787137756,-30.449443065178592" fill="none" id="id20" stroke="none" /><text fill="#e1ed5e" style="font-size:6.75px; font-family:Arial;" text-anchor="middle"><textPath startOffset="22.20632615414155" xlink:href="#id20">August</textPath></text><path d="M 89.7882731507175 118.34994917583269 l -21.64990806586613 38.90377391929628 a65.52215341180357,65.52215341180357 0 0,0 -0.9808080818561086,-0.5569284263964436 l 22.316364914643447 -38.5253423271052" fill="#35ff69" stroke="none" /><path d="M 89.4739219176387 118.17145234162733 l -1.4229905643366223 2.4565469703059333 a23.838930285073996,23.838930285073996 0 0,0 -0.35330671547759795,-0.20873983503853236 l 1.4650651508426025 -2.4316885629736515" fill="#ff0000" stroke="none" /><path d="M 89.1626897886671 117.98757091392108 l -17.999792495449256 29.87572909089371 a55.87910145906434,55.87910145906434 0 0,0 -0.8196155018326043,-0.5034747837772465 l 18.51138719721417 -29.561465840288083" fill="#62ff29" stroke="none" /><path d="M 88.24862548938628 117.40417183066458 l -15.194871099317952 22.50410344070617 a48.153614481223144,48.153614481223144 0 0,0 -0.6829629787502765,-0.4697481643733623 l 15.579990962691118 -22.239214486967708" fill="#b9ff1f" stroke="none" /><path d="M 87.65650970185807 116.9893568818739 l -17.32304140980284 23.843121004026106 a50.4717183567293,50.4717183567293 0 0,0 -0.6984685677746084,-0.5167103484145376 l 17.73089494799601 -23.5414007068718" fill="#9eff22" stroke="none" /><path d="M 87.07902340077011 116.55440617244103 l -11.328230393951669 14.513773453288735 a39.41136669864134,39.41136669864134 0 0,0 -0.5311948593247172,-0.4220133225348578 l 11.576382745993746 -14.316626216748746" fill="#ffda14" stroke="none" /><path d="M 86.79598089348748 116.32954008644616 l -18.66339437781369 23.081203093029888 a50.682726052765105,50.682726052765105 0 0,0 -0.673669657529194,-0.5543842649497371 l 19.057934163887573 -22.75652370922297" fill="#9bff22" stroke="none" /><path d="M 86.24171649860922 115.8653595955263 l -11.217925927845396 12.935947187252983 a38.12251709749546,38.12251709749546 0 0,0 -0.4920666564631191,-0.4341916127195794 l 11.438934937215103 -12.740932432761115" fill="#ffc912" stroke="none" /><path d="M 85.97065885151581 115.62618273729859 l -17.821037636551505 19.84945605996027 a47.67564972628931,47.67564972628931 0 0,0 -0.6059358281622402,-0.5535080124263839 l 18.1600730141806 -19.53975528094731" fill="#beff1f" stroke="none" /><path d="M 85.18274418774928 114.88116024355367 l -7.036465200041762 7.066812338046883 a30.972546271267454,30.972546271267454 0 0,0 -0.37456040435665033,-0.3794277120908225 l 7.157066229453945 -6.944644131975395" fill="#ff6809" stroke="none" /><path d="M 84.9287848128048 114.62390073753433 l -20.74495025408945 20.129239052909455 a49.905695388518524,49.905695388518524 0 0,0 -0.592911621348226,-0.6216654645541898 l 21.088368426816633 -19.769166471772767" fill="#a4ff21" stroke="none" /><path d="M 84.43433777217949 114.09645910891817 l -25.32794324920626 22.937303347576737 a55.170522297643735,55.170522297643735 0 0,0 -0.6314165140246523,-0.7094031471072103 l 25.71901861287925 -22.49792603072866" fill="#6aff28" stroke="none" /><path d="M 83.95833913139862 113.55231037782056 l -7.959773034395466 6.724572697474 a31.420070283961714,31.420070283961714 0 0,0 -0.34547713867585667,-0.4161494690561134 l 8.074346172964859 -6.586561971304126" fill="#ff6e0a" stroke="none" /><path d="M 83.72743513129214 113.27417163493432 l -6.668311269702104 5.439603960615297 a29.60556020477329,29.60556020477329 0 0,0 -0.31872794599431736,-0.3976621192899841 l 6.760957127751283 -5.324014007747053" fill="#ff5507" stroke="none" /><path d="M 83.50135304334701 112.99209946851258 l -14.68850452663824 11.56667648899708 a39.695993427207604,39.695993427207604 0 0,0 -0.41811824427879457,-0.5404741936368731 l 14.885429588135104 -11.312124301246955" fill="#ffde14" stroke="none" /><path d="M 83.06392112726016 112.41649034213515 l -26.662349934287043 19.547193476440544 a54.060152401702204,54.060152401702204 0 0,0 -0.5437426959282782,-0.7552110475642556 l 26.99487242259093 -19.08534882342515" fill="#76ff27" stroke="none" /><path d="M 82.85270091963577 112.12312394758628 l -15.04477750631262 10.636643218158166 a39.42507826753635,39.42507826753635 0 0,0 -0.3870023747205626,-0.5575057847859921 l 15.225640788195316 -10.376096171185162" fill="#ffda14" stroke="none" /><path d="M 82.44556493220864 111.52570212397912 l -16.049609483784316 10.53767993113561 a40.19980892907629,40.19980892907629 0 0,0 -0.37480605149929297,-0.5817073152776753 l 16.228620398660656 -10.259851015936487" fill="#ffe415" stroke="none" /><path d="M 82.05923443525364 110.91462005526583 l -12.315807087574528 7.492565161152663 a35.41588141295806,35.41588141295806 0 0,0 -0.312366597223017,-0.5235443842388807 l 12.442954560495776 -7.279458683027671" fill="#ffa50f" stroke="none" /><line stroke="#e1ed5e" stroke-width="0.3" x1="26.63291911575756" x2="22.317208475507996" y1="142.92168965132927" y2="145.44649492493687" /><path d="M 25.769776987707644 143.4266507060508 a86.0,86.0 0 0,1 -11.730757126820373,-40.83630448921669" fill="none" id="id21" stroke="none" /><text fill="#e1ed5e" style="font-size:6.75px; font-family:Arial;" text-anchor="middle"><textPath startOffset="21.46611528233685" xlink:href="#id21">September</textPath></text><path d="M 81.69416730710424 110.29060199501025 l -11.018322540964574 6.19393686285135 a33.63994800138501,33.63994800138501 0 0,0 -0.27940954839361204,-0.50720949032394 l 11.123308498809703 -6.003356854129588" fill="#ff8d0d" stroke="none" /><path d="M 81.51974371655577 109.97397251340807 l -13.604916168820857 7.342704442719461 a36.459917609540334,36.459917609540334 0 0,0 -0.29332436335519746,-0.5548591532955253 l 13.72929304040094 -7.107430274337809" fill="#ffb310" stroke="none" /><path d="M 81.18737489456691 109.33194174019688 l -7.693658923375463 3.8164145853919544 a29.588213313421328,29.588213313421328 0 0,0 -0.22240014829107488,-0.4582101782276005 l 7.758212328281258 -3.6834154511990693" fill="#ff5407" stroke="none" /><path d="M 79.76711848015287 105.62410040840567 l -9.05253909426048 2.5163192285388014 a30.395761092802886,30.395761092802886 0 0,0 -0.1357849913891273,-0.5053064662156036 l 9.094512161991382 -2.360121829147659" fill="#ff6008" stroke="none" /><path d="M 79.35854240842038 103.8639653848113 l -13.090955604886709 2.4505536533436594 a34.318345687698255,34.318345687698255 0 0,0 -0.10369624413895312,-0.5815836064813088 l 13.131198291364852 -2.224851296129137" fill="#ff960d" stroke="none" /><path d="M 79.23777060512086 103.15116336523772 l -16.598401555257947 2.519203208270792 a37.78848769228936,37.78848769228936 0 0,0 -0.09207065873445493,-0.6439419727475547 l 16.639306265009 -2.2331157635428367" fill="#ffc512" stroke="none" /><path d="M 79.1416061653843 102.43462659150553 l -31.557972850893233 3.6834993377719916 a52.7722177039797,52.7722177039797 0 0,0 -0.09754743028352077,-0.9031680545289201 l 31.616702582677807 -3.1397349613582892" fill="#84ff25" stroke="none" /><path d="M 79.07016306316243 101.71520430193888 l -34.005421726244684 2.786751077426868 a55.119418054053824,55.119418054053824 0 0,0 -0.0693545099717746,-0.9462871861500881 l 34.0483527948808 -2.2009907547800194" fill="#6aff28" stroke="none" /><path d="M 79.0235259727143 100.99374915477108 l -13.067701027436206 0.6190752952056663 a34.08235698808098,34.08235698808098 0 0,0 -0.022718109773195404,-0.5862534675945884 l 13.076421270060603 -0.39404458059708103" fill="#ff930d" stroke="none" /><line stroke="#e1ed5e" stroke-width="0.3" x1="15.007084014347285" x2="10.007500721073583" y1="101.09737516637583" y2="101.16192664675087" /><path d="M 14.007167355692545 101.11028546245083 a86.0,86.0 0 0,1 10.666146001902534,-42.60595125391555" fill="none" id="id22" stroke="none" /><text fill="#e1ed5e" style="font-size:6.75px; font-family:Arial;" text-anchor="middle"><textPath startOffset="22.20632615414155" xlink:href="#id22">October</textPath></text><path d="M 79.00175016825051 100.2711162175752 l -30.550245098241227 0.39444558300792953 a51.55279140897876,51.55279140897876 0 0,0 -0.0038190865394587634,-0.8874212126899436 l 30.552508482070188 0.13148510788568932" fill="#92ff23" stroke="none" /><path d="M 79.00486145842228 99.54816195383935 l -9.386264555165809 -0.20200254592053596 a30.388437959965458,30.388437959965458 0 0,0 0.015756123691608472,-0.5228690384790011 l 9.381396737018555 0.3635417318245314" fill="#ff6008" stroke="none" /><path d="M 79.01574976396665 99.18683210126434 l -14.483280088760258 -0.5612465684551129 a35.49415053875466,35.49415053875466 0 0,0 0.028913183073100316,-0.6103115971140594 l 14.47147329745366 0.8104692721921813" fill="#ffa60f" stroke="none" /><path d="M 79.05617556472873 98.46500227214037 l -23.548081639934992 -1.7258668264942025 a44.61124234816619,44.61124234816619 0 0,0 0.06272237894205324,-0.765371893053108 l 23.514884777173442 2.130952636755089" fill="#e3ff1b" stroke="none" /><path d="M 79.12142395522702 97.74499172005258 l -27.95294041321252 -3.019080992185383 a49.115506891784555,49.115506891784555 0 0,0 0.0980196931373565,-0.839772871183031 l 27.896830367071576 3.4997976016932757" fill="#adff20" stroke="none" /><path d="M 79.16333360222342 97.38593545837743 l -14.856713609234701 -1.8638494041967248 a35.97317180387456,35.97317180387456 0 0,0 0.08236828699572422,-0.6137394111945249 l 14.822429323181144 2.1193071574559093" fill="#ffad10" stroke="none" /><path d="M 79.26566170972629 96.67025291283419 l -20.377000260625824 -3.272361833453047 a41.638083525138306,41.638083525138306 0 0,0 0.11973554066421772,-0.7066859388405657 l 20.317652858441384 3.6226335606094406" fill="#fff617" stroke="none" /><path d="M 79.3925641242962 95.95851677861259 l -15.838005553530632 -3.1061134481219677 a37.13971377274923,37.13971377274923 0 0,0 0.12843391255679154,-0.626289370002565 l 15.782192345058846 3.378278474287935" fill="#ffbc11" stroke="none" /><path d="M 79.46518482838121 95.60439243477599 l -15.117091865078566 -3.235909493754035 a36.459546458709326,36.459546458709326 0 0,0 0.13664623588859082,-0.6125582818542917 l 15.059151242187937 3.495645945158286" fill="#ffb310" stroke="none" /><path d="M 79.62865764111835 94.90015583598534 l -33.99761393579714 -8.511100052535598 a56.046776990641796,56.046776990641796 0 0,0 0.2423453779808158,-0.9338556002614885 l 33.84607222594602 9.09505207834595" fill="#61ff29" stroke="none" /><path d="M 79.81627453868168 94.20196356495316 l -19.638552505157943 -5.641428445640832 a41.43277904263468,41.43277904263468 0 0,0 0.20281168342173814,-0.6837801734095732 l 19.5385349246245 5.978638005796944" fill="#fff417" stroke="none" /><path d="M 80.02781315780177 93.51064311812611 l -10.86329052969875 -3.529697058999523 a32.42233962290355,32.42233962290355 0 0,0 0.17703015254346732,-0.5292976232818415 l 10.800923083383509 3.716167785203687" fill="#ff7c0b" stroke="none" /><path d="M 80.14247586403 93.16781622104843 l -12.2782350411159 -4.224452036803182 a33.98464673127987,33.98464673127987 0 0,0 0.19508306967727448,-0.5515261081463473 l 12.203698890628816 4.435175771376141" fill="#ff920d" stroke="none" /><path d="M 80.38941819471856 92.48833698450439 l -33.7848625164882 -12.9409981186974 a57.1785346243617,57.1785346243617 0 0,0 0.35997005169779395,-0.9160845177604068 l 33.55709891490871 13.520631641353571" fill="#55ff2b" stroke="none" /><path d="M 80.52162464483688 92.15188598940014 l -23.02353870485829 -9.276510663159108 a45.82210677154162,45.82210677154162 0 0,0 0.30106938074560746,-0.7290633860845513 l 22.860447637226482 9.671448619696971" fill="#d4ff1c" stroke="none" /><path d="M 80.803312248108 91.48605970444005 l -22.354247696877554 -9.914352554107458 a45.454177080010126,45.454177080010126 0 0,0 0.32336898762338284,-0.7125007000445007 l 22.18027639229082 10.297675262994028" fill="#d9ff1c" stroke="none" /><path d="M 81.10775173730289 90.83032412892265 l -21.679258324479022 -10.522398880039267 a45.097948453968954,45.097948453968954 0 0,0 0.3449778026415824,-0.695454199294568 l 21.49492050888403 10.894012667832797" fill="#ddff1b" stroke="none" /><path d="M 81.26839172434947 90.50648371742162 l -26.241956691729783 -13.299896061968093 a50.41984918842678,50.41984918842678 0 0,0 0.39901444364791483,-0.7707689013811944 l 26.009132814921752 13.749637685609622" fill="#9eff22" stroke="none" /><path d="M 81.6062741919709 89.86733742301443 l -34.45019455739848 -18.977786273689524 a60.331568451975656,60.331568451975656 0 0,0 0.508917920957626,-0.9053081947959929 l 34.118418995148424 19.567977978420302" fill="#34ff2f" stroke="none" /><line stroke="#e1ed5e" stroke-width="0.3" x1="26.266209847984243" x2="21.928928074336255" y1="57.711370442889674" y2="55.22380399835377" /><path d="M 25.398753493254645 57.213857153982495 a86.0,86.0 0 0,1 29.58750427330803,-30.492523968695096" fill="none" id="id23" stroke="none" /><text fill="#e1ed5e" style="font-size:6.75px; font-family:Arial;" text-anchor="middle"><textPath startOffset="21.46611528233685" xlink:href="#id23">November</textPath></text><path d="M 81.96595687620814 89.24020034530311 l -20.760885799796906 -12.386738255336253 a45.1753110382973,45.1753110382973 0 0,0 0.40417748817154003,-0.664361519239066 l 20.54459251333915 12.742267547782394" fill="#dcff1b" stroke="none" /><path d="M 82.34701348167596 88.62581576622439 l -13.624085896305017 -8.778280255326967 a37.20721816817928,37.20721816817928 0 0,0 0.35152558445422327,-0.5353975819078923 l 13.470963676492874 9.011495901212527" fill="#ffbd11" stroke="none" /><path d="M 82.7489923806493 88.02491185347247 l -25.35979085426351 -17.603941610729994 a51.8709856079455,51.8709856079455 0 0,0 0.5154676235577563,-0.7290923977684203 l 25.05301061090188 18.0378605088302" fill="#8eff24" stroke="none" /><path d="M 83.17141714833178 87.43820079747576 l -25.23993347024004 -18.84050362011297 a52.49633023451515,52.49633023451515 0 0,0 0.5467719272490007,-0.7194877643747913 l 24.91188560276693 19.272176160368787" fill="#87ff25" stroke="none" /><path d="M 83.84228863543731 86.58626213691792 l -44.39549124913879 -36.856053959769426 a78.70033237978612,78.70033237978612 0 0,0 0.874283440916177,-1.0348758308519923 l 43.75449719473549 37.61478874025053" fill="#46fff9" stroke="none" /><path d="M 84.31358615837235 86.03803664274999 l -5.562668189198888 -4.951148822813183 a28.446955891420977,28.446955891420977 0 0,0 0.32870641676991263,-0.3629658353224825 l 5.47661813181293 5.046167445405221" fill="#ff4406" stroke="none" /><path d="M 85.05521093208273 85.24692304244772 l -27.51653771855381 -27.163554916856974 a59.66546991486977,59.66546991486977 0 0,0 0.7278170170658981,-0.7246915394951309 l 27.0448849013206 27.633182307002212" fill="#3bff2e" stroke="none" /><path d="M 85.31137513191541 84.99185889309783 l -17.203151022634213 -17.577364821402146 a45.59496206893245,45.59496206893245 0 0,0 0.5656310298006039,-0.5441366025192975 l 16.89803674922118 17.870884510683755" fill="#d7ff1c" stroke="none" /><path d="M 85.57189188830299 84.74124197986013 l -19.815390161039282 -20.95619475548799 a49.84114744361179,49.84114744361179 0 0,0 0.6284544240803125,-0.5840798957452461 l 19.451727853164115 21.294179237307883" fill="#a5ff21" stroke="none" /><path d="M 85.83668400450813 84.49514656593479 l -14.460904762076908 -15.830629559585107 a42.441235943636,42.441235943636 0 0,0 0.5436298162707147,-0.4880762166402385 l 14.186263958210223 16.077204784994624" fill="#feff18" stroke="none" /><path d="M 86.10567301691215 84.25364557470407 l -26.737372807733085 -30.301298446790224 a61.41108501662825,61.41108501662825 0 0,0 0.7986546738033993,-0.6925854630484622 l 26.211824335282913 30.757048903258365" fill="#30ff37" stroke="none" /><path d="M 86.65592168130627 83.78471172551755 l -16.788949174189405 -20.401382859371957 a47.421302711035864,47.421302711035864 0 0,0 0.6347603346531534,-0.5132653793338204 l 16.43528544097175 20.687354335969914" fill="#c1ff1e" stroke="none" /><path d="M 86.93701828274178 83.55741782278169 l -14.476500202147182 -18.22180030290072 a44.272366969897156,44.272366969897156 0 0,0 0.6007706329740873,-0.46891100830215043 l 14.16069701401367 18.46828970042609" fill="#e7ff1a" stroke="none" /><path d="M 87.22198572758235 83.33499621200491 l -20.49618016706772 -26.73098596085596 a54.68440309520682,54.68440309520682 0 0,0 0.751920558246075,-0.5663309755229616 l 20.033013455063255 27.079833525884776" fill="#6fff27" stroke="none" /><path d="M 88.70189139769569 82.29822771554957 l -13.897639875000735 -21.774693890655765 a46.83179606854645,46.83179606854645 0 0,0 0.6832554940672169,-0.42785452770291366 l 13.520765228561276 22.010692759681607" fill="#c8ff1d" stroke="none" /><path d="M 89.00827224532344 82.1063720568725 l -22.51138476738851 -36.64668125908208 a64.00862345449072,64.00862345449072 0 0,0 0.9437856147952869,-0.5686202728248472 l 21.877237086375573 37.02874814136555" fill="#33ff56" stroke="none" /><line stroke="#e1ed5e" stroke-width="0.3" x1="56.762969772571076" x2="54.21961505331055" y1="26.818313649435495" y2="22.513508569990535" /><path d="M 56.25429882871897 25.957352633546506 a86.0,86.0 0 0,1 42.265352541879196,-11.944610805530505" fill="none" id="id24" stroke="none" /><text fill="#e1ed5e" style="font-size:6.75px; font-family:Arial;" text-anchor="middle"><textPath startOffset="22.20632615414155" xlink:href="#id24">December</textPath></text><path d="M 89.3179101791058 81.91981866633112 l -13.431789426566391 -22.734239511164077 a47.40565495022978,47.40565495022978 0 0,0 0.7061258937168308,-0.4090336949135031 l 13.03846680038424 22.96207736346763" fill="#c1ff1e" stroke="none" /><path d="M 89.94658935756843 81.56283822128135 l -29.630380141027057 -54.339778972056095 a82.89322261793839,82.89322261793839 0 0,0 1.258614982902932,-0.6723085352695835 l 28.69062011159582 54.84176623382743" fill="#4cdcff" stroke="none" /><path d="M 90.58718382345135 81.22770947309562 l -12.618629416785197 -25.1657498691417 a49.15217176052963,49.15217176052963 0 0,0 0.7595853345300286,-0.37272522481099474 l 12.183572815244741 25.379230254087524" fill="#adff20" stroke="none" /><path d="M 91.23893434514133 80.91482961587045 l -18.32123347322961 -39.91111084644021 a64.91542286005483,64.91542286005483 0 0,0 1.019536535549372,-0.45743632472431794 l 17.631514819213468 40.22056750168106" fill="#35ff61" stroke="none" /><path d="M 91.90106846888425 80.62456947434976 l -8.998266872322674 -21.526950063242374 a44.33191774653062,44.33191774653062 0 0,0 0.706600379135473,-0.2882400363282785 l 8.62638262359882 21.67865098575423" fill="#e6ff1a" stroke="none" /><path d="M 92.57280143429618 80.3572730644239 l -9.257290877220195 -24.48277574051971 a47.174486477217556,47.174486477217556 0 0,0 0.7620199802702434,-0.28065838968468554 l 8.834488571177381 24.638497398010717" fill="#c4ff1e" stroke="none" /><path d="M 93.25333710446033 80.11325718540243 l -7.381776780164569 -21.75883079010107 a43.97688720833236,43.97688720833236 0 0,0 0.7189533715680265,-0.23702762294204174 l 7.006140586354133 21.882672137302347" fill="#ebff1a" stroke="none" /><path d="M 93.59665428221793 80.00007090966166 l -12.774397009480758 -39.89899118705373 a62.894089281191235,62.894089281191235 0 0,0 1.033902837614504,-0.32123864442795175 l 12.085708799155526 40.112969966364204" fill="#32ff49" stroke="none" /><path d="M 93.94186890950719 79.89281104454417 l -9.224228627909289 -30.615598312285687 a52.97500983266732,52.97500983266732 0 0,0 0.8753736489587381,-0.2555455724570267 l 8.69586476122713 30.769842213661416" fill="#82ff25" stroke="none" /><path d="M 94.63758080256005 79.69619591428918 l -14.048105056365278 -53.190540004051655 a76.01438722368263,76.01438722368263 0 0,0 1.267960198881551,-0.3232312870064145 l 13.130435968798729 53.42447428722693" fill="#43ffdd" stroke="none" /><path d="M 96.04723909329186 79.375362276772 l -6.456732602283008 -33.6898117393962 a55.30295630019871,55.30295630019871 0 0,0 0.936476241799245,-0.17113504738331828 l 5.87586123938087 33.79596226813025" fill="#68ff28" stroke="none" /><path d="M 96.75951476605007 79.25152402106235 l -2.382937800101313 -15.257692640196959 a36.44265447589475,36.44265447589475 0 0,0 0.6206201750524145,-0.09146328108074316 l 2.1199486446202496 15.296450405438671" fill="#ffb310" stroke="none" /><path d="M 98.55514903715128 79.0497635885617 l -4.334552888546145 -62.8507092343149 a84.0,84.0 0 0,0 1.4433518046415081,-0.08706692247877434 l 3.2520390350650135 62.91600942617398" fill="#4dd2ff" stroke="none" /></svg>