<?xml version="1.0" encoding="utf-8" ?>
<svg baseProfile="full" height="200mm" version="1.1" viewBox="0,0,200,200" width="200mm" xmlns="http://www.w3.org/2000/svg" xmlns:ev="http://www.w3.org/2001/xml-events" xmlns:xlink="http://www.w3.org/1999/xlink"><defs /><rect fill="#1a1a1a" height="200" width="200" x="0" y="0" /><text alignment-baseline="middle" fill="#e1ed5e" style="dominant-baseline: central; font-size:9.0px; font-family:Arial;" text-anchor="middle" x="100.0" y="100.0">2022</text><line stroke="#e1ed5e" stroke-width="0.3" x1="100.0" x2="100.0" y1="15.0" y2="10.0" /><path d="M 100.0 14.0 a86.0,86.0 0 0,1 42.46469731375804,11.215312516191453" fill="none" id="id13" stroke="none" /><text fill="#e1ed5e" style="font-size:6.75px; font-family:Arial;" text-anchor="middle"><textPath startOffset="22.20632615414155" xlink:href="#id13">January</textPath></text><path d="M 100.0 79.0 l 0.0 -12.653930027495967 a33.65393002749597,33.65393002749597 0 0,0 0.5792970836068274,0.004986192889220376 l -0.21781660433429906 12.652055211215306" fill="#ff9d0e" stroke="none" /><path d="M 100.36148047927253 79.00311137660856 l 0.12652722568855976 -7.349437156208016 a28.35052621598559,28.35052621598559 0 0,0 0.48786309774603925,0.012600064478441697 l -0.2530169586294668 7.346170299587215" fill="#ff5507" stroke="none" /><path d="M 101.44485096284872 79.0497635885617 l 0.3159908175870839 -4.581844427220856 a25.592727789892862,25.592727789892862 0 0,0 0.43923191316459215,0.0340928499906786 l -0.39481292011401725 4.575726315041714" fill="#ff2e04" stroke="none" /><path d="M 101.80526077348638 79.07773832637324 l 0.6385252029478454 -7.400255728971711 a28.42775196738409,28.42775196738409 0 0,0 0.4871635060177338,0.04626204495918679 l -0.7658138360558234 7.388168139497346" fill="#ff5608" stroke="none" /><path d="M 102.16513564639614 79.11191278185805 l 1.2042135540253989 -11.617617486285248 a32.679861572011,32.679861572011 0 0,0 0.5590330667313982,0.06281387871747506 l -1.4040133242665223 11.595167654097173" fill="#ff900d" stroke="none" /><path d="M 102.52436894288641 79.15227682838746 l 0.8267138182229068 -6.827488855393327 a27.87735849056604,27.87735849056604 0 0,0 0.47588678223688896,0.06178376237644926 l -0.9441153289676418 6.812246769852741" fill="#ff4e07" stroke="none" /><path d="M 102.88285421437855 79.19881850522331 l 1.507925376529061 -10.880407785213647 a31.984403147814543,31.984403147814543 0 0,0 0.5446959384825631,0.08027402222424257 l -1.69499029544028 10.852839278828435" fill="#ff870c" stroke="none" /><path d="M 103.2404852339499 79.25152402106235 l 1.0620271297629502 -6.800044684668149 a27.882478429885275,27.882478429885275 0 0,0 0.4735650341144224,0.07814228829066927 l -1.178921370016248 6.780756133437855" fill="#ff4e07" stroke="none" /><path d="M 103.95276090670814 79.375362276772 l 2.585498291000766 -13.490561874212915 a34.73608609083151,34.73608609083151 0 0,0 0.5862683673444028,0.11759991916283953 l -2.817333067812294 13.444057998972868" fill="#ffab0f" stroke="none" /><path d="M 104.307194497241 79.44645832069477 l 2.0075426979176227 -9.579811764030016 a30.787901773016024,30.787901773016024 0 0,0 0.5177605485327194,0.11316240184890725 l -2.17214597060387 9.543835864085237" fill="#ff770a" stroke="none" /><path d="M 105.36241919743992 79.69619591428918 l 1.2805191787897159 -4.84844798156662 a26.014696122120036,26.014696122120036 0 0,0 0.4319704499517619,0.11807384175009836 l -1.3637875179651886 4.825687598990228" fill="#ff3404" stroke="none" /><path d="M 106.0581310904928 79.89281104454417 l 2.741745575947603 -9.099967554330217 a30.504029581871624,30.504029581871624 0 0,0 0.5014493906155733,0.1558027665948168 l -2.8979803392738943 9.05142465285288" fill="#ff730a" stroke="none" /><path d="M 106.40334571778207 80.00007090966166 l 2.1686933048027437 -6.773601524324658 a28.11230681710439,28.11230681710439 0 0,0 0.4595922779382632,0.15152034814808243 l -2.2849684049834247 6.7352674519173386" fill="#ff5207" stroke="none" /><path d="M 106.74666289553966 80.11325718540242 l 1.8795508869883055 -5.540241994482427 a26.850383995448944,26.850383995448944 0 0,0 0.4364056788313421,0.1522533722941274 l -1.9746385698829212 5.507067769016092" fill="#ff4006" stroke="none" /><path d="M 107.4271985657038 80.35727306442388 l 2.4849712900179135 -6.5720085521832 a28.026121171897223,28.026121171897223 0 0,0 0.44977498355660117,0.17450570594634193 l -2.5977294385741816 6.528260142346311" fill="#ff5007" stroke="none" /><path d="M 107.76421540070413 80.48803036053334 l 3.4093917184727918 -8.568019338291043 a30.22143737555703,30.22143737555703 0 0,0 0.4816953606582537,0.19649563226271485 l -3.556370948719433 8.50806281984475" fill="#ff6f0a" stroke="none" /><path d="M 108.09893153111575 80.62456947434976 l 8.252948243649936 -19.74389148893043 a42.39935526690054,42.39935526690054 0 0,0 0.6709521149718949,0.2872666800689495 l -8.591584116412147 19.598905280898688" fill="#f2ff19" stroke="none" /><path d="M 108.43124777332544 80.76684994638697 l 9.106681748529395 -20.77393302496703 a43.68232672797952,43.68232672797952 0 0,0 0.6860577362792453,0.3078141081654906 l -9.46292160327542 20.614098586285007" fill="#e3ff1b" stroke="none" /><path d="M 108.76106565485865 80.91482961587045 l 9.081288543826892 -19.782746299847958 a42.76756423627572,42.76756423627572 0 0,0 0.6664037556073087,0.312885498756429 l -9.420470510733798 19.623495818451527" fill="#eeff19" stroke="none" /><path d="M 109.08828744355905 81.06846463323043 l 3.1845135654167187 -6.633563425898294 a28.35834834550109,28.35834834550109 0 0,0 0.4382428027734422,0.21504384005333207 l -3.2982276352005924 6.5777644257101295" fill="#ff5507" stroke="none" /><path d="M 109.41281617654863 81.2277094730956 l 12.912039419197901 -25.750907138282283 a49.806769697544325,49.806769697544325 0 0,0 0.7630859903460503,0.39088228267591196 l -13.353385897132707 25.524832330293872" fill="#9cff22" stroke="none" /><path d="M 110.05341064243156 81.56283822128135 l 6.401357293142076 -11.739584128684859 a34.37143263487248,34.37143263487248 0 0,0 0.5170051234971202,0.28771279147657697 l -6.602486505711231 11.627655939648102" fill="#ffa60f" stroke="none" /><line stroke="#e1ed5e" stroke-width="0.3" x1="143.23703022742887" x2="145.7803849466894" y1="26.81831364943548" y2="22.513508569990506" /><path d="M 143.74570117128098 25.957352633546492 a86.0,86.0 0 0,1 28.547481713284135,27.462654790039103" fill="none" id="id14" stroke="none" /><text fill="#e1ed5e" style="font-size:6.75px; font-family:Arial;" text-anchor="middle"><textPath startOffset="19.985693538727396" xlink:href="#id14">February</textPath></text><path d="M 110.68208982089419 81.91981866633111 l 3.6508124369246864 -6.179254432564439 a28.177159381814732,28.177159381814732 0 0,0 0.4154627338495916,0.2503116485001212 l -3.7566372369919154 6.115496174605703" fill="#ff5307" stroke="none" /><path d="M 111.2981086023043 82.29822771554956 l 5.322792702862684 -8.33970248119164 a30.893571631743626,30.893571631743626 0 0,0 0.4457986140816029,0.289959819293874 l -5.465558342728568 8.246843737738237" fill="#ff780b" stroke="none" /><path d="M 111.90073688211348 82.69761687909136 l 7.466229818556026 -10.855089904858618 a34.17488385322841,34.17488385322841 0 0,0 0.4818151865374487,0.3375423289496004 l -7.651976144677126 10.724962733145082" fill="#ffa40f" stroke="none" /><path d="M 112.19680574252982 82.90503203632743 l 3.4611775469225137 -4.851165176379256 a26.95932492651939,26.95932492651939 0 0,0 0.37544670679526887,0.27277799948632053 l -3.5441695700715714 4.790867942076261" fill="#ff4106" stroke="none" /><path d="M 112.77801427241765 83.33499621200491 l 5.908894828149843 -7.706342518848238 a30.710960462690814,30.710960462690814 0 0,0 0.41674399674536955,0.32527529974350333 l -6.0406713800546425 7.6034888298815115" fill="#ff750a" stroke="none" /><path d="M 113.34407831869373 83.78471172551755 l 9.077548354155065 -11.030740368330454 a35.28562624442969,35.28562624442969 0 0,0 0.4656735889200597,0.3899882386650669 l -9.266079480034241 10.872850972271568" fill="#ffb210" stroke="none" /><path d="M 113.89432698308785 84.25364557470407 l 4.3598440457503775 -4.940984163318188 a27.589504124395564,27.589504124395564 0 0,0 0.3533939746255963,0.3172805996954803 l -4.444249007971964 4.86520455485341" fill="#ff4a06" stroke="none" /><path d="M 114.16331599549186 84.49514656593476 l 4.815170617058955 -5.271259548348718 a28.13947093960368,28.13947093960368 0 0,0 0.3548147647138604,0.3297616546915425 l -4.905193265567662 5.187593307582535" fill="#ff5207" stroke="none" /><path d="M 114.68862486808459 84.99185889309783 l 8.009020010797643 -8.183237268944461 a32.450317625865175,32.450317625865175 0 0,0 0.3958385547117134,0.3941386981607029 l -8.148694365676679 8.04416272013364" fill="#ff8d0d" stroke="none" /><path d="M 115.19652480421416 85.50635884689758 l 17.300869591978902 -16.500653849044962 a44.907983312790364,44.907983312790364 0 0,0 0.5287009990155678,0.5639813631387042 l -17.58233791296493 16.2004030690282" fill="#d4ff1c" stroke="none" /><path d="M 115.4437574822437 85.77008943001954 l 9.101230172644891 -8.385892590093258 a33.37560443728074,33.37560443728074 0 0,0 0.3856572697614205,0.42585238962683075 l -9.244231083022349 8.227987413196878" fill="#ff990e" stroke="none" /><path d="M 116.15771136456269 86.58626213691792 l 20.440558654229484 -16.969253217639015 a47.566369583767894,47.566369583767894 0 0,0 0.5175708179210383,0.6344806245088151 l -20.729627964226932 16.614888423522096" fill="#b6ff1f" stroke="none" /><path d="M 116.60985879189232 87.15038557335679 l 11.338975037461822 -8.771986508147625 a35.3359723144022,35.3359723144022 0 0,0 0.3680393962254465,0.4842967043395839 l -11.488290373911383 8.575505027927008" fill="#ffb310" stroke="none" /><path d="M 117.04232023915458 87.72973835380427 l 11.57799314951139 -8.336013130182444 a35.266710913055846,35.266710913055846 0 0,0 0.35046273850378273,0.4957046896187446 l -11.719768507819055 8.135481940231905" fill="#ffb210" stroke="none" /><path d="M 117.45458315368197 88.32363383020206 l 17.131634710821714 -11.460327537445556 a41.61145349388452,41.61145349388452 0 0,0 0.39313582765875804,0.5987728370230955 l -17.326367173838396 11.163736636444787" fill="#fcff18" stroke="none" /><line stroke="#e1ed5e" stroke-width="0.3" x1="172.23445277983987" x2="176.4835382374775" y1="55.19839476539836" y2="52.563006222186495" /><path d="M 173.08426987136738 54.67131705675599 a86.0,86.0 0 0,1 12.851231095245387,41.99856678651699" fill="none" id="id15" stroke="none" /><text fill="#e1ed5e" style="font-size:6.75px; font-family:Arial;" text-anchor="middle"><textPath startOffset="22.20632615414155" xlink:href="#id15">March</textPath></text><path d="M 117.84615892207809 88.93136811851018 l 6.051532441374322 -3.753311018070102 a28.120982269839764,28.120982269839764 0 0,0 0.25159468119886164,0.4135555035237522 l -6.115242920859408 3.648587741339268" fill="#ff5207" stroke="none" /><path d="M 118.21658344932153 89.55222093294921 l 7.951820329586066 -4.560617100101307 a30.16682468948516,30.16682468948516 0 0,0 0.2544677371530033,0.45266971012204593 l -8.029145708031502 4.4230638800444675" fill="#ff6e0a" stroke="none" /><path d="M 118.73160827565052 90.50648371742162 l 6.384639592200997 -3.2358502823137774 a28.157817388830946,28.157817388830946 0 0,0 0.2153938771715287,0.434220912865259 l -6.439393482325934 3.125469780949569" fill="#ff5207" stroke="none" /><path d="M 119.04729006885535 91.15688171328212 l 8.027291536488372 -3.7268445181714984 a29.8502417749123,29.8502417749123 0 0,0 0.21235985520265743,0.46790679157354137 l -8.090253708654377 3.5881157177558944" fill="#ff6a09" stroke="none" /><path d="M 119.196687751892 91.48605970444005 l 13.049530219129071 -5.7876089149712815 a35.27538636579122,35.27538636579122 0 0,0 0.2414000349834778,0.5571845634557637 l -13.14722096395523 5.562125206928915" fill="#ffb210" stroke="none" /><path d="M 119.47837535516314 92.15188598940014 l 13.227560524917525 -5.329571958071209 a35.260879871053376,35.260879871053376 0 0,0 0.2219864645618939,0.5649313390888626 l -13.317340539361119 5.101091614086562" fill="#ffb210" stroke="none" /><path d="M 119.61058180528143 92.48833698450437 l 2.585428463093184 -0.9903259147669171 a23.768607186877784,23.768607186877784 0 0,0 0.14305918505374499,0.3833274913920863 l -2.6020922366485544 0.9456752863454976" fill="#ff1402" stroke="none" /><path d="M 119.7369772167798 92.82701384747503 l 13.39542166208121 -4.86828216063667 a35.25263107992794,35.25263107992794 0 0,0 0.20236171762065092,0.57210382603554 l -13.477236460511671 4.636980708174516" fill="#ffb210" stroke="none" /><path d="M 119.97218684219823 93.5106431181261 l 8.532456693030841 -2.77236323682001 a29.9715558926709,29.9715558926709 0 0,0 0.15520201648869839,0.4920328050447414 l -8.578914193287746 2.6250802653488496" fill="#ff6b09" stroke="none" /><path d="M 120.08093135843002 93.85539295169968 l 13.637021983005116 -4.1728214642505925 a35.26116431212667,35.26116431212667 0 0,0 0.17260189296485334,0.5819277780802435 l -13.706829773081672 3.937464299423819" fill="#ffb210" stroke="none" /><path d="M 120.18372546131832 94.20196356495316 l 11.517564396410759 -3.308569477987052 a32.98336019721248,32.98336019721248 0 0,0 0.1520583627745247,0.5470348348547788 l -11.572809529751646 3.1098233397133215" fill="#ff940d" stroke="none" /><path d="M 120.37134235888165 94.90015583598534 l 27.581427305295076 -6.904845964496636 a49.432587465630036,49.432587465630036 0 0,0 0.19953628644397975,0.8272067272719297 l -27.696196391999877 6.429054005565301" fill="#a1ff22" stroke="none" /><path d="M 120.45610955862082 95.25157060432595 l 15.132267746946283 -3.512618310285126 a36.5346069972504,36.5346069972504 0 0,0 0.13692755425515427,0.6138193769305992 l -15.190489688203474 3.2516207638045627" fill="#ffc312" stroke="none" /><path d="M 120.78858239683441 97.02765380044208 l 1.844613949554543 -0.2637424312032386 a22.863373471129233,22.863373471129233 0 0,0 0.052350593882229575,0.3900727311062358 l -1.8488805424946089 0.23195135803233846" fill="#ff0601" stroke="none" /><path d="M 120.87857604477298 97.74499172005257 l 19.89882788744841 -2.1491897508345077 a41.01455390158338,41.01455390158338 0 0,0 0.06976941686789147,0.7025685064591156 l -19.932874429998527 1.806345713670957" fill="#fffb17" stroke="none" /><path d="M 120.94382443527127 98.46500227214037 l 15.199442513505758 -1.1139851651770334 a36.24021048639423,36.24021048639423 0 0,0 0.04024287097229986,0.6225394020251819 l -15.216365975482473 0.8521866988988164" fill="#ffbf11" stroke="none" /><path d="M 120.98425023603335 99.18683210126433 l 19.017252122033856 -0.7369440782423635 a40.03152555228975,40.03152555228975 0 0,0 0.020755975315237277,0.6887897726743447 l -19.02711979180474 0.4094841581430198" fill="#ffef16" stroke="none" /><line stroke="#e1ed5e" stroke-width="0.3" x1="184.98032266829074" x2="189.97916517819016" y1="98.17113171792111" y2="98.06355123074" /><path d="M 185.9800911702706 98.14961562048488 a86.0,86.0 0 0,1 -9.607161424134198,41.387399972396054" fill="none" id="id16" stroke="none" /><text fill="#e1ed5e" style="font-size:6.75px; font-family:Arial;" text-anchor="middle"><textPath startOffset="21.466115282336823" xlink:href="#id16">April</textPath></text><path d="M 120.99824983174949 100.27111621757518 l 18.566907964912478 0.23972425796661045 a39.568455484972034,39.568455484972034 0 0,0 -0.01465528411491359,0.6809734659868755 l -18.560030618112556 -0.5592875397436007" fill="#ffe915" stroke="none" /><path d="M 120.95626037817324 101.35467743843564 l 1.8846129675450176 0.12182720682243335 a22.888546506115482,22.888546506115482 0 0,0 -0.02879972218394863,0.3929493277141725 l -1.8822366866967313 -0.15424967103337608" fill="#ff0701" stroke="none" /><path d="M 120.81339534386255 102.79330883721812 l 29.970652170543328 4.022279218842372 a51.23935716317436,51.23935716317436 0 0,0 -0.12484334926443437,0.8731540939835711 l -29.89697477026229 -4.537578784806352" fill="#8dff24" stroke="none" /><path d="M 120.70491114924044 103.5080841355445 l 11.59131760717883 1.9639455158586092 a32.75651844126292,32.75651844126292 0 0,0 -0.098977030080005,0.5551157478336676 l -11.555794134759637 -2.163180014425495" fill="#ff910d" stroke="none" /><path d="M 120.5718875245553 104.21870165774334 l 13.465949808329839 2.7614784842509343 a34.74618374893335,34.74618374893335 0 0,0 -0.12519539971524646,0.5848712277749727 l -13.41642036989015 -2.992863531442076" fill="#ffab0f" stroke="none" /><path d="M 120.41448212921028 104.9243191809786 l 10.822614833429823 2.6105981761029193 a32.13302360860908,32.13302360860908 0 0,0 -0.13432932906312248,0.5365788959774015 l -10.77607419007164 -2.7965049114777165" fill="#ff890c" stroke="none" /><path d="M 120.32669344350535 105.2749913415812 l 7.382464316110911 1.9158273555534884 a28.627002939224425,28.627002939224425 0 0,0 -0.12788353401420194,0.4759022039092132 l -7.348392705754932 -2.0426204926382496" fill="#ff5908" stroke="none" /><path d="M 120.02730092923936 106.31721596034902 l 18.353046891730177 5.789105639102975 a40.24442969564805,40.24442969564805 0 0,0 -0.21407688811598802,0.6588609142442897 l -18.25067775259794 -6.10416545332506" fill="#fff116" stroke="none" /><path d="M 119.79798401119884 107.00284435728193 l 9.0534835524535 3.2023531372275618 a30.60315729591353,30.60315729591353 0 0,0 -0.17994035536601,0.4951185766597387 l -8.997018936082263 -3.3577195108934315" fill="#ff740a" stroke="none" /><path d="M 118.64920377521936 109.65438752849418 l 9.732045652111822 5.038120731745786 a31.958803451218355,31.958803451218355 0 0,0 -0.2571123658674749,0.4863597008963246 l -9.643880778019454 -5.204895447728244" fill="#ff860c" stroke="none" /><line stroke="#e1ed5e" stroke-width="0.3" x1="174.80103733775053" x2="179.2010983576182" y1="140.37084112569926" y2="142.7455964860345" /><path d="M 175.68104954172406 140.8457921977663 a86.0,86.0 0 0,1 -30.038265399797805,32.042727171017184" fill="none" id="id17" stroke="none" /><text fill="#e1ed5e" style="font-size:6.75px; font-family:Arial;" text-anchor="middle"><textPath startOffset="22.206326154141568" xlink:href="#id17">May</textPath></text><path d="M 118.12598468904814 110.60418214915192 l 8.850500779578436 5.177777869059283 a31.253816251066652,31.253816251066652 0 0,0 -0.2756573560529086,0.4620175845261706 l -8.7600625478273 -5.329357547471558" fill="#ff7d0b" stroke="none" /><path d="M 117.75023020441432 111.22182372390056 l 1.23265153609059 0.779291203083315 a22.45832938276287,22.45832938276287 0 0,0 -0.2093919842772029,0.3249810095843335 l -1.2190546884363367 -0.8003938125891015" fill="#ff0100" stroke="none" /><path d="M 117.35343817320211 111.8261652097733 l 7.8910675527332215 5.377670270794796 a30.54925571252489,30.54925571252489 0 0,0 -0.299875993307229,0.431993734167494 l -7.797330652263856 -5.512705267149309" fill="#ff730a" stroke="none" /><path d="M 116.498646956653 112.99209946851258 l 6.150259548653314 4.843111318352799 a28.828244998577794,28.828244998577794 0 0,0 -0.3103595152891753,0.38722121528027664 l -6.065982121309285 -4.948260367211326" fill="#ff5c08" stroke="none" /><path d="M 116.0416608686014 113.55231037782055 l 5.186287275632159 4.381477419553274 a27.789323978382477,27.789323978382477 0 0,0 -0.3118458261652475,0.36274714768068156 l -5.110098939896133 -4.470101666395483" fill="#ff4d07" stroke="none" /><path d="M 115.56566222782051 114.09645910891815 l 8.417441406691411 7.622940601850262 a32.35616763060586,32.35616763060586 0 0,0 -0.37741711831473596,0.4096117411444874 l -8.284977880380954 -7.766703597796084" fill="#ff8c0c" stroke="none" /><path d="M 115.07121518719521 114.62390073753431 l 6.232194179217865 6.047222332234674 a29.68384374703707,29.68384374703707 0 0,0 -0.3589757335212706,0.36364052281513776 l -6.12717782064106 -6.153603349030477" fill="#ff6709" stroke="none" /><path d="M 114.55890576462653 115.13401014063108 l 9.942015637246792 10.334744101303373 a35.340523371574854,35.340523371574854 0 0,0 -0.4420328135041367,0.4179696154652591 l -9.762646989351849 -10.504348353514553" fill="#ffb310" stroke="none" /><path d="M 113.75828350139079 115.86535959552629 l 4.668804341140935 5.3838300210827414 a28.126244429695646,28.126244429695646 0 0,0 -0.36850004080199006,0.31404372920911106 l -4.575438823761898 -5.463398140514799" fill="#ff5207" stroke="none" /><path d="M 113.20401910651253 116.32954008644616 l 4.360533013388171 5.392713996094855 a27.935100028444108,27.935100028444108 0 0,0 -0.3765152739639246,0.29912650501292953 l -4.267060246706895 -5.466974415112911" fill="#ff4f07" stroke="none" /><path d="M 112.92097659922987 116.55440617244103 l 8.754723386630943 11.216586126956942 a35.2287380297715,35.2287380297715 0 0,0 -0.48124347010334106,0.36899697160093564 l -8.560351188034108 -11.36562244038525" fill="#ffb210" stroke="none" /><path d="M 112.63410532772338 116.77436683061366 l 23.93222533404816 31.774939056849632 a60.779368540817295,60.779368540817295 0 0,0 -0.8411141898300286,0.6222361694359418 l -23.381726173799567 -32.182185175025346" fill="#30ff35" stroke="none" /><path d="M 112.34349029814194 116.9893568818739 l 22.050724450039144 30.350218466325533 a58.51493315634777,58.51493315634777 0 0,0 -0.8199688447934458,0.5850259992370078 l -21.525028277396814 -30.72528872740676" fill="#41ff2d" stroke="none" /><path d="M 111.7513745106137 117.40417183066458 l 3.422954514496306 5.069508123074155 a27.116905281122595,27.116905281122595 0 0,0 -0.38909569776543446,0.25787141173902195 l -3.335184117990907 -5.127677555904496" fill="#ff4406" stroke="none" /><path d="M 111.1453310114006 117.79835938074945 l 7.135191730266554 11.394431133174267 a34.44410732909832,34.44410732909832 0 0,0 -0.505214357006014,0.3103439217365043 l -6.937998173328231 -11.51556352173915" fill="#ffa70f" stroke="none" /><line stroke="#e1ed5e" stroke-width="0.3" x1="143.8653032363475" x2="146.44561519142675" y1="172.8068346515853" y2="177.08958963109032" /><path d="M 144.38136562736335 173.6633856474863 a86.0,86.0 0 0,1 -40.68145358897372,12.25698825130547" fill="none" id="id18" stroke="none" /><text fill="#e1ed5e" style="font-size:6.75px; font-family:Arial;" text-anchor="middle"><textPath startOffset="21.466115282336833" xlink:href="#id18">June</textPath></text><path d="M 110.5260780823613 118.17145234162733 l 6.398567747880809 11.046019987266419 a33.76543092822603,33.76543092822603 0 0,0 -0.5054383260821398,0.28700107267945174 l -6.20748065487747 -11.1545242257405" fill="#ff9e0e" stroke="none" /><path d="M 110.21172684928248 118.3499491758327 l 4.33046431701311 7.781622177891588 a29.90542334313075,29.90542334313075 0 0,0 -0.45196662716764346,0.24644824155287395 l -4.195874877976818 -7.855011071204233" fill="#ff6a09" stroke="none" /><path d="M 109.89434966115114 118.52300852407294 l 7.288855899387199 13.645317234460933 a36.47003887361335,36.47003887361335 0 0,0 -0.5562707255443197,0.2910145526266741 l -7.052894271316384 -13.768761206032323" fill="#ffc212" stroke="none" /><path d="M 109.2508944713604 118.85261126421891 l 17.56027245112803 35.78648434914051 a60.86270977529155,60.86270977529155 0 0,0 -0.9444945765212341,0.453414793571085 l -16.94166520660656 -36.08345341921115" fill="#30ff36" stroke="none" /><path d="M 108.92500713936063 119.00905698771935 l 0.8187713954528643 1.7438722314784583 a22.92651938939983,22.92651938939983 0 0,0 -0.3586712078607926,0.16464835981704937 l -0.7886321918246522 -1.7577076616295821" fill="#ff0701" stroke="none" /><path d="M 108.2653958097858 119.30500536409082 l 0.771917594826871 1.8029231329884745 a22.961221200341328,22.961221200341328 0 0,0 -0.36467726643360937,0.15243512694545075 l -0.7407688688958004 -1.8159433029538985" fill="#ff0801" stroke="none" /><path d="M 107.59598834532513 119.57807347666477 l 2.633219029325585 6.786918738233212 a28.279842609272777,28.279842609272777 0 0,0 -0.455345568495599,0.1721727316335517 l -2.516003240069711 -6.831239719973395" fill="#ff5407" stroke="none" /><path d="M 106.57524785965236 119.94407469862006 l 4.584567501541736 13.905933078612266 a35.64217312979994,35.64217312979994 0 0,0 -0.5843256868173025,0.18708263252189258 l -4.344520469633493 -13.982788557793866" fill="#ffb711" stroke="none" /><path d="M 105.53697534728816 120.25689768951611 l 0.5466927873065734 2.0000630606906182 a23.07343320375462,23.07343320375462 0 0,0 -0.38401835342203666,0.10142273742726061 l -0.5121839910730394 -2.009177147421463" fill="#ff0a01" stroke="none" /><path d="M 104.83641907484287 120.43548508189849 l 2.9367084603024316 12.408573575139425 a33.75135109509813,33.75135109509813 0 0,0 -0.5665081519899643,0.1289354110007224 l -2.722680158919605 -12.45728571971783" fill="#ff9e0e" stroke="none" /><path d="M 104.13013068566511 120.58985236759428 l 2.0918055461096925 10.42823354854148 a31.63596283303309,31.63596283303309 0 0,0 -0.5348472071396495,0.10250474019539547 l -1.9119907243983385 -10.462695487085343" fill="#ff820c" stroke="none" /><path d="M 103.7750983002368 120.6578951692458 l 2.6054820448410063 14.257582363961586 a35.49369488954205,35.49369488954205 0 0,0 -0.601957901960364,0.10465809719534011 l -2.3596751714085924 -14.30031903967793" fill="#ffb510" stroke="none" /><path d="M 103.06178313531738 120.77559828337769 l 2.082625477535057 14.13156594825614 a35.28420403906324,35.28420403906324 0 0,0 -0.6016316499580334,0.08338066460410383 l -1.839065236390193 -14.165321178352848" fill="#ffb210" stroke="none" /><line stroke="#e1ed5e" stroke-width="0.3" x1="102.19456741930631" x2="102.32365962044197" y1="184.97166512339345" y2="189.96999836594603" /><path d="M 102.22038585953345 185.97133177190398 a86.0,86.0 0 0,1 -42.740103519485714,-10.115201625700543" fill="none" id="id19" stroke="none" /><text fill="#e1ed5e" style="font-size:6.75px; font-family:Arial;" text-anchor="middle"><textPath startOffset="22.20632615414155" xlink:href="#id19">July</textPath></text><path d="M 100.54218724476979 120.99299961872073 l 0.32512581371071464 12.588577376369779 a33.59277519673841,33.59277519673841 0 0,0 -0.578180146879763,0.009953895567513646 l -0.10838597693828368 -12.592308749216452" fill="#ff9c0e" stroke="none" /><path d="M 99.81925306533755 120.99922214144158 l -0.17557514716059355 20.39836263130605 a41.39911823267279,41.39911823267279 0 0,0 -0.7125385777232075,-0.012266997801217238 l 0.526673414776469 -20.392318156225674" fill="#feff18" stroke="none" /><path d="M 98.37488393609728 120.93702456842531 l -1.2263816243252381 15.7999682417144 a36.847492177870485,36.847492177870485 0 0,0 -0.6319444611825786,-0.05452682719444888 l 1.4981704032493584 -15.776517162241287" fill="#ffc712" stroke="none" /><path d="M 98.01472825383883 120.90594882070398 l -0.538246378889531 5.668015611340004 a26.693514743528965,26.693514743528965 0 0,0 -0.45705322780004864,-0.04737543583937079 l 0.635732203295173 -5.657910807044873" fill="#ff3e05" stroke="none" /><path d="M 97.65516085044442 120.86867818915974 l -1.319740226489363 11.745468376845887 a32.81937991846023,32.81937991846023 0 0,0 -0.5608559735806337,-0.06791184771040959 l 1.5217236231213858 -11.721011000410128" fill="#ff920d" stroke="none" /><path d="M 96.93821686468263 120.77559828337769 l -1.8588464503482711 12.613122947035674 a33.749360007585096,33.749360007585096 0 0,0 -0.5740029057559228,-0.08964744891309485 l 2.075685219712711 -12.579257190775474" fill="#ff9e0e" stroke="none" /><path d="M 96.58105272829116 120.7198165907248 l -2.4002418567221717 14.546164971946759 a35.742865269744954,35.742865269744954 0 0,0 -0.6061837251597909,-0.10539281072546512 l 2.6502745533540124 -14.502693582700289" fill="#ffb811" stroke="none" /><path d="M 95.86986931433489 120.58985236759428 l -4.792594048024689 23.89241683057022 a45.36835118991182,45.36835118991182 0 0,0 -0.7643671443743354,-0.1601805669061843 l 5.203152653828411 -23.806380282937496" fill="#cfff1d" stroke="none" /><path d="M 95.16358092515715 120.4354850818985 l -1.9578820666589785 8.272705310721282 a29.50123257798426,29.50123257798426 0 0,0 -0.4931576567870458,-0.12120615357207755 l 2.0999930081892346 -8.237777898835175" fill="#ff6509" stroke="none" /><path d="M 94.81253420990036 120.34920634021253 l -4.25668846247161 16.697986136921205 a38.23200910211435,38.23200910211435 0 0,0 -0.6363072653193855,-0.1680545320775886 l 4.543486170602485 -16.622240255540035" fill="#ffd814" stroke="none" /><path d="M 94.11515582081647 120.15858648285463 l -3.671601064671628 12.577102356343596 a34.10206693846591,34.10206693846591 0 0,0 -0.5620751805103315,-0.16934864111475031 l 3.887551219622205 -12.51203834612312" fill="#ffa30f" stroke="none" /><path d="M 93.76903079525671 120.05430185196036 l -5.646264621849558 18.172436958349703 a40.02939224424007,40.02939224424007 0 0,0 -0.6562507294606722,-0.21011075985831443 l 5.958236696401171 -18.072553351831683" fill="#ffef16" stroke="none" /><path d="M 93.08242187328487 119.8279376855182 l -4.336311147440382 12.42922098478622 a34.1639328719067,34.1639328719067 0 0,0 -0.5535865756318542,-0.19849645035462635 l 4.549617283701963 -12.352736993391636" fill="#ffa40f" stroke="none" /><path d="M 92.7421414339146 119.70592522655815 l -2.443354856909474 6.63399095942637 a28.069640656110742,28.069640656110742 0 0,0 -0.4519610189709006,-0.17089298460770241 l 2.5571860966406574 -6.5909497247120346" fill="#ff5107" stroke="none" /><path d="M 92.06813273071674 119.44442032107085 l -3.841899166310925 9.418148297843578 a31.17161278088556,31.17161278088556 0 0,0 -0.4950772626628101,-0.20694233594501021 l 4.0034478884711975 -9.350620918878596" fill="#ff7c0b" stroke="none" /><path d="M 91.40352486487194 119.15986991738527 l -5.380176195415004 11.99136557907682 a34.143026453019814,34.143026453019814 0 0,0 -0.5341465195798388,-0.2452004689067198 l 5.585790710762262 -11.896978039836025" fill="#ffa30f" stroke="none" /><path d="M 91.07499286063937 119.00905698771935 l -4.7459244373370755 10.10817657398683 a32.16687209633071,32.16687209633071 0 0,0 -0.4991798155357464,-0.23963664656459505 l 4.9192169208730645 -10.024985650922671" fill="#ff890c" stroke="none" /><path d="M 90.42595943632237 118.69057910512821 l -7.20131141668106 14.058503282801874 a36.795581681994875,36.795581681994875 0 0,0 -0.5612361695034471,-0.2936122382247151 l 7.442238488711003 -13.932461625632442" fill="#ffc612" stroke="none" /><line stroke="#e1ed5e" stroke-width="0.3" x1="58.666819895761336" x2="56.23545636021788" y1="174.27360380694188" y2="178.64263932499728" /><path d="M 58.180547188652646 175.14741091055294 a86.0,86.0 0 0,1 -31.652253787137756,-30.449443065178592" fill="none" id="id20" stroke="none" /><text fill="#e1ed5e" style="font-size:6.75px; font-family:Arial;" text-anchor="middle"><textPath startOffset="22.20632615414155" xlink:href="#id20">August</textPath></text><path d="M 89.7882731507175 118.34994917583269 l -12.02567112273758 21.609513960219022 a45.730302455674604,45.730302455674604 0 0,0 -0.6845417602860694,-0.38870067693294436 l 12.395861649944855 -21.399310117491446" fill="#cbff1d" stroke="none" /><path d="M 89.4739219176387 118.17145234162733 l -9.111033520367545 15.7286227693637 a39.17692234758699,39.17692234758699 0 0,0 -0.5806246166092978,-0.34304325782910505 l 9.380426008005225 -15.569460939240845" fill="#ffe415" stroke="none" /><path d="M 89.1626897886671 117.98757091392108 l -9.761491135646398 16.20194592606904 a39.91533137385038,39.91533137385038 0 0,0 -0.5854643954638291,-0.35964004982378905 l 10.038934731042536 -16.031517409416875" fill="#ffed16" stroke="none" /><path d="M 88.24862548938628 117.40417183066458 l -8.21684170666556 12.169412594162154 a35.68370152650043,35.68370152650043 0 0,0 -0.5061021348018959,-0.3481016632023911 l 8.425100726090346 -12.026170141594662" fill="#ffb811" stroke="none" /><path d="M 87.65650970185807 116.9893568818739 l -9.723200822493755 13.382837821190853 a37.542097278847066,37.542097278847066 0 0,0 -0.5195379862495846,-0.38434178182838075 l 9.952123779161903 -13.213486090622705" fill="#ffcf13" stroke="none" /><path d="M 87.36589467227662 116.77436683061367 l -16.81917731697966 22.330908504068372 a48.95629088840428,48.95629088840428 0 0,0 -0.6687692102571079,-0.5127837126430616 l 17.201075255730252 -22.038085449597943" fill="#a6ff21" stroke="none" /><path d="M 87.07902340077011 116.55440617244103 l -6.113439083232859 7.8325622616129715 a30.935953351663983,30.935953351663983 0 0,0 -0.41696141913494394,-0.33125936889088287 l 6.247357995085161 -7.726168978716958" fill="#ff790b" stroke="none" /><path d="M 86.79598089348748 116.32954008644616 l -10.09156269357672 12.480334677671525 a37.049872001517016,37.049872001517016 0 0,0 -0.4924631432961514,-0.40526364021262545 l 10.30489596541756 -12.304775918601718" fill="#ffc912" stroke="none" /><path d="M 86.24171649860922 115.8653595955263 l -6.1378280153267335 7.077834134527785 a30.36849341044847,30.36849341044847 0 0,0 -0.39198154140990277,-0.3458781353819054 l 6.258751909643224 -6.971132857373591" fill="#ff710a" stroke="none" /><path d="M 85.97065885151581 115.62618273729859 l -9.63064701873691 10.726822350418258 a35.41575803546032,35.41575803546032 0 0,0 -0.4501181797922487,-0.41117228504118203 l 9.813864747996014 -10.5594572987905" fill="#ffb410" stroke="none" /><path d="M 85.44109423537348 115.13401014063109 l -27.15490605875916 28.227576323740855 a60.16867355646155,60.16867355646155 0 0,0 -0.7402180799427206,-0.7244591864779432 l 27.636774091077676 -27.75596703434034" fill="#30ff2f" stroke="none" /><path d="M 84.9287848128048 114.62390073753433 l -5.979166626026997 5.801704649966549 a29.331279036692898,29.331279036692898 0 0,0 -0.3484743790157429,-0.3653739932157982 l 6.078147556421698 -5.697923540168251" fill="#ff6309" stroke="none" /><path d="M 84.67929136418377 114.36230785411682 l -10.109667244109733 9.477247868492551 a34.857257988053476,34.857257988053476 0 0,0 -0.4065909786472985,-0.44127420462808764 l 10.271304630752761 -9.301822409063119" fill="#ffad10" stroke="none" /><path d="M 84.43433777217949 114.09645910891817 l -13.651500484245727 12.362970205508018 a39.41755949559116,39.41755949559116 0 0,0 -0.45112674253454504,-0.506845677599328 l 13.86228607642861 -12.126150358167825" fill="#ffe715" stroke="none" /><path d="M 84.19399662182784 113.82643327865904 l -31.741744908658088 27.76635608808331 a63.17237129041433,63.17237129041433 0 0,0 -0.7089067848934298,-0.8246187462368209 l 32.214994203122295 -27.21586024268496" fill="#33ff52" stroke="none" /><path d="M 83.95833913139862 113.55231037782056 l -4.286851347127431 3.6216162700187033 a26.611880155494454,26.611880155494454 0 0,0 -0.2926090275360709,-0.3524664234423083 l 4.348556374557039 -3.547288589462634" fill="#ff3d05" stroke="none" /><path d="M 83.50135304334701 112.99209946851258 l -7.891993208599312 6.214664817080769 a31.045178723807716,31.045178723807716 0 0,0 -0.3269991377120444,-0.42269046542017485 l 7.997799163529425 -6.077896357547341" fill="#ff7a0b" stroke="none" /><path d="M 83.06392112726016 112.41649034213515 l -14.403088003125003 10.559457382757982 a38.85920166872096,38.85920166872096 0 0,0 -0.3908499354564467,-0.5428563756476087 l 14.582717730957057 -10.309967401659236" fill="#ffe015" stroke="none" /><path d="M 82.85270091963577 112.12312394758628 l -8.116800100381003 5.73856985951688 a30.940504408836638,30.940504408836638 0 0,0 -0.30371654813255156,-0.4375263398354905 l 8.214377555675688 -5.598002257494377" fill="#ff790b" stroke="none" /><path d="M 82.44556493220864 111.52570212397912 l -8.6834166611459 5.701264294081151 a31.387787996586706,31.387787996586706 0 0,0 -0.29264648757542955,-0.4541938475432161 l 8.780268012098375 -5.550948846616486" fill="#ff7f0b" stroke="none" /><path d="M 82.05923443525364 110.91462005526583 l -6.7245369040681 4.091005207700817 a28.871195600644732,28.871195600644732 0 0,0 -0.25464274127126085,-0.42679588139374625 l 6.793960521037592 -3.97464723242096" fill="#ff5c08" stroke="none" /><line stroke="#e1ed5e" stroke-width="0.3" x1="26.63291911575756" x2="22.317208475507996" y1="142.92168965132927" y2="145.44649492493687" /><path d="M 25.769776987707644 143.4266507060508 a86.0,86.0 0 0,1 -11.730757126820373,-40.83630448921669" fill="none" id="id21" stroke="none" /><text fill="#e1ed5e" style="font-size:6.75px; font-family:Arial;" text-anchor="middle"><textPath startOffset="21.46611528233685" xlink:href="#id21">September</textPath></text><path d="M 81.69416730710424 110.29060199501025 l -5.970985791409462 3.3565825345438687 a27.849767706456813,27.849767706456813 0 0,0 -0.23131697520482858,-0.41990750055411824 l 6.027879176065807 -3.2533045155919282" fill="#ff4e07" stroke="none" /><path d="M 81.51974371655577 109.97397251340807 l -3.1855907785728252 1.7192940604896152 a24.619939319237698,24.619939319237698 0 0,0 -0.19807033312574832,-0.37467442551995567 l 3.21471361992346 -1.6642046198835334" fill="#ff2003" stroke="none" /><path d="M 81.18737489456691 109.33194174019688 l -4.140209575005442 2.0537375475046242 a25.621598558831895,25.621598558831895 0 0,0 -0.19258504251602976,-0.3967822293883846 l 4.1749478741361905 -1.982166362150955" fill="#ff2e04" stroke="none" /><path d="M 79.76711848015287 105.62410040840567 l -4.878374675734447 1.3560336909619437 a26.06333554565279,26.06333554565279 0 0,0 -0.11643103068988021,-0.4332831786036025 l 4.900993782766102 -1.2718595791828022" fill="#ff3505" stroke="none" /><path d="M 79.35854240842038 103.8639653848113 l -7.11808624731232 1.3324659241572165 a28.241727505451784,28.241727505451784 0 0,0 -0.08533514689086213,-0.47860482219487344 l 7.139967836542371 -1.2097423512291294" fill="#ff5307" stroke="none" /><path d="M 79.23777060512086 103.15116336523772 l -9.002290512863155 1.3663122359277167 a30.10538541765431,30.10538541765431 0 0,0 -0.07335098163834879,-0.5130165947372769 l 9.024475545518102 -1.2111501692100393" fill="#ff6d0a" stroke="none" /><path d="M 79.1416061653843 102.43462659150553 l -17.157341954819604 2.0026336300849183 a38.273821939888116,38.273821939888116 0 0,0 -0.07074769906976201,-0.6550358276534626 l 17.189271955390417 -1.7070014805466736" fill="#ffd914" stroke="none" /><path d="M 79.07016306316243 101.71520430193888 l -8.1425624269368 0.6672846112291848 a29.169858727600264,29.169858727600264 0 0,0 -0.0367032405170653,-0.5007865559949675 l 8.152842226118201 -0.5270249187374568" fill="#ff6008" stroke="none" /><path d="M 79.0235259727143 100.99374915477108 l -47.75146043027555 2.2621997090619343 a68.80501564425904,68.80501564425904 0 0,0 -0.045863022293304016,-1.183520817631632 l 47.78332558542006 -1.4399016444163057" fill="#3aff93" stroke="none" /><line stroke="#e1ed5e" stroke-width="0.3" x1="15.007084014347285" x2="10.007500721073583" y1="101.09737516637583" y2="101.16192664675087" /><path d="M 14.007167355692545 101.11028546245083 a86.0,86.0 0 0,1 10.666146001902534,-42.60595125391555" fill="none" id="id22" stroke="none" /><text fill="#e1ed5e" style="font-size:6.75px; font-family:Arial;" text-anchor="middle"><textPath startOffset="22.20632615414155" xlink:href="#id22">October</textPath></text><path d="M 79.00175016825051 100.2711162175752 l -16.58579879096929 0.2141454201993531 a37.58718118896368,37.58718118896368 0 0,0 -0.0027844990312196265,-0.6470195114691181 l 16.58702758729001 0.07138356947344032" fill="#ffd013" stroke="none" /><path d="M 79.00486145842228 99.54816195383935 l -5.119038438647961 -0.11016723332210687 a26.12022376031099,26.12022376031099 0 0,0 0.013543094151865985,-0.4494293619304442 l 5.11638365004045 0.19826674267754546" fill="#ff3605" stroke="none" /><path d="M 79.01574976396665 99.18683210126434 l -7.87225587218323 -0.305060495080272 a28.87816440694036,28.87816440694036 0 0,0 0.02352386637345488,-0.4965516394505191 l 7.865838397576276 0.4405232411538002" fill="#ff5c08" stroke="none" /><path d="M 79.05617556472873 98.46500227214037 l -12.626321388471851 -0.9253980667394163 a33.660187731108365,33.660187731108365 0 0,0 0.04732544845207647,-0.5774903420805634 l 12.608521456200277 1.142602326027758" fill="#ff9d0e" stroke="none" /><path d="M 79.12142395522702 97.74499172005258 l -15.095106694088946 -1.6303597768767506 a36.1828956101261,36.1828956101261 0 0,0 0.07221011344420844,-0.6186521540168404 l 15.064806227641148 1.8899556692184527" fill="#ffbe11" stroke="none" /><path d="M 79.16333360222342 97.38593545837743 l -8.090792696071464 -1.0150306146225034 a29.15421446856926,29.15421446856926 0 0,0 0.06675482266546658,-0.4974009664572138 l 8.072121874348163 1.1541499231443766" fill="#ff6008" stroke="none" /><path d="M 79.26566170972629 96.67025291283419 l -10.9646620640787 -1.7608254991551775 a32.10514838342657,32.10514838342657 0 0,0 0.09232238792819769,-0.544891959622969 l 10.93272781463028 1.9493032470939744" fill="#ff880c" stroke="none" /><path d="M 79.3925641242962 95.95851677861259 l -8.537422116136131 -1.6743397113731198 a29.70005688821466,29.70005688821466 0 0,0 0.10270662107556496,-0.5008339598785064 l 8.507336199145573 1.8210493274150288" fill="#ff6809" stroke="none" /><path d="M 79.46518482838121 95.60439243477599 l -8.192481456777767 -1.7536526707647473 a29.378069593249265,29.378069593249265 0 0,0 0.11010566552540399,-0.4935821089989948 l 8.161081404250325 1.8944129493137014" fill="#ff6309" stroke="none" /><path d="M 79.62865764111835 94.90015583598534 l -18.506220405789218 -4.632921997567089 a40.07732056508959,40.07732056508959 0 0,0 0.17329370076760484,-0.6677713200070894 l 18.423730373151308 4.950789743123042" fill="#ffef16" stroke="none" /><path d="M 79.81627453868168 94.20196356495316 l -10.60322897529739 -3.045914791386744 a32.032047027590785,32.032047027590785 0 0,0 0.15679550180365756,-0.5286364848626588 l 10.549227576382025 3.227980662995942" fill="#ff870c" stroke="none" /><path d="M 80.02781315780177 93.51064311812611 l -5.890427642192703 -1.9139159601831663 a27.19356215037451,27.19356215037451 0 0,0 0.14848035372130677,-0.4439373586905656 l 5.856609994699624 2.0150264217960543" fill="#ff4506" stroke="none" /><path d="M 80.14247586403 93.16781622104843 l -42.49293378137799 -14.620127409303153 a65.93770740494926,65.93770740494926 0 0,0 0.37850416600623055,-1.0700822472187779 l 42.23497653456195 15.349407282948542" fill="#36ff72" stroke="none" /><path d="M 80.52162464483688 92.15188598940014 l -12.395569617787444 -4.994351007869711 a34.363894946430264,34.363894946430264 0 0,0 0.2257843931775378,-0.5467548171368237 l 12.307763537723707 5.206980395459846" fill="#ffa60f" stroke="none" /><path d="M 80.803312248108 91.48605970444005 l -12.037679721540211 -5.338842188343918 a34.16848392907936,34.16848392907936 0 0,0 0.2430805872323529,-0.5355958524136346 l 11.943996817344507 5.545260049599623" fill="#ffa40f" stroke="none" /><path d="M 81.10775173730289 90.83032412892265 l -11.667650270028549 -5.663093649076142 a33.969375177775675,33.969375177775675 0 0,0 0.2598495232637403,-0.5238407826668589 l 11.568440733811395 5.863094020241963" fill="#ffa10e" stroke="none" /><path d="M 81.26839172434947 90.50648371742162 l -14.240959605414211 -7.2175746953498345 a36.96553522328624,36.96553522328624 0 0,0 0.2925392024903672,-0.5650926258533935 l 14.11461096976373 7.4616400434635635" fill="#ffc812" stroke="none" /><path d="M 81.6062741919709 89.86733742301443 l -18.525894353467343 -10.205471060062555 a42.150895989380864,42.150895989380864 0 0,0 0.355557577961731,-0.632497257013222 l 18.34747913421318 10.522851827010562" fill="#f5ff19" stroke="none" /><line stroke="#e1ed5e" stroke-width="0.3" x1="26.266209847984243" x2="21.928928074336255" y1="57.711370442889674" y2="55.22380399835377" /><path d="M 25.398753493254645 57.213857153982495 a86.0,86.0 0 0,1 29.58750427330803,-30.492523968695096" fill="none" id="id23" stroke="none" /><text fill="#e1ed5e" style="font-size:6.75px; font-family:Arial;" text-anchor="middle"><textPath startOffset="21.46611528233685" xlink:href="#id23">November</textPath></text><path d="M 81.96595687620814 89.24020034530311 l -11.17976814952482 -6.67027713359242 a34.018441262918365,34.018441262918365 0 0,0 0.30435846096336355,-0.5002852841548295 l 11.06329389027524 6.861730190954324" fill="#ffa20f" stroke="none" /><path d="M 82.34701348167596 88.62581576622439 l -7.778848560872237 -5.0120729750832576 a30.25372143737556,30.25372143737556 0 0,0 0.285830482196168,-0.4353394340869765 l 7.6914214433181485 5.145230473147901" fill="#ff6f0a" stroke="none" /><path d="M 82.7489923806493 88.02491185347247 l -13.759985401293992 -9.551734119611345 a37.75030814449607,37.75030814449607 0 0,0 0.37514347182243823,-0.5306138365983037 l 13.593529309667675 9.787174456541436" fill="#ffd213" stroke="none" /><path d="M 83.17141714833178 87.43820079747576 l -13.586820057692602 -10.141965420970918 a37.95467905565563,37.95467905565563 0 0,0 0.39531435669257076,-0.520187355179392 l 13.410229760775922 10.374337552031335" fill="#ffd513" stroke="none" /><path d="M 83.84228863543731 86.58626213691792 l -23.909490970582144 -19.849076214006065 a52.074902815966624,52.074902815966624 0 0,0 0.5785010538406896,-0.684762779122035 l 23.56427930325433 20.25769794275722" fill="#84ff25" stroke="none" /><path d="M 84.31358615837235 86.03803664274999 l -3.1245770896934304 -2.7810837629077834 a25.1829904238172,25.1829904238172 0 0,0 0.29099108450688016,-0.3213196234418705 l 3.0762423645705055 2.83445617361921" fill="#ff2803" stroke="none" /><path d="M 85.31137513191541 84.99185889309783 l -9.29028813240927 -9.492376343406395 a34.28211813785911,34.28211813785911 0 0,0 0.42528886758907714,-0.4091275536647596 l 9.125516021207766 9.650886983833468" fill="#ffa50f" stroke="none" /><path d="M 85.57189188830299 84.74124197986013 l -10.674755846418428 -11.2893190932303 a36.537024746373376,36.537024746373376 0 0,0 0.4607007667824722,-0.4281711537409335 l 10.4788471958411 11.471394833045881" fill="#ffc312" stroke="none" /><path d="M 85.83668400450813 84.49514656593479 l -7.831462553792748 -8.57325213315695 a32.61173793495781,32.61173793495781 0 0,0 0.41772377047158554,-0.37503652557375355 l 7.6827277957251905 8.706787667499983" fill="#ff8f0d" stroke="none" /><path d="M 86.10567301691215 84.25364557470407 l -14.434449677983643 -16.358472118893296 a42.81634588034512,42.81634588034512 0 0,0 0.556829027581282,-0.4828766456341318 l 14.150726851755588 16.604513757947107" fill="#edff1a" stroke="none" /><path d="M 86.65592168130627 83.78471172551755 l -9.076825381972391 -11.02986183613988 a35.28448848013653,35.28448848013653 0 0,0 0.4723023711979244,-0.3819023377470917 l 8.885619612209966 11.184470271151106" fill="#ffb210" stroke="none" /><path d="M 86.93701828274178 83.55741782278169 l -7.772075131889704 -9.782834180559016 a33.49435858537973,33.49435858537973 0 0,0 0.45451437060236266,-0.35475567564262717 l 7.602528206127916 9.915168245424866" fill="#ff9b0e" stroke="none" /><path d="M 87.22198572758235 83.33499621200491 l -11.095111594908097 -14.470172971749845 a39.234237223855125,39.234237223855125 0 0,0 0.5394779477497103,-0.40632360569430354 l 10.844387493399998 14.659013166950002" fill="#ffe515" stroke="none" /><path d="M 87.80319425747018 82.90503203632743 l -16.110475547627168 -22.580343507962795 a48.73840902626339,48.73840902626339 0 0,0 0.6871392961386309,-0.48138498912465244 l 15.719405111904875 22.854313339851387" fill="#a8ff21" stroke="none" /><path d="M 88.39885842347998 82.49532879139004 l -2.1831591988701056 -3.2941140938766953 a24.951882051768276,24.951882051768276 0 0,0 0.36005919192509545,-0.23419251412609124 l 2.126132981160723 3.3312055321623215" fill="#ff2503" stroke="none" /><path d="M 88.70189139769569 82.29822771554957 l -7.452751453234128 -11.676902193244121 a34.852564710344176,34.852564710344176 0 0,0 0.5084837294265012,-0.3184124647184895 l 7.250648571435384 11.803458999285542" fill="#ffad10" stroke="none" /><path d="M 89.00827224532344 82.1063720568725 l -12.14674575466004 -19.77390216576065 a44.20669384659145,44.20669384659145 0 0,0 0.6518128258098828,-0.39270993436697277 l 11.80457086263251 19.980058709586242" fill="#ddff1b" stroke="none" /><line stroke="#e1ed5e" stroke-width="0.3" x1="56.762969772571076" x2="54.21961505331055" y1="26.818313649435495" y2="22.513508569990535" /><path d="M 56.25429882871897 25.957352633546506 a86.0,86.0 0 0,1 42.265352541879196,-11.944610805530505" fill="none" id="id24" stroke="none" /><text fill="#e1ed5e" style="font-size:6.75px; font-family:Arial;" text-anchor="middle"><textPath startOffset="22.20632615414155" xlink:href="#id24">December</textPath></text><path d="M 89.3179101791058 81.91981866633112 l -7.237311542700546 -12.249654070904171 a35.22788470655163,35.22788470655163 0 0,0 0.5247332116449679,-0.30395934536999486 l 7.025381598590258 12.372417573664213" fill="#ffb210" stroke="none" /><path d="M 89.94658935756843 81.56283822128135 l -15.94793736207096 -29.247258630853757 a54.31274296008343,54.31274296008343 0 0,0 0.8246612918789293,-0.4405055022925977 l 15.442131023663725 29.517442859648103" fill="#6cff28" stroke="none" /><path d="M 90.58718382345135 81.22770947309562 l -6.816383860854086 -13.594139711094773 a36.20735754242912,36.20735754242912 0 0,0 0.55953942229262,-0.2745635644659568 l 6.58137317155104 13.70945843569556" fill="#ffbe11" stroke="none" /><path d="M 90.91171255644093 81.06846463323043 l -0.6154957701959309 -1.2821205330405114 a22.422205366454918,22.422205366454918 0 0,0 0.34938257841042364,-0.16403980527260079 l 0.5933349804858988 1.2925253209531198" fill="#ff0000" stroke="none" /><path d="M 91.23893434514133 80.91482961587045 l -9.914568190421312 -21.597968860594516 a44.76490945292501,44.76490945292501 0 0,0 0.7030603620376378,-0.31544269072863584 l 9.541325709916899 21.76543188183968" fill="#d6ff1c" stroke="none" /><path d="M 91.90106846888425 80.62456947434976 l -4.873904941519906 -11.660057406366606 a33.63771688631839,33.63771688631839 0 0,0 0.5361469729557181,-0.21870781211741147 l 4.672474098975807 11.742226104667596" fill="#ff9d0e" stroke="none" /><path d="M 92.57280143429618 80.3572730644239 l -4.982366681985805 -13.176875151699335 a35.08737081634588,35.08737081634588 0 0,0 0.5667741106226796,-0.20874768814581263 l 4.754810245590555 13.26068610765147" fill="#ffb010" stroke="none" /><path d="M 93.25333710446033 80.11325718540243 l -3.970697460422623 -11.704192192884726 a33.359391296103155,33.359391296103155 0 0,0 0.5453739081661557,-0.17980120294213547 l 3.768640730014058 11.770807120086095" fill="#ff990e" stroke="none" /><path d="M 93.59665428221793 80.00007090966166 l -6.939957346761445 -21.675958310318613 a43.75983692045131,43.75983692045131 0 0,0 0.7193588472729949,-0.22350829550715715 l 6.565813126777721 21.792206740708295" fill="#e2ff1b" stroke="none" /><path d="M 93.94186890950719 79.89281104454417 l -4.967193209062718 -16.486320771371172 a38.218355930596374,38.218355930596374 0 0,0 0.6315306366878589,-0.1843611105594938 l 4.682672354651438 16.569380210849364" fill="#ffd814" stroke="none" /><path d="M 94.63758080256005 79.69619591428918 l -7.679665006885093 -29.07762485598369 a51.07466578173889,51.07466578173889 0 0,0 0.8519524493679785,-0.21718164885647473 l 7.178003668832115 29.20550950100903" fill="#8eff24" stroke="none" /><path d="M 95.692805502759 79.44645832069477 l -12.921583491723013 -61.66062503791566 a84.0,84.0 0 0,0 1.4177343621314544,-0.28438417569115737 l 11.858282720124423 61.87391316968403" fill="#4dd2ff" stroke="none" /><path d="M 96.04723909329186 79.375362276772 l -3.488012081034219 -18.19968048750112 a39.53090926329762,39.53090926329762 0 0,0 0.6693992476794031,-0.12232843382110092 l 3.1742177122519224 18.257024402672958" fill="#ffe915" stroke="none" /><path d="M 96.75951476605007 79.25152402106235 l -1.288684212320181 -8.251305435257134 a29.351332132359914,29.351332132359914 0 0,0 0.4998546112511066,-0.0736655762189884 l 1.1464606206404255 8.272265495637091" fill="#ff6309" stroke="none" /><path d="M 98.55514903715128 79.0497635885617 l -2.335511979118851 -33.86475793172123 a54.94519768654594,54.94519768654594 0 0,0 0.9441101218721487,-0.05695130080423127 l 1.752239808407079 33.89994250190577" fill="#65ff29" stroke="none" /></svg>