<?xml version="1.0" encoding="utf-8" ?>
<svg baseProfile="full" height="200mm" version="1.1" viewBox="0,0,200,200" width="200mm" xmlns="http://www.w3.org/2000/svg" xmlns:ev="http://www.w3.org/2001/xml-events" xmlns:xlink="http://www.w3.org/1999/xlink"><defs /><rect fill="#1a1a1a" height="200" width="200" x="0" y="0" /><text alignment-baseline="middle" fill="#e1ed5e" style="dominant-baseline: central; font-size:9.0px; font-family:Arial;" text-anchor="middle" x="100.0" y="100.0">2023</text><line stroke="#e1ed5e" stroke-width="0.3" x1="100.0" x2="100.0" y1="15.0" y2="10.0" /><path d="M 100.0 14.0 a86.0,86.0 0 0,1 42.46469731375804,11.215312516191453" fill="none" id="id25" stroke="none" /><text fill="#e1ed5e" style="font-size:6.75px; font-family:Arial;" text-anchor="middle"><textPath startOffset="22.20632615414155" xlink:href="#id25">January</textPath></text><path d="M 100.0 79.0 l 0.0 -3.7973306912227542 a24.797330691222754,24.797330691222754 0 0,0 0.42684528490202756,0.003673992127017591 l -0.06536480562949917 3.7967680757042954" fill="#ff2a04" stroke="none" /><path d="M 103.95276090670814 79.375362276772 l 0.9147699620210182 -4.773068625212365 a25.859937055600884,25.859937055600884 0 0,0 0.43645858769384555,0.08754948670217279 l -0.9967949591819891 4.756615182432984" fill="#ff3905" stroke="none" /><path d="M 105.01212808612495 79.60689891045804 l 4.678757887087305 -19.036700763693233 a40.60323318568598,40.60323318568598 0 0,0 0.677283413123572,0.1726546223494549 l -5.005750188895902 18.95334314517491" fill="#fffa17" stroke="none" /><path d="M 106.0581310904928 79.89281104454417 l 4.8216216232624864 -16.003162625978153 a37.71374431751953,37.71374431751953 0 0,0 0.6199683899169415,0.1926271965986786 l -5.096375385890147 15.917795294496953" fill="#ffd614" stroke="none" /><path d="M 106.40334571778207 80.00007090966166 l 2.364531878191486 -7.38527513270895 a28.754566383028322,28.754566383028322 0 0,0 0.47009221801258766,0.1549820133064543 l -2.491306918446491 7.34347939514326" fill="#ff6108" stroke="none" /><path d="M 107.08798089147638 80.2323363322302 l 6.592590596275396 -18.38607010964008 a40.53227648910129,40.53227648910129 0 0,0 0.6547268838940867,0.2411414368056595 l -6.908099805942059 18.269865405028096" fill="#fff917" stroke="none" /><path d="M 107.4271985657038 80.35727306442388 l 2.0627812498587605 -5.45544170663525 a26.83240179508101,26.83240179508101 0 0,0 0.43061767278264074,0.1670729669927253 l -2.1563820876410684 5.419126035751979" fill="#ff4606" stroke="none" /><path d="M 108.09893153111575 80.62456947434976 l 3.253933842883075 -7.784529214208278 a29.437237731670358,29.437237731670358 0 0,0 0.4658320106677066,0.19944495618731442 l -3.3874496113410966 7.727364730058173" fill="#ff6a09" stroke="none" /><path d="M 108.76106565485865 80.91482961587045 l 3.0892100616934504 -6.729558104280421 a28.404739771535144,28.404739771535144 0 0,0 0.44260236931481806,0.20780774704314292 l -3.2045906423078665 6.675385374597274" fill="#ff5c08" stroke="none" /><path d="M 109.41281617654863 81.2277094730956 l 7.751748717627845 -15.459568771927861 a38.29415724443409,38.29415724443409 0 0,0 0.5867020704773213,0.3005315881305331 l -8.016711275693922 15.323844658484829" fill="#ffde14" stroke="none" /><line stroke="#e1ed5e" stroke-width="0.3" x1="143.23703022742887" x2="145.7803849466894" y1="26.81831364943548" y2="22.513508569990506" /><path d="M 143.74570117128098 25.957352633546492 a86.0,86.0 0 0,1 28.547481713284135,27.462654790039103" fill="none" id="id26" stroke="none" /><text fill="#e1ed5e" style="font-size:6.75px; font-family:Arial;" text-anchor="middle"><textPath startOffset="19.985693538727396" xlink:href="#id26">February</textPath></text><path d="M 110.68208982089419 81.91981866633111 l 2.8039084992920045 -4.74581050714018 a26.512224618253875,26.512224618253875 0 0,0 0.39091383098904825,0.23552120920619277 l -2.88518439649869 4.696842688475372" fill="#ff4206" stroke="none" /><path d="M 111.60114157652 82.49532879139004 l 13.150524135742241 -19.842495645683634 a44.80464069238839,44.80464069238839 0 0,0 0.6392028581067233,0.4315926231337351 l -13.490131688255506 19.613191110251226" fill="#d2ff1c" stroke="none" /><path d="M 112.19680574252982 82.90503203632743 l 3.5321012526882924 -4.950571406463187 a27.081438687492714,27.081438687492714 0 0,0 0.37714731352547376,0.2740135625992265 l -3.616793882567555 4.889038609047286" fill="#ff4a06" stroke="none" /><path d="M 112.77801427241765 83.33499621200491 l 5.147324935695831 -6.71310797770636 a29.459360065275675,29.459360065275675 0 0,0 0.3997599316399965,0.31201896753198294 l -5.262117422495258 6.623510620951153" fill="#ff6a09" stroke="none" /><path d="M 113.6212207817346 84.01681056812373 l 40.86366234520383 -47.94956829562881 a84.0,84.0 0 0,0 1.0924248054129433,0.947340026321315 l -41.68298094926353 47.23906327588782" fill="#4dd2ff" stroke="none" /><path d="M 113.89432698308785 84.25364557470407 l 3.1562869171119536 -3.5770003487944595 a25.7704379881105,25.7704379881105 0 0,0 0.33009355541145835,0.2963612532656209 l -3.2173914601194022 3.522140086759541" fill="#ff3705" stroke="none" /><path d="M 114.16331599549186 84.49514656593476 l 7.840878762803253 -8.583560237605031 a32.625699382212375,32.625699382212375 0 0,0 0.4113822848613892,0.3823349997176143 l -7.987468931459488 8.447320651812776" fill="#ff950d" stroke="none" /><path d="M 114.68862486808459 84.99185889309783 l 9.507049362580808 -9.713852700664907 a34.59201684345495,34.59201684345495 0 0,0 0.4219636340620066,0.420151588117743 l -9.672848796810138 9.548765261897044" fill="#ffaf10" stroke="none" /><path d="M 115.4437574822437 85.77008943001954 l 16.060409670790445 -14.798095191235486 a42.83850681897657,42.83850681897657 0 0,0 0.49500171933990406,0.5465932618894852 l -16.312755030746384 14.519449142076452" fill="#e9ff1a" stroke="none" /><path d="M 115.68641384162765 86.03803664274999 l 21.071476152540782 -18.75503100295709 a49.20918813381513,49.20918813381513 0 0,0 0.557723198217924,0.6375740277663615 l -21.391191214336555 18.38954141898778" fill="#a0ff22" stroke="none" /><path d="M 115.9244219780498 86.31012108654704 l 5.923559211053417 -5.092354902913802 a28.811570404476043,28.811570404476043 0 0,0 0.32006826591109266,0.3788598721108077 l -6.010338090451627 4.989636081173887" fill="#ff6209" stroke="none" /><path d="M 116.38621287248628 86.86637796730983 l 6.674578765308485 -5.349704377279983 a29.553907798111666,29.553907798111666 0 0,0 0.31474337531189994,0.39969212395592024 l -6.76567622121435 5.234019859371025" fill="#ff6c09" stroke="none" /><path d="M 116.82858285166822 87.43820079747576 l 16.276269311724995 -12.149521362687349 a41.31078068539457,41.31078068539457 0 0,0 0.42045992089137035,0.5735068595734661 l -16.48299184512999 11.867552059442389" fill="#fbff18" stroke="none" /><path d="M 117.2510076193507 88.02491185347247 l 17.998261386566686 -12.49380739630623 a42.909647103392004,42.909647103392004 0 0,0 0.41596925414471975,0.610383552547359 l -18.21065510638014 12.182145820488465" fill="#e8ff1a" stroke="none" /><path d="M 117.45458315368197 88.32363383020206 l 11.97037204830381 -8.00766457692377 a35.40182276489101,35.40182276489101 0 0,0 0.3344686071912755,0.5094186353244771 l -12.10643729085301 7.800427877621618" fill="#ffb911" stroke="none" /><line stroke="#e1ed5e" stroke-width="0.3" x1="172.23445277983987" x2="176.4835382374775" y1="55.19839476539836" y2="52.563006222186495" /><path d="M 173.08426987136738 54.67131705675599 a86.0,86.0 0 0,1 12.851231095245387,41.99856678651699" fill="none" id="id27" stroke="none" /><text fill="#e1ed5e" style="font-size:6.75px; font-family:Arial;" text-anchor="middle"><textPath startOffset="22.20632615414155" xlink:href="#id27">March</textPath></text><path d="M 117.84615892207809 88.93136811851018 l 5.880713966516107 -3.6473651489887717 a27.919976104441076,27.919976104441076 0 0,0 0.24979630582145784,0.4105994472542673 l -5.942626070623789 3.545597928527423" fill="#ff5507" stroke="none" /><path d="M 118.03404312379186 89.2402003453031 l 0.9065370202978488 -0.5408746475216273 a22.055630026809652,22.055630026809652 0 0,0 0.19171628023123133,0.32770526866048666 l -0.9157129749994074 0.5251899665072454" fill="#ff0200" stroke="none" /><path d="M 118.21658344932153 89.55222093294921 l 19.41327432441786 -11.134118627339074 a43.37954015619536,43.37954015619536 0 0,0 0.3659216220437174,0.6509337349839497 l -19.60205358775401 10.79830138242033" fill="#e3ff1b" stroke="none" /><path d="M 118.3937258080291 89.86733742301442 l 18.233378358574853 -10.044331011246422 a41.816932334770954,41.816932334770954 0 0,0 0.34188707606712687,0.633464828304307 l -18.403573533860445 9.728985199609657" fill="#f5ff19" stroke="none" /><path d="M 118.56541770881063 90.18545643968196 l 40.51222361035462 -21.416646239016554 a66.8248076698916,66.8248076698916 0 0,0 0.5288406031250232,1.021551718654349 l -40.874873646639756 20.71612179810186" fill="#38ff7e" stroke="none" /><path d="M 118.73160827565052 90.50648371742162 l 0.818784602327653 -0.4149747763103966 a21.917939153747522,21.917939153747522 0 0,0 0.16766178389266623,0.33799592546688456 l -0.8258063991737274 0.40081926234456217" fill="#ff0000" stroke="none" /><path d="M 118.89224826269711 90.83032412892265 l 7.952680785322843 -3.859969660230609 a29.8399376384194,29.8399376384194 0 0,0 0.22030656319570974,0.4640218072685313 l -8.017945542360309 3.722505437321537" fill="#ff700a" stroke="none" /><path d="M 119.196687751892 91.48605970444005 l 9.383810429365674 -4.16182222543042 a31.26531355635855,31.26531355635855 0 0,0 0.21395790560620467,0.4938443453053436 l -9.45405904481456 3.999678735538473" fill="#ff830c" stroke="none" /><path d="M 119.47837535516314 92.15188598940014 l 25.329011566173758 -10.205418415167877 a48.30768009091969,48.30768009091969 0 0,0 0.30412318563194984,0.7739603351317159 l -25.50092830168741 9.767909075140375" fill="#aaff21" stroke="none" /><path d="M 119.61058180528143 92.48833698450437 l 9.467751849624936 -3.6265401054834947 a31.138546159226017,31.138546159226017 0 0,0 0.18741758834554803,0.5021859586035224 l -9.528774026472108 3.463031009850639" fill="#ff810b" stroke="none" /><path d="M 119.7369772167798 92.82701384747503 l 5.422176015986975 -1.9705749797472387 a26.769155787387806,26.769155787387806 0 0,0 0.153663774261517,0.4344281824236901 l -5.455292871058302 1.876949170896934" fill="#ff4506" stroke="none" /><path d="M 120.08093135843002 93.85539295169968 l 8.242743647910869 -2.522214722626571 a29.61999941718149,29.61999941718149 0 0,0 0.14498863179243202,0.48882958869428644 l -8.284938176815004 2.379955747185755" fill="#ff6d0a" stroke="none" /><path d="M 120.28053869075195 94.5502522615342 l 39.25778859645376 -10.549278196355429 a61.65047645413218,61.65047645413218 0 0,0 0.26657568590374936,1.027224860853204 l -39.433560614227815 9.871956909953374" fill="#31ff42" stroke="none" /><path d="M 120.37134235888165 94.90015583598534 l 6.546570341309972 -1.6388948730658859 a27.748596864436415,27.748596864436415 0 0,0 0.11200813585188958,0.4643460351853549 l -6.573811277422681 1.5259636062211248" fill="#ff5307" stroke="none" /><path d="M 120.53481517161879 95.60439243477599 l 1.234476540339519 -0.2642475412833336 a22.262441718148967,22.262441718148967 0 0,0 0.07698639010587258,0.37541297931618045 l -1.2388422263603887 0.24295890580374135" fill="#ff0500" stroke="none" /><path d="M 120.6074358757038 95.95851677861258 l 26.965108484524233 -5.288335441654 a48.47878394917822,48.47878394917822 0 0,0 0.1535491057195201,0.8202654626237648 l -27.052143314153614 4.823391901567672" fill="#a8ff21" stroke="none" /><path d="M 120.73433829027371 96.67025291283417 l 9.254139521506094 -1.4861310587575223 a30.372709523254457,30.372709523254457 0 0,0 0.078454309138886,0.5169158734604097 l -9.27834972408428 1.3266160729050305" fill="#ff770a" stroke="none" /><path d="M 120.83666639777658 97.38593545837742 l 19.491840405883707 -2.4453493607510968 a40.644632241519986,40.644632241519986 0 0,0 0.0811143899781453,0.694938557609587 l -19.53104514886544 2.1094670648166574" fill="#fffb17" stroke="none" /><path d="M 120.87857604477298 97.74499172005257 l 25.43120808143877 -2.7467191569832914 a46.57910887049773,46.57910887049773 0 0,0 0.0792352215245037,0.7978878675571496 l -25.4747204286455 2.308555758721707" fill="#bdff1f" stroke="none" /><path d="M 120.91429891909075 98.10471618934814 l 8.28277178575939 -0.7505966771156907 a29.31671232078331,29.31671232078331 0 0,0 0.04121862209459549,0.502971592495322 l -8.29446489167348 0.6079111674125999" fill="#ff6809" stroke="none" /><path d="M 120.94382443527127 98.46500227214037 l 4.498686615933807 -0.3297140765839072 a25.51075300151533,25.51075300151533 0 0,0 0.028328365858460505,0.43822728139887285 l -4.503695572796683 0.25222773093199913" fill="#ff3404" stroke="none" /><path d="M 120.98425023603335 99.18683210126433 l 7.869002113441539 -0.3049344075561003 a28.874908206084626,28.874908206084626 0 0,0 0.01497137252919291,0.4968269678676782 l -7.873085180426377 0.16943729226342302" fill="#ff6209" stroke="none" /><line stroke="#e1ed5e" stroke-width="0.3" x1="184.98032266829074" x2="189.97916517819016" y1="98.17113171792111" y2="98.06355123074" /><path d="M 185.9800911702706 98.14961562048488 a86.0,86.0 0 0,1 -9.607161424134198,41.387399972396054" fill="none" id="id28" stroke="none" /><text fill="#e1ed5e" style="font-size:6.75px; font-family:Arial;" text-anchor="middle"><textPath startOffset="21.466115282336823" xlink:href="#id28">April</textPath></text><path d="M 120.99513854157772 99.54816195383933 l 23.903475485605096 -0.5144285968142793 a44.90901037416948,44.90901037416948 0 0,0 0.009980477703175592,0.7729989969832762 l -23.908788970425984 0.10289334177054035" fill="#d1ff1d" stroke="none" /><path d="M 120.99980553446 99.90962569577887 l 24.965694324737846 -0.10744181655840357 a45.96592551579438,45.96592551579438 0 0,0 -0.003405205472163044,0.7912498285502416 l -24.96384482197618 -0.32231749019552275" fill="#c4ff1e" stroke="none" /><path d="M 120.99824983174949 100.27111621757518 l 7.0116445807954415 0.09052995239881968 a28.012228989392703,28.012228989392703 0 0,0 -0.010375112434891115,0.4820907066279001 l -7.009047405675543 -0.2112104748168346" fill="#ff5708" stroke="none" /><path d="M 120.9904718944345 100.63252640178507 l 24.195164481732743 0.7290965351896702 a45.20614727823755,45.20614727823755 0 0,0 -0.03013284018617674,0.7775947129397743 l -24.17902950869536 -1.1454684951434506" fill="#cdff1d" stroke="none" /><path d="M 120.9764740272857 100.99374915477107 l 18.500692610299097 0.876460344109747 a39.521441892994524,39.521441892994524 0 0,0 -0.038041550421137674,0.6792574376375149 l -18.48286470899043 -1.1947894980826852" fill="#ffed16" stroke="none" /><path d="M 120.92983693683757 101.71520430193887 l 7.43882609278877 0.6096132786046576 a28.46376325912111,28.46376325912111 0 0,0 -0.04422103656202743,0.4879754535824284 l -7.4272304599496675 -0.7375701207356566" fill="#ff5d08" stroke="none" /><path d="M 120.89721153311464 102.0752229133903 l 19.616620959242784 1.9480523147025606 a40.713110502389554,40.713110502389554 0 0,0 -0.07525663087791028,0.6967829362890349 l -19.580182026863824 -2.2854315728763868" fill="#fffb17" stroke="none" /><path d="M 120.81339534386255 102.79330883721812 l 5.875465750824634 0.7885301813281692 a26.92814284881688,26.92814284881688 0 0,0 -0.06560971348667789,0.4588741833146419 l -5.861021986321354 -0.8895498366232204" fill="#ff4806" stroke="none" /><path d="M 120.76222939487914 103.15116336523771 l 6.675181386753195 1.0131179384542062 a27.75162606364378,27.75162606364378 0 0,0 -0.07574640569474307,0.4716729405667556 l -6.656753226697163 -1.1278701087141667" fill="#ff5307" stroke="none" /><path d="M 120.70491114924044 103.5080841355445 l 4.369535101491995 0.7403411035555797 a25.431810234293042,25.431810234293042 0 0,0 -0.07684470652954876,0.4309859236807586 l -4.356143952623257 -0.8154457779695566" fill="#ff3304" stroke="none" /><path d="M 120.64145759157962 103.86396538481128 l 0.9022667673204745 0.16889929121158978 a21.917939153747522,21.917939153747522 0 0,0 -0.07261107123626337,0.37024228789295033 l -0.899225763108547 -0.18440530617248505" fill="#ff0000" stroke="none" /><path d="M 120.5718875245553 104.21870165774334 l 34.93132399371466 7.163408523576363 a56.65826436647628,56.65826436647628 0 0,0 -0.20414771607114574,0.9537101652102223 l -34.80284223891907 -7.763632508202754" fill="#51ff2b" stroke="none" /><path d="M 120.49622156327973 104.57218783832717 l 21.28701878177205 4.748594665986136 a42.81023429304115,42.81023429304115 0 0,0 -0.16663258683302967,0.7178488228967186 l -21.20212562900847 -5.11431214623142" fill="#e9ff1a" stroke="none" /><path d="M 120.23288151984713 105.62410040840565 l 10.169269358366806 2.8267348818049145 a31.55483156545052,31.55483156545052 0 0,0 -0.14997164438337582,0.5220709685298968 l -10.11910507709733 -3.0013633258393932" fill="#ff870c" stroke="none" /><path d="M 120.02730092923936 106.31721596034902 l 5.293496470695501 1.6697287621971582 a26.550594474880523,26.550594474880523 0 0,0 -0.14123367347473206,0.4346725517479712 l -5.263970546204523 -1.7606002139229247" fill="#ff4206" stroke="none" /><path d="M 119.79798401119884 107.00284435728193 l 20.8168740235248 7.363241060778186 a43.080750961650544,43.080750961650544 0 0,0 -0.25330607435426616,0.6969895259929051 l -20.687043688165307 -7.720478383777222" fill="#e6ff1a" stroke="none" /><path d="M 119.67450827220406 107.3425965602758 l 6.735778549672917 2.513816545010261 a28.189574833896724,28.189574833896724 0 0,0 -0.1735749181833223,0.4531493392817632 l -6.691509351896087 -2.6293894511251685" fill="#ff5908" stroke="none" /><path d="M 119.54520255179757 107.68017299344265 l 0.8543479376295697 0.3357110237254913 a21.917939153747522,21.917939153747522 0 0,0 -0.14100268002556335,0.34995708827782346 l -0.848442643346614 -0.35036747984612826" fill="#ff0000" stroke="none" /><path d="M 119.41010516605496 108.01547362559984 l 5.827697984354892 2.4065691088191032 a27.30504866534561,27.30504866534561 0 0,0 -0.18313758633381827,0.43288315612469885 l -5.785409416828766 -2.5065267906099655" fill="#ff4d07" stroke="none" /><path d="M 119.12269723197855 108.67885076344098 l 6.826796224779189 3.0983466876315062 a28.496992656486768,28.496992656486768 0 0,0 -0.2065697917164862,0.4449329540459305 l -6.772451816222872 -3.215399708956267" fill="#ff5d08" stroke="none" /><path d="M 118.81262510543309 109.33194174019688 l 20.483564046163494 10.16080558875245 a43.86522176244317,43.86522176244317 0 0,0 -0.34135775669232205,0.6735312385727198 l -20.305627619684902 -10.511891039027864" fill="#ddff1b" stroke="none" /><line stroke="#e1ed5e" stroke-width="0.3" x1="174.80103733775053" x2="179.2010983576182" y1="140.37084112569926" y2="142.7455964860345" /><path d="M 175.68104954172406 140.8457921977663 a86.0,86.0 0 0,1 -30.038265399797805,32.042727171017184" fill="none" id="id29" stroke="none" /><text fill="#e1ed5e" style="font-size:6.75px; font-family:Arial;" text-anchor="middle"><textPath startOffset="22.206326154141568" xlink:href="#id29">May</textPath></text><path d="M 118.48025628344425 109.97397251340804 l 8.933111178579816 4.821286241262426 a31.15112192563236,31.15112192563236 0 0,0 -0.2587376445658382,0.46968398031617825 l -8.848797124562468 -4.974340739976409" fill="#ff810b" stroke="none" /><path d="M 118.30583269289576 110.29060199501025 l 0.8001733605124025 0.4498164993739173 a21.917939153747522,21.917939153747522 0 0,0 -0.18770940977405215,0.32728717801429613 l -0.7923119545859708 -0.46352352324652857" fill="#ff0000" stroke="none" /><path d="M 118.12598468904814 110.60418214915192 l 8.790859598522278 5.142886195124891 a31.18471849865952,31.18471849865952 0 0,0 -0.2750479167580481,0.46099612921310174 l -8.701030806066003 -5.293444418224097" fill="#ff820b" stroke="none" /><path d="M 117.94076556474637 110.91462005526583 l 0.784215769527903 0.4770931950955448 a21.917939153747522,21.917939153747522 0 0,0 -0.1988639254473785,0.32063196747352146 l -0.7758872044125615 -0.49052149393433986" fill="#ff0000" stroke="none" /><path d="M 117.55443506779139 111.5257021239791 l 10.940266060549414 7.1830421932703885 a34.08760927847069,34.08760927847069 0 0,0 -0.32626207661644285,0.4877175367217177 l -10.815000878522248 -7.3702966441979125" fill="#ffa80f" stroke="none" /><path d="M 117.14729908036423 112.12312394758627 l 11.75371499295476 8.30986518846949 a35.394571045576406,35.394571045576406 0 0,0 -0.35600231642967267,0.49445608067831126 l -11.608932884149485 -8.510954874598932" fill="#ffb911" stroke="none" /><path d="M 116.93607887273984 112.41649034213515 l 0.7402995194401949 0.54274203034161 a21.917939153747522,21.917939153747522 0 0,0 -0.22569082853621,0.302349746692341 l -0.7308474242088928 -0.555404656543266" fill="#ff0000" stroke="none" /><path d="M 116.71984013943494 112.70617746262583 l 7.699916122495223 5.851521299477241 a30.671039748222405,30.671039748222405 0 0,0 -0.3230583286257356,0.4175964384497099 l -7.598050976651418 -5.983195732040204" fill="#ff7b0b" stroke="none" /><path d="M 116.0416608686014 113.55231037782055 l 22.833492337212725 19.29018308628995 a50.891128045226715,50.891128045226715 0 0,0 -0.571089310488109,0.6643058879380793 l -22.498060517153835 -19.680366073389557" fill="#8eff24" stroke="none" /><path d="M 115.56566222782051 114.09645910891815 l 5.515635892141874 4.99502910157558 a28.441273749854297,28.441273749854297 0 0,0 -0.3317520079144663,0.3600512827738333 l -5.428837476231686 -5.089231639150748" fill="#ff5c08" stroke="none" /><path d="M 115.32070863581623 114.36230785411682 l 1.5381427145388176 1.4419228062420808 a23.10832264832731,23.10832264832731 0 0,0 -0.2745416718751791,0.28785584535798553 l -1.513094491284674 -1.4681857681825734" fill="#ff1101" stroke="none" /><path d="M 113.20401910651253 116.32954008644616 l 15.990153328110223 19.775179636858443 a46.43113707891362,46.43113707891362 0 0,0 -0.6258088311809561,0.4971803839631797 l -15.647387004211916 -20.04749393482675" fill="#bfff1e" stroke="none" /><path d="M 112.92097659922987 116.55440617244103 l 15.666985349939562 20.072603412658534 a46.46298956754866,46.46298956754866 0 0,0 -0.6347093759636295,0.4866680840926656 l -15.319147245482439 -20.339310838578573" fill="#bfff1e" stroke="none" /><path d="M 112.34349029814194 116.9893568818739 l 1.2955161391858872 1.783124991654071 a23.204063702063177,23.204063702063177 0 0,0 -0.32515818239861116,0.23199172965621107 l -1.2646306289383913 -1.8051609831545012" fill="#ff1302" stroke="none" /><path d="M 111.45004920935366 117.60387380957326 l 13.971589216347688 21.480614535949478 a46.62463865252361,46.62463865252361 0 0,0 -0.6765417081147631,0.43180092758188443 l -13.599765706185993 -21.71792989235517" fill="#bdff1f" stroke="none" /><line stroke="#e1ed5e" stroke-width="0.3" x1="143.8653032363475" x2="146.44561519142675" y1="172.8068346515853" y2="177.08958963109032" /><path d="M 144.38136562736335 173.6633856474863 a86.0,86.0 0 0,1 -40.68145358897372,12.25698825130547" fill="none" id="id30" stroke="none" /><text fill="#e1ed5e" style="font-size:6.75px; font-family:Arial;" text-anchor="middle"><textPath startOffset="21.466115282336833" xlink:href="#id30">June</textPath></text><path d="M 110.8373102113329 117.98757091392108 l 4.681477364647575 7.770231213872173 a30.071533686909895,30.071533686909895 0 0,0 -0.445677497658033,0.26331412131740944 l -4.54703199596116 -7.8496639074833325" fill="#ff730a" stroke="none" /><path d="M 110.5260780823613 118.17145234162733 l 12.833143730366883 22.15420196059412 a46.60269990674904,46.60269990674904 0 0,0 -0.6976007704994229,0.3961159237513175 l -12.44989419294626 -22.371821050140067" fill="#bdff1f" stroke="none" /><path d="M 110.21172684928248 118.3499491758327 l 22.950853117970684 41.24150542533897 a68.19749388040564,68.19749388040564 0 0,0 -1.0306823259699134,0.5620101829790496 l -22.23754798013212 -41.630456260077786" fill="#39ff8d" stroke="none" /><path d="M 109.57404056367764 118.69057910512821 l 3.0602836443327788 5.974329558988252 a27.71252185569414,27.71252185569414 0 0,0 -0.4264377688535074,0.21382475000601311 l -2.956991967796511 -6.026122149903568" fill="#ff5207" stroke="none" /><path d="M 109.2508944713604 118.85261126421891 l 3.450403558626761 7.03165701401651 a28.83259121109686,28.83259121109686 0 0,0 -0.44743696306782355,0.2147969329720226 l -3.3288539275587046 -7.090008223488093" fill="#ff6209" stroke="none" /><path d="M 108.92500713936063 119.00905698771935 l 9.487787670264742 20.207703332365483 a43.32418842522439,43.32418842522439 0 0,0 -0.677780116908997,0.31113560865746076 l -9.138539557588325 -20.368026011357017" fill="#e3ff1b" stroke="none" /><path d="M 108.59647513512805 119.15986991738527 l 2.9984077401541964 6.682867263336745 a28.324695477328362,28.324695477328362 0 0,0 -0.44655814615040224,0.19575796813812357 l -2.882928919346041 -6.733489784769323" fill="#ff5b08" stroke="none" /><path d="M 107.93186726928326 119.44442032107085 l 8.109442074902416 19.879732592654445 a42.47013783657769,42.47013783657769 0 0,0 -0.6792773427096828,0.2702984733508485 l -7.766043656150868 -20.01637791041136" fill="#edff19" stroke="none" /><path d="M 106.91757812671514 119.82793768551818 l 4.375031518816995 12.540205652650025 a34.28147802774216,34.28147802774216 0 0,0 -0.5588375013592172,0.18958802204093325 l -4.15852428452055 -12.613656661589081" fill="#ffab0f" stroke="none" /><path d="M 106.57524785965236 119.94407469862006 l 3.9464995578887083 11.970542200178722 a33.604314314022616,33.604314314022616 0 0,0 -0.5509165776749031,0.1763860907993899 l -3.739861635122865 -12.036701137637818" fill="#ffa20e" stroke="none" /><path d="M 106.2309692047433 120.05430185196036 l 3.73928967006298 12.034860274750713 a33.60238664179974,33.60238664179974 0 0,0 -0.5538393778696037,0.16686726133841825 l -3.5315753177531306 -12.097442905194857" fill="#ffa20e" stroke="none" /><path d="M 105.88484417918355 120.15858648285463 l 4.179395208512071 14.316555747531718 a35.914124606597504,35.914124606597504 0 0,0 -0.5949240274020338,0.1681314726793041 l -3.932340013005432 -14.38637601354954" fill="#ffc011" stroke="none" /><path d="M 105.53697534728816 120.25689768951611 l 4.552200175696584 16.65412024390651 a38.26505857326029,38.26505857326029 0 0,0 -0.6368573179872532,0.16819980598652304 l -4.264852414897834 -16.730011399196616" fill="#ffdd14" stroke="none" /><path d="M 104.83641907484287 120.43548508189849 l 2.252790926040647 9.518793687917888 a30.781743210164358,30.781743210164358 0 0,0 -0.5166640118164769,0.11759104697582472 l -2.088606764831308 -9.556161468471398" fill="#ff7c0b" stroke="none" /><path d="M 104.48393922423573 120.51570834832081 l 2.7638240378595773 12.645534439970048 a33.94404359482457,33.94404359482457 0 0,0 -0.5718901170220173,0.11984513440541901 l -2.5457424594081823 -12.691235555102008" fill="#ffa60f" stroke="none" /><path d="M 104.13013068566511 120.58985236759428 l 1.6402212961100544 8.176960224117364 a29.339844387457745,29.339844387457745 0 0,0 -0.4960283305225769,0.09506501010202847 l -1.4992253510157731 -8.20398243256786" fill="#ff6909" stroke="none" /><path d="M 103.7750983002368 120.6578951692458 l 2.644345469378636 14.470248759950767 a35.70988314488868,35.70988314488868 0 0,0 -0.6056243624126195,0.10529555834191759 l -2.3948721354939666 -14.513622896813692" fill="#ffbd11" stroke="none" /><path d="M 103.06178313531738 120.77559828337769 l 3.508492441018413 23.806725138065676 a45.06386670940669,45.06386670940669 0 0,0 -0.7683848685336259,0.1064911412398928 l -3.0981789812979565 -23.86359084479817" fill="#cfff1d" stroke="none" /><path d="M 102.70371172650421 120.8252237178851 l 2.4142540004750233 18.595687986565814 a39.75175282666977,39.75175282666977 0 0,0 -0.6793244750062647,0.08225673339635581 l -2.0938021024173783 -18.63449024868752" fill="#fff016" stroke="none" /><path d="M 102.34483914955558 120.86867818915974 l 1.415010937136744 12.593361846097075 a33.67260898706143,33.67260898706143 0 0,0 -0.5765510751901203,0.05976187631857546 l -1.198027265341021 -12.615853090871408" fill="#ffa30f" stroke="none" /><path d="M 101.98527174616119 120.90594882070398 l 1.3555050878330968 14.274176846186633 a35.33839316936706,35.33839316936706 0 0,0 -0.6060630048490969,0.052293666238507376 l -1.109597765242458 -14.295394764703802" fill="#ffb811" stroke="none" /><path d="M 101.62511606390274 120.93702456842531 l 1.4013642535832185 18.054339907343966 a39.10864465555426,39.10864465555426 0 0,0 -0.6716206494408061,0.04631889220514148 l -1.090380843363482 -18.075787144065394" fill="#ffe815" stroke="none" /><path d="M 101.26447882468166 120.96189622390904 l 0.7523033643865679 12.471308135301465 a33.49397802774216,33.49397802774216 0 0,0 -0.5757964621100795,0.029762100109534884 l -0.5375188338630087 -12.482410042173202" fill="#ffa00e" stroke="none" /><path d="M 100.90346689309514 120.98055641714683 l 0.5920727955480084 13.749277129012288 a34.76201917472899,34.76201917472899 0 0,0 -0.5980385744059563,0.020597657700340277 l -0.3553138694673998 -13.757431585138722" fill="#ffb110" stroke="none" /><line stroke="#e1ed5e" stroke-width="0.3" x1="102.19456741930631" x2="102.32365962044197" y1="184.97166512339345" y2="189.96999836594603" /><path d="M 102.22038585953345 185.97133177190398 a86.0,86.0 0 0,1 -42.740103519485714,-10.115201625700543" fill="none" id="id31" stroke="none" /><text fill="#e1ed5e" style="font-size:6.75px; font-family:Arial;" text-anchor="middle"><textPath startOffset="22.20632615414155" xlink:href="#id31">July</textPath></text><path d="M 100.54218724476979 120.99299961872073 l 0.3938093850437887 15.247943122644024 a36.25302774216109,36.25302774216109 0 0,0 -0.6239669328312579,0.010742156610707264 l -0.13128276231986288 -15.252462756533891" fill="#ffc412" stroke="none" /><path d="M 100.18074693466247 120.99922214144158 l 0.06730368832217277 7.8193586223466465 a28.819648269029024,28.819648269029024 0 0,0 -0.49610124596925104,0.0 l 0.06730368832216739 -7.8193586223466465" fill="#ff6209" stroke="none" /><path d="M 99.81925306533755 120.99922214144158 l -0.19077344896549747 22.164104973602914 a43.1649259820492,43.1649259820492 0 0,0 -0.7429306777481856,-0.012790225365080603 l 0.572263816606351 -22.157537270958674" fill="#e5ff1a" stroke="none" /><path d="M 99.45781275523022 120.99299961872073 l -0.1911527614559596 7.401261994029928 a28.403730038466023,28.403730038466023 0 0,0 -0.48865188568692297,-0.016830158967592747 l 0.3185249988175256 -7.396875036636241" fill="#ff5c08" stroke="none" /><path d="M 99.09653310690486 120.98055641714683 l -0.5225080036643172 12.133824419104188 a33.145069355402725,33.145069355402725 0 0,0 -0.5697983576458483,-0.029452066621525483 l 0.7312944297236543 -12.123032545720461" fill="#ff9c0e" stroke="none" /><path d="M 98.73552117531835 120.96189622390904 l -0.7047527553613107 11.683037970301369 a32.70427497377317,32.70427497377317 0 0,0 -0.5616371160603945,-0.038733783809160156 l 0.9057526322006352 -11.669175841975923" fill="#ff960d" stroke="none" /><path d="M 98.37488393609728 120.93702456842531 l -1.0689082990428558 13.771175988937657 a34.812597622100476,34.812597622100476 0 0,0 -0.5970454689417515,-0.05151559529660935 l 1.3057980857261489 -13.750736141362383" fill="#ffb110" stroke="none" /><path d="M 98.01472825383883 120.90594882070398 l -1.617195792361163 17.02991670210143 a38.106530481408086,38.106530481408086 0 0,0 -0.6524698198842721,-0.06763116461913729 l 1.9100982088510285 -16.999556169026533" fill="#ffdb14" stroke="none" /><path d="M 97.65516085044442 120.86867818915974 l -0.7869143797665663 7.003407017015705 a28.04747785289661,28.04747785289661 0 0,0 -0.4793081263799091,-0.05803753908024368 l 0.9073499291978647 -6.988823949210112" fill="#ff5708" stroke="none" /><path d="M 96.93821686468263 120.77559828337769 l -1.7013881696308792 11.544696529487728 a32.66939328593076,32.66939328593076 0 0,0 -0.55563503044777,-0.086778764544396 l 1.8998590636871662 -11.513699457596227" fill="#ff950d" stroke="none" /><path d="M 96.58105272829116 120.7198165907248 l -0.708901520428557 4.296149755133309 a25.354244375801375,25.354244375801375 0 0,0 -0.42999715295193586,-0.07476051677501931 l 0.7827476448525429 -4.283310659837284" fill="#ff3104" stroke="none" /><path d="M 96.22490169976321 120.6578951692458 l -5.457616576795735 29.864883547618504 a51.3594606014687,51.3594606014687 0 0,0 -0.8682986576976418,-0.16641150431597143 l 5.970882849065072 -29.766514844954063" fill="#88ff25" stroke="none" /><path d="M 95.51606077576429 120.51570834832081 l -2.1777472048235373 9.964012506914816 a31.199221937288726,31.199221937288726 0 0,0 -0.5236712898816406,-0.11918588064971398 l 2.3489386440980407 -9.925049892687415" fill="#ff820c" stroke="none" /><path d="M 94.46302465271185 120.25689768951611 l -2.7233089495142035 9.963163515667706 a31.32865135796713,31.32865135796713 0 0,0 -0.5189648263216108,-0.14666464371802473 l 2.8944049439404282 -9.91481007861116" fill="#ff840c" stroke="none" /><path d="M 94.11515582081647 120.15858648285463 l -3.550353451498916 12.161767570653327 a33.669396200023314,33.669396200023314 0 0,0 -0.554943839062598,-0.16720002643583415 l 3.7591722650017596 -12.098852175111768" fill="#ffa30f" stroke="none" /><path d="M 93.76903079525671 120.05430185196036 l -3.4479143266997725 11.097072123980208 a32.62037533512064,32.62037533512064 0 0,0 -0.5347856639525714,-0.17122148162296516 l 3.6384213357432844 -11.036077795697537" fill="#ff950d" stroke="none" /><path d="M 93.42475214034765 119.94407469862007 l -3.9642616944019795 12.02441840150061 a33.661042953724206,33.661042953724206 0 0,0 -0.5487235154266629,-0.18615680888283387 l 4.170654942765868 -11.954398605719653" fill="#ffa30f" stroke="none" /><path d="M 93.08242187328487 119.8279376855182 l -3.492877024111366 10.011675576137726 a31.603482340599136,31.603482340599136 0 0,0 -0.5120974693566547,-0.1836199329560367 l 3.6646940540977475 -9.950068102141731" fill="#ff870c" stroke="none" /><path d="M 92.7421414339146 119.70592522655815 l -0.8832587146158504 2.398149540590126 a23.555634397948477,23.555634397948477 0 0,0 -0.3792791170871335,-0.14341090845838553 l 0.9244080524632667 -2.382590382025107" fill="#ff1802" stroke="none" /><path d="M 92.40401165467489 119.57807347666478 l -4.555202382584697 11.740682435644862 a33.593390838093015,33.593390838093015 0 0,0 -0.5373005698478088,-0.21380298536245063 l 4.756624028474364 -11.660532605876346" fill="#ffa20e" stroke="none" /><path d="M 92.06813273071674 119.44442032107085 l -4.3904951744545295 10.762993213506135 a32.62404709173563,32.62404709173563 0 0,0 -0.5181452767520308,-0.21658476770517582 l 4.575111910704022 -10.685823402780986" fill="#ff950d" stroke="none" /><path d="M 91.40352486487194 119.15986991738527 l -4.881134996406919 10.879099876435612 a32.92393781326495,32.92393781326495 0 0,0 -0.5150746322390847,-0.23644550084558266 l 5.067677624413423 -10.793467305255955" fill="#ff990e" stroke="none" /><path d="M 91.07499286063937 119.00905698771935 l -5.112893048448212 10.889770037430887 a33.03032696118429,33.03032696118429 0 0,0 -0.5125792918314295,-0.24606920947135652 l 5.299585008279884 -10.800146551459969" fill="#ff9a0e" stroke="none" /><path d="M 90.7491055286396 118.85261126421891 l -10.18117332631126 20.748448004547907 a44.11178021913976,44.11178021913976 0 0,0 -0.6787880668081865,-0.34035842810674066 l 10.536815300802207 -20.570121735531863" fill="#daff1c" stroke="none" /><path d="M 90.42595943632237 118.69057910512821 l -1.272139898537152 2.4834897291541305 a23.79035143956172,23.79035143956172 0 0,0 -0.36286980943730957,-0.18983633401127387 l 1.314700610500957 -2.4612239761981396" fill="#ff1b02" stroke="none" /><path d="M 90.10565033884886 118.52300852407294 l -3.1540618271597887 5.904654283577922 a27.69425486653456,27.69425486653456 0 0,0 -0.41854879699685504,-0.22822617605720974 l 3.2552334360252844 -5.849487455760946" fill="#ff5207" stroke="none" /><line stroke="#e1ed5e" stroke-width="0.3" x1="58.666819895761336" x2="56.23545636021788" y1="174.27360380694188" y2="178.64263932499728" /><path d="M 58.180547188652646 175.14741091055294 a86.0,86.0 0 0,1 -31.652253787137756,-30.449443065178592" fill="none" id="id32" stroke="none" /><text fill="#e1ed5e" style="font-size:6.75px; font-family:Arial;" text-anchor="middle"><textPath startOffset="22.20632615414155" xlink:href="#id32">August</textPath></text><path d="M 89.7882731507175 118.34994917583269 l -5.076551876248243 9.12230323945442 a31.43972199557058,31.43972199557058 0 0,0 -0.4706245417600978,-0.26723289735743755 l 5.232825184929548 -9.033567176302348" fill="#ff850c" stroke="none" /><path d="M 89.4739219176387 118.17145234162733 l -5.0416957044213495 8.7036152018861 a31.058410071103857,31.058410071103857 0 0,0 -0.46030357566205676,-0.2719554660076555 l 5.190767151111789 -8.615541163584695" fill="#ff800b" stroke="none" /><path d="M 89.1626897886671 117.98757091392108 l -5.9721581870830684 9.912479831662827 a32.572550705210396,32.572550705210396 0 0,0 -0.4777630061173499,-0.2934810599163453 l 6.141900393132727 -9.808210304918104" fill="#ff940d" stroke="none" /><path d="M 88.8546689885994 117.79835938074946 l -3.1361589573139437 5.008239247477993 a26.909141508334304,26.909141508334304 0 0,0 -0.3904621480420934,-0.2492114169575941 l 3.2219029074029604 -4.953513401696595" fill="#ff4706" stroke="none" /><path d="M 88.54995079064634 117.60387380957326 l -9.362257059618644 14.39399856165476 a38.170878016085794,38.170878016085794 0 0,0 -0.5477072055979629,-0.3629904703092487 l 9.608638963956567 -14.230710070254194" fill="#ffdc14" stroke="none" /><path d="M 88.24862548938628 117.40417183066458 l -3.0650622903965505 4.539457977921766 a26.47734293041147,26.47734293041147 0 0,0 -0.37552830025246875,-0.2582917891635054 l 3.14274747527191 -4.48602539939316" fill="#ff4106" stroke="none" /><path d="M 87.95078237400918 117.19931262002967 l -2.966675666828236 4.234696709764011 a26.170475871313673,26.170475871313673 0 0,0 -0.36672646981512874,-0.2616495990214148 l 3.0391294644922517 -4.183002848898377" fill="#ff3d05" stroke="none" /><path d="M 87.65650970185807 116.9893568818739 l -6.425945655939393 8.84455542276526 a31.93247173330225,31.93247173330225 0 0,0 -0.44190743892295203,-0.3269125588004096 l 6.57723806528091 -8.732632915225084" fill="#ff8c0c" stroke="none" /><path d="M 87.36589467227662 116.77436683061367 l -3.242947603397416 4.305678265360016 a26.390322298636203,26.390322298636203 0 0,0 -0.3605059672988789,-0.27642060296171134 l 3.3165822991897813 -4.249218320570938" fill="#ff4006" stroke="none" /><path d="M 87.07902340077011 116.55440617244103 l -3.869289536338912 4.957349012391845 a27.28861755449353,27.28861755449353 0 0,0 -0.3678018444238555,-0.29220402960427827 l 3.954048873480126 -4.890011068782435" fill="#ff4d07" stroke="none" /><path d="M 86.79598089348748 116.32954008644616 l -22.161558563202995 27.407417091471494 a56.246293274274386,56.246293274274386 0 0,0 -0.7476200291183783,-0.6152403862519692 l 22.63004872086606 -27.021881586362344" fill="#55ff2b" stroke="none" /><path d="M 86.51685102203217 116.09983520530335 l -6.29391083972271 7.515375486986609 a30.802764016785176,30.802764016785176 0 0,0 -0.4035668475175038,-0.3439284226502015 l 6.4223431638172706 -7.405922674113456" fill="#ff7d0b" stroke="none" /><path d="M 86.24171649860922 115.8653595955263 l -0.6765678811224198 0.7801840050545124 a22.032681547965964,22.032681547965964 0 0,0 -0.2843869914071474,-0.2509384548082935 l 0.689897225436155 -0.7684224084739301" fill="#ff0200" stroke="none" /><path d="M 85.97065885151581 115.62618273729859 l -3.3950915637174948 3.7815262044748583 a26.081986536892412,26.081986536892412 0 0,0 -0.33149018845219125,-0.3028084275945672 l 3.4596813016365404 -3.722525010293715" fill="#ff3c05" stroke="none" /><path d="M 85.70375840098266 115.38237550388516 l -9.803128169203784 10.547905025735707 a35.39998688658352,35.39998688658352 0 0,0 -0.44277657229240386,-0.4186728858226477 l 9.983240575887004 -10.377597503167129" fill="#ffb911" stroke="none" /><path d="M 85.44109423537348 115.13401014063109 l -3.0511717721398988 3.1716988410328604 a25.4010592726425,25.4010592726425 0 0,0 -0.31249356537106965,-0.30584072489263636 l 3.1053152898867626 -3.1187080132176543" fill="#ff3204" stroke="none" /><path d="M 85.18274418774928 114.88116024355367 l -18.51712234326928 18.59698370138494 a47.24369681781093,47.24369681781093 0 0,0 -0.5713323673293884,-0.5787566717084421 l 18.8344953356542 -18.27548653569583" fill="#b6ff1f" stroke="none" /><path d="M 84.9287848128048 114.62390073753433 l -2.2328816043017574 2.1666095622945063 a24.111262967711856,24.111262967711856 0 0,0 -0.2864572451630125,-0.30034927631244424 l 2.269845400843727 -2.127853169399562" fill="#ff2003" stroke="none" /><path d="M 84.67929136418377 114.36230785411682 l -7.546596404386553 7.074512242677103 a31.344072735750085,31.344072735750085 0 0,0 -0.3656115811745296,-0.3967991622006934 l 7.667254393556811 -6.943561825675066" fill="#ff840c" stroke="none" /><path d="M 84.43433777217949 114.09645910891817 l -26.492470437938636 23.99191378797609 a56.74161324163656,56.74161324163656 0 0,0 -0.6493973618716196,-0.7296048202769375 l 26.901526649458596 -23.53233479795829" fill="#50ff2b" stroke="none" /><path d="M 84.19399662182784 113.82643327865904 l -3.014406956185096 2.636877625369625 a25.004968527800443,25.004968527800443 0 0,0 -0.28060038721538627,-0.3264016432483474 l 3.0593498529712613 -2.5845988829597473" fill="#ff2c04" stroke="none" /><path d="M 83.95833913139862 113.55231037782056 l -9.469048914628445 7.999638623765396 a33.39585033220655,33.39585033220655 0 0,0 -0.36720168707920303,-0.4423180870960434 l 9.605346601601184 -7.835459279555591" fill="#ff9f0e" stroke="none" /><path d="M 83.72743513129214 113.27417163493432 l -5.785187019757325 4.719204751067054 a28.46587451917473,28.46587451917473 0 0,0 -0.3064583022133026,-0.38235385212919204 l 5.865563234025489 -4.618923065359603" fill="#ff5d08" stroke="none" /><path d="M 83.50135304334701 112.99209946851258 l -5.67553262994526 4.469280702761117 a28.223997552162256,28.223997552162256 0 0,0 -0.29728361187581975,-0.38427914258366086 l 5.751623059039148 -4.370923566064204" fill="#ff5908" stroke="none" /><path d="M 83.28015986056508 112.70617746262583 l -6.759023148568689 5.136493344643444 a29.489284881687844,29.489284881687844 0 0,0 -0.3036536004230456,-0.40679362012884995 l 6.84643801568682 -5.019386845005286" fill="#ff6b09" stroke="none" /><path d="M 83.06392112726016 112.41649034213515 l -15.442944095330262 11.32181584973814 a40.14857792283483,40.14857792283483 0 0,0 -0.40381861736596547,-0.5608687405469565 l 15.635542505071834 -11.054313503740046" fill="#fff517" stroke="none" /><path d="M 82.85270091963577 112.12312394758628 l -22.422332150556763 15.852567251621913 a48.46024157827252,48.46024157827252 0 0,0 -0.47569286845947334,-0.6852710558664887 l 22.691885926178372 -15.464254933568412" fill="#a8ff21" stroke="none" /><path d="M 82.6465618267979 111.8261652097733 l -8.831562971920855 6.018606902218289 a31.68738197925166,31.68738197925166 0 0,0 -0.3032888274044556,-0.4533756462011818 l 8.933854904736041 -5.865694341811286" fill="#ff880c" stroke="none" /><path d="M 82.44556493220864 111.52570212397912 l -8.947820287570599 5.874863582631446 a31.704088471849865,31.704088471849865 0 0,0 -0.29559553970724173,-0.45877084194164724 l 9.047620690654885 -5.71997114076835" fill="#ff890c" stroke="none" /><path d="M 82.05923443525364 110.91462005526583 l -8.065816032748398 4.906998930196707 a30.441187784124025,30.441187784124025 0 0,0 -0.2684900068610063,-0.45000469501538837 l 8.149086915307636 -4.767432141295207" fill="#ff780b" stroke="none" /><line stroke="#e1ed5e" stroke-width="0.3" x1="26.63291911575756" x2="22.317208475507996" y1="142.92168965132927" y2="145.44649492493687" /><path d="M 25.769776987707644 143.4266507060508 a86.0,86.0 0 0,1 -11.730757126820373,-40.83630448921669" fill="none" id="id33" stroke="none" /><text fill="#e1ed5e" style="font-size:6.75px; font-family:Arial;" text-anchor="middle"><textPath startOffset="21.46611528233685" xlink:href="#id33">September</textPath></text><path d="M 81.87401531095188 110.60418214915194 l -3.715309217444536 2.1735545052076257 a25.304400279752883,25.304400279752883 0 0,0 -0.21671170851784685,-0.3778551304851433 l 3.7521729221147604 -2.1092795288641755" fill="#ff3104" stroke="none" /><path d="M 81.69416730710424 110.29060199501025 l -1.043586096780275 0.5866506784834632 a22.197176244317518,22.197176244317518 0 0,0 -0.18436719907482677,-0.33468001939382974 l 1.0535297053066184 -0.5686001406918109" fill="#ff0400" stroke="none" /><path d="M 81.35079622478065 109.6543875284942 l -1.3279324345712933 0.6874488846565908 a22.495322881454715,22.495322881454715 0 0,0 -0.17505788518451243,-0.34540581521491875 l 1.3395689895420724 -0.6644888577389871" fill="#ff0801" stroke="none" /><path d="M 81.18737489456691 109.33194174019688 l -10.312296474188706 5.115381259416816 a32.51132416365544,32.51132416365544 0 0,0 -0.24437174487505747,-0.5034781749625452 l 10.398821475678481 -4.937114128488986" fill="#ff930d" stroke="none" /><path d="M 81.02952815118164 109.00673069616217 l -4.971622448839777 2.360408580057711 a26.503504196293274,26.503504196293274 0 0,0 -0.19211933720800023,-0.41380796060742675 l 5.011516402887604 -2.274480552171457" fill="#ff4206" stroke="none" /><path d="M 80.87730276802145 108.67885076344099 l -12.177428999053914 5.526735464307337 a34.37290476745541,34.37290476745541 0 0,0 -0.23988836368348967,-0.5408849314277994 l 12.270758447468683 -5.316302196386842" fill="#ffac0f" stroke="none" /><path d="M 80.73074385275274 108.34839909993369 l -12.553682293773344 5.438878862854427 a34.68124052919921,34.68124052919921 0 0,0 -0.23261041426530085,-0.549822307317604 l 12.64544368923095 -5.221982029870665" fill="#ffb010" stroke="none" /><path d="M 80.58989483394504 108.01547362559985 l -7.161534663960104 2.957381823885207 a28.74814080895209,28.74814080895209 0 0,0 -0.18494279372618724,-0.4590128469802705 l 7.211380071943679 -2.8336696090621314" fill="#ff6108" stroke="none" /><path d="M 80.45479744820244 107.68017299344265 l -2.02617156888229 0.7961722638673765 a23.176984497027625,23.176984497027625 0 0,0 -0.14271031796372516,-0.37257160752713253 l 2.0395761664395238 -0.7611770895070861" fill="#ff1202" stroke="none" /><path d="M 80.20201598880116 107.00284435728193 l -12.675302142523623 4.483444780812316 a34.44487119710922,34.44487119710922 0 0,0 -0.19290631808378758,-0.5606760577973895 l 12.750599291550639 -4.26459601992563" fill="#ffad10" stroke="none" /><path d="M 79.97269907076064 106.31721596034903 l -17.19913625567462 5.425127352030653 a39.03447517193146,39.03447517193146 0 0,0 -0.19660963916497678,-0.6425316765487368 l 17.28997266734573 -5.128268702929868" fill="#ffe715" stroke="none" /><path d="M 79.86692584326677 105.97154293290107 l -12.825154284079744 3.803987350975373 a34.37740266930878,34.37740266930878 0 0,0 -0.1633865671965865,-0.568770074715223 l 12.888733488162435 -3.582659800755554" fill="#ffac0f" stroke="none" /><path d="M 79.76711848015287 105.62410040840567 l -16.225779263486796 4.510252862053329 a37.840970684228935,37.840970684228935 0 0,0 -0.169044488237239,-0.6290774268239501 l 16.30101182806581 -4.2302845020538395" fill="#ffd814" stroke="none" /><path d="M 79.67330655649465 105.27499134158121 l -4.477369460332447 1.161924599392239 a25.62567898356452,25.62567898356452 0 0,0 -0.10712593706018426,-0.4279148674321627 l 4.49670671168769 -1.0846818925626842" fill="#ff3505" stroke="none" /><path d="M 79.58551787078972 104.9243191809786 l -7.680684171993457 1.8527112346909802 a28.900977678051053,28.900977678051053 0 0,0 -0.11249283616464528,-0.48461619398623823 l 7.711437574088658 -1.7202263833561677" fill="#ff6309" stroke="none" /><path d="M 79.50377843672027 104.57218783832718 l -11.692988086212953 2.6084094454398823 a32.980391071220424,32.980391071220424 0 0,0 -0.1188329996975126,-0.5551482130441411 l 11.736155124634907 -2.4067474129795774" fill="#ff9a0e" stroke="none" /><path d="M 79.4281124754447 104.21870165774334 l -9.853266299261916 2.0206211423850093 a31.058318277188484,31.058318277188484 0 0,0 -0.10289187067652793,-0.5246434318660504 l 9.88658810291411 -1.8507139834510042" fill="#ff800b" stroke="none" /><path d="M 79.35854240842038 103.8639653848113 l -12.52409431714533 2.344440391520727 a33.74163801142325,33.74163801142325 0 0,0 -0.10195366538705081,-0.5718102994196662 l 12.56259442487157 -2.128511341367847" fill="#ffa40f" stroke="none" /><path d="M 79.23777060512086 103.15116336523772 l -14.953814817518186 2.269597957295213 a36.12506702412869,36.12506702412869 0 0,0 -0.08801777792278619,-0.6155961337902841 l 14.990666646457571 -2.0118563515245285" fill="#ffc212" stroke="none" /><path d="M 79.1416061653843 102.43462659150553 l -12.658272123916847 1.4774946795882555 a33.744208241053734,33.744208241053734 0 0,0 -0.062374881027949726,-0.5775139312819314 l 12.681829306445849 -1.2593844264215421" fill="#ffa40f" stroke="none" /><path d="M 79.10278846688536 102.07522291339032 l -12.660180633232123 1.2572345786953787 a33.72245308310992,33.72245308310992 0 0,0 -0.05239088792208793,-0.5781290825579694 l 12.679946117431287 -1.039124107588843" fill="#ffa30f" stroke="none" /><path d="M 79.07016306316243 101.71520430193888 l -11.211942139016719 0.9188208894300635 a32.249527917006645,32.249527917006645 0 0,0 -0.04057826233418593,-0.5536581499704077 l 11.22609696001524 -0.7256896029628951" fill="#ff900d" stroke="none" /><path d="M 79.0095281055655 100.63252640178507 l -5.563306939243244 0.16764456454352017 a26.56583226483273,26.56583226483273 0 0,0 -0.009839398956022637,-0.45719820631055885 l 5.5653684008842745 -0.0718565424428325" fill="#ff4206" stroke="none" /><line stroke="#e1ed5e" stroke-width="0.3" x1="15.007084014347285" x2="10.007500721073583" y1="101.09737516637583" y2="101.16192664675087" /><path d="M 14.007167355692545 101.11028546245083 a86.0,86.0 0 0,1 10.666146001902534,-42.60595125391555" fill="none" id="id34" stroke="none" /><text fill="#e1ed5e" style="font-size:6.75px; font-family:Arial;" text-anchor="middle"><textPath startOffset="22.20632615414155" xlink:href="#id34">October</textPath></text><path d="M 79.00175016825051 100.2711162175752 l -13.948116210436016 0.1800893188514721 a34.949278762093485,34.949278762093485 0 0,0 -0.0025890803666716003,-0.6016110960054466 l 13.94914958809219 0.060031255357649915" fill="#ffb310" stroke="none" /><path d="M 79.00019446554 99.90962569577889 l -6.209250111783184 -0.026721993099720794 a27.209307611609745,27.209307611609745 0 0,0 0.006046935474060512,-0.46834181642267336 l 6.207870169191409 0.1336000675828661" fill="#ff4b07" stroke="none" /><path d="M 79.00486145842228 99.54816195383935 l -7.5584884838976665 -0.1626668317395843 a28.560238664179977,28.560238664179977 0 0,0 0.014808219285490051,-0.49141270600167264 l 7.5545685701565315 0.2927496851662513" fill="#ff5e08" stroke="none" /><path d="M 79.01574976396665 99.18683210126434 l -11.903254184842137 -0.4612670972148177 a32.912188192096984,32.912188192096984 0 0,0 0.02680994214794408,-0.5659155053761699 l 11.893550634460693 0.6660937092139967" fill="#ff990e" stroke="none" /><path d="M 79.03285615573316 98.82574320788736 l -10.447950506871717 -0.5851334324539162 a31.464322764891012,31.464322764891012 0 0,0 0.03493949577731651,-0.5404985350881927 l 10.436330420089988 0.7648910317951207" fill="#ff850c" stroke="none" /><path d="M 79.05617556472873 98.46500227214037 l -10.629222823422763 -0.7790283447654565 a31.657732544585617,31.657732544585617 0 0,0 0.04451004259443793,-0.5431352594558373 l 10.614238297008828 0.9618775214290721" fill="#ff880c" stroke="none" /><path d="M 79.08570108090925 98.10471618934814 l -14.211862169384597 -1.2878993645951569 a35.270098496328245,35.270098496328245 0 0,0 0.059997585512369014,-0.604167498266388 l 14.187587458189999 1.5323423935659752" fill="#ffb711" stroke="none" /><path d="M 79.16333360222342 97.38593545837743 l -9.064551010778873 -1.1371934901033147 a30.135605839841475,30.135605839841475 0 0,0 0.06900192855217546,-0.5141445153897303 l 9.043633083168864 1.2930563475577044" fill="#ff740a" stroke="none" /><path d="M 79.21141760316559 97.0276538004421 l -12.949852302305946 -1.8515665734598878 a34.08155088005595,34.08155088005595 0 0,0 0.088034441794838,-0.580036977885051 l 12.916061967071805 2.074202663737031" fill="#ffa80f" stroke="none" /><path d="M 79.26566170972629 96.67025291283419 l -34.03673712361201 -5.465991955341991 a55.47283774332673,55.47283774332673 0 0,0 0.1595191146433435,-0.9414908444843705 l 33.93760614744845 6.051068588142189" fill="#5dff2a" stroke="none" /><path d="M 79.32604984820605 96.31383870115002 l -8.690758477523705 -1.549560549497623 a29.82782084158993,29.82782084158993 0 0,0 0.09447504336308078,-0.5046894593588418 l 8.662797710250763 1.6989280863190375" fill="#ff6f0a" stroke="none" /><path d="M 79.46518482838121 95.60439243477599 l -19.28846032141925 -4.128817396298476 a40.725410887049776,40.725410887049776 0 0,0 0.1526342108790069,-0.6842292388094724 l 19.214531723538208 4.460224804657908" fill="#fffc17" stroke="none" /><path d="M 79.62865764111835 94.90015583598534 l -8.865772514073724 -2.2194933165839035 a30.13936939037184,30.13936939037184 0 0,0 0.13032215694102578,-0.5021844324473461 l 8.826254025262392 2.3717741745801133" fill="#ff740a" stroke="none" /><path d="M 79.71946130924805 94.55025226153421 l -13.134952456862692 -3.5295994124300556 a34.60092085324629,34.60092085324629 0 0,0 0.1595155661514536,-0.5738623630705467 l 13.072250120144878 3.7551730789195448" fill="#ffaf10" stroke="none" /><path d="M 79.81627453868168 94.20196356495316 l -6.77530538292024 -1.9462941835998764 a28.0493137312041,28.0493137312041 0 0,0 0.13730019245863836,-0.46290799338867256 l 6.740799293349895 2.062631563735088" fill="#ff5708" stroke="none" /><path d="M 79.91906864156998 93.8553929516997 l -8.776249450436824 -2.685463301888001 a30.177922834829232,30.177922834829232 0 0,0 0.1562706485501895,-0.49542066070970875 l 8.72872331811843 2.8361341290241247" fill="#ff740a" stroke="none" /><path d="M 80.02781315780177 93.51064311812611 l -11.764273391073065 -3.82244413662832 a33.369689066324746,33.369689066324746 0 0,0 0.1822028025875854,-0.5447631885264298 l 11.696733294713706 4.024380428077072" fill="#ff9f0e" stroke="none" /><path d="M 80.14247586403 93.16781622104843 l -13.47161958769212 -4.635048165773781 a35.24669104790768,35.24669104790768 0 0,0 0.20232761987970174,-0.5720074271302313 l 13.389838887002607 4.866253219330623" fill="#ffb711" stroke="none" /><path d="M 80.52162464483688 92.15188598940014 l -20.635946889740353 -8.31451601862867 a43.247999475463345,43.247999475463345 0 0,0 0.2841564768176643,-0.6881074477035314 l 20.489768726036488 8.668498036785513" fill="#e4ff1a" stroke="none" /><path d="M 80.65960295795068 91.81776055985345 l -13.320729460550305 -5.635530528492586 a35.46378365776897,35.46378365776897 0 0,0 0.24268929408336753,-0.5601603512132262 l 13.221749456624257 5.863990024292411" fill="#ffba11" stroke="none" /><path d="M 80.803312248108 91.48605970444005 l -13.205806293058309 -5.856919057442442 a35.446342813847764,35.446342813847764 0 0,0 0.25217149945293366,-0.5556264724456048 l 13.103032476642024 6.083367538730118" fill="#ffba11" stroke="none" /><path d="M 81.10775173730289 90.83032412892265 l -17.61626726845381 -8.550356668186678 a40.58166161557291,40.58166161557291 0 0,0 0.3104303617264104,-0.6258086665230014 l 17.46647689377399 8.852324923208641" fill="#fffa17" stroke="none" /><path d="M 81.43458229118936 90.18545643968196 l -9.849501600140124 -5.20690479569018 a32.141119302949065,32.141119302949065 0 0,0 0.26277951744615197,-0.48689053653561126 l 9.7584139834755 5.375676315558264" fill="#ff8e0d" stroke="none" /><line stroke="#e1ed5e" stroke-width="0.3" x1="26.266209847984243" x2="21.928928074336255" y1="57.711370442889674" y2="55.22380399835377" /><path d="M 25.398753493254645 57.213857153982495 a86.0,86.0 0 0,1 29.58750427330803,-30.492523968695096" fill="none" id="id35" stroke="none" /><text fill="#e1ed5e" style="font-size:6.75px; font-family:Arial;" text-anchor="middle"><textPath startOffset="21.46611528233685" xlink:href="#id35">November</textPath></text><path d="M 81.78341655067845 89.55222093294921 l -12.467073832148452 -7.150255884878807 a35.37198974239422,35.37198974239422 0 0,0 0.307467358200427,-0.5255613821730455 l 12.3421467994777 7.363796679405744" fill="#ffb911" stroke="none" /><path d="M 81.96595687620814 89.24020034530311 l -16.097496113388065 -9.604381664908594 a39.744960076932045,39.744960076932045 0 0,0 0.355592861723836,-0.5845011678264214 l 15.929787453378013 9.88005060594209" fill="#fff016" stroke="none" /><path d="M 82.34701348167596 88.62581576622439 l -16.426753158849483 -10.584096724798714 a40.54127229280802,40.54127229280802 0 0,0 0.3830249918935159,-0.5833733404880617 l 16.242131531598044 10.865288129264442" fill="#fff917" stroke="none" /><path d="M 82.95767976084542 87.72973835380427 l -10.064037386361925 -7.245983540670901 a33.40117437929828,33.40117437929828 0 0,0 0.3399561786098942,-0.46369984557346194 l 9.937818595238396 7.418145829915863" fill="#ff9f0e" stroke="none" /><path d="M 83.39014120810768 87.1503855733568 l -10.85509644699825 -8.397651398218844 a34.72420008159459,34.72420008159459 0 0,0 0.3698059834708156,-0.4696160446223364 l 10.708936382933464 8.583259836794229" fill="#ffb010" stroke="none" /><path d="M 83.84228863543731 86.58626213691792 l -8.697930134493927 -7.220809441576598 a32.30460426623149,32.30460426623149 0 0,0 0.3588724433719226,-0.4247917787568051 l 8.57234707763488 7.36946016996252" fill="#ff910d" stroke="none" /><path d="M 84.31358615837235 86.03803664274999 l -7.453766418646482 -6.634353438672535 a30.9786411586432,30.9786411586432 0 0,0 0.35796020391515737,-0.3952685977445265 l 7.33846257411528 6.761674823686617" fill="#ff7f0b" stroke="none" /><path d="M 84.5562425177563 85.77008943001954 l -10.871633889707148 -10.017146292148722 a35.78295110152698,35.78295110152698 0 0,0 0.4212721346967019,-0.44938374094428235 l 10.69759443303999 10.202799449971053" fill="#ffbe11" stroke="none" /><path d="M 84.80347519578584 85.50635884689758 l -21.57360942335991 -20.57576698540035 a50.812460659750556,50.812460659750556 0 0,0 0.6091101046304113,-0.6277415051114325 l 21.21623505502638 20.944072686061908" fill="#8eff24" stroke="none" /><path d="M 85.05521093208273 85.24692304244772 l -14.084492520395312 -13.903816314646683 a40.7911353304581,40.7911353304581 0 0,0 0.4975823115330304,-0.4954455349561697 l 13.843074408694967 14.144197700252963" fill="#fffc17" stroke="none" /><path d="M 85.31137513191541 84.99185889309783 l -6.718710391964284 -6.864860020906712 a30.605590686560205,30.605590686560205 0 0,0 0.3796794863327791,-0.3652513650324668 l 6.599547662019077 6.979494472701492" fill="#ff7a0b" stroke="none" /><path d="M 85.57189188830299 84.74124197986013 l -14.57509688066337 -15.414209174232447 a42.21394101876676,42.21394101876676 0 0,0 0.5322818464627799,-0.49469796611589634 l 14.307607150405735 15.66281172642299" fill="#f0ff19" stroke="none" /><path d="M 85.83668400450813 84.49514656593479 l -4.98460728549816 -5.4567451162300085 a28.390695302482804,28.390695302482804 0 0,0 0.3636564328989783,-0.3264943360609037 l 4.8899398650032095 5.541738461060191" fill="#ff5c08" stroke="none" /><path d="M 86.10567301691215 84.25364557470407 l -9.589721475326183 -10.86797175380706 a35.49398385592727,35.49398385592727 0 0,0 0.46160129056119253,-0.40029609048001363 l 9.401226386118218 11.031432837706754" fill="#ffba11" stroke="none" /><path d="M 86.37877921826538 84.01681056812374 l -6.909824289176978 -8.108012660876277 a31.65295926098613,31.65295926098613 0 0,0 0.4177323377201254,-0.3498388195016995 l 6.769234414497742 8.225752637771789" fill="#ff880c" stroke="none" /><path d="M 86.93701828274178 83.55741782278169 l -14.59781354890817 -18.374499335670215 a44.467389847301554,44.467389847301554 0 0,0 0.603417069691201,-0.47097659413694126 l 14.279363924057543 18.623054319030377" fill="#d6ff1c" stroke="none" /><path d="M 87.51073957382395 83.11751280151077 l -17.58974540083973 -23.777120615722826 a50.576183121575944,50.576183121575944 0 0,0 0.704344839754938,-0.511736480463085 l 17.17785524473101 24.076376331002578" fill="#91ff24" stroke="none" /><path d="M 88.09926311788651 82.69761687909137 l -10.618120017628915 -15.43759704871127 a39.73669862454832,39.73669862454832 0 0,0 0.5669013508427044,-0.38277432268210143 l 10.35081397237967 15.618083283692037" fill="#fff016" stroke="none" /><path d="M 88.39885842347998 82.49532879139004 l -13.95275950586354 -21.052968450731743 a46.256820433616966,46.256820433616966 0 0,0 0.6674924701791004,-0.43415567011548134 l 13.588300009900152 21.290023045006762" fill="#c1ff1e" stroke="none" /><path d="M 88.70189139769569 82.29822771554957 l -6.658709993693726 -10.432805362883503 a33.37666540389323,33.37666540389323 0 0,0 0.4869510017825173,-0.30492867264324297 l 6.478139839538967 10.545878376849677" fill="#ff9f0e" stroke="none" /><path d="M 89.00827224532344 82.1063720568725 l -5.397625070299017 -8.786889280744386 a31.312312041030424,31.312312041030424 0 0,0 0.46168950487299454,-0.2781627608068537 l 5.245573499208373 8.87849865100986" fill="#ff830c" stroke="none" /><line stroke="#e1ed5e" stroke-width="0.3" x1="56.762969772571076" x2="54.21961505331055" y1="26.818313649435495" y2="22.513508569990535" /><path d="M 56.25429882871897 25.957352633546506 a86.0,86.0 0 0,1 42.265352541879196,-11.944610805530505" fill="none" id="id36" stroke="none" /><text fill="#e1ed5e" style="font-size:6.75px; font-family:Arial;" text-anchor="middle"><textPath startOffset="22.20632615414155" xlink:href="#id36">December</textPath></text><path d="M 89.63071344664047 81.73862282372117 l -14.62498184115173 -25.75609307575479 a50.618683704394456,50.618683704394456 0 0,0 0.761391563099981,-0.4237135805239878 l 14.179466188979703 26.004022053838963" fill="#90ff24" stroke="none" /><path d="M 89.94658935756843 81.56283822128135 l -2.809746049900003 -5.152852531505915 a26.869119361230915,26.869119361230915 0 0,0 0.4079691335119378,-0.21792298225625475 l 2.72063186985976 5.200454240263919" fill="#ff4706" stroke="none" /><path d="M 90.58718382345135 81.22770947309562 l -5.99079557824635 -11.947641701781356 a34.36546946031006,34.36546946031006 0 0,0 0.5310753458355392,-0.2605963657665942 l 5.784248965400384 12.048993227682779" fill="#ffac0f" stroke="none" /><path d="M 90.91171255644093 81.06846463323043 l -4.289909500674376 -8.936180103966128 a30.912549539573376,30.912549539573376 0 0,0 0.4816790358870793,-0.22615476595971337 l 4.135452253487689 9.008699852565849" fill="#ff7e0b" stroke="none" /><path d="M 91.90106846888425 80.62456947434976 l -9.118236677104095 -21.813959109903376 a44.64299160741345,44.64299160741345 0 0,0 0.7115585428967541,-0.290262595818583 l 8.741394264618961 21.967682591905536" fill="#d4ff1c" stroke="none" /><path d="M 92.23578459929587 80.48803036053334 l -1.769279974076996 -4.446313678362902 a25.785400396316586,25.785400396316586 0 0,0 0.41381495384679556,-0.1605537730915171 l 1.692481855230524 4.476110155344971" fill="#ff3705" stroke="none" /><path d="M 92.57280143429618 80.3572730644239 l -1.585086589806167 -4.19208168158833 a25.481746124256905,25.481746124256905 0 0,0 0.4116123169297271,-0.1516002900644556 l 1.5126919471038704 4.218745239459108" fill="#ff3304" stroke="none" /><path d="M 92.91201910852362 80.23233633223022 l -4.898681723098069 -13.661929144603457 a35.51362775381746,35.51362775381746 0 0,0 0.577211440636927,-0.20137773779449114 l 4.662788278397857 13.744227735570158" fill="#ffba11" stroke="none" /><path d="M 93.25333710446033 80.11325718540243 l -0.3775386629649381 -1.1128485903622714 a22.175145704627578,22.175145704627578 0 0,0 0.3625289733179095,-0.11952010268169726 l 0.3583268674046193 1.1191824173032023" fill="#ff0400" stroke="none" /><path d="M 93.59665428221793 80.00007090966166 l -1.4149460866300836 -4.41938053112885 a25.64036601002448,25.64036601002448 0 0,0 0.4214966378910048,-0.1309610571332338 l 1.33866407602835 4.443081723144609" fill="#ff3505" stroke="none" /><path d="M 93.94186890950719 79.89281104454417 l -0.3026770531137058 -1.0045977230484042 a22.04920445273342,22.04920445273342 0 0,0 0.3643471255483235,-0.10636291700357915 l 0.285339709841961 1.0096589689706823" fill="#ff0200" stroke="none" /><path d="M 94.28887869178378 79.79150937346287 l -5.275689083168099 -18.66773749532309 a40.39889993006177,40.39889993006177 0 0,0 0.6708181751739118,-0.18335994757840465 l 4.953573018770465 18.75578398372779" fill="#fff817" stroke="none" /><path d="M 94.98787191387505 79.60689891045804 l -3.2516465771935517 -13.230140215239125 a34.62386933208999,34.62386933208999 0 0,0 0.5799931950825526,-0.13726565044746775 l 3.023429695148465 13.284151777827464" fill="#ffaf10" stroke="none" /><path d="M 95.33964822691252 79.52364482259891 l -2.2985057025629754 -10.09902716244545 a31.357291059564055,31.357291059564055 0 0,0 0.5273359756438474,-0.1152552193370217 l 2.124327002765607 10.13709587987834" fill="#ff840c" stroke="none" /><path d="M 95.692805502759 79.44645832069477 l -2.25764343344647 -10.773269801508887 a32.00728377433267,32.00728377433267 0 0,0 0.5402122148257616,-0.10836148824138753 l 2.071864809153572 10.810535245827484" fill="#ff8d0d" stroke="none" /><path d="M 96.04723909329186 79.375362276772 l -4.174018069187753 -21.77910897193598 a43.17548228231729,43.17548228231729 0 0,0 0.731114864206077,-0.13360656826505746 l 3.798508083878782 21.847731021551773" fill="#e5ff1a" stroke="none" /><path d="M 98.91598698831166 79.02799685794201 l -0.3778898547113153 -7.310896764988346 a28.32065654505187,28.32065654505187 0 0,0 0.48706022590470355,-0.020973837885860293 l 0.25198879641728766 7.316318329398399" fill="#ff5b08" stroke="none" /></svg>